solid ElectronicsCover
facet normal 0.0 0.0 -1.0
  outer loop
    vertex 0.0 36.0 0.0
    vertex 2.1999999999999975 32.0 1.127986593019159e-14
    vertex 0.0 0.0 0.0
  endloop
endfacet
facet normal 0.0 0.0 -1.0
  outer loop
    vertex 2.1999999999999975 32.0 1.127986593019159e-14
    vertex 0.0 36.0 0.0
    vertex 2.2613335126796743 32.46587428118454 1.127986593019159e-14
  endloop
endfacet
facet normal 0.0 0.0 -1.0
  outer loop
    vertex 2.2613335126796743 32.46587428118454 1.127986593019159e-14
    vertex 0.0 36.0 0.0
    vertex 2.441154273188008 32.9 1.127986593019159e-14
  endloop
endfacet
facet normal 0.0 0.0 -1.0
  outer loop
    vertex 2.441154273188008 32.9 1.127986593019159e-14
    vertex 0.0 36.0 0.0
    vertex 2.727207793864212 33.27279220613579 1.127986593019159e-14
  endloop
endfacet
facet normal 0.0 0.0 -1.0
  outer loop
    vertex 2.727207793864212 33.27279220613579 1.127986593019159e-14
    vertex 0.0 36.0 0.0
    vertex 3.099999999999998 33.558845726811995 1.127986593019159e-14
  endloop
endfacet
facet normal 0.0 0.0 -1.0
  outer loop
    vertex 3.099999999999998 33.558845726811995 1.127986593019159e-14
    vertex 0.0 36.0 0.0
    vertex 3.5341257188154604 33.73866648732032 1.127986593019159e-14
  endloop
endfacet
facet normal 0.0 0.0 -1.0
  outer loop
    vertex 3.5341257188154604 33.73866648732032 1.127986593019159e-14
    vertex 0.0 36.0 0.0
    vertex 3.9999999999999996 33.800000000000004 1.127986593019159e-14
  endloop
endfacet
facet normal 0.0 0.0 -1.0
  outer loop
    vertex 3.9999999999999996 33.800000000000004 1.127986593019159e-14
    vertex 0.0 36.0 0.0
    vertex 78.5 36.0 0.0
  endloop
endfacet
facet normal 0.0 0.0 -1.0
  outer loop
    vertex 3.9999999999999996 33.800000000000004 1.127986593019159e-14
    vertex 78.5 36.0 0.0
    vertex 4.465874281184537 33.73866648732032 1.127986593019159e-14
  endloop
endfacet
facet normal 0.0 0.0 -1.0
  outer loop
    vertex 4.465874281184537 33.73866648732032 1.127986593019159e-14
    vertex 78.5 36.0 0.0
    vertex 4.900000000000001 33.558845726811995 1.127986593019159e-14
  endloop
endfacet
facet normal 0.0 0.0 -1.0
  outer loop
    vertex 4.900000000000001 33.558845726811995 1.127986593019159e-14
    vertex 78.5 36.0 0.0
    vertex 5.272792206135787 33.27279220613579 1.127986593019159e-14
  endloop
endfacet
facet normal 0.0 0.0 -1.0
  outer loop
    vertex 5.272792206135787 33.27279220613579 1.127986593019159e-14
    vertex 78.5 36.0 0.0
    vertex 5.558845726811991 32.900000000000006 1.127986593019159e-14
  endloop
endfacet
facet normal 0.0 0.0 -1.0
  outer loop
    vertex 5.558845726811991 32.900000000000006 1.127986593019159e-14
    vertex 78.5 36.0 0.0
    vertex 5.738666487320325 32.46587428118454 1.127986593019159e-14
  endloop
endfacet
facet normal 0.0 0.0 -1.0
  outer loop
    vertex 5.738666487320325 32.46587428118454 1.127986593019159e-14
    vertex 78.5 36.0 0.0
    vertex 5.8000000000000025 32.0 1.127986593019159e-14
  endloop
endfacet
facet normal 0.0 0.0 -1.0
  outer loop
    vertex 5.8000000000000025 32.0 1.127986593019159e-14
    vertex 78.5 36.0 0.0
    vertex 7.1 4.558845726811989 1.4804824033376462e-14
  endloop
endfacet
facet normal 0.0 0.0 -1.0
  outer loop
    vertex 5.8000000000000025 32.0 1.127986593019159e-14
    vertex 7.1 4.558845726811989 1.4804824033376462e-14
    vertex 6.727207793864213 4.272792206135786 1.4804824033376462e-14
  endloop
endfacet
facet normal 0.0 0.0 -1.0
  outer loop
    vertex 5.8000000000000025 32.0 1.127986593019159e-14
    vertex 6.727207793864213 4.272792206135786 1.4804824033376462e-14
    vertex 6.441154273188009 3.9 1.4804824033376462e-14
  endloop
endfacet
facet normal 0.0 0.0 -1.0
  outer loop
    vertex 5.8000000000000025 32.0 1.127986593019159e-14
    vertex 6.441154273188009 3.9 1.4804824033376462e-14
    vertex 6.261333512679676 3.4658742811845373 1.4804824033376462e-14
  endloop
endfacet
facet normal 0.0 0.0 -1.0
  outer loop
    vertex 5.8000000000000025 32.0 1.127986593019159e-14
    vertex 6.261333512679676 3.4658742811845373 1.4804824033376462e-14
    vertex 6.2 3.0 1.4804824033376462e-14
  endloop
endfacet
facet normal 0.0 0.0 -1.0
  outer loop
    vertex 7.1 4.558845726811989 1.4804824033376462e-14
    vertex 78.5 36.0 0.0
    vertex 7.534125718815462 4.738666487320322 1.4804824033376462e-14
  endloop
endfacet
facet normal 0.0 0.0 -1.0
  outer loop
    vertex 7.534125718815462 4.738666487320322 1.4804824033376462e-14
    vertex 78.5 36.0 0.0
    vertex 7.999999999999999 4.8 1.4804824033376462e-14
  endloop
endfacet
facet normal 0.0 0.0 -1.0
  outer loop
    vertex 7.999999999999999 4.8 1.4804824033376462e-14
    vertex 78.5 36.0 0.0
    vertex 8.465874281184536 4.738666487320323 1.4804824033376462e-14
  endloop
endfacet
facet normal 0.0 0.0 -1.0
  outer loop
    vertex 8.465874281184536 4.738666487320323 1.4804824033376462e-14
    vertex 78.5 36.0 0.0
    vertex 8.899999999999999 4.558845726811989 1.4804824033376462e-14
  endloop
endfacet
facet normal 0.0 0.0 -1.0
  outer loop
    vertex 8.899999999999999 4.558845726811989 1.4804824033376462e-14
    vertex 78.5 36.0 0.0
    vertex 9.272792206135785 4.272792206135786 1.4804824033376462e-14
  endloop
endfacet
facet normal 0.0 0.0 -1.0
  outer loop
    vertex 9.272792206135785 4.272792206135786 1.4804824033376462e-14
    vertex 78.5 36.0 0.0
    vertex 9.558845726811988 3.900000000000001 1.4804824033376462e-14
  endloop
endfacet
facet normal 0.0 0.0 -1.0
  outer loop
    vertex 9.558845726811988 3.900000000000001 1.4804824033376462e-14
    vertex 78.5 36.0 0.0
    vertex 9.738666487320323 3.4658742811845373 1.4804824033376462e-14
  endloop
endfacet
facet normal 0.0 0.0 -1.0
  outer loop
    vertex 9.738666487320323 3.4658742811845373 1.4804824033376462e-14
    vertex 78.5 36.0 0.0
    vertex 9.799999999999999 3.0000000000000004 1.4804824033376462e-14
  endloop
endfacet
facet normal 0.0 0.0 -1.0
  outer loop
    vertex 9.799999999999999 3.0000000000000004 1.4804824033376462e-14
    vertex 78.5 36.0 0.0
    vertex 73.76133351267967 17.465874281184536 5.639932965095795e-15
  endloop
endfacet
facet normal 0.0 0.0 -1.0
  outer loop
    vertex 9.799999999999999 3.0000000000000004 1.4804824033376462e-14
    vertex 73.76133351267967 17.465874281184536 5.639932965095795e-15
    vertex 73.7 17.0 5.639932965095795e-15
  endloop
endfacet
facet normal 0.0 0.0 -1.0
  outer loop
    vertex 73.76133351267967 17.465874281184536 5.639932965095795e-15
    vertex 78.5 36.0 0.0
    vertex 73.941154273188 17.9 5.639932965095795e-15
  endloop
endfacet
facet normal 0.0 0.0 -1.0
  outer loop
    vertex 73.941154273188 17.9 5.639932965095795e-15
    vertex 78.5 36.0 0.0
    vertex 74.22720779386421 18.272792206135783 5.639932965095795e-15
  endloop
endfacet
facet normal 0.0 0.0 -1.0
  outer loop
    vertex 74.22720779386421 18.272792206135783 5.639932965095795e-15
    vertex 78.5 36.0 0.0
    vertex 74.6 18.558845726811988 5.639932965095795e-15
  endloop
endfacet
facet normal 0.0 0.0 -1.0
  outer loop
    vertex 74.6 18.558845726811988 5.639932965095795e-15
    vertex 78.5 36.0 0.0
    vertex 75.03412571881546 18.738666487320323 5.639932965095795e-15
  endloop
endfacet
facet normal 0.0 0.0 -1.0
  outer loop
    vertex 75.03412571881546 18.738666487320323 5.639932965095795e-15
    vertex 78.5 36.0 0.0
    vertex 75.5 18.8 5.639932965095795e-15
  endloop
endfacet
facet normal 0.0 0.0 -1.0
  outer loop
    vertex 75.5 18.8 5.639932965095795e-15
    vertex 78.5 36.0 0.0
    vertex 75.96587428118454 18.738666487320323 5.639932965095795e-15
  endloop
endfacet
facet normal 0.0 0.0 -1.0
  outer loop
    vertex 75.96587428118454 18.738666487320323 5.639932965095795e-15
    vertex 78.5 36.0 0.0
    vertex 76.39999999999999 18.558845726811988 5.639932965095795e-15
  endloop
endfacet
facet normal 0.0 0.0 -1.0
  outer loop
    vertex 76.39999999999999 18.558845726811988 5.639932965095795e-15
    vertex 78.5 36.0 0.0
    vertex 76.77279220613578 18.272792206135787 5.639932965095795e-15
  endloop
endfacet
facet normal 0.0 0.0 -1.0
  outer loop
    vertex 76.77279220613578 18.272792206135787 5.639932965095795e-15
    vertex 78.5 36.0 0.0
    vertex 77.05884572681198 17.900000000000002 5.639932965095795e-15
  endloop
endfacet
facet normal 0.0 0.0 -1.0
  outer loop
    vertex 77.05884572681198 17.900000000000002 5.639932965095795e-15
    vertex 78.5 36.0 0.0
    vertex 77.23866648732032 17.46587428118454 5.639932965095795e-15
  endloop
endfacet
facet normal 0.0 0.0 -1.0
  outer loop
    vertex 77.23866648732032 17.46587428118454 5.639932965095795e-15
    vertex 78.5 36.0 0.0
    vertex 77.3 17.0 5.639932965095795e-15
  endloop
endfacet
facet normal 0.0 0.0 -1.0
  outer loop
    vertex 0.0 0.0 0.0
    vertex 7.999999999999999 1.2000000000000006 1.4804824033376462e-14
    vertex 78.5 0.0 0.0
  endloop
endfacet
facet normal 0.0 0.0 -1.0
  outer loop
    vertex 7.999999999999999 1.2000000000000006 1.4804824033376462e-14
    vertex 0.0 0.0 0.0
    vertex 7.534125718815464 1.2613335126796776 1.4804824033376462e-14
  endloop
endfacet
facet normal 0.0 0.0 -1.0
  outer loop
    vertex 7.534125718815464 1.2613335126796776 1.4804824033376462e-14
    vertex 0.0 0.0 0.0
    vertex 7.100000000000001 1.4411542731880103 1.4804824033376462e-14
  endloop
endfacet
facet normal 0.0 0.0 -1.0
  outer loop
    vertex 7.100000000000001 1.4411542731880103 1.4804824033376462e-14
    vertex 0.0 0.0 0.0
    vertex 6.727207793864215 1.7272077938642145 1.4804824033376462e-14
  endloop
endfacet
facet normal 0.0 0.0 -1.0
  outer loop
    vertex 6.727207793864215 1.7272077938642145 1.4804824033376462e-14
    vertex 0.0 0.0 0.0
    vertex 6.441154273188011 2.0999999999999996 1.4804824033376462e-14
  endloop
endfacet
facet normal 0.0 0.0 -1.0
  outer loop
    vertex 6.441154273188011 2.0999999999999996 1.4804824033376462e-14
    vertex 0.0 0.0 0.0
    vertex 6.261333512679677 2.5341257188154613 1.4804824033376462e-14
  endloop
endfacet
facet normal 0.0 0.0 -1.0
  outer loop
    vertex 6.261333512679677 2.5341257188154613 1.4804824033376462e-14
    vertex 0.0 0.0 0.0
    vertex 2.261333512679675 31.534125718815464 1.127986593019159e-14
  endloop
endfacet
facet normal 0.0 0.0 -1.0
  outer loop
    vertex 2.261333512679675 31.534125718815464 1.127986593019159e-14
    vertex 0.0 0.0 0.0
    vertex 2.1999999999999975 32.0 1.127986593019159e-14
  endloop
endfacet
facet normal 0.0 0.0 -1.0
  outer loop
    vertex 6.261333512679677 2.5341257188154613 1.4804824033376462e-14
    vertex 2.261333512679675 31.534125718815464 1.127986593019159e-14
    vertex 2.4411542731880083 31.099999999999998 1.127986593019159e-14
  endloop
endfacet
facet normal 0.0 0.0 -1.0
  outer loop
    vertex 6.261333512679677 2.5341257188154613 1.4804824033376462e-14
    vertex 2.4411542731880083 31.099999999999998 1.127986593019159e-14
    vertex 6.2 3.0 1.4804824033376462e-14
  endloop
endfacet
facet normal 0.0 0.0 -1.0
  outer loop
    vertex 6.2 3.0 1.4804824033376462e-14
    vertex 2.4411542731880083 31.099999999999998 1.127986593019159e-14
    vertex 2.7272077938642134 30.727207793864213 1.127986593019159e-14
  endloop
endfacet
facet normal 0.0 0.0 -1.0
  outer loop
    vertex 6.2 3.0 1.4804824033376462e-14
    vertex 2.7272077938642134 30.727207793864213 1.127986593019159e-14
    vertex 3.099999999999999 30.441154273188012 1.127986593019159e-14
  endloop
endfacet
facet normal 0.0 0.0 -1.0
  outer loop
    vertex 6.2 3.0 1.4804824033376462e-14
    vertex 3.099999999999999 30.441154273188012 1.127986593019159e-14
    vertex 3.5341257188154622 30.26133351267968 1.127986593019159e-14
  endloop
endfacet
facet normal 0.0 0.0 -1.0
  outer loop
    vertex 6.2 3.0 1.4804824033376462e-14
    vertex 3.5341257188154622 30.26133351267968 1.127986593019159e-14
    vertex 3.9999999999999996 30.2 1.127986593019159e-14
  endloop
endfacet
facet normal 0.0 0.0 -1.0
  outer loop
    vertex 6.2 3.0 1.4804824033376462e-14
    vertex 3.9999999999999996 30.2 1.127986593019159e-14
    vertex 4.465874281184538 30.26133351267968 1.127986593019159e-14
  endloop
endfacet
facet normal 0.0 0.0 -1.0
  outer loop
    vertex 6.2 3.0 1.4804824033376462e-14
    vertex 4.465874281184538 30.26133351267968 1.127986593019159e-14
    vertex 4.900000000000001 30.441154273188012 1.127986593019159e-14
  endloop
endfacet
facet normal 0.0 0.0 -1.0
  outer loop
    vertex 6.2 3.0 1.4804824033376462e-14
    vertex 4.900000000000001 30.441154273188012 1.127986593019159e-14
    vertex 5.272792206135787 30.72720779386422 1.127986593019159e-14
  endloop
endfacet
facet normal 0.0 0.0 -1.0
  outer loop
    vertex 6.2 3.0 1.4804824033376462e-14
    vertex 5.272792206135787 30.72720779386422 1.127986593019159e-14
    vertex 5.558845726811991 31.100000000000005 1.127986593019159e-14
  endloop
endfacet
facet normal 0.0 0.0 -1.0
  outer loop
    vertex 6.2 3.0 1.4804824033376462e-14
    vertex 5.558845726811991 31.100000000000005 1.127986593019159e-14
    vertex 5.738666487320326 31.534125718815464 1.127986593019159e-14
  endloop
endfacet
facet normal 0.0 0.0 -1.0
  outer loop
    vertex 6.2 3.0 1.4804824033376462e-14
    vertex 5.738666487320326 31.534125718815464 1.127986593019159e-14
    vertex 5.8000000000000025 32.0 1.127986593019159e-14
  endloop
endfacet
facet normal 0.0 0.0 -1.0
  outer loop
    vertex 78.5 0.0 0.0
    vertex 7.999999999999999 1.2000000000000006 1.4804824033376462e-14
    vertex 8.465874281184538 1.2613335126796779 1.4804824033376462e-14
  endloop
endfacet
facet normal 0.0 0.0 -1.0
  outer loop
    vertex 78.5 0.0 0.0
    vertex 8.465874281184538 1.2613335126796779 1.4804824033376462e-14
    vertex 8.9 1.4411542731880111 1.4804824033376462e-14
  endloop
endfacet
facet normal 0.0 0.0 -1.0
  outer loop
    vertex 78.5 0.0 0.0
    vertex 8.9 1.4411542731880111 1.4804824033376462e-14
    vertex 9.272792206135785 1.7272077938642156 1.4804824033376462e-14
  endloop
endfacet
facet normal 0.0 0.0 -1.0
  outer loop
    vertex 78.5 0.0 0.0
    vertex 9.272792206135785 1.7272077938642156 1.4804824033376462e-14
    vertex 9.55884572681199 2.100000000000001 1.4804824033376462e-14
  endloop
endfacet
facet normal 0.0 0.0 -1.0
  outer loop
    vertex 78.5 0.0 0.0
    vertex 9.55884572681199 2.100000000000001 1.4804824033376462e-14
    vertex 9.738666487320323 2.5341257188154636 1.4804824033376462e-14
  endloop
endfacet
facet normal 0.0 0.0 -1.0
  outer loop
    vertex 78.5 0.0 0.0
    vertex 9.738666487320323 2.5341257188154636 1.4804824033376462e-14
    vertex 9.799999999999999 3.0000000000000004 1.4804824033376462e-14
  endloop
endfacet
facet normal 0.0 0.0 -1.0
  outer loop
    vertex 78.5 0.0 0.0
    vertex 9.799999999999999 3.0000000000000004 1.4804824033376462e-14
    vertex 73.76133351267967 16.53412571881546 5.639932965095795e-15
  endloop
endfacet
facet normal 0.0 0.0 -1.0
  outer loop
    vertex 73.76133351267967 16.53412571881546 5.639932965095795e-15
    vertex 9.799999999999999 3.0000000000000004 1.4804824033376462e-14
    vertex 73.7 17.0 5.639932965095795e-15
  endloop
endfacet
facet normal 0.0 0.0 -1.0
  outer loop
    vertex 78.5 0.0 0.0
    vertex 73.76133351267967 16.53412571881546 5.639932965095795e-15
    vertex 73.941154273188 16.099999999999998 5.639932965095795e-15
  endloop
endfacet
facet normal 0.0 0.0 -1.0
  outer loop
    vertex 78.5 0.0 0.0
    vertex 73.941154273188 16.099999999999998 5.639932965095795e-15
    vertex 74.22720779386421 15.727207793864215 5.639932965095795e-15
  endloop
endfacet
facet normal 0.0 0.0 -1.0
  outer loop
    vertex 78.5 0.0 0.0
    vertex 74.22720779386421 15.727207793864215 5.639932965095795e-15
    vertex 74.6 15.44115427318801 5.639932965095795e-15
  endloop
endfacet
facet normal 0.0 0.0 -1.0
  outer loop
    vertex 78.5 0.0 0.0
    vertex 74.6 15.44115427318801 5.639932965095795e-15
    vertex 75.03412571881546 15.261333512679677 5.639932965095795e-15
  endloop
endfacet
facet normal 0.0 0.0 -1.0
  outer loop
    vertex 78.5 0.0 0.0
    vertex 75.03412571881546 15.261333512679677 5.639932965095795e-15
    vertex 75.5 15.200000000000001 5.639932965095795e-15
  endloop
endfacet
facet normal 0.0 0.0 -1.0
  outer loop
    vertex 78.5 0.0 0.0
    vertex 75.5 15.200000000000001 5.639932965095795e-15
    vertex 75.96587428118454 15.261333512679677 5.639932965095795e-15
  endloop
endfacet
facet normal 0.0 0.0 -1.0
  outer loop
    vertex 78.5 0.0 0.0
    vertex 75.96587428118454 15.261333512679677 5.639932965095795e-15
    vertex 76.39999999999999 15.44115427318801 5.639932965095795e-15
  endloop
endfacet
facet normal 0.0 0.0 -1.0
  outer loop
    vertex 78.5 0.0 0.0
    vertex 76.39999999999999 15.44115427318801 5.639932965095795e-15
    vertex 76.77279220613578 15.727207793864215 5.639932965095795e-15
  endloop
endfacet
facet normal 0.0 0.0 -1.0
  outer loop
    vertex 78.5 0.0 0.0
    vertex 76.77279220613578 15.727207793864215 5.639932965095795e-15
    vertex 77.05884572681198 16.1 5.639932965095795e-15
  endloop
endfacet
facet normal 0.0 0.0 -1.0
  outer loop
    vertex 78.5 0.0 0.0
    vertex 77.05884572681198 16.1 5.639932965095795e-15
    vertex 77.23866648732032 16.534125718815464 5.639932965095795e-15
  endloop
endfacet
facet normal 0.0 0.0 -1.0
  outer loop
    vertex 78.5 0.0 0.0
    vertex 77.23866648732032 16.534125718815464 5.639932965095795e-15
    vertex 77.3 17.0 5.639932965095795e-15
  endloop
endfacet
facet normal 0.0 0.0 -1.0
  outer loop
    vertex 78.5 0.0 0.0
    vertex 77.3 17.0 5.639932965095795e-15
    vertex 78.5 36.0 0.0
  endloop
endfacet
facet normal -0.0 -0.0 1.0
  outer loop
    vertex 7.999999999999999 0.0 1.9999999999999998
    vertex 0.0 3.0 1.9999999999999998
    vertex 0.0 0.0 1.9999999999999998
  endloop
endfacet
facet normal -0.0 -0.0 1.0
  outer loop
    vertex 0.0 3.0 1.9999999999999998
    vertex 7.999999999999999 0.0 1.9999999999999998
    vertex 6.441154273188011 2.0999999999999996 1.9999999999999998
  endloop
endfacet
facet normal -0.0 -0.0 1.0
  outer loop
    vertex 0.0 3.0 1.9999999999999998
    vertex 6.441154273188011 2.0999999999999996 1.9999999999999998
    vertex 6.261333512679677 2.5341257188154613 1.9999999999999998
  endloop
endfacet
facet normal -0.0 -0.0 1.0
  outer loop
    vertex 0.0 3.0 1.9999999999999998
    vertex 6.261333512679677 2.5341257188154613 1.9999999999999998
    vertex 6.2 3.0 1.9999999999999998
  endloop
endfacet
facet normal -0.0 -0.0 1.0
  outer loop
    vertex 6.441154273188011 2.0999999999999996 1.9999999999999998
    vertex 7.999999999999999 0.0 1.9999999999999998
    vertex 6.727207793864215 1.7272077938642145 1.9999999999999998
  endloop
endfacet
facet normal -0.0 -0.0 1.0
  outer loop
    vertex 6.727207793864215 1.7272077938642145 1.9999999999999998
    vertex 7.999999999999999 0.0 1.9999999999999998
    vertex 7.100000000000001 1.4411542731880103 1.9999999999999998
  endloop
endfacet
facet normal -0.0 -0.0 1.0
  outer loop
    vertex 7.100000000000001 1.4411542731880103 1.9999999999999998
    vertex 7.999999999999999 0.0 1.9999999999999998
    vertex 7.534125718815464 1.2613335126796776 1.9999999999999998
  endloop
endfacet
facet normal -0.0 -0.0 1.0
  outer loop
    vertex 7.534125718815464 1.2613335126796776 1.9999999999999998
    vertex 7.999999999999999 0.0 1.9999999999999998
    vertex 7.999999999999999 1.2000000000000006 1.9999999999999998
  endloop
endfacet
facet normal 0.0 -1.0 0.0
  outer loop
    vertex 78.5 0.0 1.9999999999999998
    vertex 0.0 0.0 0.0
    vertex 78.5 0.0 0.0
  endloop
endfacet
facet normal 0.0 -1.0 0.0
  outer loop
    vertex 0.0 0.0 0.0
    vertex 78.5 0.0 1.9999999999999998
    vertex 0.0 0.0 1.9999999999999998
  endloop
endfacet
facet normal 0.0 -1.0 0.0
  outer loop
    vertex 0.0 0.0 1.9999999999999998
    vertex 78.5 0.0 1.9999999999999998
    vertex 75.5 0.0 1.9999999999999998
  endloop
endfacet
facet normal 0.0 -1.0 0.0
  outer loop
    vertex 0.0 0.0 1.9999999999999998
    vertex 75.5 0.0 1.9999999999999998
    vertex 7.999999999999999 0.0 1.9999999999999998
  endloop
endfacet
facet normal -1.0 0.0 0.0
  outer loop
    vertex 0.0 3.0 1.9999999999999998
    vertex 0.0 0.0 0.0
    vertex 0.0 0.0 1.9999999999999998
  endloop
endfacet
facet normal -1.0 0.0 0.0
  outer loop
    vertex 0.0 0.0 0.0
    vertex 0.0 3.0 1.9999999999999998
    vertex 0.0 36.0 0.0
  endloop
endfacet
facet normal -1.0 0.0 0.0
  outer loop
    vertex 0.0 36.0 0.0
    vertex 0.0 3.0 1.9999999999999998
    vertex 0.0 32.0 1.9999999999999998
  endloop
endfacet
facet normal -1.0 0.0 0.0
  outer loop
    vertex 0.0 36.0 0.0
    vertex 0.0 32.0 1.9999999999999998
    vertex 0.0 36.0 1.9999999999999998
  endloop
endfacet
facet normal -0.0 1.0 -0.0
  outer loop
    vertex 0.0 36.0 1.9999999999999998
    vertex 78.5 36.0 0.0
    vertex 0.0 36.0 0.0
  endloop
endfacet
facet normal -0.0 1.0 -0.0
  outer loop
    vertex 78.5 36.0 0.0
    vertex 0.0 36.0 1.9999999999999998
    vertex 78.5 36.0 1.9999999999999998
  endloop
endfacet
facet normal -0.0 1.0 -0.0
  outer loop
    vertex 78.5 36.0 1.9999999999999998
    vertex 0.0 36.0 1.9999999999999998
    vertex 3.9999999999999996 36.0 1.9999999999999998
  endloop
endfacet
facet normal 1.0 -0.0 -0.0
  outer loop
    vertex 78.5 36.0 0.0
    vertex 78.5 0.0 1.9999999999999998
    vertex 78.5 0.0 0.0
  endloop
endfacet
facet normal 1.0 -0.0 -0.0
  outer loop
    vertex 78.5 0.0 1.9999999999999998
    vertex 78.5 36.0 0.0
    vertex 78.5 17.0 1.9999999999999998
  endloop
endfacet
facet normal 1.0 -0.0 -0.0
  outer loop
    vertex 78.5 17.0 1.9999999999999998
    vertex 78.5 36.0 0.0
    vertex 78.5 36.0 1.9999999999999998
  endloop
endfacet
facet normal -0.0 -0.0 1.0
  outer loop
    vertex 78.5 0.0 1.9999999999999998
    vertex 75.5 15.200000000000001 1.9999999999999998
    vertex 75.5 0.0 1.9999999999999998
  endloop
endfacet
facet normal -0.0 -0.0 1.0
  outer loop
    vertex 75.5 15.200000000000001 1.9999999999999998
    vertex 78.5 0.0 1.9999999999999998
    vertex 75.96587428118454 15.261333512679677 1.9999999999999998
  endloop
endfacet
facet normal -0.0 -0.0 1.0
  outer loop
    vertex 75.96587428118454 15.261333512679677 1.9999999999999998
    vertex 78.5 0.0 1.9999999999999998
    vertex 76.39999999999999 15.44115427318801 1.9999999999999998
  endloop
endfacet
facet normal -0.0 -0.0 1.0
  outer loop
    vertex 76.39999999999999 15.44115427318801 1.9999999999999998
    vertex 78.5 0.0 1.9999999999999998
    vertex 76.77279220613578 15.727207793864215 1.9999999999999998
  endloop
endfacet
facet normal -0.0 -0.0 1.0
  outer loop
    vertex 76.77279220613578 15.727207793864215 1.9999999999999998
    vertex 78.5 0.0 1.9999999999999998
    vertex 77.05884572681198 16.1 1.9999999999999998
  endloop
endfacet
facet normal -0.0 -0.0 1.0
  outer loop
    vertex 77.05884572681198 16.1 1.9999999999999998
    vertex 78.5 0.0 1.9999999999999998
    vertex 77.23866648732032 16.534125718815464 1.9999999999999998
  endloop
endfacet
facet normal -0.0 -0.0 1.0
  outer loop
    vertex 77.23866648732032 16.534125718815464 1.9999999999999998
    vertex 78.5 0.0 1.9999999999999998
    vertex 77.3 17.0 1.9999999999999998
  endloop
endfacet
facet normal -0.0 -0.0 1.0
  outer loop
    vertex 77.3 17.0 1.9999999999999998
    vertex 78.5 0.0 1.9999999999999998
    vertex 78.5 17.0 1.9999999999999998
  endloop
endfacet
facet normal -0.0 -0.0 1.0
  outer loop
    vertex 2.1999999999999975 32.0 1.9999999999999998
    vertex 0.0 36.0 1.9999999999999998
    vertex 0.0 32.0 1.9999999999999998
  endloop
endfacet
facet normal -0.0 -0.0 1.0
  outer loop
    vertex 0.0 36.0 1.9999999999999998
    vertex 2.1999999999999975 32.0 1.9999999999999998
    vertex 2.2613335126796743 32.46587428118454 1.9999999999999998
  endloop
endfacet
facet normal -0.0 -0.0 1.0
  outer loop
    vertex 0.0 36.0 1.9999999999999998
    vertex 2.2613335126796743 32.46587428118454 1.9999999999999998
    vertex 2.441154273188008 32.9 1.9999999999999998
  endloop
endfacet
facet normal -0.0 -0.0 1.0
  outer loop
    vertex 0.0 36.0 1.9999999999999998
    vertex 2.441154273188008 32.9 1.9999999999999998
    vertex 3.9999999999999996 36.0 1.9999999999999998
  endloop
endfacet
facet normal -0.0 -0.0 1.0
  outer loop
    vertex 3.9999999999999996 36.0 1.9999999999999998
    vertex 2.441154273188008 32.9 1.9999999999999998
    vertex 2.727207793864212 33.27279220613579 1.9999999999999998
  endloop
endfacet
facet normal -0.0 -0.0 1.0
  outer loop
    vertex 3.9999999999999996 36.0 1.9999999999999998
    vertex 2.727207793864212 33.27279220613579 1.9999999999999998
    vertex 3.099999999999998 33.558845726811995 1.9999999999999998
  endloop
endfacet
facet normal -0.0 -0.0 1.0
  outer loop
    vertex 3.9999999999999996 36.0 1.9999999999999998
    vertex 3.099999999999998 33.558845726811995 1.9999999999999998
    vertex 3.5341257188154604 33.73866648732032 1.9999999999999998
  endloop
endfacet
facet normal -0.0 -0.0 1.0
  outer loop
    vertex 3.9999999999999996 36.0 1.9999999999999998
    vertex 3.5341257188154604 33.73866648732032 1.9999999999999998
    vertex 3.9999999999999996 33.800000000000004 1.9999999999999998
  endloop
endfacet
facet normal -1.2217159365127578e-32 -5.927328594388672e-33 1.0
  outer loop
    vertex 6.2 3.0 1.9999999999999998
    vertex 0.0 32.0 1.9999999999999998
    vertex 0.0 3.0 1.9999999999999998
  endloop
endfacet
facet normal -1.2217159365127578e-32 -5.927328594388672e-33 1.0
  outer loop
    vertex 0.0 32.0 1.9999999999999998
    vertex 6.2 3.0 1.9999999999999998
    vertex 2.261333512679675 31.534125718815464 1.9999999999999998
  endloop
endfacet
facet normal -1.2217159365127578e-32 -5.927328594388672e-33 1.0
  outer loop
    vertex 0.0 32.0 1.9999999999999998
    vertex 2.261333512679675 31.534125718815464 1.9999999999999998
    vertex 2.1999999999999975 32.0 1.9999999999999998
  endloop
endfacet
facet normal -1.2217159365127578e-32 -5.927328594388672e-33 1.0
  outer loop
    vertex 2.261333512679675 31.534125718815464 1.9999999999999998
    vertex 6.2 3.0 1.9999999999999998
    vertex 2.4411542731880083 31.099999999999998 1.9999999999999998
  endloop
endfacet
facet normal -1.2217159365127578e-32 -5.927328594388672e-33 1.0
  outer loop
    vertex 2.4411542731880083 31.099999999999998 1.9999999999999998
    vertex 6.2 3.0 1.9999999999999998
    vertex 2.7272077938642134 30.727207793864213 1.9999999999999998
  endloop
endfacet
facet normal -1.2217159365127578e-32 -5.927328594388672e-33 1.0
  outer loop
    vertex 2.7272077938642134 30.727207793864213 1.9999999999999998
    vertex 6.2 3.0 1.9999999999999998
    vertex 3.099999999999999 30.441154273188012 1.9999999999999998
  endloop
endfacet
facet normal -1.2217159365127578e-32 -5.927328594388672e-33 1.0
  outer loop
    vertex 3.099999999999999 30.441154273188012 1.9999999999999998
    vertex 6.2 3.0 1.9999999999999998
    vertex 3.5341257188154622 30.26133351267968 1.9999999999999998
  endloop
endfacet
facet normal -1.2217159365127578e-32 -5.927328594388672e-33 1.0
  outer loop
    vertex 3.5341257188154622 30.26133351267968 1.9999999999999998
    vertex 6.2 3.0 1.9999999999999998
    vertex 3.9999999999999996 30.2 1.9999999999999998
  endloop
endfacet
facet normal -1.2217159365127578e-32 -5.927328594388672e-33 1.0
  outer loop
    vertex 3.9999999999999996 30.2 1.9999999999999998
    vertex 6.2 3.0 1.9999999999999998
    vertex 4.465874281184538 30.26133351267968 1.9999999999999998
  endloop
endfacet
facet normal -1.2217159365127578e-32 -5.927328594388672e-33 1.0
  outer loop
    vertex 4.465874281184538 30.26133351267968 1.9999999999999998
    vertex 6.2 3.0 1.9999999999999998
    vertex 4.900000000000001 30.441154273188012 1.9999999999999998
  endloop
endfacet
facet normal -1.2217159365127578e-32 -5.927328594388672e-33 1.0
  outer loop
    vertex 4.900000000000001 30.441154273188012 1.9999999999999998
    vertex 6.2 3.0 1.9999999999999998
    vertex 5.272792206135787 30.72720779386422 1.9999999999999998
  endloop
endfacet
facet normal -1.2217159365127578e-32 -5.927328594388672e-33 1.0
  outer loop
    vertex 5.272792206135787 30.72720779386422 1.9999999999999998
    vertex 6.2 3.0 1.9999999999999998
    vertex 5.558845726811991 31.100000000000005 1.9999999999999998
  endloop
endfacet
facet normal -1.2217159365127578e-32 -5.927328594388672e-33 1.0
  outer loop
    vertex 5.558845726811991 31.100000000000005 1.9999999999999998
    vertex 6.2 3.0 1.9999999999999998
    vertex 5.738666487320326 31.534125718815464 1.9999999999999998
  endloop
endfacet
facet normal -1.2217159365127578e-32 -5.927328594388672e-33 1.0
  outer loop
    vertex 5.738666487320326 31.534125718815464 1.9999999999999998
    vertex 6.2 3.0 1.9999999999999998
    vertex 5.8000000000000025 32.0 1.9999999999999998
  endloop
endfacet
facet normal -1.2217159365127578e-32 -5.927328594388672e-33 1.0
  outer loop
    vertex 75.5 0.0 1.9999999999999998
    vertex 7.999999999999999 1.2000000000000006 1.9999999999999998
    vertex 7.999999999999999 0.0 1.9999999999999998
  endloop
endfacet
facet normal -1.2217159365127578e-32 -5.927328594388672e-33 1.0
  outer loop
    vertex 7.999999999999999 1.2000000000000006 1.9999999999999998
    vertex 75.5 0.0 1.9999999999999998
    vertex 8.465874281184538 1.2613335126796779 1.9999999999999998
  endloop
endfacet
facet normal -1.2217159365127578e-32 -5.927328594388672e-33 1.0
  outer loop
    vertex 8.465874281184538 1.2613335126796779 1.9999999999999998
    vertex 75.5 0.0 1.9999999999999998
    vertex 8.9 1.4411542731880111 1.9999999999999998
  endloop
endfacet
facet normal -1.2217159365127578e-32 -5.927328594388672e-33 1.0
  outer loop
    vertex 8.9 1.4411542731880111 1.9999999999999998
    vertex 75.5 0.0 1.9999999999999998
    vertex 9.272792206135785 1.7272077938642156 1.9999999999999998
  endloop
endfacet
facet normal -1.2217159365127578e-32 -5.927328594388672e-33 1.0
  outer loop
    vertex 9.272792206135785 1.7272077938642156 1.9999999999999998
    vertex 75.5 0.0 1.9999999999999998
    vertex 9.55884572681199 2.100000000000001 1.9999999999999998
  endloop
endfacet
facet normal -1.2217159365127578e-32 -5.927328594388672e-33 1.0
  outer loop
    vertex 9.55884572681199 2.100000000000001 1.9999999999999998
    vertex 75.5 0.0 1.9999999999999998
    vertex 9.738666487320323 2.5341257188154636 1.9999999999999998
  endloop
endfacet
facet normal -1.2217159365127578e-32 -5.927328594388672e-33 1.0
  outer loop
    vertex 9.738666487320323 2.5341257188154636 1.9999999999999998
    vertex 75.5 0.0 1.9999999999999998
    vertex 9.799999999999999 3.0000000000000004 1.9999999999999998
  endloop
endfacet
facet normal -1.2217159365127578e-32 -5.927328594388672e-33 1.0
  outer loop
    vertex 9.799999999999999 3.0000000000000004 1.9999999999999998
    vertex 75.5 0.0 1.9999999999999998
    vertex 73.7 17.0 1.9999999999999998
  endloop
endfacet
facet normal -1.2217159365127578e-32 -5.927328594388672e-33 1.0
  outer loop
    vertex 73.7 17.0 1.9999999999999998
    vertex 75.5 0.0 1.9999999999999998
    vertex 73.76133351267967 16.53412571881546 1.9999999999999998
  endloop
endfacet
facet normal -1.2217159365127578e-32 -5.927328594388672e-33 1.0
  outer loop
    vertex 73.76133351267967 16.53412571881546 1.9999999999999998
    vertex 75.5 0.0 1.9999999999999998
    vertex 73.941154273188 16.099999999999998 1.9999999999999998
  endloop
endfacet
facet normal -1.2217159365127578e-32 -5.927328594388672e-33 1.0
  outer loop
    vertex 73.941154273188 16.099999999999998 1.9999999999999998
    vertex 75.5 0.0 1.9999999999999998
    vertex 74.22720779386421 15.727207793864215 1.9999999999999998
  endloop
endfacet
facet normal -1.2217159365127578e-32 -5.927328594388672e-33 1.0
  outer loop
    vertex 74.22720779386421 15.727207793864215 1.9999999999999998
    vertex 75.5 0.0 1.9999999999999998
    vertex 74.6 15.44115427318801 1.9999999999999998
  endloop
endfacet
facet normal -1.2217159365127578e-32 -5.927328594388672e-33 1.0
  outer loop
    vertex 74.6 15.44115427318801 1.9999999999999998
    vertex 75.5 0.0 1.9999999999999998
    vertex 75.03412571881546 15.261333512679677 1.9999999999999998
  endloop
endfacet
facet normal -1.2217159365127578e-32 -5.927328594388672e-33 1.0
  outer loop
    vertex 75.03412571881546 15.261333512679677 1.9999999999999998
    vertex 75.5 0.0 1.9999999999999998
    vertex 75.5 15.200000000000001 1.9999999999999998
  endloop
endfacet
facet normal -1.2217159365127578e-32 -5.927328594388672e-33 1.0
  outer loop
    vertex 4.465874281184537 33.73866648732032 1.9999999999999998
    vertex 3.9999999999999996 36.0 1.9999999999999998
    vertex 3.9999999999999996 33.800000000000004 1.9999999999999998
  endloop
endfacet
facet normal -1.2217159365127578e-32 -5.927328594388672e-33 1.0
  outer loop
    vertex 3.9999999999999996 36.0 1.9999999999999998
    vertex 4.465874281184537 33.73866648732032 1.9999999999999998
    vertex 78.5 36.0 1.9999999999999998
  endloop
endfacet
facet normal -1.2217159365127578e-32 -5.927328594388672e-33 1.0
  outer loop
    vertex 78.5 36.0 1.9999999999999998
    vertex 4.465874281184537 33.73866648732032 1.9999999999999998
    vertex 4.900000000000001 33.558845726811995 1.9999999999999998
  endloop
endfacet
facet normal -1.2217159365127578e-32 -5.927328594388672e-33 1.0
  outer loop
    vertex 78.5 36.0 1.9999999999999998
    vertex 4.900000000000001 33.558845726811995 1.9999999999999998
    vertex 5.272792206135787 33.27279220613579 1.9999999999999998
  endloop
endfacet
facet normal -1.2217159365127578e-32 -5.927328594388672e-33 1.0
  outer loop
    vertex 78.5 36.0 1.9999999999999998
    vertex 5.272792206135787 33.27279220613579 1.9999999999999998
    vertex 5.558845726811991 32.900000000000006 1.9999999999999998
  endloop
endfacet
facet normal -1.2217159365127578e-32 -5.927328594388672e-33 1.0
  outer loop
    vertex 78.5 36.0 1.9999999999999998
    vertex 5.558845726811991 32.900000000000006 1.9999999999999998
    vertex 5.738666487320325 32.46587428118454 1.9999999999999998
  endloop
endfacet
facet normal -1.2217159365127578e-32 -5.927328594388672e-33 1.0
  outer loop
    vertex 78.5 36.0 1.9999999999999998
    vertex 5.738666487320325 32.46587428118454 1.9999999999999998
    vertex 5.8000000000000025 32.0 1.9999999999999998
  endloop
endfacet
facet normal -1.2217159365127578e-32 -5.927328594388672e-33 1.0
  outer loop
    vertex 78.5 36.0 1.9999999999999998
    vertex 5.8000000000000025 32.0 1.9999999999999998
    vertex 7.1 4.558845726811989 1.9999999999999998
  endloop
endfacet
facet normal -1.2217159365127578e-32 -5.927328594388672e-33 1.0
  outer loop
    vertex 7.1 4.558845726811989 1.9999999999999998
    vertex 5.8000000000000025 32.0 1.9999999999999998
    vertex 6.727207793864213 4.272792206135786 1.9999999999999998
  endloop
endfacet
facet normal -1.2217159365127578e-32 -5.927328594388672e-33 1.0
  outer loop
    vertex 6.727207793864213 4.272792206135786 1.9999999999999998
    vertex 5.8000000000000025 32.0 1.9999999999999998
    vertex 6.441154273188009 3.9 1.9999999999999998
  endloop
endfacet
facet normal -1.2217159365127578e-32 -5.927328594388672e-33 1.0
  outer loop
    vertex 6.441154273188009 3.9 1.9999999999999998
    vertex 5.8000000000000025 32.0 1.9999999999999998
    vertex 6.261333512679676 3.4658742811845373 1.9999999999999998
  endloop
endfacet
facet normal -1.2217159365127578e-32 -5.927328594388672e-33 1.0
  outer loop
    vertex 6.261333512679676 3.4658742811845373 1.9999999999999998
    vertex 5.8000000000000025 32.0 1.9999999999999998
    vertex 6.2 3.0 1.9999999999999998
  endloop
endfacet
facet normal -1.2217159365127578e-32 -5.927328594388672e-33 1.0
  outer loop
    vertex 78.5 36.0 1.9999999999999998
    vertex 7.1 4.558845726811989 1.9999999999999998
    vertex 7.534125718815462 4.738666487320322 1.9999999999999998
  endloop
endfacet
facet normal -1.2217159365127578e-32 -5.927328594388672e-33 1.0
  outer loop
    vertex 78.5 36.0 1.9999999999999998
    vertex 7.534125718815462 4.738666487320322 1.9999999999999998
    vertex 7.999999999999999 4.8 1.9999999999999998
  endloop
endfacet
facet normal -1.2217159365127578e-32 -5.927328594388672e-33 1.0
  outer loop
    vertex 78.5 36.0 1.9999999999999998
    vertex 7.999999999999999 4.8 1.9999999999999998
    vertex 8.465874281184536 4.738666487320323 1.9999999999999998
  endloop
endfacet
facet normal -1.2217159365127578e-32 -5.927328594388672e-33 1.0
  outer loop
    vertex 78.5 36.0 1.9999999999999998
    vertex 8.465874281184536 4.738666487320323 1.9999999999999998
    vertex 8.899999999999999 4.558845726811989 1.9999999999999998
  endloop
endfacet
facet normal -1.2217159365127578e-32 -5.927328594388672e-33 1.0
  outer loop
    vertex 78.5 36.0 1.9999999999999998
    vertex 8.899999999999999 4.558845726811989 1.9999999999999998
    vertex 9.272792206135785 4.272792206135786 1.9999999999999998
  endloop
endfacet
facet normal -1.2217159365127578e-32 -5.927328594388672e-33 1.0
  outer loop
    vertex 78.5 36.0 1.9999999999999998
    vertex 9.272792206135785 4.272792206135786 1.9999999999999998
    vertex 9.558845726811988 3.900000000000001 1.9999999999999998
  endloop
endfacet
facet normal -1.2217159365127578e-32 -5.927328594388672e-33 1.0
  outer loop
    vertex 78.5 36.0 1.9999999999999998
    vertex 9.558845726811988 3.900000000000001 1.9999999999999998
    vertex 9.738666487320323 3.4658742811845373 1.9999999999999998
  endloop
endfacet
facet normal -1.2217159365127578e-32 -5.927328594388672e-33 1.0
  outer loop
    vertex 78.5 36.0 1.9999999999999998
    vertex 9.738666487320323 3.4658742811845373 1.9999999999999998
    vertex 9.799999999999999 3.0000000000000004 1.9999999999999998
  endloop
endfacet
facet normal -1.2217159365127578e-32 -5.927328594388672e-33 1.0
  outer loop
    vertex 78.5 36.0 1.9999999999999998
    vertex 9.799999999999999 3.0000000000000004 1.9999999999999998
    vertex 73.76133351267967 17.465874281184536 1.9999999999999998
  endloop
endfacet
facet normal -1.2217159365127578e-32 -5.927328594388672e-33 1.0
  outer loop
    vertex 73.76133351267967 17.465874281184536 1.9999999999999998
    vertex 9.799999999999999 3.0000000000000004 1.9999999999999998
    vertex 73.7 17.0 1.9999999999999998
  endloop
endfacet
facet normal -1.2217159365127578e-32 -5.927328594388672e-33 1.0
  outer loop
    vertex 78.5 36.0 1.9999999999999998
    vertex 73.76133351267967 17.465874281184536 1.9999999999999998
    vertex 73.941154273188 17.9 1.9999999999999998
  endloop
endfacet
facet normal -1.2217159365127578e-32 -5.927328594388672e-33 1.0
  outer loop
    vertex 78.5 36.0 1.9999999999999998
    vertex 73.941154273188 17.9 1.9999999999999998
    vertex 74.22720779386421 18.272792206135783 1.9999999999999998
  endloop
endfacet
facet normal -1.2217159365127578e-32 -5.927328594388672e-33 1.0
  outer loop
    vertex 78.5 36.0 1.9999999999999998
    vertex 74.22720779386421 18.272792206135783 1.9999999999999998
    vertex 74.6 18.558845726811988 1.9999999999999998
  endloop
endfacet
facet normal -1.2217159365127578e-32 -5.927328594388672e-33 1.0
  outer loop
    vertex 78.5 36.0 1.9999999999999998
    vertex 74.6 18.558845726811988 1.9999999999999998
    vertex 75.03412571881546 18.738666487320323 1.9999999999999998
  endloop
endfacet
facet normal -1.2217159365127578e-32 -5.927328594388672e-33 1.0
  outer loop
    vertex 78.5 36.0 1.9999999999999998
    vertex 75.03412571881546 18.738666487320323 1.9999999999999998
    vertex 75.5 18.8 1.9999999999999998
  endloop
endfacet
facet normal -1.2217159365127578e-32 -5.927328594388672e-33 1.0
  outer loop
    vertex 78.5 36.0 1.9999999999999998
    vertex 75.5 18.8 1.9999999999999998
    vertex 75.96587428118454 18.738666487320323 1.9999999999999998
  endloop
endfacet
facet normal -1.2217159365127578e-32 -5.927328594388672e-33 1.0
  outer loop
    vertex 78.5 36.0 1.9999999999999998
    vertex 75.96587428118454 18.738666487320323 1.9999999999999998
    vertex 76.39999999999999 18.558845726811988 1.9999999999999998
  endloop
endfacet
facet normal -1.2217159365127578e-32 -5.927328594388672e-33 1.0
  outer loop
    vertex 78.5 36.0 1.9999999999999998
    vertex 76.39999999999999 18.558845726811988 1.9999999999999998
    vertex 76.77279220613578 18.272792206135787 1.9999999999999998
  endloop
endfacet
facet normal -1.2217159365127578e-32 -5.927328594388672e-33 1.0
  outer loop
    vertex 78.5 36.0 1.9999999999999998
    vertex 76.77279220613578 18.272792206135787 1.9999999999999998
    vertex 77.05884572681198 17.900000000000002 1.9999999999999998
  endloop
endfacet
facet normal -1.2217159365127578e-32 -5.927328594388672e-33 1.0
  outer loop
    vertex 78.5 36.0 1.9999999999999998
    vertex 77.05884572681198 17.900000000000002 1.9999999999999998
    vertex 77.23866648732032 17.46587428118454 1.9999999999999998
  endloop
endfacet
facet normal -1.2217159365127578e-32 -5.927328594388672e-33 1.0
  outer loop
    vertex 78.5 36.0 1.9999999999999998
    vertex 77.23866648732032 17.46587428118454 1.9999999999999998
    vertex 77.3 17.0 1.9999999999999998
  endloop
endfacet
facet normal -1.2217159365127578e-32 -5.927328594388672e-33 1.0
  outer loop
    vertex 78.5 36.0 1.9999999999999998
    vertex 77.3 17.0 1.9999999999999998
    vertex 78.5 17.0 1.9999999999999998
  endloop
endfacet
facet normal 0.1305261922200517 0.9914448613738105 0.0
  outer loop
    vertex 7.534125718815464 1.2613335126796776 1.9999999999999998
    vertex 7.999999999999999 1.2000000000000006 1.4804824033376462e-14
    vertex 7.534125718815464 1.2613335126796776 1.4804824033376462e-14
  endloop
endfacet
facet normal 0.1305261922200517 0.9914448613738105 0.0
  outer loop
    vertex 7.999999999999999 1.2000000000000006 1.4804824033376462e-14
    vertex 7.534125718815464 1.2613335126796776 1.9999999999999998
    vertex 7.999999999999999 1.2000000000000006 1.9999999999999998
  endloop
endfacet
facet normal -0.13052619222005166 0.9914448613738104 -0.0
  outer loop
    vertex 7.999999999999999 1.2000000000000006 1.9999999999999998
    vertex 8.465874281184538 1.2613335126796779 1.4804824033376462e-14
    vertex 7.999999999999999 1.2000000000000006 1.4804824033376462e-14
  endloop
endfacet
facet normal -0.13052619222005166 0.9914448613738104 -0.0
  outer loop
    vertex 8.465874281184538 1.2613335126796779 1.4804824033376462e-14
    vertex 7.999999999999999 1.2000000000000006 1.9999999999999998
    vertex 8.465874281184538 1.2613335126796779 1.9999999999999998
  endloop
endfacet
facet normal -0.3826834323650899 0.9238795325112867 -0.0
  outer loop
    vertex 8.465874281184538 1.2613335126796779 1.9999999999999998
    vertex 8.9 1.4411542731880111 1.4804824033376462e-14
    vertex 8.465874281184538 1.2613335126796779 1.4804824033376462e-14
  endloop
endfacet
facet normal -0.3826834323650899 0.9238795325112867 -0.0
  outer loop
    vertex 8.9 1.4411542731880111 1.4804824033376462e-14
    vertex 8.465874281184538 1.2613335126796779 1.9999999999999998
    vertex 8.9 1.4411542731880111 1.9999999999999998
  endloop
endfacet
facet normal -0.6087614290087222 0.793353340291234 -0.0
  outer loop
    vertex 8.9 1.4411542731880111 1.9999999999999998
    vertex 9.272792206135785 1.7272077938642156 1.4804824033376462e-14
    vertex 8.9 1.4411542731880111 1.4804824033376462e-14
  endloop
endfacet
facet normal -0.6087614290087222 0.793353340291234 -0.0
  outer loop
    vertex 9.272792206135785 1.7272077938642156 1.4804824033376462e-14
    vertex 8.9 1.4411542731880111 1.9999999999999998
    vertex 9.272792206135785 1.7272077938642156 1.9999999999999998
  endloop
endfacet
facet normal -0.7933533402912348 0.6087614290087211 -0.0
  outer loop
    vertex 9.55884572681199 2.100000000000001 1.9999999999999998
    vertex 9.272792206135785 1.7272077938642156 1.4804824033376462e-14
    vertex 9.272792206135785 1.7272077938642156 1.9999999999999998
  endloop
endfacet
facet normal -0.7933533402912348 0.6087614290087211 -0.0
  outer loop
    vertex 9.272792206135785 1.7272077938642156 1.4804824033376462e-14
    vertex 9.55884572681199 2.100000000000001 1.9999999999999998
    vertex 9.55884572681199 2.100000000000001 1.4804824033376462e-14
  endloop
endfacet
facet normal -0.923879532511287 0.3826834323650892 -0.0
  outer loop
    vertex 9.738666487320323 2.5341257188154636 1.9999999999999998
    vertex 9.55884572681199 2.100000000000001 1.4804824033376462e-14
    vertex 9.55884572681199 2.100000000000001 1.9999999999999998
  endloop
endfacet
facet normal -0.923879532511287 0.3826834323650892 -0.0
  outer loop
    vertex 9.55884572681199 2.100000000000001 1.4804824033376462e-14
    vertex 9.738666487320323 2.5341257188154636 1.9999999999999998
    vertex 9.738666487320323 2.5341257188154636 1.4804824033376462e-14
  endloop
endfacet
facet normal -0.9914448613738106 0.13052619222005069 -0.0
  outer loop
    vertex 9.799999999999999 3.0000000000000004 1.9999999999999998
    vertex 9.738666487320323 2.5341257188154636 1.4804824033376462e-14
    vertex 9.738666487320323 2.5341257188154636 1.9999999999999998
  endloop
endfacet
facet normal -0.9914448613738106 0.13052619222005069 -0.0
  outer loop
    vertex 9.738666487320323 2.5341257188154636 1.4804824033376462e-14
    vertex 9.799999999999999 3.0000000000000004 1.9999999999999998
    vertex 9.799999999999999 3.0000000000000004 1.4804824033376462e-14
  endloop
endfacet
facet normal -0.9914448613738106 -0.13052619222005069 -0.0
  outer loop
    vertex 9.738666487320323 3.4658742811845373 1.9999999999999998
    vertex 9.799999999999999 3.0000000000000004 1.4804824033376462e-14
    vertex 9.799999999999999 3.0000000000000004 1.9999999999999998
  endloop
endfacet
facet normal -0.9914448613738106 -0.13052619222005069 -0.0
  outer loop
    vertex 9.799999999999999 3.0000000000000004 1.4804824033376462e-14
    vertex 9.738666487320323 3.4658742811845373 1.9999999999999998
    vertex 9.738666487320323 3.4658742811845373 1.4804824033376462e-14
  endloop
endfacet
facet normal -0.9238795325112862 -0.3826834323650913 -0.0
  outer loop
    vertex 9.558845726811988 3.900000000000001 1.9999999999999998
    vertex 9.738666487320323 3.4658742811845373 1.4804824033376462e-14
    vertex 9.738666487320323 3.4658742811845373 1.9999999999999998
  endloop
endfacet
facet normal -0.9238795325112862 -0.3826834323650913 -0.0
  outer loop
    vertex 9.738666487320323 3.4658742811845373 1.4804824033376462e-14
    vertex 9.558845726811988 3.900000000000001 1.9999999999999998
    vertex 9.558845726811988 3.900000000000001 1.4804824033376462e-14
  endloop
endfacet
facet normal -0.7933533402912362 -0.6087614290087197 -0.0
  outer loop
    vertex 9.272792206135785 4.272792206135786 1.9999999999999998
    vertex 9.558845726811988 3.900000000000001 1.4804824033376462e-14
    vertex 9.558845726811988 3.900000000000001 1.9999999999999998
  endloop
endfacet
facet normal -0.7933533402912362 -0.6087614290087197 -0.0
  outer loop
    vertex 9.558845726811988 3.900000000000001 1.4804824033376462e-14
    vertex 9.272792206135785 4.272792206135786 1.9999999999999998
    vertex 9.272792206135785 4.272792206135786 1.4804824033376462e-14
  endloop
endfacet
facet normal -0.6087614290087198 -0.7933533402912358 -0.0
  outer loop
    vertex 9.272792206135785 4.272792206135786 1.9999999999999998
    vertex 8.899999999999999 4.558845726811989 1.4804824033376462e-14
    vertex 9.272792206135785 4.272792206135786 1.4804824033376462e-14
  endloop
endfacet
facet normal -0.6087614290087198 -0.7933533402912358 -0.0
  outer loop
    vertex 8.899999999999999 4.558845726811989 1.4804824033376462e-14
    vertex 9.272792206135785 4.272792206135786 1.9999999999999998
    vertex 8.899999999999999 4.558845726811989 1.9999999999999998
  endloop
endfacet
facet normal -0.3826834323650906 -0.9238795325112865 -0.0
  outer loop
    vertex 8.899999999999999 4.558845726811989 1.9999999999999998
    vertex 8.465874281184536 4.738666487320323 1.4804824033376462e-14
    vertex 8.899999999999999 4.558845726811989 1.4804824033376462e-14
  endloop
endfacet
facet normal -0.3826834323650906 -0.9238795325112865 -0.0
  outer loop
    vertex 8.465874281184536 4.738666487320323 1.4804824033376462e-14
    vertex 8.899999999999999 4.558845726811989 1.9999999999999998
    vertex 8.465874281184536 4.738666487320323 1.9999999999999998
  endloop
endfacet
facet normal -0.1305261922200506 -0.9914448613738107 -0.0
  outer loop
    vertex 8.465874281184536 4.738666487320323 1.9999999999999998
    vertex 7.999999999999999 4.8 1.4804824033376462e-14
    vertex 8.465874281184536 4.738666487320323 1.4804824033376462e-14
  endloop
endfacet
facet normal -0.1305261922200506 -0.9914448613738107 -0.0
  outer loop
    vertex 7.999999999999999 4.8 1.4804824033376462e-14
    vertex 8.465874281184536 4.738666487320323 1.9999999999999998
    vertex 7.999999999999999 4.8 1.9999999999999998
  endloop
endfacet
facet normal 0.13052619222005207 -0.9914448613738105 -0.0
  outer loop
    vertex 7.999999999999999 4.8 1.9999999999999998
    vertex 7.534125718815462 4.738666487320322 1.4804824033376462e-14
    vertex 7.999999999999999 4.8 1.4804824033376462e-14
  endloop
endfacet
facet normal 0.13052619222005207 -0.9914448613738105 -0.0
  outer loop
    vertex 7.534125718815462 4.738666487320322 1.4804824033376462e-14
    vertex 7.999999999999999 4.8 1.9999999999999998
    vertex 7.534125718815462 4.738666487320322 1.9999999999999998
  endloop
endfacet
facet normal 0.3826834323650892 -0.923879532511287 -0.0
  outer loop
    vertex 7.534125718815462 4.738666487320322 1.9999999999999998
    vertex 7.1 4.558845726811989 1.4804824033376462e-14
    vertex 7.534125718815462 4.738666487320322 1.4804824033376462e-14
  endloop
endfacet
facet normal 0.3826834323650892 -0.923879532511287 -0.0
  outer loop
    vertex 7.1 4.558845726811989 1.4804824033376462e-14
    vertex 7.534125718815462 4.738666487320322 1.9999999999999998
    vertex 7.1 4.558845726811989 1.9999999999999998
  endloop
endfacet
facet normal 0.6087614290087198 -0.7933533402912358 -0.0
  outer loop
    vertex 7.1 4.558845726811989 1.9999999999999998
    vertex 6.727207793864213 4.272792206135786 1.4804824033376462e-14
    vertex 7.1 4.558845726811989 1.4804824033376462e-14
  endloop
endfacet
facet normal 0.6087614290087198 -0.7933533402912358 -0.0
  outer loop
    vertex 6.727207793864213 4.272792206135786 1.4804824033376462e-14
    vertex 7.1 4.558845726811989 1.9999999999999998
    vertex 6.727207793864213 4.272792206135786 1.9999999999999998
  endloop
endfacet
facet normal 0.7933533402912353 -0.6087614290087208 -0.0
  outer loop
    vertex 6.727207793864213 4.272792206135786 1.4804824033376462e-14
    vertex 6.441154273188009 3.9 1.9999999999999998
    vertex 6.441154273188009 3.9 1.4804824033376462e-14
  endloop
endfacet
facet normal 0.7933533402912353 -0.6087614290087208 -0.0
  outer loop
    vertex 6.441154273188009 3.9 1.9999999999999998
    vertex 6.727207793864213 4.272792206135786 1.4804824033376462e-14
    vertex 6.727207793864213 4.272792206135786 1.9999999999999998
  endloop
endfacet
facet normal 0.923879532511287 -0.3826834323650892 -0.0
  outer loop
    vertex 6.441154273188009 3.9 1.4804824033376462e-14
    vertex 6.261333512679676 3.4658742811845373 1.9999999999999998
    vertex 6.261333512679676 3.4658742811845373 1.4804824033376462e-14
  endloop
endfacet
facet normal 0.923879532511287 -0.3826834323650892 -0.0
  outer loop
    vertex 6.261333512679676 3.4658742811845373 1.9999999999999998
    vertex 6.441154273188009 3.9 1.4804824033376462e-14
    vertex 6.441154273188009 3.9 1.9999999999999998
  endloop
endfacet
facet normal 0.9914448613738107 -0.1305261922200506 -0.0
  outer loop
    vertex 6.261333512679676 3.4658742811845373 1.4804824033376462e-14
    vertex 6.2 3.0 1.9999999999999998
    vertex 6.2 3.0 1.4804824033376462e-14
  endloop
endfacet
facet normal 0.9914448613738107 -0.1305261922200506 -0.0
  outer loop
    vertex 6.2 3.0 1.9999999999999998
    vertex 6.261333512679676 3.4658742811845373 1.4804824033376462e-14
    vertex 6.261333512679676 3.4658742811845373 1.9999999999999998
  endloop
endfacet
facet normal 0.9914448613738104 0.13052619222005166 0.0
  outer loop
    vertex 6.2 3.0 1.4804824033376462e-14
    vertex 6.261333512679677 2.5341257188154613 1.9999999999999998
    vertex 6.261333512679677 2.5341257188154613 1.4804824033376462e-14
  endloop
endfacet
facet normal 0.9914448613738104 0.13052619222005166 0.0
  outer loop
    vertex 6.261333512679677 2.5341257188154613 1.9999999999999998
    vertex 6.2 3.0 1.4804824033376462e-14
    vertex 6.2 3.0 1.9999999999999998
  endloop
endfacet
facet normal 0.9238795325112863 0.3826834323650911 0.0
  outer loop
    vertex 6.261333512679677 2.5341257188154613 1.4804824033376462e-14
    vertex 6.441154273188011 2.0999999999999996 1.9999999999999998
    vertex 6.441154273188011 2.0999999999999996 1.4804824033376462e-14
  endloop
endfacet
facet normal 0.9238795325112863 0.3826834323650911 0.0
  outer loop
    vertex 6.441154273188011 2.0999999999999996 1.9999999999999998
    vertex 6.261333512679677 2.5341257188154613 1.4804824033376462e-14
    vertex 6.261333512679677 2.5341257188154613 1.9999999999999998
  endloop
endfacet
facet normal 0.7933533402912345 0.6087614290087214 0.0
  outer loop
    vertex 6.441154273188011 2.0999999999999996 1.4804824033376462e-14
    vertex 6.727207793864215 1.7272077938642145 1.9999999999999998
    vertex 6.727207793864215 1.7272077938642145 1.4804824033376462e-14
  endloop
endfacet
facet normal 0.7933533402912345 0.6087614290087214 0.0
  outer loop
    vertex 6.727207793864215 1.7272077938642145 1.9999999999999998
    vertex 6.441154273188011 2.0999999999999996 1.4804824033376462e-14
    vertex 6.441154273188011 2.0999999999999996 1.9999999999999998
  endloop
endfacet
facet normal 0.6087614290087208 0.7933533402912353 0.0
  outer loop
    vertex 6.727207793864215 1.7272077938642145 1.9999999999999998
    vertex 7.100000000000001 1.4411542731880103 1.4804824033376462e-14
    vertex 6.727207793864215 1.7272077938642145 1.4804824033376462e-14
  endloop
endfacet
facet normal 0.6087614290087208 0.7933533402912353 0.0
  outer loop
    vertex 7.100000000000001 1.4411542731880103 1.4804824033376462e-14
    vertex 6.727207793864215 1.7272077938642145 1.9999999999999998
    vertex 7.100000000000001 1.4411542731880103 1.9999999999999998
  endloop
endfacet
facet normal 0.38268343236508867 0.9238795325112874 0.0
  outer loop
    vertex 7.100000000000001 1.4411542731880103 1.9999999999999998
    vertex 7.534125718815464 1.2613335126796776 1.4804824033376462e-14
    vertex 7.100000000000001 1.4411542731880103 1.4804824033376462e-14
  endloop
endfacet
facet normal 0.38268343236508867 0.9238795325112874 0.0
  outer loop
    vertex 7.534125718815464 1.2613335126796776 1.4804824033376462e-14
    vertex 7.100000000000001 1.4411542731880103 1.9999999999999998
    vertex 7.534125718815464 1.2613335126796776 1.9999999999999998
  endloop
endfacet
facet normal -0.1305261922200563 -0.9914448613738099 -0.0
  outer loop
    vertex 4.465874281184537 33.73866648732032 1.9999999999999998
    vertex 3.9999999999999996 33.800000000000004 1.127986593019159e-14
    vertex 4.465874281184537 33.73866648732032 1.127986593019159e-14
  endloop
endfacet
facet normal -0.1305261922200563 -0.9914448613738099 -0.0
  outer loop
    vertex 3.9999999999999996 33.800000000000004 1.127986593019159e-14
    vertex 4.465874281184537 33.73866648732032 1.9999999999999998
    vertex 3.9999999999999996 33.800000000000004 1.9999999999999998
  endloop
endfacet
facet normal 0.13052619222005588 -0.9914448613738098 -0.0
  outer loop
    vertex 3.9999999999999996 33.800000000000004 1.9999999999999998
    vertex 3.5341257188154604 33.73866648732032 1.127986593019159e-14
    vertex 3.9999999999999996 33.800000000000004 1.127986593019159e-14
  endloop
endfacet
facet normal 0.13052619222005588 -0.9914448613738098 -0.0
  outer loop
    vertex 3.5341257188154604 33.73866648732032 1.127986593019159e-14
    vertex 3.9999999999999996 33.800000000000004 1.9999999999999998
    vertex 3.5341257188154604 33.73866648732032 1.9999999999999998
  endloop
endfacet
facet normal 0.3826834323650841 -0.9238795325112891 -0.0
  outer loop
    vertex 3.5341257188154604 33.73866648732032 1.9999999999999998
    vertex 3.099999999999998 33.558845726811995 1.127986593019159e-14
    vertex 3.5341257188154604 33.73866648732032 1.127986593019159e-14
  endloop
endfacet
facet normal 0.3826834323650841 -0.9238795325112891 -0.0
  outer loop
    vertex 3.099999999999998 33.558845726811995 1.127986593019159e-14
    vertex 3.5341257188154604 33.73866648732032 1.9999999999999998
    vertex 3.099999999999998 33.558845726811995 1.9999999999999998
  endloop
endfacet
facet normal 0.6087614290087264 -0.7933533402912308 -0.0
  outer loop
    vertex 3.099999999999998 33.558845726811995 1.9999999999999998
    vertex 2.727207793864212 33.27279220613579 1.127986593019159e-14
    vertex 3.099999999999998 33.558845726811995 1.127986593019159e-14
  endloop
endfacet
facet normal 0.6087614290087264 -0.7933533402912308 -0.0
  outer loop
    vertex 2.727207793864212 33.27279220613579 1.127986593019159e-14
    vertex 3.099999999999998 33.558845726811995 1.9999999999999998
    vertex 2.727207793864212 33.27279220613579 1.9999999999999998
  endloop
endfacet
facet normal 0.7933533402912353 -0.6087614290087208 -0.0
  outer loop
    vertex 2.727207793864212 33.27279220613579 1.127986593019159e-14
    vertex 2.441154273188008 32.9 1.9999999999999998
    vertex 2.441154273188008 32.9 1.127986593019159e-14
  endloop
endfacet
facet normal 0.7933533402912353 -0.6087614290087208 -0.0
  outer loop
    vertex 2.441154273188008 32.9 1.9999999999999998
    vertex 2.727207793864212 33.27279220613579 1.127986593019159e-14
    vertex 2.727207793864212 33.27279220613579 1.9999999999999998
  endloop
endfacet
facet normal 0.923879532511286 -0.3826834323650921 -0.0
  outer loop
    vertex 2.441154273188008 32.9 1.127986593019159e-14
    vertex 2.2613335126796743 32.46587428118454 1.9999999999999998
    vertex 2.2613335126796743 32.46587428118454 1.127986593019159e-14
  endloop
endfacet
facet normal 0.923879532511286 -0.3826834323650921 -0.0
  outer loop
    vertex 2.2613335126796743 32.46587428118454 1.9999999999999998
    vertex 2.441154273188008 32.9 1.127986593019159e-14
    vertex 2.441154273188008 32.9 1.9999999999999998
  endloop
endfacet
facet normal 0.9914448613738105 -0.13052619222005094 -0.0
  outer loop
    vertex 2.2613335126796743 32.46587428118454 1.127986593019159e-14
    vertex 2.1999999999999975 32.0 1.9999999999999998
    vertex 2.1999999999999975 32.0 1.127986593019159e-14
  endloop
endfacet
facet normal 0.9914448613738105 -0.13052619222005094 -0.0
  outer loop
    vertex 2.1999999999999975 32.0 1.9999999999999998
    vertex 2.2613335126796743 32.46587428118454 1.127986593019159e-14
    vertex 2.2613335126796743 32.46587428118454 1.9999999999999998
  endloop
endfacet
facet normal 0.9914448613738104 0.1305261922200524 0.0
  outer loop
    vertex 2.1999999999999975 32.0 1.127986593019159e-14
    vertex 2.261333512679675 31.534125718815464 1.9999999999999998
    vertex 2.261333512679675 31.534125718815464 1.127986593019159e-14
  endloop
endfacet
facet normal 0.9914448613738104 0.1305261922200524 0.0
  outer loop
    vertex 2.261333512679675 31.534125718815464 1.9999999999999998
    vertex 2.1999999999999975 32.0 1.127986593019159e-14
    vertex 2.1999999999999975 32.0 1.9999999999999998
  endloop
endfacet
facet normal 0.9238795325112877 0.38268343236508784 0.0
  outer loop
    vertex 2.261333512679675 31.534125718815464 1.127986593019159e-14
    vertex 2.4411542731880083 31.099999999999998 1.9999999999999998
    vertex 2.4411542731880083 31.099999999999998 1.127986593019159e-14
  endloop
endfacet
facet normal 0.9238795325112877 0.38268343236508784 0.0
  outer loop
    vertex 2.4411542731880083 31.099999999999998 1.9999999999999998
    vertex 2.261333512679675 31.534125718815464 1.127986593019159e-14
    vertex 2.261333512679675 31.534125718815464 1.9999999999999998
  endloop
endfacet
facet normal 0.7933533402912344 0.6087614290087217 0.0
  outer loop
    vertex 2.4411542731880083 31.099999999999998 1.127986593019159e-14
    vertex 2.7272077938642134 30.727207793864213 1.9999999999999998
    vertex 2.7272077938642134 30.727207793864213 1.127986593019159e-14
  endloop
endfacet
facet normal 0.7933533402912344 0.6087614290087217 0.0
  outer loop
    vertex 2.7272077938642134 30.727207793864213 1.9999999999999998
    vertex 2.4411542731880083 31.099999999999998 1.127986593019159e-14
    vertex 2.4411542731880083 31.099999999999998 1.9999999999999998
  endloop
endfacet
facet normal 0.6087614290087189 0.7933533402912365 0.0
  outer loop
    vertex 2.7272077938642134 30.727207793864213 1.9999999999999998
    vertex 3.099999999999999 30.441154273188012 1.127986593019159e-14
    vertex 2.7272077938642134 30.727207793864213 1.127986593019159e-14
  endloop
endfacet
facet normal 0.6087614290087189 0.7933533402912365 0.0
  outer loop
    vertex 3.099999999999999 30.441154273188012 1.127986593019159e-14
    vertex 2.7272077938642134 30.727207793864213 1.9999999999999998
    vertex 3.099999999999999 30.441154273188012 1.9999999999999998
  endloop
endfacet
facet normal 0.3826834323650837 0.9238795325112895 0.0
  outer loop
    vertex 3.099999999999999 30.441154273188012 1.9999999999999998
    vertex 3.5341257188154622 30.26133351267968 1.127986593019159e-14
    vertex 3.099999999999999 30.441154273188012 1.127986593019159e-14
  endloop
endfacet
facet normal 0.3826834323650837 0.9238795325112895 0.0
  outer loop
    vertex 3.5341257188154622 30.26133351267968 1.127986593019159e-14
    vertex 3.099999999999999 30.441154273188012 1.9999999999999998
    vertex 3.5341257188154622 30.26133351267968 1.9999999999999998
  endloop
endfacet
facet normal 0.1305261922200565 0.9914448613738097 0.0
  outer loop
    vertex 3.5341257188154622 30.26133351267968 1.9999999999999998
    vertex 3.9999999999999996 30.2 1.127986593019159e-14
    vertex 3.5341257188154622 30.26133351267968 1.127986593019159e-14
  endloop
endfacet
facet normal 0.1305261922200565 0.9914448613738097 0.0
  outer loop
    vertex 3.9999999999999996 30.2 1.127986593019159e-14
    vertex 3.5341257188154622 30.26133351267968 1.9999999999999998
    vertex 3.9999999999999996 30.2 1.9999999999999998
  endloop
endfacet
facet normal -0.1305261922200561 0.9914448613738099 -0.0
  outer loop
    vertex 3.9999999999999996 30.2 1.9999999999999998
    vertex 4.465874281184538 30.26133351267968 1.127986593019159e-14
    vertex 3.9999999999999996 30.2 1.127986593019159e-14
  endloop
endfacet
facet normal -0.1305261922200561 0.9914448613738099 -0.0
  outer loop
    vertex 4.465874281184538 30.26133351267968 1.127986593019159e-14
    vertex 3.9999999999999996 30.2 1.9999999999999998
    vertex 4.465874281184538 30.26133351267968 1.9999999999999998
  endloop
endfacet
facet normal -0.3826834323650837 0.9238795325112895 -0.0
  outer loop
    vertex 4.465874281184538 30.26133351267968 1.9999999999999998
    vertex 4.900000000000001 30.441154273188012 1.127986593019159e-14
    vertex 4.465874281184538 30.26133351267968 1.127986593019159e-14
  endloop
endfacet
facet normal -0.3826834323650837 0.9238795325112895 -0.0
  outer loop
    vertex 4.900000000000001 30.441154273188012 1.127986593019159e-14
    vertex 4.465874281184538 30.26133351267968 1.9999999999999998
    vertex 4.900000000000001 30.441154273188012 1.9999999999999998
  endloop
endfacet
facet normal -0.6087614290087271 0.7933533402912302 -0.0
  outer loop
    vertex 4.900000000000001 30.441154273188012 1.9999999999999998
    vertex 5.272792206135787 30.72720779386422 1.127986593019159e-14
    vertex 4.900000000000001 30.441154273188012 1.127986593019159e-14
  endloop
endfacet
facet normal -0.6087614290087271 0.7933533402912302 -0.0
  outer loop
    vertex 5.272792206135787 30.72720779386422 1.127986593019159e-14
    vertex 4.900000000000001 30.441154273188012 1.9999999999999998
    vertex 5.272792206135787 30.72720779386422 1.9999999999999998
  endloop
endfacet
facet normal -0.7933533402912353 0.6087614290087208 -0.0
  outer loop
    vertex 5.558845726811991 31.100000000000005 1.9999999999999998
    vertex 5.272792206135787 30.72720779386422 1.127986593019159e-14
    vertex 5.272792206135787 30.72720779386422 1.9999999999999998
  endloop
endfacet
facet normal -0.7933533402912353 0.6087614290087208 -0.0
  outer loop
    vertex 5.272792206135787 30.72720779386422 1.127986593019159e-14
    vertex 5.558845726811991 31.100000000000005 1.9999999999999998
    vertex 5.558845726811991 31.100000000000005 1.127986593019159e-14
  endloop
endfacet
facet normal -0.9238795325112851 0.38268343236509395 -0.0
  outer loop
    vertex 5.738666487320326 31.534125718815464 1.9999999999999998
    vertex 5.558845726811991 31.100000000000005 1.127986593019159e-14
    vertex 5.558845726811991 31.100000000000005 1.9999999999999998
  endloop
endfacet
facet normal -0.9238795325112851 0.38268343236509395 -0.0
  outer loop
    vertex 5.558845726811991 31.100000000000005 1.127986593019159e-14
    vertex 5.738666487320326 31.534125718815464 1.9999999999999998
    vertex 5.738666487320326 31.534125718815464 1.127986593019159e-14
  endloop
endfacet
facet normal -0.9914448613738107 0.1305261922200502 -0.0
  outer loop
    vertex 5.8000000000000025 32.0 1.9999999999999998
    vertex 5.738666487320326 31.534125718815464 1.127986593019159e-14
    vertex 5.738666487320326 31.534125718815464 1.9999999999999998
  endloop
endfacet
facet normal -0.9914448613738107 0.1305261922200502 -0.0
  outer loop
    vertex 5.738666487320326 31.534125718815464 1.127986593019159e-14
    vertex 5.8000000000000025 32.0 1.9999999999999998
    vertex 5.8000000000000025 32.0 1.127986593019159e-14
  endloop
endfacet
facet normal -0.9914448613738104 -0.13052619222005166 -0.0
  outer loop
    vertex 5.738666487320325 32.46587428118454 1.9999999999999998
    vertex 5.8000000000000025 32.0 1.127986593019159e-14
    vertex 5.8000000000000025 32.0 1.9999999999999998
  endloop
endfacet
facet normal -0.9914448613738104 -0.13052619222005166 -0.0
  outer loop
    vertex 5.8000000000000025 32.0 1.127986593019159e-14
    vertex 5.738666487320325 32.46587428118454 1.9999999999999998
    vertex 5.738666487320325 32.46587428118454 1.127986593019159e-14
  endloop
endfacet
facet normal -0.9238795325112874 -0.38268343236508845 -0.0
  outer loop
    vertex 5.558845726811991 32.900000000000006 1.9999999999999998
    vertex 5.738666487320325 32.46587428118454 1.127986593019159e-14
    vertex 5.738666487320325 32.46587428118454 1.9999999999999998
  endloop
endfacet
facet normal -0.9238795325112874 -0.38268343236508845 -0.0
  outer loop
    vertex 5.738666487320325 32.46587428118454 1.127986593019159e-14
    vertex 5.558845726811991 32.900000000000006 1.9999999999999998
    vertex 5.558845726811991 32.900000000000006 1.127986593019159e-14
  endloop
endfacet
facet normal -0.7933533402912353 -0.6087614290087208 -0.0
  outer loop
    vertex 5.272792206135787 33.27279220613579 1.9999999999999998
    vertex 5.558845726811991 32.900000000000006 1.127986593019159e-14
    vertex 5.558845726811991 32.900000000000006 1.9999999999999998
  endloop
endfacet
facet normal -0.7933533402912353 -0.6087614290087208 -0.0
  outer loop
    vertex 5.558845726811991 32.900000000000006 1.127986593019159e-14
    vertex 5.272792206135787 33.27279220613579 1.9999999999999998
    vertex 5.272792206135787 33.27279220613579 1.127986593019159e-14
  endloop
endfacet
facet normal -0.6087614290087189 -0.7933533402912365 -0.0
  outer loop
    vertex 5.272792206135787 33.27279220613579 1.9999999999999998
    vertex 4.900000000000001 33.558845726811995 1.127986593019159e-14
    vertex 5.272792206135787 33.27279220613579 1.127986593019159e-14
  endloop
endfacet
facet normal -0.6087614290087189 -0.7933533402912365 -0.0
  outer loop
    vertex 4.900000000000001 33.558845726811995 1.127986593019159e-14
    vertex 5.272792206135787 33.27279220613579 1.9999999999999998
    vertex 4.900000000000001 33.558845726811995 1.9999999999999998
  endloop
endfacet
facet normal -0.3826834323650837 -0.9238795325112895 -0.0
  outer loop
    vertex 4.900000000000001 33.558845726811995 1.9999999999999998
    vertex 4.465874281184537 33.73866648732032 1.127986593019159e-14
    vertex 4.900000000000001 33.558845726811995 1.127986593019159e-14
  endloop
endfacet
facet normal -0.3826834323650837 -0.9238795325112895 -0.0
  outer loop
    vertex 4.465874281184537 33.73866648732032 1.127986593019159e-14
    vertex 4.900000000000001 33.558845726811995 1.9999999999999998
    vertex 4.465874281184537 33.73866648732032 1.9999999999999998
  endloop
endfacet
facet normal -0.9914448613738114 0.13052619222004508 -0.0
  outer loop
    vertex 77.3 17.0 1.9999999999999998
    vertex 77.23866648732032 16.534125718815464 5.639932965095795e-15
    vertex 77.23866648732032 16.534125718815464 1.9999999999999998
  endloop
endfacet
facet normal -0.9914448613738114 0.13052619222004508 -0.0
  outer loop
    vertex 77.23866648732032 16.534125718815464 5.639932965095795e-15
    vertex 77.3 17.0 1.9999999999999998
    vertex 77.3 17.0 5.639932965095795e-15
  endloop
endfacet
facet normal -0.9914448613738114 -0.1305261922200443 -0.0
  outer loop
    vertex 77.23866648732032 17.46587428118454 1.9999999999999998
    vertex 77.3 17.0 5.639932965095795e-15
    vertex 77.3 17.0 1.9999999999999998
  endloop
endfacet
facet normal -0.9914448613738114 -0.1305261922200443 -0.0
  outer loop
    vertex 77.3 17.0 5.639932965095795e-15
    vertex 77.23866648732032 17.46587428118454 1.9999999999999998
    vertex 77.23866648732032 17.46587428118454 5.639932965095795e-15
  endloop
endfacet
facet normal -0.9238795325112849 -0.3826834323650944 -0.0
  outer loop
    vertex 77.05884572681198 17.900000000000002 1.9999999999999998
    vertex 77.23866648732032 17.46587428118454 5.639932965095795e-15
    vertex 77.23866648732032 17.46587428118454 1.9999999999999998
  endloop
endfacet
facet normal -0.9238795325112849 -0.3826834323650944 -0.0
  outer loop
    vertex 77.23866648732032 17.46587428118454 5.639932965095795e-15
    vertex 77.05884572681198 17.900000000000002 1.9999999999999998
    vertex 77.05884572681198 17.900000000000002 5.639932965095795e-15
  endloop
endfacet
facet normal -0.7933533402912365 -0.6087614290087189 -0.0
  outer loop
    vertex 76.77279220613578 18.272792206135787 1.9999999999999998
    vertex 77.05884572681198 17.900000000000002 5.639932965095795e-15
    vertex 77.05884572681198 17.900000000000002 1.9999999999999998
  endloop
endfacet
facet normal -0.7933533402912365 -0.6087614290087189 -0.0
  outer loop
    vertex 77.05884572681198 17.900000000000002 5.639932965095795e-15
    vertex 76.77279220613578 18.272792206135787 1.9999999999999998
    vertex 76.77279220613578 18.272792206135787 5.639932965095795e-15
  endloop
endfacet
facet normal -0.6087614290087189 -0.7933533402912365 -0.0
  outer loop
    vertex 76.77279220613578 18.272792206135787 1.9999999999999998
    vertex 76.39999999999999 18.558845726811988 5.639932965095795e-15
    vertex 76.77279220613578 18.272792206135787 5.639932965095795e-15
  endloop
endfacet
facet normal -0.6087614290087189 -0.7933533402912365 -0.0
  outer loop
    vertex 76.39999999999999 18.558845726811988 5.639932965095795e-15
    vertex 76.77279220613578 18.272792206135787 1.9999999999999998
    vertex 76.39999999999999 18.558845726811988 1.9999999999999998
  endloop
endfacet
facet normal -0.38268343236509134 -0.9238795325112861 -0.0
  outer loop
    vertex 76.39999999999999 18.558845726811988 1.9999999999999998
    vertex 75.96587428118454 18.738666487320323 5.639932965095795e-15
    vertex 76.39999999999999 18.558845726811988 5.639932965095795e-15
  endloop
endfacet
facet normal -0.38268343236509134 -0.9238795325112861 -0.0
  outer loop
    vertex 75.96587428118454 18.738666487320323 5.639932965095795e-15
    vertex 76.39999999999999 18.558845726811988 1.9999999999999998
    vertex 75.96587428118454 18.738666487320323 1.9999999999999998
  endloop
endfacet
facet normal -0.1305261922200502 -0.9914448613738107 -0.0
  outer loop
    vertex 75.96587428118454 18.738666487320323 1.9999999999999998
    vertex 75.5 18.8 5.639932965095795e-15
    vertex 75.96587428118454 18.738666487320323 5.639932965095795e-15
  endloop
endfacet
facet normal -0.1305261922200502 -0.9914448613738107 -0.0
  outer loop
    vertex 75.5 18.8 5.639932965095795e-15
    vertex 75.96587428118454 18.738666487320323 1.9999999999999998
    vertex 75.5 18.8 1.9999999999999998
  endloop
endfacet
facet normal 0.1305261922200502 -0.9914448613738107 -0.0
  outer loop
    vertex 75.5 18.8 1.9999999999999998
    vertex 75.03412571881546 18.738666487320323 5.639932965095795e-15
    vertex 75.5 18.8 5.639932965095795e-15
  endloop
endfacet
facet normal 0.1305261922200502 -0.9914448613738107 -0.0
  outer loop
    vertex 75.03412571881546 18.738666487320323 5.639932965095795e-15
    vertex 75.5 18.8 1.9999999999999998
    vertex 75.03412571881546 18.738666487320323 1.9999999999999998
  endloop
endfacet
facet normal 0.38268343236509134 -0.9238795325112861 -0.0
  outer loop
    vertex 75.03412571881546 18.738666487320323 1.9999999999999998
    vertex 74.6 18.558845726811988 5.639932965095795e-15
    vertex 75.03412571881546 18.738666487320323 5.639932965095795e-15
  endloop
endfacet
facet normal 0.38268343236509134 -0.9238795325112861 -0.0
  outer loop
    vertex 74.6 18.558845726811988 5.639932965095795e-15
    vertex 75.03412571881546 18.738666487320323 1.9999999999999998
    vertex 74.6 18.558845726811988 1.9999999999999998
  endloop
endfacet
facet normal 0.6087614290087227 -0.7933533402912338 -0.0
  outer loop
    vertex 74.6 18.558845726811988 1.9999999999999998
    vertex 74.22720779386421 18.272792206135783 5.639932965095795e-15
    vertex 74.6 18.558845726811988 5.639932965095795e-15
  endloop
endfacet
facet normal 0.6087614290087227 -0.7933533402912338 -0.0
  outer loop
    vertex 74.22720779386421 18.272792206135783 5.639932965095795e-15
    vertex 74.6 18.558845726811988 1.9999999999999998
    vertex 74.22720779386421 18.272792206135783 1.9999999999999998
  endloop
endfacet
facet normal 0.7933533402912365 -0.6087614290087189 -0.0
  outer loop
    vertex 74.22720779386421 18.272792206135783 5.639932965095795e-15
    vertex 73.941154273188 17.9 1.9999999999999998
    vertex 73.941154273188 17.9 5.639932965095795e-15
  endloop
endfacet
facet normal 0.7933533402912365 -0.6087614290087189 -0.0
  outer loop
    vertex 73.941154273188 17.9 1.9999999999999998
    vertex 74.22720779386421 18.272792206135783 5.639932965095795e-15
    vertex 74.22720779386421 18.272792206135783 1.9999999999999998
  endloop
endfacet
facet normal 0.9238795325112849 -0.3826834323650944 -0.0
  outer loop
    vertex 73.941154273188 17.9 5.639932965095795e-15
    vertex 73.76133351267967 17.465874281184536 1.9999999999999998
    vertex 73.76133351267967 17.465874281184536 5.639932965095795e-15
  endloop
endfacet
facet normal 0.9238795325112849 -0.3826834323650944 -0.0
  outer loop
    vertex 73.76133351267967 17.465874281184536 1.9999999999999998
    vertex 73.941154273188 17.9 5.639932965095795e-15
    vertex 73.941154273188 17.9 1.9999999999999998
  endloop
endfacet
facet normal 0.9914448613738114 -0.13052619222004508 -0.0
  outer loop
    vertex 73.76133351267967 17.465874281184536 5.639932965095795e-15
    vertex 73.7 17.0 1.9999999999999998
    vertex 73.7 17.0 5.639932965095795e-15
  endloop
endfacet
facet normal 0.9914448613738114 -0.13052619222004508 -0.0
  outer loop
    vertex 73.7 17.0 1.9999999999999998
    vertex 73.76133351267967 17.465874281184536 5.639932965095795e-15
    vertex 73.76133351267967 17.465874281184536 1.9999999999999998
  endloop
endfacet
facet normal 0.9914448613738114 0.1305261922200443 0.0
  outer loop
    vertex 73.7 17.0 5.639932965095795e-15
    vertex 73.76133351267967 16.53412571881546 1.9999999999999998
    vertex 73.76133351267967 16.53412571881546 5.639932965095795e-15
  endloop
endfacet
facet normal 0.9914448613738114 0.1305261922200443 0.0
  outer loop
    vertex 73.76133351267967 16.53412571881546 1.9999999999999998
    vertex 73.7 17.0 5.639932965095795e-15
    vertex 73.7 17.0 1.9999999999999998
  endloop
endfacet
facet normal 0.9238795325112849 0.3826834323650944 0.0
  outer loop
    vertex 73.76133351267967 16.53412571881546 5.639932965095795e-15
    vertex 73.941154273188 16.099999999999998 1.9999999999999998
    vertex 73.941154273188 16.099999999999998 5.639932965095795e-15
  endloop
endfacet
facet normal 0.9238795325112849 0.3826834323650944 0.0
  outer loop
    vertex 73.941154273188 16.099999999999998 1.9999999999999998
    vertex 73.76133351267967 16.53412571881546 5.639932965095795e-15
    vertex 73.76133351267967 16.53412571881546 1.9999999999999998
  endloop
endfacet
facet normal 0.7933533402912345 0.6087614290087218 0.0
  outer loop
    vertex 73.941154273188 16.099999999999998 5.639932965095795e-15
    vertex 74.22720779386421 15.727207793864215 1.9999999999999998
    vertex 74.22720779386421 15.727207793864215 5.639932965095795e-15
  endloop
endfacet
facet normal 0.7933533402912345 0.6087614290087218 0.0
  outer loop
    vertex 74.22720779386421 15.727207793864215 1.9999999999999998
    vertex 73.941154273188 16.099999999999998 5.639932965095795e-15
    vertex 73.941154273188 16.099999999999998 1.9999999999999998
  endloop
endfacet
facet normal 0.6087614290087227 0.7933533402912338 0.0
  outer loop
    vertex 74.22720779386421 15.727207793864215 1.9999999999999998
    vertex 74.6 15.44115427318801 5.639932965095795e-15
    vertex 74.22720779386421 15.727207793864215 5.639932965095795e-15
  endloop
endfacet
facet normal 0.6087614290087227 0.7933533402912338 0.0
  outer loop
    vertex 74.6 15.44115427318801 5.639932965095795e-15
    vertex 74.22720779386421 15.727207793864215 1.9999999999999998
    vertex 74.6 15.44115427318801 1.9999999999999998
  endloop
endfacet
facet normal 0.38268343236509134 0.9238795325112861 0.0
  outer loop
    vertex 74.6 15.44115427318801 1.9999999999999998
    vertex 75.03412571881546 15.261333512679677 5.639932965095795e-15
    vertex 74.6 15.44115427318801 5.639932965095795e-15
  endloop
endfacet
facet normal 0.38268343236509134 0.9238795325112861 0.0
  outer loop
    vertex 75.03412571881546 15.261333512679677 5.639932965095795e-15
    vertex 74.6 15.44115427318801 1.9999999999999998
    vertex 75.03412571881546 15.261333512679677 1.9999999999999998
  endloop
endfacet
facet normal 0.1305261922200502 0.9914448613738107 0.0
  outer loop
    vertex 75.03412571881546 15.261333512679677 1.9999999999999998
    vertex 75.5 15.200000000000001 5.639932965095795e-15
    vertex 75.03412571881546 15.261333512679677 5.639932965095795e-15
  endloop
endfacet
facet normal 0.1305261922200502 0.9914448613738107 0.0
  outer loop
    vertex 75.5 15.200000000000001 5.639932965095795e-15
    vertex 75.03412571881546 15.261333512679677 1.9999999999999998
    vertex 75.5 15.200000000000001 1.9999999999999998
  endloop
endfacet
facet normal -0.1305261922200502 0.9914448613738107 -0.0
  outer loop
    vertex 75.5 15.200000000000001 1.9999999999999998
    vertex 75.96587428118454 15.261333512679677 5.639932965095795e-15
    vertex 75.5 15.200000000000001 5.639932965095795e-15
  endloop
endfacet
facet normal -0.1305261922200502 0.9914448613738107 -0.0
  outer loop
    vertex 75.96587428118454 15.261333512679677 5.639932965095795e-15
    vertex 75.5 15.200000000000001 1.9999999999999998
    vertex 75.96587428118454 15.261333512679677 1.9999999999999998
  endloop
endfacet
facet normal -0.38268343236509134 0.9238795325112861 -0.0
  outer loop
    vertex 75.96587428118454 15.261333512679677 1.9999999999999998
    vertex 76.39999999999999 15.44115427318801 5.639932965095795e-15
    vertex 75.96587428118454 15.261333512679677 5.639932965095795e-15
  endloop
endfacet
facet normal -0.38268343236509134 0.9238795325112861 -0.0
  outer loop
    vertex 76.39999999999999 15.44115427318801 5.639932965095795e-15
    vertex 75.96587428118454 15.261333512679677 1.9999999999999998
    vertex 76.39999999999999 15.44115427318801 1.9999999999999998
  endloop
endfacet
facet normal -0.6087614290087227 0.7933533402912338 -0.0
  outer loop
    vertex 76.39999999999999 15.44115427318801 1.9999999999999998
    vertex 76.77279220613578 15.727207793864215 5.639932965095795e-15
    vertex 76.39999999999999 15.44115427318801 5.639932965095795e-15
  endloop
endfacet
facet normal -0.6087614290087227 0.7933533402912338 -0.0
  outer loop
    vertex 76.77279220613578 15.727207793864215 5.639932965095795e-15
    vertex 76.39999999999999 15.44115427318801 1.9999999999999998
    vertex 76.77279220613578 15.727207793864215 1.9999999999999998
  endloop
endfacet
facet normal -0.7933533402912365 0.6087614290087189 -0.0
  outer loop
    vertex 77.05884572681198 16.1 1.9999999999999998
    vertex 76.77279220613578 15.727207793864215 5.639932965095795e-15
    vertex 76.77279220613578 15.727207793864215 1.9999999999999998
  endloop
endfacet
facet normal -0.7933533402912365 0.6087614290087189 -0.0
  outer loop
    vertex 76.77279220613578 15.727207793864215 5.639932965095795e-15
    vertex 77.05884572681198 16.1 1.9999999999999998
    vertex 77.05884572681198 16.1 5.639932965095795e-15
  endloop
endfacet
facet normal -0.9238795325112849 0.3826834323650944 -0.0
  outer loop
    vertex 77.23866648732032 16.534125718815464 1.9999999999999998
    vertex 77.05884572681198 16.1 5.639932965095795e-15
    vertex 77.05884572681198 16.1 1.9999999999999998
  endloop
endfacet
facet normal -0.9238795325112849 0.3826834323650944 -0.0
  outer loop
    vertex 77.05884572681198 16.1 5.639932965095795e-15
    vertex 77.23866648732032 16.534125718815464 1.9999999999999998
    vertex 77.23866648732032 16.534125718815464 5.639932965095795e-15
  endloop
endfacet
endsolid ElectronicsCover
