solid innerGratingMountB-1
facet normal 0.0 0.0 -1.0
  outer loop
    vertex -1.9999999999999996 15.999999999999998 0.0
    vertex 0.7613335126796785 10.465874281184533 -4.93494134445882e-15
    vertex -1.9999999999999996 0.0 0.0
  endloop
endfacet
facet normal 0.0 0.0 -1.0
  outer loop
    vertex 0.7613335126796785 10.465874281184533 -4.93494134445882e-15
    vertex -1.9999999999999996 15.999999999999998 0.0
    vertex 0.9411542731880116 10.899999999999997 -4.93494134445882e-15
  endloop
endfacet
facet normal 0.0 0.0 -1.0
  outer loop
    vertex 0.9411542731880116 10.899999999999997 -4.93494134445882e-15
    vertex -1.9999999999999996 15.999999999999998 0.0
    vertex 1.2272077938642152 11.272792206135781 -4.93494134445882e-15
  endloop
endfacet
facet normal 0.0 0.0 -1.0
  outer loop
    vertex 1.2272077938642152 11.272792206135781 -4.93494134445882e-15
    vertex -1.9999999999999996 15.999999999999998 0.0
    vertex 1.6000000000000005 11.558845726811986 -4.93494134445882e-15
  endloop
endfacet
facet normal 0.0 0.0 -1.0
  outer loop
    vertex 1.6000000000000005 11.558845726811986 -4.93494134445882e-15
    vertex -1.9999999999999996 15.999999999999998 0.0
    vertex 2.0341257188154622 11.73866648732032 -4.93494134445882e-15
  endloop
endfacet
facet normal 0.0 0.0 -1.0
  outer loop
    vertex 2.0341257188154622 11.73866648732032 -4.93494134445882e-15
    vertex -1.9999999999999996 15.999999999999998 0.0
    vertex 28.0 15.999999999999998 0.0
  endloop
endfacet
facet normal 0.0 0.0 -1.0
  outer loop
    vertex -1.9999999999999996 0.0 0.0
    vertex 0.7613335126796785 10.465874281184533 -4.93494134445882e-15
    vertex 0.7000000000000015 9.999999999999996 -4.93494134445882e-15
  endloop
endfacet
facet normal 0.0 0.0 -1.0
  outer loop
    vertex 2.0341257188154622 11.73866648732032 -4.93494134445882e-15
    vertex 28.0 15.999999999999998 0.0
    vertex 2.500000000000001 11.799999999999997 -4.93494134445882e-15
  endloop
endfacet
facet normal 0.0 0.0 -1.0
  outer loop
    vertex 2.500000000000001 11.799999999999997 -4.93494134445882e-15
    vertex 28.0 15.999999999999998 0.0
    vertex 2.9658742811845378 11.73866648732032 -4.93494134445882e-15
  endloop
endfacet
facet normal 0.0 0.0 -1.0
  outer loop
    vertex 2.9658742811845378 11.73866648732032 -4.93494134445882e-15
    vertex 28.0 15.999999999999998 0.0
    vertex 3.3999999999999995 11.558845726811986 -4.93494134445882e-15
  endloop
endfacet
facet normal 0.0 0.0 -1.0
  outer loop
    vertex 3.3999999999999995 11.558845726811986 -4.93494134445882e-15
    vertex 28.0 15.999999999999998 0.0
    vertex 3.772792206135786 11.272792206135783 -4.93494134445882e-15
  endloop
endfacet
facet normal 0.0 0.0 -1.0
  outer loop
    vertex 3.772792206135786 11.272792206135783 -4.93494134445882e-15
    vertex 28.0 15.999999999999998 0.0
    vertex 4.05884572681199 10.899999999999999 -4.93494134445882e-15
  endloop
endfacet
facet normal 0.0 0.0 -1.0
  outer loop
    vertex 4.05884572681199 10.899999999999999 -4.93494134445882e-15
    vertex 28.0 15.999999999999998 0.0
    vertex 4.238666487320323 10.465874281184536 -4.93494134445882e-15
  endloop
endfacet
facet normal 0.0 0.0 -1.0
  outer loop
    vertex 4.238666487320323 10.465874281184536 -4.93494134445882e-15
    vertex 28.0 15.999999999999998 0.0
    vertex 4.300000000000001 9.999999999999996 -4.93494134445882e-15
  endloop
endfacet
facet normal 0.0 0.0 -1.0
  outer loop
    vertex 4.300000000000001 9.999999999999996 -4.93494134445882e-15
    vertex 28.0 15.999999999999998 0.0
    vertex 22.727207793864213 11.272792206135785 -4.229949723821846e-15
  endloop
endfacet
facet normal 0.0 0.0 -1.0
  outer loop
    vertex 4.300000000000001 9.999999999999996 -4.93494134445882e-15
    vertex 22.727207793864213 11.272792206135785 -4.229949723821846e-15
    vertex 22.44115427318801 10.899999999999999 -4.229949723821846e-15
  endloop
endfacet
facet normal 0.0 0.0 -1.0
  outer loop
    vertex 4.300000000000001 9.999999999999996 -4.93494134445882e-15
    vertex 22.44115427318801 10.899999999999999 -4.229949723821846e-15
    vertex 22.261333512679677 10.465874281184535 -4.229949723821846e-15
  endloop
endfacet
facet normal 0.0 0.0 -1.0
  outer loop
    vertex 4.300000000000001 9.999999999999996 -4.93494134445882e-15
    vertex 22.261333512679677 10.465874281184535 -4.229949723821846e-15
    vertex 22.2 9.999999999999996 -4.229949723821846e-15
  endloop
endfacet
facet normal 0.0 0.0 -1.0
  outer loop
    vertex 22.727207793864213 11.272792206135785 -4.229949723821846e-15
    vertex 28.0 15.999999999999998 0.0
    vertex 23.1 11.558845726811988 -4.229949723821846e-15
  endloop
endfacet
facet normal 0.0 0.0 -1.0
  outer loop
    vertex 23.1 11.558845726811988 -4.229949723821846e-15
    vertex 28.0 15.999999999999998 0.0
    vertex 23.534125718815464 11.738666487320321 -4.229949723821846e-15
  endloop
endfacet
facet normal 0.0 0.0 -1.0
  outer loop
    vertex 23.534125718815464 11.738666487320321 -4.229949723821846e-15
    vertex 28.0 15.999999999999998 0.0
    vertex 24.0 11.799999999999999 -4.229949723821846e-15
  endloop
endfacet
facet normal 0.0 0.0 -1.0
  outer loop
    vertex 24.0 11.799999999999999 -4.229949723821846e-15
    vertex 28.0 15.999999999999998 0.0
    vertex 24.465874281184536 11.738666487320323 -4.229949723821846e-15
  endloop
endfacet
facet normal 0.0 0.0 -1.0
  outer loop
    vertex 24.465874281184536 11.738666487320323 -4.229949723821846e-15
    vertex 28.0 15.999999999999998 0.0
    vertex 24.9 11.55884572681199 -4.229949723821846e-15
  endloop
endfacet
facet normal 0.0 0.0 -1.0
  outer loop
    vertex 24.9 11.55884572681199 -4.229949723821846e-15
    vertex 28.0 15.999999999999998 0.0
    vertex 25.272792206135787 11.272792206135785 -4.229949723821846e-15
  endloop
endfacet
facet normal 0.0 0.0 -1.0
  outer loop
    vertex 25.272792206135787 11.272792206135785 -4.229949723821846e-15
    vertex 28.0 15.999999999999998 0.0
    vertex 25.558845726811995 10.9 -4.229949723821846e-15
  endloop
endfacet
facet normal 0.0 0.0 -1.0
  outer loop
    vertex 25.558845726811995 10.9 -4.229949723821846e-15
    vertex 28.0 15.999999999999998 0.0
    vertex 25.738666487320323 10.465874281184536 -4.229949723821846e-15
  endloop
endfacet
facet normal 0.0 0.0 -1.0
  outer loop
    vertex 25.738666487320323 10.465874281184536 -4.229949723821846e-15
    vertex 28.0 15.999999999999998 0.0
    vertex 25.800000000000004 9.999999999999996 -4.229949723821846e-15
  endloop
endfacet
facet normal 0.0 0.0 -1.0
  outer loop
    vertex -1.9999999999999996 0.0 0.0
    vertex 2.034125718815464 8.261333512679673 -4.93494134445882e-15
    vertex 28.0 0.0 0.0
  endloop
endfacet
facet normal 0.0 0.0 -1.0
  outer loop
    vertex 2.034125718815464 8.261333512679673 -4.93494134445882e-15
    vertex -1.9999999999999996 0.0 0.0
    vertex 1.6000000000000016 8.441154273188008 -4.93494134445882e-15
  endloop
endfacet
facet normal 0.0 0.0 -1.0
  outer loop
    vertex 1.6000000000000016 8.441154273188008 -4.93494134445882e-15
    vertex -1.9999999999999996 0.0 0.0
    vertex 1.227207793864216 8.727207793864212 -4.93494134445882e-15
  endloop
endfacet
facet normal 0.0 0.0 -1.0
  outer loop
    vertex 1.227207793864216 8.727207793864212 -4.93494134445882e-15
    vertex -1.9999999999999996 0.0 0.0
    vertex 0.9411542731880121 9.099999999999998 -4.93494134445882e-15
  endloop
endfacet
facet normal 0.0 0.0 -1.0
  outer loop
    vertex 0.9411542731880121 9.099999999999998 -4.93494134445882e-15
    vertex -1.9999999999999996 0.0 0.0
    vertex 0.7613335126796789 9.53412571881546 -4.93494134445882e-15
  endloop
endfacet
facet normal 0.0 0.0 -1.0
  outer loop
    vertex 0.7613335126796789 9.53412571881546 -4.93494134445882e-15
    vertex -1.9999999999999996 0.0 0.0
    vertex 0.7000000000000015 9.999999999999996 -4.93494134445882e-15
  endloop
endfacet
facet normal 0.0 0.0 -1.0
  outer loop
    vertex 28.0 0.0 0.0
    vertex 2.034125718815464 8.261333512679673 -4.93494134445882e-15
    vertex 2.500000000000001 8.199999999999998 -4.93494134445882e-15
  endloop
endfacet
facet normal 0.0 0.0 -1.0
  outer loop
    vertex 28.0 0.0 0.0
    vertex 2.500000000000001 8.199999999999998 -4.93494134445882e-15
    vertex 2.9658742811845387 8.261333512679675 -4.93494134445882e-15
  endloop
endfacet
facet normal 0.0 0.0 -1.0
  outer loop
    vertex 28.0 0.0 0.0
    vertex 2.9658742811845387 8.261333512679675 -4.93494134445882e-15
    vertex 3.400000000000001 8.441154273188008 -4.93494134445882e-15
  endloop
endfacet
facet normal 0.0 0.0 -1.0
  outer loop
    vertex 28.0 0.0 0.0
    vertex 3.400000000000001 8.441154273188008 -4.93494134445882e-15
    vertex 3.7727922061357866 8.727207793864212 -4.93494134445882e-15
  endloop
endfacet
facet normal 0.0 0.0 -1.0
  outer loop
    vertex 28.0 0.0 0.0
    vertex 3.7727922061357866 8.727207793864212 -4.93494134445882e-15
    vertex 4.05884572681199 9.099999999999998 -4.93494134445882e-15
  endloop
endfacet
facet normal 0.0 0.0 -1.0
  outer loop
    vertex 28.0 0.0 0.0
    vertex 4.05884572681199 9.099999999999998 -4.93494134445882e-15
    vertex 4.238666487320324 9.53412571881546 -4.93494134445882e-15
  endloop
endfacet
facet normal 0.0 0.0 -1.0
  outer loop
    vertex 28.0 0.0 0.0
    vertex 4.238666487320324 9.53412571881546 -4.93494134445882e-15
    vertex 4.300000000000001 9.999999999999996 -4.93494134445882e-15
  endloop
endfacet
facet normal 0.0 0.0 -1.0
  outer loop
    vertex 28.0 0.0 0.0
    vertex 4.300000000000001 9.999999999999996 -4.93494134445882e-15
    vertex 22.441154273188012 9.099999999999996 -4.229949723821846e-15
  endloop
endfacet
facet normal 0.0 0.0 -1.0
  outer loop
    vertex 22.441154273188012 9.099999999999996 -4.229949723821846e-15
    vertex 4.300000000000001 9.999999999999996 -4.93494134445882e-15
    vertex 22.261333512679677 9.534125718815458 -4.229949723821846e-15
  endloop
endfacet
facet normal 0.0 0.0 -1.0
  outer loop
    vertex 22.261333512679677 9.534125718815458 -4.229949723821846e-15
    vertex 4.300000000000001 9.999999999999996 -4.93494134445882e-15
    vertex 22.2 9.999999999999996 -4.229949723821846e-15
  endloop
endfacet
facet normal 0.0 0.0 -1.0
  outer loop
    vertex 28.0 0.0 0.0
    vertex 22.441154273188012 9.099999999999996 -4.229949723821846e-15
    vertex 22.727207793864213 8.72720779386421 -4.229949723821846e-15
  endloop
endfacet
facet normal 0.0 0.0 -1.0
  outer loop
    vertex 28.0 0.0 0.0
    vertex 22.727207793864213 8.72720779386421 -4.229949723821846e-15
    vertex 23.1 8.441154273188006 -4.229949723821846e-15
  endloop
endfacet
facet normal 0.0 0.0 -1.0
  outer loop
    vertex 28.0 0.0 0.0
    vertex 23.1 8.441154273188006 -4.229949723821846e-15
    vertex 23.534125718815464 8.261333512679672 -4.229949723821846e-15
  endloop
endfacet
facet normal 0.0 0.0 -1.0
  outer loop
    vertex 28.0 0.0 0.0
    vertex 23.534125718815464 8.261333512679672 -4.229949723821846e-15
    vertex 24.0 8.199999999999994 -4.229949723821846e-15
  endloop
endfacet
facet normal 0.0 0.0 -1.0
  outer loop
    vertex 28.0 0.0 0.0
    vertex 24.0 8.199999999999994 -4.229949723821846e-15
    vertex 24.46587428118454 8.261333512679673 -4.229949723821846e-15
  endloop
endfacet
facet normal 0.0 0.0 -1.0
  outer loop
    vertex 28.0 0.0 0.0
    vertex 24.46587428118454 8.261333512679673 -4.229949723821846e-15
    vertex 24.900000000000002 8.441154273188006 -4.229949723821846e-15
  endloop
endfacet
facet normal 0.0 0.0 -1.0
  outer loop
    vertex 28.0 0.0 0.0
    vertex 24.900000000000002 8.441154273188006 -4.229949723821846e-15
    vertex 25.272792206135787 8.72720779386421 -4.229949723821846e-15
  endloop
endfacet
facet normal 0.0 0.0 -1.0
  outer loop
    vertex 28.0 0.0 0.0
    vertex 25.272792206135787 8.72720779386421 -4.229949723821846e-15
    vertex 25.558845726811995 9.099999999999996 -4.229949723821846e-15
  endloop
endfacet
facet normal 0.0 0.0 -1.0
  outer loop
    vertex 28.0 0.0 0.0
    vertex 25.558845726811995 9.099999999999996 -4.229949723821846e-15
    vertex 25.738666487320323 9.53412571881546 -4.229949723821846e-15
  endloop
endfacet
facet normal 0.0 0.0 -1.0
  outer loop
    vertex 28.0 0.0 0.0
    vertex 25.738666487320323 9.53412571881546 -4.229949723821846e-15
    vertex 25.800000000000004 9.999999999999996 -4.229949723821846e-15
  endloop
endfacet
facet normal 0.0 0.0 -1.0
  outer loop
    vertex 28.0 0.0 0.0
    vertex 25.800000000000004 9.999999999999996 -4.229949723821846e-15
    vertex 28.0 15.999999999999998 0.0
  endloop
endfacet
facet normal 1.0 0.0 0.0
  outer loop
    vertex 28.0 0.0 0.0
    vertex 28.0 9.999999999999996 5.999999999999996
    vertex 28.0 -5.405711148378967e-32 6.0
  endloop
endfacet
facet normal 1.0 0.0 0.0
  outer loop
    vertex 28.0 9.999999999999996 5.999999999999996
    vertex 28.0 0.0 0.0
    vertex 28.0 15.999999999999998 0.0
  endloop
endfacet
facet normal 1.0 0.0 0.0
  outer loop
    vertex 28.0 9.999999999999996 5.999999999999996
    vertex 28.0 15.999999999999998 0.0
    vertex 28.0 15.999999999999998 5.999999999999996
  endloop
endfacet
facet normal -0.0 -1.0 -0.0
  outer loop
    vertex 28.0 -5.405711148378967e-32 6.0
    vertex -1.9999999999999996 0.0 0.0
    vertex 28.0 0.0 0.0
  endloop
endfacet
facet normal -0.0 -1.0 -0.0
  outer loop
    vertex -1.9999999999999996 0.0 0.0
    vertex 28.0 -5.405711148378967e-32 6.0
    vertex -1.9999999999999996 -5.405711148378967e-32 6.0
  endloop
endfacet
facet normal -1.0 0.0 0.0
  outer loop
    vertex -1.9999999999999996 15.999999999999998 6.0
    vertex -1.9999999999999996 0.0 0.0
    vertex -1.9999999999999996 -5.405711148378967e-32 6.0
  endloop
endfacet
facet normal -1.0 0.0 0.0
  outer loop
    vertex -1.9999999999999996 0.0 0.0
    vertex -1.9999999999999996 15.999999999999998 6.0
    vertex -1.9999999999999996 15.999999999999998 0.0
  endloop
endfacet
facet normal -0.0 -0.0 1.0
  outer loop
    vertex 24.465874281184536 11.738666487320323 5.999999999999996
    vertex 24.0 15.999999999999998 5.999999999999996
    vertex 24.0 11.799999999999999 5.999999999999996
  endloop
endfacet
facet normal -0.0 -0.0 1.0
  outer loop
    vertex 24.0 15.999999999999998 5.999999999999996
    vertex 24.465874281184536 11.738666487320323 5.999999999999996
    vertex 28.0 15.999999999999998 5.999999999999996
  endloop
endfacet
facet normal -0.0 -0.0 1.0
  outer loop
    vertex 28.0 15.999999999999998 5.999999999999996
    vertex 24.465874281184536 11.738666487320323 5.999999999999996
    vertex 24.9 11.55884572681199 5.999999999999996
  endloop
endfacet
facet normal -0.0 -0.0 1.0
  outer loop
    vertex 28.0 15.999999999999998 5.999999999999996
    vertex 24.9 11.55884572681199 5.999999999999996
    vertex 25.272792206135787 11.272792206135785 5.999999999999996
  endloop
endfacet
facet normal -0.0 -0.0 1.0
  outer loop
    vertex 28.0 15.999999999999998 5.999999999999996
    vertex 25.272792206135787 11.272792206135785 5.999999999999996
    vertex 25.558845726811995 10.9 5.999999999999996
  endloop
endfacet
facet normal -0.0 -0.0 1.0
  outer loop
    vertex 28.0 15.999999999999998 5.999999999999996
    vertex 25.558845726811995 10.9 5.999999999999996
    vertex 25.738666487320323 10.465874281184536 5.999999999999996
  endloop
endfacet
facet normal -0.0 -0.0 1.0
  outer loop
    vertex 28.0 15.999999999999998 5.999999999999996
    vertex 25.738666487320323 10.465874281184536 5.999999999999996
    vertex 25.800000000000004 9.999999999999996 5.999999999999996
  endloop
endfacet
facet normal -0.0 -0.0 1.0
  outer loop
    vertex 28.0 15.999999999999998 5.999999999999996
    vertex 25.800000000000004 9.999999999999996 5.999999999999996
    vertex 28.0 9.999999999999996 5.999999999999996
  endloop
endfacet
facet normal -0.9914448613738105 0.13052619222005057 -0.0
  outer loop
    vertex 4.300000000000001 9.999999999999996 6.0
    vertex 4.238666487320324 9.53412571881546 -4.93494134445882e-15
    vertex 4.238666487320324 9.53412571881546 6.0
  endloop
endfacet
facet normal -0.9914448613738105 0.13052619222005057 -0.0
  outer loop
    vertex 4.238666487320324 9.53412571881546 -4.93494134445882e-15
    vertex 4.300000000000001 9.999999999999996 6.0
    vertex 4.300000000000001 9.999999999999996 -4.93494134445882e-15
  endloop
endfacet
facet normal -0.9914448613738104 -0.13052619222005166 -0.0
  outer loop
    vertex 4.238666487320323 10.465874281184536 6.0
    vertex 4.300000000000001 9.999999999999996 -4.93494134445882e-15
    vertex 4.300000000000001 9.999999999999996 6.0
  endloop
endfacet
facet normal -0.9914448613738104 -0.13052619222005166 -0.0
  outer loop
    vertex 4.300000000000001 9.999999999999996 -4.93494134445882e-15
    vertex 4.238666487320323 10.465874281184536 6.0
    vertex 4.238666487320323 10.465874281184536 -4.93494134445882e-15
  endloop
endfacet
facet normal -0.9238795325112865 -0.3826834323650906 -0.0
  outer loop
    vertex 4.05884572681199 10.899999999999999 6.0
    vertex 4.238666487320323 10.465874281184536 -4.93494134445882e-15
    vertex 4.238666487320323 10.465874281184536 6.0
  endloop
endfacet
facet normal -0.9238795325112865 -0.3826834323650906 -0.0
  outer loop
    vertex 4.238666487320323 10.465874281184536 -4.93494134445882e-15
    vertex 4.05884572681199 10.899999999999999 6.0
    vertex 4.05884572681199 10.899999999999999 -4.93494134445882e-15
  endloop
endfacet
facet normal -0.7933533402912347 -0.6087614290087213 -0.0
  outer loop
    vertex 3.772792206135786 11.272792206135783 6.0
    vertex 4.05884572681199 10.899999999999999 -4.93494134445882e-15
    vertex 4.05884572681199 10.899999999999999 6.0
  endloop
endfacet
facet normal -0.7933533402912347 -0.6087614290087213 -0.0
  outer loop
    vertex 4.05884572681199 10.899999999999999 -4.93494134445882e-15
    vertex 3.772792206135786 11.272792206135783 6.0
    vertex 3.772792206135786 11.272792206135783 -4.93494134445882e-15
  endloop
endfacet
facet normal -0.6087614290087201 -0.7933533402912357 -0.0
  outer loop
    vertex 3.772792206135786 11.272792206135783 6.0
    vertex 3.3999999999999995 11.558845726811986 -4.93494134445882e-15
    vertex 3.772792206135786 11.272792206135783 -4.93494134445882e-15
  endloop
endfacet
facet normal -0.6087614290087201 -0.7933533402912357 -0.0
  outer loop
    vertex 3.3999999999999995 11.558845726811986 -4.93494134445882e-15
    vertex 3.772792206135786 11.272792206135783 6.0
    vertex 3.3999999999999995 11.558845726811986 6.0
  endloop
endfacet
facet normal -0.3826834323650898 -0.9238795325112867 -0.0
  outer loop
    vertex 3.3999999999999995 11.558845726811986 6.0
    vertex 2.9658742811845378 11.73866648732032 -4.93494134445882e-15
    vertex 3.3999999999999995 11.558845726811986 -4.93494134445882e-15
  endloop
endfacet
facet normal -0.3826834323650898 -0.9238795325112867 -0.0
  outer loop
    vertex 2.9658742811845378 11.73866648732032 -4.93494134445882e-15
    vertex 3.3999999999999995 11.558845726811986 6.0
    vertex 2.9658742811845378 11.73866648732032 6.0
  endloop
endfacet
facet normal -0.13052619222005069 -0.9914448613738106 -0.0
  outer loop
    vertex 2.9658742811845378 11.73866648732032 6.0
    vertex 2.500000000000001 11.799999999999997 -4.93494134445882e-15
    vertex 2.9658742811845378 11.73866648732032 -4.93494134445882e-15
  endloop
endfacet
facet normal -0.13052619222005069 -0.9914448613738106 -0.0
  outer loop
    vertex 2.500000000000001 11.799999999999997 -4.93494134445882e-15
    vertex 2.9658742811845378 11.73866648732032 6.0
    vertex 2.500000000000001 11.799999999999997 6.0
  endloop
endfacet
facet normal 0.13052619222005324 -0.9914448613738102 -0.0
  outer loop
    vertex 2.500000000000001 11.799999999999997 6.0
    vertex 2.0341257188154622 11.73866648732032 -4.93494134445882e-15
    vertex 2.500000000000001 11.799999999999997 -4.93494134445882e-15
  endloop
endfacet
facet normal 0.13052619222005324 -0.9914448613738102 -0.0
  outer loop
    vertex 2.0341257188154622 11.73866648732032 -4.93494134445882e-15
    vertex 2.500000000000001 11.799999999999997 6.0
    vertex 2.0341257188154622 11.73866648732032 6.0
  endloop
endfacet
facet normal 0.3826834323650898 -0.9238795325112867 -0.0
  outer loop
    vertex 2.0341257188154622 11.73866648732032 6.0
    vertex 1.6000000000000005 11.558845726811986 -4.93494134445882e-15
    vertex 2.0341257188154622 11.73866648732032 -4.93494134445882e-15
  endloop
endfacet
facet normal 0.3826834323650898 -0.9238795325112867 -0.0
  outer loop
    vertex 1.6000000000000005 11.558845726811986 -4.93494134445882e-15
    vertex 2.0341257188154622 11.73866648732032 6.0
    vertex 1.6000000000000005 11.558845726811986 6.0
  endloop
endfacet
facet normal 0.6087614290087211 -0.7933533402912348 -0.0
  outer loop
    vertex 1.6000000000000005 11.558845726811986 6.0
    vertex 1.2272077938642152 11.272792206135781 -4.93494134445882e-15
    vertex 1.6000000000000005 11.558845726811986 -4.93494134445882e-15
  endloop
endfacet
facet normal 0.6087614290087211 -0.7933533402912348 -0.0
  outer loop
    vertex 1.2272077938642152 11.272792206135781 -4.93494134445882e-15
    vertex 1.6000000000000005 11.558845726811986 6.0
    vertex 1.2272077938642152 11.272792206135781 6.0
  endloop
endfacet
facet normal 0.7933533402912348 -0.608761429008721 -0.0
  outer loop
    vertex 1.2272077938642152 11.272792206135781 -4.93494134445882e-15
    vertex 0.9411542731880116 10.899999999999997 6.0
    vertex 0.9411542731880116 10.899999999999997 -4.93494134445882e-15
  endloop
endfacet
facet normal 0.7933533402912348 -0.608761429008721 -0.0
  outer loop
    vertex 0.9411542731880116 10.899999999999997 6.0
    vertex 1.2272077938642152 11.272792206135781 -4.93494134445882e-15
    vertex 1.2272077938642152 11.272792206135781 6.0
  endloop
endfacet
facet normal 0.9238795325112873 -0.3826834323650885 -0.0
  outer loop
    vertex 0.9411542731880116 10.899999999999997 -4.93494134445882e-15
    vertex 0.7613335126796785 10.465874281184533 6.0
    vertex 0.7613335126796785 10.465874281184533 -4.93494134445882e-15
  endloop
endfacet
facet normal 0.9238795325112873 -0.3826834323650885 -0.0
  outer loop
    vertex 0.7613335126796785 10.465874281184533 6.0
    vertex 0.9411542731880116 10.899999999999997 -4.93494134445882e-15
    vertex 0.9411542731880116 10.899999999999997 6.0
  endloop
endfacet
facet normal 0.9914448613738105 -0.1305261922200517 -0.0
  outer loop
    vertex 0.7613335126796785 10.465874281184533 -4.93494134445882e-15
    vertex 0.7000000000000015 9.999999999999996 6.0
    vertex 0.7000000000000015 9.999999999999996 -4.93494134445882e-15
  endloop
endfacet
facet normal 0.9914448613738105 -0.1305261922200517 -0.0
  outer loop
    vertex 0.7000000000000015 9.999999999999996 6.0
    vertex 0.7613335126796785 10.465874281184533 -4.93494134445882e-15
    vertex 0.7613335126796785 10.465874281184533 6.0
  endloop
endfacet
facet normal 0.9914448613738105 0.13052619222005207 0.0
  outer loop
    vertex 0.7000000000000015 9.999999999999996 -4.93494134445882e-15
    vertex 0.7613335126796789 9.53412571881546 6.0
    vertex 0.7613335126796789 9.53412571881546 -4.93494134445882e-15
  endloop
endfacet
facet normal 0.9914448613738105 0.13052619222005207 0.0
  outer loop
    vertex 0.7613335126796789 9.53412571881546 6.0
    vertex 0.7000000000000015 9.999999999999996 -4.93494134445882e-15
    vertex 0.7000000000000015 9.999999999999996 6.0
  endloop
endfacet
facet normal 0.9238795325112867 0.3826834323650899 0.0
  outer loop
    vertex 0.7613335126796789 9.53412571881546 -4.93494134445882e-15
    vertex 0.9411542731880121 9.099999999999998 6.0
    vertex 0.9411542731880121 9.099999999999998 -4.93494134445882e-15
  endloop
endfacet
facet normal 0.9238795325112867 0.3826834323650899 0.0
  outer loop
    vertex 0.9411542731880121 9.099999999999998 6.0
    vertex 0.7613335126796789 9.53412571881546 -4.93494134445882e-15
    vertex 0.7613335126796789 9.53412571881546 6.0
  endloop
endfacet
facet normal 0.7933533402912357 0.6087614290087201 0.0
  outer loop
    vertex 0.9411542731880121 9.099999999999998 -4.93494134445882e-15
    vertex 1.227207793864216 8.727207793864212 6.0
    vertex 1.227207793864216 8.727207793864212 -4.93494134445882e-15
  endloop
endfacet
facet normal 0.7933533402912357 0.6087614290087201 0.0
  outer loop
    vertex 1.227207793864216 8.727207793864212 6.0
    vertex 0.9411542731880121 9.099999999999998 -4.93494134445882e-15
    vertex 0.9411542731880121 9.099999999999998 6.0
  endloop
endfacet
facet normal 0.608761429008719 0.7933533402912364 0.0
  outer loop
    vertex 1.227207793864216 8.727207793864212 6.0
    vertex 1.6000000000000016 8.441154273188008 -4.93494134445882e-15
    vertex 1.227207793864216 8.727207793864212 -4.93494134445882e-15
  endloop
endfacet
facet normal 0.608761429008719 0.7933533402912364 0.0
  outer loop
    vertex 1.6000000000000016 8.441154273188008 -4.93494134445882e-15
    vertex 1.227207793864216 8.727207793864212 6.0
    vertex 1.6000000000000016 8.441154273188008 6.0
  endloop
endfacet
facet normal 0.3826834323650919 0.9238795325112861 0.0
  outer loop
    vertex 1.6000000000000016 8.441154273188008 6.0
    vertex 2.034125718815464 8.261333512679673 -4.93494134445882e-15
    vertex 1.6000000000000016 8.441154273188008 -4.93494134445882e-15
  endloop
endfacet
facet normal 0.3826834323650919 0.9238795325112861 0.0
  outer loop
    vertex 2.034125718815464 8.261333512679673 -4.93494134445882e-15
    vertex 1.6000000000000016 8.441154273188008 6.0
    vertex 2.034125718815464 8.261333512679673 6.0
  endloop
endfacet
facet normal 0.13052619222005069 0.9914448613738106 0.0
  outer loop
    vertex 2.034125718815464 8.261333512679673 6.0
    vertex 2.500000000000001 8.199999999999998 -4.93494134445882e-15
    vertex 2.034125718815464 8.261333512679673 -4.93494134445882e-15
  endloop
endfacet
facet normal 0.13052619222005069 0.9914448613738106 0.0
  outer loop
    vertex 2.500000000000001 8.199999999999998 -4.93494134445882e-15
    vertex 2.034125718815464 8.261333512679673 6.0
    vertex 2.500000000000001 8.199999999999998 6.0
  endloop
endfacet
facet normal -0.13052619222005343 0.9914448613738103 -0.0
  outer loop
    vertex 2.500000000000001 8.199999999999998 6.0
    vertex 2.9658742811845387 8.261333512679675 -4.93494134445882e-15
    vertex 2.500000000000001 8.199999999999998 -4.93494134445882e-15
  endloop
endfacet
facet normal -0.13052619222005343 0.9914448613738103 -0.0
  outer loop
    vertex 2.9658742811845387 8.261333512679675 -4.93494134445882e-15
    vertex 2.500000000000001 8.199999999999998 6.0
    vertex 2.9658742811845387 8.261333512679675 6.0
  endloop
endfacet
facet normal -0.3826834323650896 0.923879532511287 -0.0
  outer loop
    vertex 2.9658742811845387 8.261333512679675 6.0
    vertex 3.400000000000001 8.441154273188008 -4.93494134445882e-15
    vertex 2.9658742811845387 8.261333512679675 -4.93494134445882e-15
  endloop
endfacet
facet normal -0.3826834323650896 0.923879532511287 -0.0
  outer loop
    vertex 3.400000000000001 8.441154273188008 -4.93494134445882e-15
    vertex 2.9658742811845387 8.261333512679675 6.0
    vertex 3.400000000000001 8.441154273188008 6.0
  endloop
endfacet
facet normal -0.6087614290087189 0.7933533402912365 -0.0
  outer loop
    vertex 3.400000000000001 8.441154273188008 6.0
    vertex 3.7727922061357866 8.727207793864212 -4.93494134445882e-15
    vertex 3.400000000000001 8.441154273188008 -4.93494134445882e-15
  endloop
endfacet
facet normal -0.6087614290087189 0.7933533402912365 -0.0
  outer loop
    vertex 3.7727922061357866 8.727207793864212 -4.93494134445882e-15
    vertex 3.400000000000001 8.441154273188008 6.0
    vertex 3.7727922061357866 8.727207793864212 6.0
  endloop
endfacet
facet normal -0.7933533402912358 0.6087614290087198 -0.0
  outer loop
    vertex 4.05884572681199 9.099999999999998 6.0
    vertex 3.7727922061357866 8.727207793864212 -4.93494134445882e-15
    vertex 3.7727922061357866 8.727207793864212 6.0
  endloop
endfacet
facet normal -0.7933533402912358 0.6087614290087198 -0.0
  outer loop
    vertex 3.7727922061357866 8.727207793864212 -4.93494134445882e-15
    vertex 4.05884572681199 9.099999999999998 6.0
    vertex 4.05884572681199 9.099999999999998 -4.93494134445882e-15
  endloop
endfacet
facet normal -0.9238795325112865 0.3826834323650906 -0.0
  outer loop
    vertex 4.238666487320324 9.53412571881546 6.0
    vertex 4.05884572681199 9.099999999999998 -4.93494134445882e-15
    vertex 4.05884572681199 9.099999999999998 6.0
  endloop
endfacet
facet normal -0.9238795325112865 0.3826834323650906 -0.0
  outer loop
    vertex 4.05884572681199 9.099999999999998 -4.93494134445882e-15
    vertex 4.238666487320324 9.53412571881546 6.0
    vertex 4.238666487320324 9.53412571881546 -4.93494134445882e-15
  endloop
endfacet
facet normal 0.9914448613738105 -0.13052619222005057 -0.0
  outer loop
    vertex 22.261333512679677 10.465874281184535 -4.229949723821846e-15
    vertex 22.2 9.999999999999996 6.0
    vertex 22.2 9.999999999999996 -4.229949723821846e-15
  endloop
endfacet
facet normal 0.9914448613738105 -0.13052619222005057 -0.0
  outer loop
    vertex 22.2 9.999999999999996 6.0
    vertex 22.261333512679677 10.465874281184535 -4.229949723821846e-15
    vertex 22.261333512679677 10.465874281184535 6.0
  endloop
endfacet
facet normal 0.9914448613738107 0.1305261922200502 0.0
  outer loop
    vertex 22.2 9.999999999999996 -4.229949723821846e-15
    vertex 22.261333512679677 9.534125718815458 6.0
    vertex 22.261333512679677 9.534125718815458 -4.229949723821846e-15
  endloop
endfacet
facet normal 0.9914448613738107 0.1305261922200502 0.0
  outer loop
    vertex 22.261333512679677 9.534125718815458 6.0
    vertex 22.2 9.999999999999996 -4.229949723821846e-15
    vertex 22.2 9.999999999999996 6.0
  endloop
endfacet
facet normal 0.9238795325112849 0.3826834323650944 0.0
  outer loop
    vertex 22.261333512679677 9.534125718815458 -4.229949723821846e-15
    vertex 22.441154273188012 9.099999999999996 6.0
    vertex 22.441154273188012 9.099999999999996 -4.229949723821846e-15
  endloop
endfacet
facet normal 0.9238795325112849 0.3826834323650944 0.0
  outer loop
    vertex 22.441154273188012 9.099999999999996 6.0
    vertex 22.261333512679677 9.534125718815458 -4.229949723821846e-15
    vertex 22.261333512679677 9.534125718815458 6.0
  endloop
endfacet
facet normal 0.7933533402912365 0.6087614290087189 0.0
  outer loop
    vertex 22.441154273188012 9.099999999999996 -4.229949723821846e-15
    vertex 22.727207793864213 8.72720779386421 6.0
    vertex 22.727207793864213 8.72720779386421 -4.229949723821846e-15
  endloop
endfacet
facet normal 0.7933533402912365 0.6087614290087189 0.0
  outer loop
    vertex 22.727207793864213 8.72720779386421 6.0
    vertex 22.441154273188012 9.099999999999996 -4.229949723821846e-15
    vertex 22.441154273188012 9.099999999999996 6.0
  endloop
endfacet
facet normal 0.6087614290087207 0.793353340291235 0.0
  outer loop
    vertex 22.727207793864213 8.72720779386421 6.0
    vertex 23.1 8.441154273188006 -4.229949723821846e-15
    vertex 22.727207793864213 8.72720779386421 -4.229949723821846e-15
  endloop
endfacet
facet normal 0.6087614290087207 0.793353340291235 0.0
  outer loop
    vertex 23.1 8.441154273188006 -4.229949723821846e-15
    vertex 22.727207793864213 8.72720779386421 6.0
    vertex 23.1 8.441154273188006 6.0
  endloop
endfacet
facet normal 0.3826834323650919 0.9238795325112861 0.0
  outer loop
    vertex 23.1 8.441154273188006 6.0
    vertex 23.534125718815464 8.261333512679672 -4.229949723821846e-15
    vertex 23.1 8.441154273188006 -4.229949723821846e-15
  endloop
endfacet
facet normal 0.3826834323650919 0.9238795325112861 0.0
  outer loop
    vertex 23.534125718815464 8.261333512679672 -4.229949723821846e-15
    vertex 23.1 8.441154273188006 6.0
    vertex 23.534125718815464 8.261333512679672 6.0
  endloop
endfacet
facet normal 0.1305261922200502 0.9914448613738107 0.0
  outer loop
    vertex 23.534125718815464 8.261333512679672 6.0
    vertex 24.0 8.199999999999994 -4.229949723821846e-15
    vertex 23.534125718815464 8.261333512679672 -4.229949723821846e-15
  endloop
endfacet
facet normal 0.1305261922200502 0.9914448613738107 0.0
  outer loop
    vertex 24.0 8.199999999999994 -4.229949723821846e-15
    vertex 23.534125718815464 8.261333512679672 6.0
    vertex 24.0 8.199999999999994 6.0
  endloop
endfacet
facet normal -0.13052619222005313 0.9914448613738102 -0.0
  outer loop
    vertex 24.0 8.199999999999994 6.0
    vertex 24.46587428118454 8.261333512679673 -4.229949723821846e-15
    vertex 24.0 8.199999999999994 -4.229949723821846e-15
  endloop
endfacet
facet normal -0.13052619222005313 0.9914448613738102 -0.0
  outer loop
    vertex 24.46587428118454 8.261333512679673 -4.229949723821846e-15
    vertex 24.0 8.199999999999994 6.0
    vertex 24.46587428118454 8.261333512679673 6.0
  endloop
endfacet
facet normal -0.3826834323650892 0.923879532511287 -0.0
  outer loop
    vertex 24.46587428118454 8.261333512679673 6.0
    vertex 24.900000000000002 8.441154273188006 -4.229949723821846e-15
    vertex 24.46587428118454 8.261333512679673 -4.229949723821846e-15
  endloop
endfacet
facet normal -0.3826834323650892 0.923879532511287 -0.0
  outer loop
    vertex 24.900000000000002 8.441154273188006 -4.229949723821846e-15
    vertex 24.46587428118454 8.261333512679673 6.0
    vertex 24.900000000000002 8.441154273188006 6.0
  endloop
endfacet
facet normal -0.6087614290087207 0.793353340291235 -0.0
  outer loop
    vertex 24.900000000000002 8.441154273188006 6.0
    vertex 25.272792206135787 8.72720779386421 -4.229949723821846e-15
    vertex 24.900000000000002 8.441154273188006 -4.229949723821846e-15
  endloop
endfacet
facet normal -0.6087614290087207 0.793353340291235 -0.0
  outer loop
    vertex 25.272792206135787 8.72720779386421 -4.229949723821846e-15
    vertex 24.900000000000002 8.441154273188006 6.0
    vertex 25.272792206135787 8.72720779386421 6.0
  endloop
endfacet
facet normal -0.7933533402912336 0.6087614290087225 -0.0
  outer loop
    vertex 25.558845726811995 9.099999999999996 6.0
    vertex 25.272792206135787 8.72720779386421 -4.229949723821846e-15
    vertex 25.272792206135787 8.72720779386421 6.0
  endloop
endfacet
facet normal -0.7933533402912336 0.6087614290087225 -0.0
  outer loop
    vertex 25.272792206135787 8.72720779386421 -4.229949723821846e-15
    vertex 25.558845726811995 9.099999999999996 6.0
    vertex 25.558845726811995 9.099999999999996 -4.229949723821846e-15
  endloop
endfacet
facet normal -0.9238795325112896 0.38268343236508306 -0.0
  outer loop
    vertex 25.738666487320323 9.53412571881546 6.0
    vertex 25.558845726811995 9.099999999999996 -4.229949723821846e-15
    vertex 25.558845726811995 9.099999999999996 6.0
  endloop
endfacet
facet normal -0.9238795325112896 0.38268343236508306 -0.0
  outer loop
    vertex 25.558845726811995 9.099999999999996 -4.229949723821846e-15
    vertex 25.738666487320323 9.53412571881546 6.0
    vertex 25.738666487320323 9.53412571881546 -4.229949723821846e-15
  endloop
endfacet
facet normal -0.9914448613738098 0.13052619222005651 1.7941408444272814e-19
  outer loop
    vertex 25.800000000000004 9.999999999999996 5.999999999999996
    vertex 25.738666487320323 9.53412571881546 -4.229949723821846e-15
    vertex 25.738666487320323 9.53412571881546 6.0
  endloop
endfacet
facet normal -0.9914448613738098 0.13052619222005651 1.7941408444272814e-19
  outer loop
    vertex 25.738666487320323 9.53412571881546 -4.229949723821846e-15
    vertex 25.800000000000004 9.999999999999996 5.999999999999996
    vertex 25.800000000000004 9.999999999999996 -4.229949723821846e-15
  endloop
endfacet
facet normal -0.9914448613738098 -0.13052619222005568 0.0
  outer loop
    vertex 25.738666487320323 10.465874281184536 5.999999999999996
    vertex 25.800000000000004 9.999999999999996 -4.229949723821846e-15
    vertex 25.800000000000004 9.999999999999996 5.999999999999996
  endloop
endfacet
facet normal -0.9914448613738098 -0.13052619222005568 0.0
  outer loop
    vertex 25.800000000000004 9.999999999999996 -4.229949723821846e-15
    vertex 25.738666487320323 10.465874281184536 5.999999999999996
    vertex 25.738666487320323 10.465874281184536 -4.229949723821846e-15
  endloop
endfacet
facet normal -0.9238795325112891 -0.3826834323650841 -0.0
  outer loop
    vertex 25.558845726811995 10.9 5.999999999999996
    vertex 25.738666487320323 10.465874281184536 -4.229949723821846e-15
    vertex 25.738666487320323 10.465874281184536 5.999999999999996
  endloop
endfacet
facet normal -0.9238795325112891 -0.3826834323650841 -0.0
  outer loop
    vertex 25.738666487320323 10.465874281184536 -4.229949723821846e-15
    vertex 25.558845726811995 10.9 5.999999999999996
    vertex 25.558845726811995 10.9 -4.229949723821846e-15
  endloop
endfacet
facet normal -0.7933533402912326 -0.6087614290087241 -0.0
  outer loop
    vertex 25.272792206135787 11.272792206135785 5.999999999999996
    vertex 25.558845726811995 10.9 -4.229949723821846e-15
    vertex 25.558845726811995 10.9 5.999999999999996
  endloop
endfacet
facet normal -0.7933533402912326 -0.6087614290087241 -0.0
  outer loop
    vertex 25.558845726811995 10.9 -4.229949723821846e-15
    vertex 25.272792206135787 11.272792206135785 5.999999999999996
    vertex 25.272792206135787 11.272792206135785 -4.229949723821846e-15
  endloop
endfacet
facet normal -0.6087614290087197 -0.7933533402912358 -0.0
  outer loop
    vertex 25.272792206135787 11.272792206135785 5.999999999999996
    vertex 24.9 11.55884572681199 -4.229949723821846e-15
    vertex 25.272792206135787 11.272792206135785 -4.229949723821846e-15
  endloop
endfacet
facet normal -0.6087614290087197 -0.7933533402912358 -0.0
  outer loop
    vertex 24.9 11.55884572681199 -4.229949723821846e-15
    vertex 25.272792206135787 11.272792206135785 5.999999999999996
    vertex 24.9 11.55884572681199 5.999999999999996
  endloop
endfacet
facet normal -0.3826834323650892 -0.923879532511287 -0.0
  outer loop
    vertex 24.9 11.55884572681199 5.999999999999996
    vertex 24.465874281184536 11.738666487320323 -4.229949723821846e-15
    vertex 24.9 11.55884572681199 -4.229949723821846e-15
  endloop
endfacet
facet normal -0.3826834323650892 -0.923879532511287 -0.0
  outer loop
    vertex 24.465874281184536 11.738666487320323 -4.229949723821846e-15
    vertex 24.9 11.55884572681199 5.999999999999996
    vertex 24.465874281184536 11.738666487320323 5.999999999999996
  endloop
endfacet
facet normal -0.13052619222005102 -0.9914448613738105 0.0
  outer loop
    vertex 24.465874281184536 11.738666487320323 5.999999999999996
    vertex 24.0 11.799999999999999 -4.229949723821846e-15
    vertex 24.465874281184536 11.738666487320323 -4.229949723821846e-15
  endloop
endfacet
facet normal -0.13052619222005102 -0.9914448613738105 0.0
  outer loop
    vertex 24.0 11.799999999999999 -4.229949723821846e-15
    vertex 24.465874281184536 11.738666487320323 5.999999999999996
    vertex 24.0 11.799999999999999 5.999999999999996
  endloop
endfacet
facet normal 0.13052619222005316 -0.9914448613738103 1.7941408444263522e-19
  outer loop
    vertex 24.0 11.799999999999999 5.999999999999996
    vertex 23.534125718815464 11.738666487320321 -4.229949723821846e-15
    vertex 24.0 11.799999999999999 -4.229949723821846e-15
  endloop
endfacet
facet normal 0.13052619222005316 -0.9914448613738103 1.7941408444263522e-19
  outer loop
    vertex 23.534125718815464 11.738666487320321 -4.229949723821846e-15
    vertex 24.0 11.799999999999999 5.999999999999996
    vertex 23.534125718815464 11.738666487320321 6.0
  endloop
endfacet
facet normal 0.3826834323650892 -0.923879532511287 -0.0
  outer loop
    vertex 23.534125718815464 11.738666487320321 6.0
    vertex 23.1 11.558845726811988 -4.229949723821846e-15
    vertex 23.534125718815464 11.738666487320321 -4.229949723821846e-15
  endloop
endfacet
facet normal 0.3826834323650892 -0.923879532511287 -0.0
  outer loop
    vertex 23.1 11.558845726811988 -4.229949723821846e-15
    vertex 23.534125718815464 11.738666487320321 6.0
    vertex 23.1 11.558845726811988 6.0
  endloop
endfacet
facet normal 0.6087614290087207 -0.793353340291235 -0.0
  outer loop
    vertex 23.1 11.558845726811988 6.0
    vertex 22.727207793864213 11.272792206135785 -4.229949723821846e-15
    vertex 23.1 11.558845726811988 -4.229949723821846e-15
  endloop
endfacet
facet normal 0.6087614290087207 -0.793353340291235 -0.0
  outer loop
    vertex 22.727207793864213 11.272792206135785 -4.229949723821846e-15
    vertex 23.1 11.558845726811988 6.0
    vertex 22.727207793864213 11.272792206135785 6.0
  endloop
endfacet
facet normal 0.7933533402912336 -0.6087614290087225 -0.0
  outer loop
    vertex 22.727207793864213 11.272792206135785 -4.229949723821846e-15
    vertex 22.44115427318801 10.899999999999999 6.0
    vertex 22.44115427318801 10.899999999999999 -4.229949723821846e-15
  endloop
endfacet
facet normal 0.7933533402912336 -0.6087614290087225 -0.0
  outer loop
    vertex 22.44115427318801 10.899999999999999 6.0
    vertex 22.727207793864213 11.272792206135785 -4.229949723821846e-15
    vertex 22.727207793864213 11.272792206135785 6.0
  endloop
endfacet
facet normal 0.9238795325112875 -0.3826834323650882 -0.0
  outer loop
    vertex 22.44115427318801 10.899999999999999 -4.229949723821846e-15
    vertex 22.261333512679677 10.465874281184535 6.0
    vertex 22.261333512679677 10.465874281184535 -4.229949723821846e-15
  endloop
endfacet
facet normal 0.9238795325112875 -0.3826834323650882 -0.0
  outer loop
    vertex 22.261333512679677 10.465874281184535 6.0
    vertex 22.44115427318801 10.899999999999999 -4.229949723821846e-15
    vertex 22.44115427318801 10.899999999999999 6.0
  endloop
endfacet
facet normal 4.0947132808259845e-17 7.743155636093308e-17 1.0
  outer loop
    vertex -1.9999999999999996 15.999999999999998 6.0
    vertex 0.7613335126796785 10.465874281184533 6.0
    vertex 2.500000000000001 15.999999999999998 6.0
  endloop
endfacet
facet normal 4.0947132808259845e-17 7.743155636093308e-17 1.0
  outer loop
    vertex 0.7613335126796785 10.465874281184533 6.0
    vertex -1.9999999999999996 15.999999999999998 6.0
    vertex 0.7000000000000015 9.999999999999996 6.0
  endloop
endfacet
facet normal 4.0947132808259845e-17 7.743155636093308e-17 1.0
  outer loop
    vertex 2.500000000000001 15.999999999999998 6.0
    vertex 0.7613335126796785 10.465874281184533 6.0
    vertex 0.9411542731880116 10.899999999999997 6.0
  endloop
endfacet
facet normal 4.0947132808259845e-17 7.743155636093308e-17 1.0
  outer loop
    vertex 2.500000000000001 15.999999999999998 6.0
    vertex 0.9411542731880116 10.899999999999997 6.0
    vertex 1.2272077938642152 11.272792206135781 6.0
  endloop
endfacet
facet normal 4.0947132808259845e-17 7.743155636093308e-17 1.0
  outer loop
    vertex 2.500000000000001 15.999999999999998 6.0
    vertex 1.2272077938642152 11.272792206135781 6.0
    vertex 1.6000000000000005 11.558845726811986 6.0
  endloop
endfacet
facet normal 4.0947132808259845e-17 7.743155636093308e-17 1.0
  outer loop
    vertex 2.500000000000001 15.999999999999998 6.0
    vertex 1.6000000000000005 11.558845726811986 6.0
    vertex 2.0341257188154622 11.73866648732032 6.0
  endloop
endfacet
facet normal 4.0947132808259845e-17 7.743155636093308e-17 1.0
  outer loop
    vertex 2.500000000000001 15.999999999999998 6.0
    vertex 2.0341257188154622 11.73866648732032 6.0
    vertex 2.500000000000001 11.799999999999997 6.0
  endloop
endfacet
facet normal 4.0947132808259845e-17 7.743155636093308e-17 1.0
  outer loop
    vertex -1.9999999999999996 -5.405711148378967e-32 6.0
    vertex 0.9411542731880121 9.099999999999998 6.0
    vertex -1.9999999999999996 15.999999999999998 6.0
  endloop
endfacet
facet normal 4.0947132808259845e-17 7.743155636093308e-17 1.0
  outer loop
    vertex 0.9411542731880121 9.099999999999998 6.0
    vertex -1.9999999999999996 -5.405711148378967e-32 6.0
    vertex 1.227207793864216 8.727207793864212 6.0
  endloop
endfacet
facet normal 4.0947132808259845e-17 7.743155636093308e-17 1.0
  outer loop
    vertex 1.227207793864216 8.727207793864212 6.0
    vertex -1.9999999999999996 -5.405711148378967e-32 6.0
    vertex 6.35 2.699999999999997 6.0
  endloop
endfacet
facet normal 4.0947132808259845e-17 7.743155636093308e-17 1.0
  outer loop
    vertex 6.35 2.699999999999997 6.0
    vertex -1.9999999999999996 -5.405711148378967e-32 6.0
    vertex 28.0 -5.405711148378967e-32 6.0
  endloop
endfacet
facet normal 4.0947132808259845e-17 7.743155636093308e-17 1.0
  outer loop
    vertex -1.9999999999999996 15.999999999999998 6.0
    vertex 0.9411542731880121 9.099999999999998 6.0
    vertex 0.7613335126796789 9.53412571881546 6.0
  endloop
endfacet
facet normal 4.0947132808259845e-17 7.743155636093308e-17 1.0
  outer loop
    vertex -1.9999999999999996 15.999999999999998 6.0
    vertex 0.7613335126796789 9.53412571881546 6.0
    vertex 0.7000000000000015 9.999999999999996 6.0
  endloop
endfacet
facet normal 4.0947132808259845e-17 7.743155636093308e-17 1.0
  outer loop
    vertex 1.227207793864216 8.727207793864212 6.0
    vertex 6.35 2.699999999999997 6.0
    vertex 1.6000000000000016 8.441154273188008 6.0
  endloop
endfacet
facet normal 4.0947132808259845e-17 7.743155636093308e-17 1.0
  outer loop
    vertex 1.6000000000000016 8.441154273188008 6.0
    vertex 6.35 2.699999999999997 6.0
    vertex 2.034125718815464 8.261333512679673 6.0
  endloop
endfacet
facet normal 4.0947132808259845e-17 7.743155636093308e-17 1.0
  outer loop
    vertex 2.034125718815464 8.261333512679673 6.0
    vertex 6.35 2.699999999999997 6.0
    vertex 2.500000000000001 8.199999999999998 6.0
  endloop
endfacet
facet normal 4.0947132808259845e-17 7.743155636093308e-17 1.0
  outer loop
    vertex 2.500000000000001 8.199999999999998 6.0
    vertex 6.35 2.699999999999997 6.0
    vertex 2.9658742811845387 8.261333512679675 6.0
  endloop
endfacet
facet normal 4.0947132808259845e-17 7.743155636093308e-17 1.0
  outer loop
    vertex 2.9658742811845387 8.261333512679675 6.0
    vertex 6.35 2.699999999999997 6.0
    vertex 3.400000000000001 8.441154273188008 6.0
  endloop
endfacet
facet normal 4.0947132808259845e-17 7.743155636093308e-17 1.0
  outer loop
    vertex 3.400000000000001 8.441154273188008 6.0
    vertex 6.35 2.699999999999997 6.0
    vertex 3.7727922061357866 8.727207793864212 6.0
  endloop
endfacet
facet normal 4.0947132808259845e-17 7.743155636093308e-17 1.0
  outer loop
    vertex 3.7727922061357866 8.727207793864212 6.0
    vertex 6.35 2.699999999999997 6.0
    vertex 4.05884572681199 9.099999999999998 6.0
  endloop
endfacet
facet normal 4.0947132808259845e-17 7.743155636093308e-17 1.0
  outer loop
    vertex 4.05884572681199 9.099999999999998 6.0
    vertex 6.35 2.699999999999997 6.0
    vertex 4.238666487320324 9.53412571881546 6.0
  endloop
endfacet
facet normal 4.0947132808259845e-17 7.743155636093308e-17 1.0
  outer loop
    vertex 4.238666487320324 9.53412571881546 6.0
    vertex 6.35 2.699999999999997 6.0
    vertex 4.300000000000001 9.999999999999996 6.0
  endloop
endfacet
facet normal 4.0947132808259845e-17 7.743155636093308e-17 1.0
  outer loop
    vertex 6.35 2.699999999999997 6.0
    vertex 28.0 -5.405711148378967e-32 6.0
    vertex 20.150000000000002 2.699999999999997 6.0
  endloop
endfacet
facet normal 4.0947132808259845e-17 7.743155636093308e-17 1.0
  outer loop
    vertex 20.150000000000002 2.699999999999997 6.0
    vertex 28.0 -5.405711148378967e-32 6.0
    vertex 22.441154273188012 9.099999999999996 6.0
  endloop
endfacet
facet normal 4.0947132808259845e-17 7.743155636093308e-17 1.0
  outer loop
    vertex 20.150000000000002 2.699999999999997 6.0
    vertex 22.441154273188012 9.099999999999996 6.0
    vertex 22.261333512679677 9.534125718815458 6.0
  endloop
endfacet
facet normal 4.0947132808259845e-17 7.743155636093308e-17 1.0
  outer loop
    vertex 20.150000000000002 2.699999999999997 6.0
    vertex 22.261333512679677 9.534125718815458 6.0
    vertex 20.150000000000002 15.999999999999998 6.0
  endloop
endfacet
facet normal 4.0947132808259845e-17 7.743155636093308e-17 1.0
  outer loop
    vertex 20.150000000000002 15.999999999999998 6.0
    vertex 22.261333512679677 9.534125718815458 6.0
    vertex 22.2 9.999999999999996 6.0
  endloop
endfacet
facet normal 4.0947132808259845e-17 7.743155636093308e-17 1.0
  outer loop
    vertex 22.441154273188012 9.099999999999996 6.0
    vertex 28.0 -5.405711148378967e-32 6.0
    vertex 22.727207793864213 8.72720779386421 6.0
  endloop
endfacet
facet normal 4.0947132808259845e-17 7.743155636093308e-17 1.0
  outer loop
    vertex 22.727207793864213 8.72720779386421 6.0
    vertex 28.0 -5.405711148378967e-32 6.0
    vertex 23.1 8.441154273188006 6.0
  endloop
endfacet
facet normal 4.0947132808259845e-17 7.743155636093308e-17 1.0
  outer loop
    vertex 23.1 8.441154273188006 6.0
    vertex 28.0 -5.405711148378967e-32 6.0
    vertex 23.534125718815464 8.261333512679672 6.0
  endloop
endfacet
facet normal 4.0947132808259845e-17 7.743155636093308e-17 1.0
  outer loop
    vertex 23.534125718815464 8.261333512679672 6.0
    vertex 28.0 -5.405711148378967e-32 6.0
    vertex 24.0 8.199999999999994 6.0
  endloop
endfacet
facet normal 4.0947132808259845e-17 7.743155636093308e-17 1.0
  outer loop
    vertex 24.0 8.199999999999994 6.0
    vertex 28.0 -5.405711148378967e-32 6.0
    vertex 24.46587428118454 8.261333512679673 6.0
  endloop
endfacet
facet normal 4.0947132808259845e-17 7.743155636093308e-17 1.0
  outer loop
    vertex 24.46587428118454 8.261333512679673 6.0
    vertex 28.0 -5.405711148378967e-32 6.0
    vertex 24.900000000000002 8.441154273188006 6.0
  endloop
endfacet
facet normal 4.0947132808259845e-17 7.743155636093308e-17 1.0
  outer loop
    vertex 24.900000000000002 8.441154273188006 6.0
    vertex 28.0 -5.405711148378967e-32 6.0
    vertex 25.272792206135787 8.72720779386421 6.0
  endloop
endfacet
facet normal 4.0947132808259845e-17 7.743155636093308e-17 1.0
  outer loop
    vertex 25.272792206135787 8.72720779386421 6.0
    vertex 28.0 -5.405711148378967e-32 6.0
    vertex 25.558845726811995 9.099999999999996 6.0
  endloop
endfacet
facet normal 4.0947132808259845e-17 7.743155636093308e-17 1.0
  outer loop
    vertex 25.558845726811995 9.099999999999996 6.0
    vertex 28.0 -5.405711148378967e-32 6.0
    vertex 25.738666487320323 9.53412571881546 6.0
  endloop
endfacet
facet normal 4.0947132808259845e-17 7.743155636093308e-17 1.0
  outer loop
    vertex 25.738666487320323 9.53412571881546 6.0
    vertex 28.0 -5.405711148378967e-32 6.0
    vertex 25.800000000000004 9.999999999999996 5.999999999999996
  endloop
endfacet
facet normal 4.0947132808259845e-17 7.743155636093308e-17 1.0
  outer loop
    vertex 25.800000000000004 9.999999999999996 5.999999999999996
    vertex 28.0 -5.405711148378967e-32 6.0
    vertex 28.0 9.999999999999996 5.999999999999996
  endloop
endfacet
facet normal 4.0947132808259845e-17 7.743155636093308e-17 1.0
  outer loop
    vertex 20.150000000000002 15.999999999999998 6.0
    vertex 22.261333512679677 10.465874281184535 6.0
    vertex 24.0 15.999999999999998 5.999999999999996
  endloop
endfacet
facet normal 4.0947132808259845e-17 7.743155636093308e-17 1.0
  outer loop
    vertex 22.261333512679677 10.465874281184535 6.0
    vertex 20.150000000000002 15.999999999999998 6.0
    vertex 22.2 9.999999999999996 6.0
  endloop
endfacet
facet normal 4.0947132808259845e-17 7.743155636093308e-17 1.0
  outer loop
    vertex 24.0 15.999999999999998 5.999999999999996
    vertex 22.261333512679677 10.465874281184535 6.0
    vertex 22.44115427318801 10.899999999999999 6.0
  endloop
endfacet
facet normal 4.0947132808259845e-17 7.743155636093308e-17 1.0
  outer loop
    vertex 24.0 15.999999999999998 5.999999999999996
    vertex 22.44115427318801 10.899999999999999 6.0
    vertex 22.727207793864213 11.272792206135785 6.0
  endloop
endfacet
facet normal 4.0947132808259845e-17 7.743155636093308e-17 1.0
  outer loop
    vertex 24.0 15.999999999999998 5.999999999999996
    vertex 22.727207793864213 11.272792206135785 6.0
    vertex 23.1 11.558845726811988 6.0
  endloop
endfacet
facet normal 4.0947132808259845e-17 7.743155636093308e-17 1.0
  outer loop
    vertex 24.0 15.999999999999998 5.999999999999996
    vertex 23.1 11.558845726811988 6.0
    vertex 23.534125718815464 11.738666487320321 6.0
  endloop
endfacet
facet normal 4.0947132808259845e-17 7.743155636093308e-17 1.0
  outer loop
    vertex 24.0 15.999999999999998 5.999999999999996
    vertex 23.534125718815464 11.738666487320321 6.0
    vertex 24.0 11.799999999999999 5.999999999999996
  endloop
endfacet
facet normal 4.0947132808259845e-17 7.743155636093308e-17 1.0
  outer loop
    vertex 2.9658742811845378 11.73866648732032 6.0
    vertex 2.500000000000001 15.999999999999998 6.0
    vertex 2.500000000000001 11.799999999999997 6.0
  endloop
endfacet
facet normal 4.0947132808259845e-17 7.743155636093308e-17 1.0
  outer loop
    vertex 2.500000000000001 15.999999999999998 6.0
    vertex 2.9658742811845378 11.73866648732032 6.0
    vertex 6.35 15.999999999999998 6.0
  endloop
endfacet
facet normal 4.0947132808259845e-17 7.743155636093308e-17 1.0
  outer loop
    vertex 6.35 15.999999999999998 6.0
    vertex 2.9658742811845378 11.73866648732032 6.0
    vertex 3.3999999999999995 11.558845726811986 6.0
  endloop
endfacet
facet normal 4.0947132808259845e-17 7.743155636093308e-17 1.0
  outer loop
    vertex 6.35 15.999999999999998 6.0
    vertex 3.3999999999999995 11.558845726811986 6.0
    vertex 3.772792206135786 11.272792206135783 6.0
  endloop
endfacet
facet normal 4.0947132808259845e-17 7.743155636093308e-17 1.0
  outer loop
    vertex 6.35 15.999999999999998 6.0
    vertex 3.772792206135786 11.272792206135783 6.0
    vertex 4.05884572681199 10.899999999999999 6.0
  endloop
endfacet
facet normal 4.0947132808259845e-17 7.743155636093308e-17 1.0
  outer loop
    vertex 6.35 15.999999999999998 6.0
    vertex 4.05884572681199 10.899999999999999 6.0
    vertex 4.238666487320323 10.465874281184536 6.0
  endloop
endfacet
facet normal 4.0947132808259845e-17 7.743155636093308e-17 1.0
  outer loop
    vertex 6.35 15.999999999999998 6.0
    vertex 4.238666487320323 10.465874281184536 6.0
    vertex 4.300000000000001 9.999999999999996 6.0
  endloop
endfacet
facet normal 4.0947132808259845e-17 7.743155636093308e-17 1.0
  outer loop
    vertex 6.35 15.999999999999998 6.0
    vertex 4.300000000000001 9.999999999999996 6.0
    vertex 6.35 2.699999999999997 6.0
  endloop
endfacet
facet normal -1.0 0.0 0.0
  outer loop
    vertex 20.150000000000002 15.999999999999998 6.0
    vertex 20.150000000000002 2.699999999999997 3.9999999999999996
    vertex 20.150000000000002 2.699999999999997 6.0
  endloop
endfacet
facet normal -1.0 0.0 0.0
  outer loop
    vertex 20.150000000000002 2.699999999999997 3.9999999999999996
    vertex 20.150000000000002 15.999999999999998 6.0
    vertex 20.150000000000002 15.999999999999998 4.999999999999999
  endloop
endfacet
facet normal 0.0 1.0 2.7028555741894836e-32
  outer loop
    vertex 6.35 2.699999999999997 6.0
    vertex 20.150000000000002 2.699999999999997 3.9999999999999996
    vertex 6.35 2.699999999999997 3.9999999999999996
  endloop
endfacet
facet normal 0.0 1.0 2.7028555741894836e-32
  outer loop
    vertex 20.150000000000002 2.699999999999997 3.9999999999999996
    vertex 6.35 2.699999999999997 6.0
    vertex 20.150000000000002 2.699999999999997 6.0
  endloop
endfacet
facet normal -0.0 1.0 -0.0
  outer loop
    vertex -1.9999999999999996 15.999999999999998 0.0
    vertex 6.350000000000002 15.999999999999998 2.0
    vertex 28.0 15.999999999999998 0.0
  endloop
endfacet
facet normal -0.0 1.0 -0.0
  outer loop
    vertex 6.350000000000002 15.999999999999998 2.0
    vertex -1.9999999999999996 15.999999999999998 0.0
    vertex -1.9999999999999996 15.999999999999998 6.0
  endloop
endfacet
facet normal -0.0 1.0 -0.0
  outer loop
    vertex 6.350000000000002 15.999999999999998 2.0
    vertex -1.9999999999999996 15.999999999999998 6.0
    vertex 6.35 15.999999999999998 4.999999999999999
  endloop
endfacet
facet normal -0.0 1.0 -0.0
  outer loop
    vertex 6.35 15.999999999999998 4.999999999999999
    vertex -1.9999999999999996 15.999999999999998 6.0
    vertex 6.35 15.999999999999998 6.0
  endloop
endfacet
facet normal -0.0 1.0 -0.0
  outer loop
    vertex 6.35 15.999999999999998 6.0
    vertex -1.9999999999999996 15.999999999999998 6.0
    vertex 2.500000000000001 15.999999999999998 6.0
  endloop
endfacet
facet normal -0.0 1.0 -0.0
  outer loop
    vertex 20.150000000000002 15.999999999999998 6.0
    vertex 24.0 15.999999999999998 5.999999999999996
    vertex 20.150000000000002 15.999999999999998 4.999999999999999
  endloop
endfacet
facet normal -0.0 1.0 -0.0
  outer loop
    vertex 28.0 15.999999999999998 0.0
    vertex 20.150000000000002 15.999999999999998 2.0
    vertex 28.0 15.999999999999998 5.999999999999996
  endloop
endfacet
facet normal -0.0 1.0 -0.0
  outer loop
    vertex 20.150000000000002 15.999999999999998 2.0
    vertex 28.0 15.999999999999998 0.0
    vertex 6.350000000000002 15.999999999999998 2.0
  endloop
endfacet
facet normal -0.0 1.0 -0.0
  outer loop
    vertex 28.0 15.999999999999998 5.999999999999996
    vertex 20.150000000000002 15.999999999999998 2.0
    vertex 20.150000000000002 15.999999999999998 4.999999999999999
  endloop
endfacet
facet normal -0.0 1.0 -0.0
  outer loop
    vertex 28.0 15.999999999999998 5.999999999999996
    vertex 20.150000000000002 15.999999999999998 4.999999999999999
    vertex 24.0 15.999999999999998 5.999999999999996
  endloop
endfacet
facet normal 1.0 -0.0 -0.0
  outer loop
    vertex 6.35 15.999999999999998 4.999999999999999
    vertex 6.35 2.699999999999997 6.0
    vertex 6.35 2.699999999999997 3.9999999999999996
  endloop
endfacet
facet normal 1.0 -0.0 -0.0
  outer loop
    vertex 6.35 2.699999999999997 6.0
    vertex 6.35 15.999999999999998 4.999999999999999
    vertex 6.35 15.999999999999998 6.0
  endloop
endfacet
facet normal -0.0 1.0 -0.0
  outer loop
    vertex 6.35 15.999999999999998 4.999999999999999
    vertex 20.150000000000002 15.999999999999998 2.0
    vertex 6.350000000000002 15.999999999999998 2.0
  endloop
endfacet
facet normal -0.0 1.0 -0.0
  outer loop
    vertex 20.150000000000002 15.999999999999998 2.0
    vertex 6.35 15.999999999999998 4.999999999999999
    vertex 20.150000000000002 15.999999999999998 4.999999999999999
  endloop
endfacet
facet normal -0.0 -0.07497633932626112 0.9971853130392733
  outer loop
    vertex 20.150000000000002 2.699999999999997 3.9999999999999996
    vertex 6.35 15.999999999999998 4.999999999999999
    vertex 6.35 2.699999999999997 3.9999999999999996
  endloop
endfacet
facet normal -0.0 -0.07497633932626112 0.9971853130392733
  outer loop
    vertex 6.35 15.999999999999998 4.999999999999999
    vertex 20.150000000000002 2.699999999999997 3.9999999999999996
    vertex 20.150000000000002 15.999999999999998 4.999999999999999
  endloop
endfacet
endsolid innerGratingMountB-1
