solid OuterGratingMountB-1
facet normal 1.0 -0.0 -0.0
  outer loop
    vertex 28.5 0.0 0.0
    vertex 28.5 17.999999999999996 3.9999999999999956
    vertex 28.5 -6.499585308427316e-16 3.9999999999999996
  endloop
endfacet
facet normal 1.0 -0.0 -0.0
  outer loop
    vertex 28.5 17.999999999999996 3.9999999999999956
    vertex 28.5 0.0 0.0
    vertex 28.5 17.999999999999996 0.0
  endloop
endfacet
facet normal -0.0 -1.0 -0.0
  outer loop
    vertex 28.5 -6.499585308427316e-16 3.9999999999999996
    vertex -1.4999999999999996 0.0 0.0
    vertex 28.5 0.0 0.0
  endloop
endfacet
facet normal -0.0 -1.0 -0.0
  outer loop
    vertex -1.4999999999999996 0.0 0.0
    vertex 28.5 -6.499585308427316e-16 3.9999999999999996
    vertex -1.4999999999999996 -6.499585308427316e-16 3.9999999999999996
  endloop
endfacet
facet normal -1.0 0.0 0.0
  outer loop
    vertex -1.4999999999999996 17.999999999999996 3.9999999999999996
    vertex -1.4999999999999996 0.0 0.0
    vertex -1.4999999999999996 -6.499585308427316e-16 3.9999999999999996
  endloop
endfacet
facet normal -1.0 0.0 0.0
  outer loop
    vertex -1.4999999999999996 0.0 0.0
    vertex -1.4999999999999996 17.999999999999996 3.9999999999999996
    vertex -1.4999999999999996 17.999999999999996 0.0
  endloop
endfacet
facet normal -0.0 1.0 1.9583100573249313e-16
  outer loop
    vertex 6.35 2.6999999999999966 3.9999999999999996
    vertex 7.3500000000000005 2.699999999999997 2.2000000000000024
    vertex 6.35 2.699999999999997 2.2000000000000024
  endloop
endfacet
facet normal -0.0 1.0 1.9583100573249313e-16
  outer loop
    vertex 7.3500000000000005 2.699999999999997 2.2000000000000024
    vertex 6.35 2.6999999999999966 3.9999999999999996
    vertex 20.150000000000002 2.699999999999997 2.2000000000000024
  endloop
endfacet
facet normal -0.0 1.0 1.9583100573249313e-16
  outer loop
    vertex 20.150000000000002 2.699999999999997 2.2000000000000024
    vertex 6.35 2.6999999999999966 3.9999999999999996
    vertex 20.150000000000002 2.6999999999999966 3.9999999999999996
  endloop
endfacet
facet normal -0.0 1.0 -0.0
  outer loop
    vertex 7.3500000000000005 3.199999999999997 2.2000000000000024
    vertex 19.15 3.199999999999997 -1.127986593019159e-14
    vertex 7.3500000000000005 3.199999999999997 -1.127986593019159e-14
  endloop
endfacet
facet normal -0.0 1.0 -0.0
  outer loop
    vertex 19.15 3.199999999999997 -1.127986593019159e-14
    vertex 7.3500000000000005 3.199999999999997 2.2000000000000024
    vertex 19.15 3.199999999999997 2.2000000000000024
  endloop
endfacet
facet normal 0.9914448613738103 -0.13052619222005335 -0.0
  outer loop
    vertex 22.8 9.999999999999996 -1.4099832412739487e-15
    vertex 22.840889008453118 10.310582854123021 3.999999999999998
    vertex 22.8 9.999999999999996 3.999999999999998
  endloop
endfacet
facet normal 0.9914448613738103 -0.13052619222005335 -0.0
  outer loop
    vertex 22.840889008453118 10.310582854123021 3.999999999999998
    vertex 22.8 9.999999999999996 -1.4099832412739487e-15
    vertex 22.840889008453118 10.310582854123023 -1.4099832412739487e-15
  endloop
endfacet
facet normal 0.9914448613738103 0.13052619222005335 -0.0
  outer loop
    vertex 22.840889008453118 9.689417145876972 -1.4099832412739487e-15
    vertex 22.8 9.999999999999996 3.999999999999998
    vertex 22.840889008453118 9.68941714587697 3.999999999999998
  endloop
endfacet
facet normal 0.9914448613738103 0.13052619222005335 -0.0
  outer loop
    vertex 22.8 9.999999999999996 3.999999999999998
    vertex 22.840889008453118 9.689417145876972 -1.4099832412739487e-15
    vertex 22.8 9.999999999999996 -1.4099832412739487e-15
  endloop
endfacet
facet normal 0.923879532511288 0.3826834323650867 6.604121931629428e-32
  outer loop
    vertex 22.960769515458672 9.399999999999997 -1.4099832412739487e-15
    vertex 22.840889008453118 9.68941714587697 3.999999999999998
    vertex 22.960769515458672 9.399999999999995 3.999999999999998
  endloop
endfacet
facet normal 0.923879532511288 0.3826834323650867 6.604121931629428e-32
  outer loop
    vertex 22.840889008453118 9.68941714587697 3.999999999999998
    vertex 22.960769515458672 9.399999999999997 -1.4099832412739487e-15
    vertex 22.840889008453118 9.689417145876972 -1.4099832412739487e-15
  endloop
endfacet
facet normal 0.7933533402912356 0.60876142900872 1.0505640862474255e-31
  outer loop
    vertex 23.151471862576145 9.15147186257614 -1.4099832412739487e-15
    vertex 22.960769515458672 9.399999999999995 3.999999999999998
    vertex 23.151471862576145 9.151471862576138 3.999999999999998
  endloop
endfacet
facet normal 0.7933533402912356 0.60876142900872 1.0505640862474255e-31
  outer loop
    vertex 22.960769515458672 9.399999999999995 3.999999999999998
    vertex 23.151471862576145 9.15147186257614 -1.4099832412739487e-15
    vertex 22.960769515458672 9.399999999999997 -1.4099832412739487e-15
  endloop
endfacet
facet normal 0.6087614290087179 0.7933533402912374 1.369121772993387e-31
  outer loop
    vertex 23.151471862576145 9.151471862576138 3.999999999999998
    vertex 23.400000000000002 8.96076951545867 -1.4099832412739487e-15
    vertex 23.151471862576145 9.15147186257614 -1.4099832412739487e-15
  endloop
endfacet
facet normal 0.6087614290087179 0.7933533402912374 1.369121772993387e-31
  outer loop
    vertex 23.400000000000002 8.96076951545867 -1.4099832412739487e-15
    vertex 23.151471862576145 9.151471862576138 3.999999999999998
    vertex 23.400000000000002 8.960769515458669 3.999999999999998
  endloop
endfacet
facet normal 0.38268343236509056 0.9238795325112865 1.5943760734905484e-31
  outer loop
    vertex 23.400000000000002 8.960769515458669 3.999999999999998
    vertex 23.689417145876977 8.840889008453114 -1.4099832412739487e-15
    vertex 23.400000000000002 8.96076951545867 -1.4099832412739487e-15
  endloop
endfacet
facet normal 0.38268343236509056 0.9238795325112865 1.5943760734905484e-31
  outer loop
    vertex 23.689417145876977 8.840889008453114 -1.4099832412739487e-15
    vertex 23.400000000000002 8.960769515458669 3.999999999999998
    vertex 23.689417145876977 8.840889008453113 3.999999999999998
  endloop
endfacet
facet normal 0.1305261922200495 0.9914448613738107 1.7109762794103751e-31
  outer loop
    vertex 23.689417145876977 8.840889008453113 3.999999999999998
    vertex 24.0 8.799999999999997 -1.4099832412739487e-15
    vertex 23.689417145876977 8.840889008453114 -1.4099832412739487e-15
  endloop
endfacet
facet normal 0.1305261922200495 0.9914448613738107 1.7109762794103751e-31
  outer loop
    vertex 24.0 8.799999999999997 -1.4099832412739487e-15
    vertex 23.689417145876977 8.840889008453113 3.999999999999998
    vertex 24.0 8.799999999999995 3.999999999999998
  endloop
endfacet
facet normal -0.13052619222005277 0.9914448613738104 1.7109762794103745e-31
  outer loop
    vertex 24.0 8.799999999999995 3.999999999999998
    vertex 24.310582854123027 8.840889008453114 -1.4099832412739487e-15
    vertex 24.0 8.799999999999997 -1.4099832412739487e-15
  endloop
endfacet
facet normal -0.13052619222005277 0.9914448613738104 1.7109762794103745e-31
  outer loop
    vertex 24.310582854123027 8.840889008453114 -1.4099832412739487e-15
    vertex 24.0 8.799999999999995 3.999999999999998
    vertex 24.310582854123027 8.840889008453114 3.999999999999998
  endloop
endfacet
facet normal -0.38268343236509056 0.9238795325112865 1.5943760734905484e-31
  outer loop
    vertex 24.310582854123027 8.840889008453114 3.999999999999998
    vertex 24.6 8.96076951545867 -1.4099832412739487e-15
    vertex 24.310582854123027 8.840889008453114 -1.4099832412739487e-15
  endloop
endfacet
facet normal -0.38268343236509056 0.9238795325112865 1.5943760734905484e-31
  outer loop
    vertex 24.6 8.96076951545867 -1.4099832412739487e-15
    vertex 24.310582854123027 8.840889008453114 3.999999999999998
    vertex 24.6 8.96076951545867 3.999999999999998
  endloop
endfacet
facet normal -0.6087614290087221 0.7933533402912339 1.3691217729933805e-31
  outer loop
    vertex 24.6 8.96076951545867 3.999999999999998
    vertex 24.84852813742386 9.151471862576141 -1.4099832412739487e-15
    vertex 24.6 8.96076951545867 -1.4099832412739487e-15
  endloop
endfacet
facet normal -0.6087614290087221 0.7933533402912339 1.3691217729933805e-31
  outer loop
    vertex 24.84852813742386 9.151471862576141 -1.4099832412739487e-15
    vertex 24.6 8.96076951545867 3.999999999999998
    vertex 24.84852813742386 9.15147186257614 3.999999999999998
  endloop
endfacet
facet normal -0.7933533402912339 0.6087614290087221 1.0505640862474288e-31
  outer loop
    vertex 25.039230484541328 9.399999999999995 3.999999999999998
    vertex 24.84852813742386 9.151471862576141 -1.4099832412739487e-15
    vertex 24.84852813742386 9.15147186257614 3.999999999999998
  endloop
endfacet
facet normal -0.7933533402912339 0.6087614290087221 1.0505640862474288e-31
  outer loop
    vertex 24.84852813742386 9.151471862576141 -1.4099832412739487e-15
    vertex 25.039230484541328 9.399999999999995 3.999999999999998
    vertex 25.039230484541328 9.399999999999997 -1.4099832412739487e-15
  endloop
endfacet
facet normal -0.9238795325112887 0.3826834323650851 6.604121931629395e-32
  outer loop
    vertex 25.159110991546882 9.689417145876972 3.999999999999998
    vertex 25.039230484541328 9.399999999999997 -1.4099832412739487e-15
    vertex 25.039230484541328 9.399999999999995 3.999999999999998
  endloop
endfacet
facet normal -0.9238795325112887 0.3826834323650851 6.604121931629395e-32
  outer loop
    vertex 25.039230484541328 9.399999999999997 -1.4099832412739487e-15
    vertex 25.159110991546882 9.689417145876972 3.999999999999998
    vertex 25.159110991546882 9.689417145876973 -1.4099832412739487e-15
  endloop
endfacet
facet normal -0.99144486137381 0.1305261922200539 0.0
  outer loop
    vertex 25.200000000000003 9.999999999999996 3.999999999999998
    vertex 25.159110991546882 9.689417145876973 -1.4099832412739487e-15
    vertex 25.159110991546882 9.689417145876972 3.999999999999998
  endloop
endfacet
facet normal -0.99144486137381 0.1305261922200539 0.0
  outer loop
    vertex 25.159110991546882 9.689417145876973 -1.4099832412739487e-15
    vertex 25.200000000000003 9.999999999999996 3.999999999999998
    vertex 25.200000000000003 9.999999999999996 -1.4099832412739487e-15
  endloop
endfacet
facet normal -0.9914448613738103 -0.13052619222005335 0.0
  outer loop
    vertex 25.159110991546882 10.310582854123021 3.999999999999998
    vertex 25.200000000000003 9.999999999999996 -1.4099832412739487e-15
    vertex 25.200000000000003 9.999999999999996 3.999999999999998
  endloop
endfacet
facet normal -0.9914448613738103 -0.13052619222005335 0.0
  outer loop
    vertex 25.200000000000003 9.999999999999996 -1.4099832412739487e-15
    vertex 25.159110991546882 10.310582854123021 3.999999999999998
    vertex 25.159110991546882 10.310582854123023 -1.4099832412739487e-15
  endloop
endfacet
facet normal -0.923879532511288 -0.3826834323650867 -6.604121931629428e-32
  outer loop
    vertex 25.039230484541328 10.599999999999996 3.999999999999998
    vertex 25.159110991546882 10.310582854123023 -1.4099832412739487e-15
    vertex 25.159110991546882 10.310582854123021 3.999999999999998
  endloop
endfacet
facet normal -0.923879532511288 -0.3826834323650867 -6.604121931629428e-32
  outer loop
    vertex 25.159110991546882 10.310582854123023 -1.4099832412739487e-15
    vertex 25.039230484541328 10.599999999999996 3.999999999999998
    vertex 25.039230484541328 10.599999999999998 -1.4099832412739487e-15
  endloop
endfacet
facet normal -0.7933533402912356 -0.60876142900872 -1.0505640862474255e-31
  outer loop
    vertex 24.84852813742386 10.848528137423854 3.999999999999998
    vertex 25.039230484541328 10.599999999999998 -1.4099832412739487e-15
    vertex 25.039230484541328 10.599999999999996 3.999999999999998
  endloop
endfacet
facet normal -0.7933533402912356 -0.60876142900872 -1.0505640862474255e-31
  outer loop
    vertex 25.039230484541328 10.599999999999998 -1.4099832412739487e-15
    vertex 24.84852813742386 10.848528137423854 3.999999999999998
    vertex 24.84852813742386 10.848528137423855 -1.4099832412739487e-15
  endloop
endfacet
facet normal -0.6087614290087179 -0.7933533402912374 -1.369121772993387e-31
  outer loop
    vertex 24.84852813742386 10.848528137423854 3.999999999999998
    vertex 24.6 11.039230484541324 -1.4099832412739487e-15
    vertex 24.84852813742386 10.848528137423855 -1.4099832412739487e-15
  endloop
endfacet
facet normal -0.6087614290087179 -0.7933533402912374 -1.369121772993387e-31
  outer loop
    vertex 24.6 11.039230484541324 -1.4099832412739487e-15
    vertex 24.84852813742386 10.848528137423854 3.999999999999998
    vertex 24.6 11.039230484541322 3.999999999999998
  endloop
endfacet
facet normal -0.38268343236509056 -0.9238795325112865 -1.5943760734905484e-31
  outer loop
    vertex 24.6 11.039230484541322 3.999999999999998
    vertex 24.310582854123027 11.15911099154688 -1.4099832412739487e-15
    vertex 24.6 11.039230484541324 -1.4099832412739487e-15
  endloop
endfacet
facet normal -0.38268343236509056 -0.9238795325112865 -1.5943760734905484e-31
  outer loop
    vertex 24.310582854123027 11.15911099154688 -1.4099832412739487e-15
    vertex 24.6 11.039230484541322 3.999999999999998
    vertex 24.310582854123027 11.159110991546878 3.999999999999998
  endloop
endfacet
facet normal -0.1305261922200495 -0.9914448613738107 -1.7109762794103751e-31
  outer loop
    vertex 24.310582854123027 11.159110991546878 3.999999999999998
    vertex 24.0 11.199999999999998 -1.4099832412739487e-15
    vertex 24.310582854123027 11.15911099154688 -1.4099832412739487e-15
  endloop
endfacet
facet normal -0.1305261922200495 -0.9914448613738107 -1.7109762794103751e-31
  outer loop
    vertex 24.0 11.199999999999998 -1.4099832412739487e-15
    vertex 24.310582854123027 11.159110991546878 3.999999999999998
    vertex 24.0 11.199999999999996 3.999999999999998
  endloop
endfacet
facet normal 0.1305261922200539 -0.99144486137381 -1.7109762794103738e-31
  outer loop
    vertex 24.0 11.199999999999996 3.999999999999998
    vertex 23.689417145876977 11.159110991546878 -1.4099832412739487e-15
    vertex 24.0 11.199999999999998 -1.4099832412739487e-15
  endloop
endfacet
facet normal 0.1305261922200539 -0.99144486137381 -1.7109762794103738e-31
  outer loop
    vertex 23.689417145876977 11.159110991546878 -1.4099832412739487e-15
    vertex 24.0 11.199999999999996 3.999999999999998
    vertex 23.689417145876977 11.159110991546878 3.999999999999998
  endloop
endfacet
facet normal 0.38268343236508734 -0.9238795325112877 -1.5943760734905506e-31
  outer loop
    vertex 23.689417145876977 11.159110991546878 3.999999999999998
    vertex 23.4 11.039230484541322 -1.4099832412739487e-15
    vertex 23.689417145876977 11.159110991546878 -1.4099832412739487e-15
  endloop
endfacet
facet normal 0.38268343236508734 -0.9238795325112877 -1.5943760734905506e-31
  outer loop
    vertex 23.4 11.039230484541322 -1.4099832412739487e-15
    vertex 23.689417145876977 11.159110991546878 3.999999999999998
    vertex 23.4 11.039230484541322 3.999999999999998
  endloop
endfacet
facet normal 0.6087614290087193 -0.7933533402912362 -1.3691217729933845e-31
  outer loop
    vertex 23.4 11.039230484541322 3.999999999999998
    vertex 23.151471862576145 10.848528137423855 -1.4099832412739487e-15
    vertex 23.4 11.039230484541322 -1.4099832412739487e-15
  endloop
endfacet
facet normal 0.6087614290087193 -0.7933533402912362 -1.3691217729933845e-31
  outer loop
    vertex 23.151471862576145 10.848528137423855 -1.4099832412739487e-15
    vertex 23.4 11.039230484541322 3.999999999999998
    vertex 23.151471862576145 10.848528137423854 3.999999999999998
  endloop
endfacet
facet normal 0.7933533402912356 -0.60876142900872 -1.050564086247425e-31
  outer loop
    vertex 22.960769515458672 10.599999999999998 -1.4099832412739487e-15
    vertex 23.151471862576145 10.848528137423854 3.999999999999998
    vertex 22.960769515458672 10.599999999999996 3.999999999999998
  endloop
endfacet
facet normal 0.7933533402912356 -0.60876142900872 -1.050564086247425e-31
  outer loop
    vertex 23.151471862576145 10.848528137423854 3.999999999999998
    vertex 22.960769515458672 10.599999999999998 -1.4099832412739487e-15
    vertex 23.151471862576145 10.848528137423855 -1.4099832412739487e-15
  endloop
endfacet
facet normal 0.923879532511288 -0.3826834323650867 -6.604121931629423e-32
  outer loop
    vertex 22.840889008453118 10.310582854123023 -1.4099832412739487e-15
    vertex 22.960769515458672 10.599999999999996 3.999999999999998
    vertex 22.840889008453118 10.310582854123021 3.999999999999998
  endloop
endfacet
facet normal 0.923879532511288 -0.3826834323650867 -6.604121931629423e-32
  outer loop
    vertex 22.960769515458672 10.599999999999996 3.999999999999998
    vertex 22.840889008453118 10.310582854123023 -1.4099832412739487e-15
    vertex 22.960769515458672 10.599999999999998 -1.4099832412739487e-15
  endloop
endfacet
facet normal 0.9914448613738105 -0.13052619222005113 -0.0
  outer loop
    vertex 1.3000000000000012 9.999999999999996 1.4099832412739487e-15
    vertex 1.340889008453119 10.310582854123021 3.9999999999999996
    vertex 1.3000000000000012 9.999999999999996 3.9999999999999996
  endloop
endfacet
facet normal 0.9914448613738105 -0.13052619222005113 -0.0
  outer loop
    vertex 1.340889008453119 10.310582854123021 3.9999999999999996
    vertex 1.3000000000000012 9.999999999999996 1.4099832412739487e-15
    vertex 1.340889008453119 10.310582854123023 1.4099832412739487e-15
  endloop
endfacet
facet normal 0.9914448613738103 0.1305261922200522 -0.0
  outer loop
    vertex 1.3408890084531195 9.689417145876972 1.4099832412739487e-15
    vertex 1.3000000000000012 9.999999999999996 3.9999999999999996
    vertex 1.3408890084531195 9.68941714587697 3.9999999999999996
  endloop
endfacet
facet normal 0.9914448613738103 0.1305261922200522 -0.0
  outer loop
    vertex 1.3000000000000012 9.999999999999996 3.9999999999999996
    vertex 1.3408890084531195 9.689417145876972 1.4099832412739487e-15
    vertex 1.3000000000000012 9.999999999999996 1.4099832412739487e-15
  endloop
endfacet
facet normal 0.9238795325112866 0.38268343236509006 0.0
  outer loop
    vertex 1.460769515458675 9.399999999999997 1.4099832412739487e-15
    vertex 1.3408890084531195 9.68941714587697 3.9999999999999996
    vertex 1.460769515458675 9.399999999999995 3.9999999999999996
  endloop
endfacet
facet normal 0.9238795325112866 0.38268343236509006 0.0
  outer loop
    vertex 1.3408890084531195 9.68941714587697 3.9999999999999996
    vertex 1.460769515458675 9.399999999999997 1.4099832412739487e-15
    vertex 1.3408890084531195 9.689417145876972 1.4099832412739487e-15
  endloop
endfacet
facet normal 0.7933533402912344 0.6087614290087219 0.0
  outer loop
    vertex 1.6514718625761444 9.151471862576141 1.4099832412739487e-15
    vertex 1.460769515458675 9.399999999999995 3.9999999999999996
    vertex 1.6514718625761444 9.15147186257614 3.9999999999999996
  endloop
endfacet
facet normal 0.7933533402912344 0.6087614290087219 0.0
  outer loop
    vertex 1.460769515458675 9.399999999999995 3.9999999999999996
    vertex 1.6514718625761444 9.151471862576141 1.4099832412739487e-15
    vertex 1.460769515458675 9.399999999999997 1.4099832412739487e-15
  endloop
endfacet
facet normal 0.6087614290087205 0.7933533402912352 0.0
  outer loop
    vertex 1.6514718625761444 9.15147186257614 3.9999999999999996
    vertex 1.900000000000002 8.96076951545867 1.4099832412739487e-15
    vertex 1.6514718625761444 9.151471862576141 1.4099832412739487e-15
  endloop
endfacet
facet normal 0.6087614290087205 0.7933533402912352 0.0
  outer loop
    vertex 1.900000000000002 8.96076951545867 1.4099832412739487e-15
    vertex 1.6514718625761444 9.15147186257614 3.9999999999999996
    vertex 1.900000000000002 8.96076951545867 3.9999999999999996
  endloop
endfacet
facet normal 0.38268343236509056 0.9238795325112865 0.0
  outer loop
    vertex 1.900000000000002 8.96076951545867 3.9999999999999996
    vertex 2.189417145876977 8.840889008453114 1.4099832412739487e-15
    vertex 1.900000000000002 8.96076951545867 1.4099832412739487e-15
  endloop
endfacet
facet normal 0.38268343236509056 0.9238795325112865 0.0
  outer loop
    vertex 2.189417145876977 8.840889008453114 1.4099832412739487e-15
    vertex 1.900000000000002 8.96076951545867 3.9999999999999996
    vertex 2.189417145876977 8.840889008453114 3.9999999999999996
  endloop
endfacet
facet normal 0.1305261922200492 0.9914448613738107 0.0
  outer loop
    vertex 2.189417145876977 8.840889008453114 3.9999999999999996
    vertex 2.5000000000000013 8.799999999999997 1.4099832412739487e-15
    vertex 2.189417145876977 8.840889008453114 1.4099832412739487e-15
  endloop
endfacet
facet normal 0.1305261922200492 0.9914448613738107 0.0
  outer loop
    vertex 2.5000000000000013 8.799999999999997 1.4099832412739487e-15
    vertex 2.189417145876977 8.840889008453114 3.9999999999999996
    vertex 2.5000000000000013 8.799999999999997 3.9999999999999996
  endloop
endfacet
facet normal -0.1305261922200489 0.9914448613738107 -0.0
  outer loop
    vertex 2.5000000000000013 8.799999999999997 3.9999999999999996
    vertex 2.8105828541230267 8.840889008453114 1.4099832412739487e-15
    vertex 2.5000000000000013 8.799999999999997 1.4099832412739487e-15
  endloop
endfacet
facet normal -0.1305261922200489 0.9914448613738107 -0.0
  outer loop
    vertex 2.8105828541230267 8.840889008453114 1.4099832412739487e-15
    vertex 2.5000000000000013 8.799999999999997 3.9999999999999996
    vertex 2.8105828541230267 8.840889008453114 3.9999999999999996
  endloop
endfacet
facet normal -0.382683432365091 0.9238795325112864 -0.0
  outer loop
    vertex 2.8105828541230267 8.840889008453114 3.9999999999999996
    vertex 3.1000000000000014 8.96076951545867 1.4099832412739487e-15
    vertex 2.8105828541230267 8.840889008453114 1.4099832412739487e-15
  endloop
endfacet
facet normal -0.382683432365091 0.9238795325112864 -0.0
  outer loop
    vertex 3.1000000000000014 8.96076951545867 1.4099832412739487e-15
    vertex 2.8105828541230267 8.840889008453114 3.9999999999999996
    vertex 3.1000000000000014 8.96076951545867 3.9999999999999996
  endloop
endfacet
facet normal -0.6087614290087211 0.7933533402912347 -0.0
  outer loop
    vertex 3.1000000000000014 8.96076951545867 3.9999999999999996
    vertex 3.3485281374238585 9.151471862576141 1.4099832412739487e-15
    vertex 3.1000000000000014 8.96076951545867 1.4099832412739487e-15
  endloop
endfacet
facet normal -0.6087614290087211 0.7933533402912347 -0.0
  outer loop
    vertex 3.3485281374238585 9.151471862576141 1.4099832412739487e-15
    vertex 3.1000000000000014 8.96076951545867 3.9999999999999996
    vertex 3.3485281374238585 9.15147186257614 3.9999999999999996
  endloop
endfacet
facet normal -0.793353340291235 0.6087614290087208 -0.0
  outer loop
    vertex 3.5392304845413274 9.399999999999995 3.9999999999999996
    vertex 3.3485281374238585 9.151471862576141 1.4099832412739487e-15
    vertex 3.3485281374238585 9.15147186257614 3.9999999999999996
  endloop
endfacet
facet normal -0.793353340291235 0.6087614290087208 -0.0
  outer loop
    vertex 3.3485281374238585 9.151471862576141 1.4099832412739487e-15
    vertex 3.5392304845413274 9.399999999999995 3.9999999999999996
    vertex 3.5392304845413274 9.399999999999997 1.4099832412739487e-15
  endloop
endfacet
facet normal -0.9238795325112871 0.38268343236508895 -0.0
  outer loop
    vertex 3.659110991546883 9.689417145876972 3.9999999999999996
    vertex 3.5392304845413274 9.399999999999997 1.4099832412739487e-15
    vertex 3.5392304845413274 9.399999999999995 3.9999999999999996
  endloop
endfacet
facet normal -0.9238795325112871 0.38268343236508895 -0.0
  outer loop
    vertex 3.5392304845413274 9.399999999999997 1.4099832412739487e-15
    vertex 3.659110991546883 9.689417145876972 3.9999999999999996
    vertex 3.659110991546883 9.689417145876973 1.4099832412739487e-15
  endloop
endfacet
facet normal -0.9914448613738105 0.13052619222005174 0.0
  outer loop
    vertex 3.700000000000001 9.999999999999996 3.9999999999999996
    vertex 3.659110991546883 9.689417145876973 1.4099832412739487e-15
    vertex 3.659110991546883 9.689417145876972 3.9999999999999996
  endloop
endfacet
facet normal -0.9914448613738105 0.13052619222005174 0.0
  outer loop
    vertex 3.659110991546883 9.689417145876973 1.4099832412739487e-15
    vertex 3.700000000000001 9.999999999999996 3.9999999999999996
    vertex 3.700000000000001 9.999999999999996 1.4099832412739487e-15
  endloop
endfacet
facet normal -0.9914448613738105 -0.13052619222005113 0.0
  outer loop
    vertex 3.659110991546883 10.310582854123021 3.9999999999999996
    vertex 3.700000000000001 9.999999999999996 1.4099832412739487e-15
    vertex 3.700000000000001 9.999999999999996 3.9999999999999996
  endloop
endfacet
facet normal -0.9914448613738105 -0.13052619222005113 0.0
  outer loop
    vertex 3.700000000000001 9.999999999999996 1.4099832412739487e-15
    vertex 3.659110991546883 10.310582854123021 3.9999999999999996
    vertex 3.659110991546883 10.310582854123023 1.4099832412739487e-15
  endloop
endfacet
facet normal -0.9238795325112865 -0.38268343236509056 -0.0
  outer loop
    vertex 3.5392304845413274 10.599999999999996 3.9999999999999996
    vertex 3.659110991546883 10.310582854123023 1.4099832412739487e-15
    vertex 3.659110991546883 10.310582854123021 3.9999999999999996
  endloop
endfacet
facet normal -0.9238795325112865 -0.38268343236509056 -0.0
  outer loop
    vertex 3.659110991546883 10.310582854123023 1.4099832412739487e-15
    vertex 3.5392304845413274 10.599999999999996 3.9999999999999996
    vertex 3.5392304845413274 10.599999999999998 1.4099832412739487e-15
  endloop
endfacet
facet normal -0.7933533402912339 -0.6087614290087221 -0.0
  outer loop
    vertex 3.3485281374238576 10.848528137423852 3.9999999999999996
    vertex 3.5392304845413274 10.599999999999998 1.4099832412739487e-15
    vertex 3.5392304845413274 10.599999999999996 3.9999999999999996
  endloop
endfacet
facet normal -0.7933533402912339 -0.6087614290087221 -0.0
  outer loop
    vertex 3.5392304845413274 10.599999999999998 1.4099832412739487e-15
    vertex 3.3485281374238576 10.848528137423852 3.9999999999999996
    vertex 3.3485281374238576 10.848528137423854 1.4099832412739487e-15
  endloop
endfacet
facet normal -0.6087614290087211 -0.7933533402912347 -0.0
  outer loop
    vertex 3.3485281374238576 10.848528137423852 3.9999999999999996
    vertex 3.1000000000000005 11.039230484541322 1.4099832412739487e-15
    vertex 3.3485281374238576 10.848528137423854 1.4099832412739487e-15
  endloop
endfacet
facet normal -0.6087614290087211 -0.7933533402912347 -0.0
  outer loop
    vertex 3.1000000000000005 11.039230484541322 1.4099832412739487e-15
    vertex 3.3485281374238576 10.848528137423852 3.9999999999999996
    vertex 3.1000000000000005 11.039230484541322 3.9999999999999996
  endloop
endfacet
facet normal -0.38268343236509056 -0.9238795325112865 -0.0
  outer loop
    vertex 3.1000000000000005 11.039230484541322 3.9999999999999996
    vertex 2.8105828541230258 11.159110991546878 1.4099832412739487e-15
    vertex 3.1000000000000005 11.039230484541322 1.4099832412739487e-15
  endloop
endfacet
facet normal -0.38268343236509056 -0.9238795325112865 -0.0
  outer loop
    vertex 2.8105828541230258 11.159110991546878 1.4099832412739487e-15
    vertex 3.1000000000000005 11.039230484541322 3.9999999999999996
    vertex 2.8105828541230258 11.159110991546878 3.9999999999999996
  endloop
endfacet
facet normal -0.1305261922200492 -0.9914448613738107 -0.0
  outer loop
    vertex 2.8105828541230258 11.159110991546878 3.9999999999999996
    vertex 2.500000000000001 11.199999999999996 1.4099832412739487e-15
    vertex 2.8105828541230258 11.159110991546878 1.4099832412739487e-15
  endloop
endfacet
facet normal -0.1305261922200492 -0.9914448613738107 -0.0
  outer loop
    vertex 2.500000000000001 11.199999999999996 1.4099832412739487e-15
    vertex 2.8105828541230258 11.159110991546878 3.9999999999999996
    vertex 2.500000000000001 11.199999999999996 3.9999999999999996
  endloop
endfacet
facet normal 0.13052619222004905 -0.9914448613738108 -0.0
  outer loop
    vertex 2.500000000000001 11.199999999999996 3.9999999999999996
    vertex 2.189417145876976 11.159110991546878 1.4099832412739487e-15
    vertex 2.500000000000001 11.199999999999996 1.4099832412739487e-15
  endloop
endfacet
facet normal 0.13052619222004905 -0.9914448613738108 -0.0
  outer loop
    vertex 2.189417145876976 11.159110991546878 1.4099832412739487e-15
    vertex 2.500000000000001 11.199999999999996 3.9999999999999996
    vertex 2.189417145876976 11.159110991546878 3.9999999999999996
  endloop
endfacet
facet normal 0.38268343236509017 -0.9238795325112867 -0.0
  outer loop
    vertex 2.189417145876976 11.159110991546878 3.9999999999999996
    vertex 1.9000000000000008 11.039230484541322 1.4099832412739487e-15
    vertex 2.189417145876976 11.159110991546878 1.4099832412739487e-15
  endloop
endfacet
facet normal 0.38268343236509017 -0.9238795325112867 -0.0
  outer loop
    vertex 1.9000000000000008 11.039230484541322 1.4099832412739487e-15
    vertex 2.189417145876976 11.159110991546878 3.9999999999999996
    vertex 1.9000000000000008 11.039230484541322 3.9999999999999996
  endloop
endfacet
facet normal 0.6087614290087215 -0.7933533402912344 -0.0
  outer loop
    vertex 1.9000000000000008 11.039230484541322 3.9999999999999996
    vertex 1.6514718625761442 10.848528137423854 1.4099832412739487e-15
    vertex 1.9000000000000008 11.039230484541322 1.4099832412739487e-15
  endloop
endfacet
facet normal 0.6087614290087215 -0.7933533402912344 -0.0
  outer loop
    vertex 1.6514718625761442 10.848528137423854 1.4099832412739487e-15
    vertex 1.9000000000000008 11.039230484541322 3.9999999999999996
    vertex 1.6514718625761442 10.848528137423852 3.9999999999999996
  endloop
endfacet
facet normal 0.7933533402912344 -0.6087614290087219 -0.0
  outer loop
    vertex 1.4607695154586746 10.599999999999998 1.4099832412739487e-15
    vertex 1.6514718625761442 10.848528137423852 3.9999999999999996
    vertex 1.4607695154586746 10.599999999999996 3.9999999999999996
  endloop
endfacet
facet normal 0.7933533402912344 -0.6087614290087219 -0.0
  outer loop
    vertex 1.6514718625761442 10.848528137423852 3.9999999999999996
    vertex 1.4607695154586746 10.599999999999998 1.4099832412739487e-15
    vertex 1.6514718625761442 10.848528137423854 1.4099832412739487e-15
  endloop
endfacet
facet normal 0.9238795325112866 -0.38268343236509006 -0.0
  outer loop
    vertex 1.340889008453119 10.310582854123023 1.4099832412739487e-15
    vertex 1.4607695154586746 10.599999999999996 3.9999999999999996
    vertex 1.340889008453119 10.310582854123021 3.9999999999999996
  endloop
endfacet
facet normal 0.9238795325112866 -0.38268343236509006 -0.0
  outer loop
    vertex 1.4607695154586746 10.599999999999996 3.9999999999999996
    vertex 1.340889008453119 10.310582854123023 1.4099832412739487e-15
    vertex 1.4607695154586746 10.599999999999998 1.4099832412739487e-15
  endloop
endfacet
facet normal -1.1051243333725153e-16 1.0961451981638635e-15 1.0
  outer loop
    vertex 19.650000000000002 16.499999999999996 3.999999999999997
    vertex 6.35 17.999999999999996 3.999999999999991
    vertex 6.35 16.499999999999996 3.999999999999991
  endloop
endfacet
facet normal -1.1051243333725153e-16 1.0961451981638635e-15 1.0
  outer loop
    vertex 6.35 17.999999999999996 3.999999999999991
    vertex 19.650000000000002 16.499999999999996 3.999999999999997
    vertex 20.150000000000002 17.999999999999996 3.999999999999991
  endloop
endfacet
facet normal -1.1051243333725153e-16 1.0961451981638635e-15 1.0
  outer loop
    vertex 20.150000000000002 17.999999999999996 3.999999999999991
    vertex 19.650000000000002 16.499999999999996 3.999999999999997
    vertex 20.15 16.499999999999996 3.999999999999991
  endloop
endfacet
facet normal -1.9725210786369006e-29 -1.0 -3.5249581031848965e-15
  outer loop
    vertex 20.15 16.499999999999996 3.999999999999991
    vertex 19.650000000000002 16.499999999999996 1.2
    vertex 20.15 16.499999999999996 1.2
  endloop
endfacet
facet normal -1.9725210786369006e-29 -1.0 -3.5249581031848965e-15
  outer loop
    vertex 19.650000000000002 16.499999999999996 1.2
    vertex 20.15 16.499999999999996 3.999999999999991
    vertex 19.650000000000002 16.499999999999996 3.999999999999997
  endloop
endfacet
facet normal 1.5866426562680311e-31 -1.0 -1.007130886624251e-15
  outer loop
    vertex 19.650000000000002 16.499999999999996 3.999999999999997
    vertex 19.15 16.499999999999996 1.2
    vertex 19.650000000000002 16.499999999999996 1.2
  endloop
endfacet
facet normal 1.5866426562680311e-31 -1.0 -1.007130886624251e-15
  outer loop
    vertex 19.15 16.499999999999996 1.2
    vertex 19.650000000000002 16.499999999999996 3.999999999999997
    vertex 7.3500000000000005 16.499999999999996 1.2
  endloop
endfacet
facet normal 1.5866426562680311e-31 -1.0 -1.007130886624251e-15
  outer loop
    vertex 7.3500000000000005 16.499999999999996 1.2
    vertex 19.650000000000002 16.499999999999996 3.999999999999997
    vertex 6.35 16.499999999999996 1.2
  endloop
endfacet
facet normal 1.5866426562680311e-31 -1.0 -1.007130886624251e-15
  outer loop
    vertex 6.35 16.499999999999996 1.2
    vertex 19.650000000000002 16.499999999999996 3.999999999999997
    vertex 6.35 16.499999999999996 3.999999999999991
  endloop
endfacet
facet normal 1.1557980489879424e-17 -3.596049299469257e-17 -1.0
  outer loop
    vertex -1.4999999999999996 17.999999999999996 0.0
    vertex 1.340889008453119 10.310582854123023 1.4099832412739487e-15
    vertex -1.4999999999999996 0.0 0.0
  endloop
endfacet
facet normal 1.1557980489879424e-17 -3.596049299469257e-17 -1.0
  outer loop
    vertex 1.340889008453119 10.310582854123023 1.4099832412739487e-15
    vertex -1.4999999999999996 17.999999999999996 0.0
    vertex 1.4607695154586746 10.599999999999998 1.4099832412739487e-15
  endloop
endfacet
facet normal 1.1557980489879424e-17 -3.596049299469257e-17 -1.0
  outer loop
    vertex 1.4607695154586746 10.599999999999998 1.4099832412739487e-15
    vertex -1.4999999999999996 17.999999999999996 0.0
    vertex 6.35 17.999999999999996 -6.074649347796882e-15
  endloop
endfacet
facet normal 1.1557980489879424e-17 -3.596049299469257e-17 -1.0
  outer loop
    vertex -1.4999999999999996 0.0 0.0
    vertex 1.340889008453119 10.310582854123023 1.4099832412739487e-15
    vertex 1.3000000000000012 9.999999999999996 1.4099832412739487e-15
  endloop
endfacet
facet normal 1.1557980489879424e-17 -3.596049299469257e-17 -1.0
  outer loop
    vertex 1.4607695154586746 10.599999999999998 1.4099832412739487e-15
    vertex 6.35 17.999999999999996 -6.074649347796882e-15
    vertex 1.6514718625761442 10.848528137423854 1.4099832412739487e-15
  endloop
endfacet
facet normal 1.1557980489879424e-17 -3.596049299469257e-17 -1.0
  outer loop
    vertex 1.6514718625761442 10.848528137423854 1.4099832412739487e-15
    vertex 6.35 17.999999999999996 -6.074649347796882e-15
    vertex 1.9000000000000008 11.039230484541322 1.4099832412739487e-15
  endloop
endfacet
facet normal 1.1557980489879424e-17 -3.596049299469257e-17 -1.0
  outer loop
    vertex 1.9000000000000008 11.039230484541322 1.4099832412739487e-15
    vertex 6.35 17.999999999999996 -6.074649347796882e-15
    vertex 2.189417145876976 11.159110991546878 1.4099832412739487e-15
  endloop
endfacet
facet normal 1.1557980489879424e-17 -3.596049299469257e-17 -1.0
  outer loop
    vertex 2.189417145876976 11.159110991546878 1.4099832412739487e-15
    vertex 6.35 17.999999999999996 -6.074649347796882e-15
    vertex 2.500000000000001 11.199999999999996 1.4099832412739487e-15
  endloop
endfacet
facet normal 1.1557980489879424e-17 -3.596049299469257e-17 -1.0
  outer loop
    vertex 2.500000000000001 11.199999999999996 1.4099832412739487e-15
    vertex 6.35 17.999999999999996 -6.074649347796882e-15
    vertex 2.8105828541230258 11.159110991546878 1.4099832412739487e-15
  endloop
endfacet
facet normal 1.1557980489879424e-17 -3.596049299469257e-17 -1.0
  outer loop
    vertex 2.8105828541230258 11.159110991546878 1.4099832412739487e-15
    vertex 6.35 17.999999999999996 -6.074649347796882e-15
    vertex 3.1000000000000005 11.039230484541322 1.4099832412739487e-15
  endloop
endfacet
facet normal 1.1557980489879424e-17 -3.596049299469257e-17 -1.0
  outer loop
    vertex 3.1000000000000005 11.039230484541322 1.4099832412739487e-15
    vertex 6.35 17.999999999999996 -6.074649347796882e-15
    vertex 3.3485281374238576 10.848528137423854 1.4099832412739487e-15
  endloop
endfacet
facet normal 1.1557980489879424e-17 -3.596049299469257e-17 -1.0
  outer loop
    vertex 3.3485281374238576 10.848528137423854 1.4099832412739487e-15
    vertex 6.35 17.999999999999996 -6.074649347796882e-15
    vertex 3.5392304845413274 10.599999999999998 1.4099832412739487e-15
  endloop
endfacet
facet normal 1.1557980489879424e-17 -3.596049299469257e-17 -1.0
  outer loop
    vertex 3.5392304845413274 10.599999999999998 1.4099832412739487e-15
    vertex 6.35 17.999999999999996 -6.074649347796882e-15
    vertex 3.659110991546883 10.310582854123023 1.4099832412739487e-15
  endloop
endfacet
facet normal 1.1557980489879424e-17 -3.596049299469257e-17 -1.0
  outer loop
    vertex 3.659110991546883 10.310582854123023 1.4099832412739487e-15
    vertex 6.35 17.999999999999996 -6.074649347796882e-15
    vertex 3.700000000000001 9.999999999999996 1.4099832412739487e-15
  endloop
endfacet
facet normal 1.1557980489879424e-17 -3.596049299469257e-17 -1.0
  outer loop
    vertex 7.350000000000002 17.999999999999996 -6.848490029044895e-15
    vertex 7.3500000000000005 3.199999999999997 -1.127986593019159e-14
    vertex 6.35 17.999999999999996 -6.074649347796882e-15
  endloop
endfacet
facet normal 1.1557980489879424e-17 -3.596049299469257e-17 -1.0
  outer loop
    vertex 7.3500000000000005 3.199999999999997 -1.127986593019159e-14
    vertex 7.350000000000002 17.999999999999996 -6.848490029044895e-15
    vertex 7.350000000000002 15.999999999999998 -7.447324610280934e-15
  endloop
endfacet
facet normal 1.1557980489879424e-17 -3.596049299469257e-17 -1.0
  outer loop
    vertex 19.150000233669704 16.501241732418872 8.485287628130522e-14
    vertex 19.15 3.199999999999997 -1.127986593019159e-14
    vertex 19.15 15.999999999999998 -6.373505327109944e-15
  endloop
endfacet
facet normal 1.1557980489879424e-17 -3.596049299469257e-17 -1.0
  outer loop
    vertex 28.5 17.999999999999996 0.0
    vertex 19.150000233669704 16.501241732418872 8.485287628130522e-14
    vertex 19.150000000000002 17.999999999999996 -5.639932965095795e-15
  endloop
endfacet
facet normal 1.1557980489879424e-17 -3.596049299469257e-17 -1.0
  outer loop
    vertex 19.150000233669704 16.501241732418872 8.485287628130522e-14
    vertex 28.5 17.999999999999996 0.0
    vertex 22.960769515458672 10.599999999999998 -1.4099832412739487e-15
  endloop
endfacet
facet normal 1.1557980489879424e-17 -3.596049299469257e-17 -1.0
  outer loop
    vertex 19.150000233669704 16.501241732418872 8.485287628130522e-14
    vertex 22.960769515458672 10.599999999999998 -1.4099832412739487e-15
    vertex 22.840889008453118 10.310582854123023 -1.4099832412739487e-15
  endloop
endfacet
facet normal 1.1557980489879424e-17 -3.596049299469257e-17 -1.0
  outer loop
    vertex 19.150000233669704 16.501241732418872 8.485287628130522e-14
    vertex 22.840889008453118 10.310582854123023 -1.4099832412739487e-15
    vertex 22.8 9.999999999999996 -1.4099832412739487e-15
  endloop
endfacet
facet normal 1.1557980489879424e-17 -3.596049299469257e-17 -1.0
  outer loop
    vertex 22.960769515458672 10.599999999999998 -1.4099832412739487e-15
    vertex 28.5 17.999999999999996 0.0
    vertex 23.151471862576145 10.848528137423855 -1.4099832412739487e-15
  endloop
endfacet
facet normal 1.1557980489879424e-17 -3.596049299469257e-17 -1.0
  outer loop
    vertex 23.151471862576145 10.848528137423855 -1.4099832412739487e-15
    vertex 28.5 17.999999999999996 0.0
    vertex 23.4 11.039230484541322 -1.4099832412739487e-15
  endloop
endfacet
facet normal 1.1557980489879424e-17 -3.596049299469257e-17 -1.0
  outer loop
    vertex 23.4 11.039230484541322 -1.4099832412739487e-15
    vertex 28.5 17.999999999999996 0.0
    vertex 23.689417145876977 11.159110991546878 -1.4099832412739487e-15
  endloop
endfacet
facet normal 1.1557980489879424e-17 -3.596049299469257e-17 -1.0
  outer loop
    vertex 23.689417145876977 11.159110991546878 -1.4099832412739487e-15
    vertex 28.5 17.999999999999996 0.0
    vertex 24.0 11.199999999999998 -1.4099832412739487e-15
  endloop
endfacet
facet normal 1.1557980489879424e-17 -3.596049299469257e-17 -1.0
  outer loop
    vertex 24.0 11.199999999999998 -1.4099832412739487e-15
    vertex 28.5 17.999999999999996 0.0
    vertex 24.310582854123027 11.15911099154688 -1.4099832412739487e-15
  endloop
endfacet
facet normal 1.1557980489879424e-17 -3.596049299469257e-17 -1.0
  outer loop
    vertex 24.310582854123027 11.15911099154688 -1.4099832412739487e-15
    vertex 28.5 17.999999999999996 0.0
    vertex 24.6 11.039230484541324 -1.4099832412739487e-15
  endloop
endfacet
facet normal 1.1557980489879424e-17 -3.596049299469257e-17 -1.0
  outer loop
    vertex 24.6 11.039230484541324 -1.4099832412739487e-15
    vertex 28.5 17.999999999999996 0.0
    vertex 24.84852813742386 10.848528137423855 -1.4099832412739487e-15
  endloop
endfacet
facet normal 1.1557980489879424e-17 -3.596049299469257e-17 -1.0
  outer loop
    vertex 24.84852813742386 10.848528137423855 -1.4099832412739487e-15
    vertex 28.5 17.999999999999996 0.0
    vertex 25.039230484541328 10.599999999999998 -1.4099832412739487e-15
  endloop
endfacet
facet normal 1.1557980489879424e-17 -3.596049299469257e-17 -1.0
  outer loop
    vertex 25.039230484541328 10.599999999999998 -1.4099832412739487e-15
    vertex 28.5 17.999999999999996 0.0
    vertex 25.159110991546882 10.310582854123023 -1.4099832412739487e-15
  endloop
endfacet
facet normal 1.1557980489879424e-17 -3.596049299469257e-17 -1.0
  outer loop
    vertex 25.159110991546882 10.310582854123023 -1.4099832412739487e-15
    vertex 28.5 17.999999999999996 0.0
    vertex 25.200000000000003 9.999999999999996 -1.4099832412739487e-15
  endloop
endfacet
facet normal 1.1557980489879424e-17 -3.596049299469257e-17 -1.0
  outer loop
    vertex -1.4999999999999996 0.0 0.0
    vertex 7.3500000000000005 3.199999999999997 -1.127986593019159e-14
    vertex 28.5 0.0 0.0
  endloop
endfacet
facet normal 1.1557980489879424e-17 -3.596049299469257e-17 -1.0
  outer loop
    vertex 7.3500000000000005 3.199999999999997 -1.127986593019159e-14
    vertex -1.4999999999999996 0.0 0.0
    vertex 1.6514718625761444 9.151471862576141 1.4099832412739487e-15
  endloop
endfacet
facet normal 1.1557980489879424e-17 -3.596049299469257e-17 -1.0
  outer loop
    vertex 1.6514718625761444 9.151471862576141 1.4099832412739487e-15
    vertex -1.4999999999999996 0.0 0.0
    vertex 1.460769515458675 9.399999999999997 1.4099832412739487e-15
  endloop
endfacet
facet normal 1.1557980489879424e-17 -3.596049299469257e-17 -1.0
  outer loop
    vertex 1.460769515458675 9.399999999999997 1.4099832412739487e-15
    vertex -1.4999999999999996 0.0 0.0
    vertex 1.3408890084531195 9.689417145876972 1.4099832412739487e-15
  endloop
endfacet
facet normal 1.1557980489879424e-17 -3.596049299469257e-17 -1.0
  outer loop
    vertex 1.3408890084531195 9.689417145876972 1.4099832412739487e-15
    vertex -1.4999999999999996 0.0 0.0
    vertex 1.3000000000000012 9.999999999999996 1.4099832412739487e-15
  endloop
endfacet
facet normal 1.1557980489879424e-17 -3.596049299469257e-17 -1.0
  outer loop
    vertex 7.3500000000000005 3.199999999999997 -1.127986593019159e-14
    vertex 1.6514718625761444 9.151471862576141 1.4099832412739487e-15
    vertex 1.900000000000002 8.96076951545867 1.4099832412739487e-15
  endloop
endfacet
facet normal 1.1557980489879424e-17 -3.596049299469257e-17 -1.0
  outer loop
    vertex 7.3500000000000005 3.199999999999997 -1.127986593019159e-14
    vertex 1.900000000000002 8.96076951545867 1.4099832412739487e-15
    vertex 2.189417145876977 8.840889008453114 1.4099832412739487e-15
  endloop
endfacet
facet normal 1.1557980489879424e-17 -3.596049299469257e-17 -1.0
  outer loop
    vertex 7.3500000000000005 3.199999999999997 -1.127986593019159e-14
    vertex 2.189417145876977 8.840889008453114 1.4099832412739487e-15
    vertex 2.5000000000000013 8.799999999999997 1.4099832412739487e-15
  endloop
endfacet
facet normal 1.1557980489879424e-17 -3.596049299469257e-17 -1.0
  outer loop
    vertex 7.3500000000000005 3.199999999999997 -1.127986593019159e-14
    vertex 2.5000000000000013 8.799999999999997 1.4099832412739487e-15
    vertex 2.8105828541230267 8.840889008453114 1.4099832412739487e-15
  endloop
endfacet
facet normal 1.1557980489879424e-17 -3.596049299469257e-17 -1.0
  outer loop
    vertex 7.3500000000000005 3.199999999999997 -1.127986593019159e-14
    vertex 2.8105828541230267 8.840889008453114 1.4099832412739487e-15
    vertex 3.1000000000000014 8.96076951545867 1.4099832412739487e-15
  endloop
endfacet
facet normal 1.1557980489879424e-17 -3.596049299469257e-17 -1.0
  outer loop
    vertex 7.3500000000000005 3.199999999999997 -1.127986593019159e-14
    vertex 3.1000000000000014 8.96076951545867 1.4099832412739487e-15
    vertex 3.3485281374238585 9.151471862576141 1.4099832412739487e-15
  endloop
endfacet
facet normal 1.1557980489879424e-17 -3.596049299469257e-17 -1.0
  outer loop
    vertex 7.3500000000000005 3.199999999999997 -1.127986593019159e-14
    vertex 3.3485281374238585 9.151471862576141 1.4099832412739487e-15
    vertex 3.5392304845413274 9.399999999999997 1.4099832412739487e-15
  endloop
endfacet
facet normal 1.1557980489879424e-17 -3.596049299469257e-17 -1.0
  outer loop
    vertex 7.3500000000000005 3.199999999999997 -1.127986593019159e-14
    vertex 3.5392304845413274 9.399999999999997 1.4099832412739487e-15
    vertex 3.659110991546883 9.689417145876973 1.4099832412739487e-15
  endloop
endfacet
facet normal 1.1557980489879424e-17 -3.596049299469257e-17 -1.0
  outer loop
    vertex 7.3500000000000005 3.199999999999997 -1.127986593019159e-14
    vertex 3.659110991546883 9.689417145876973 1.4099832412739487e-15
    vertex 3.700000000000001 9.999999999999996 1.4099832412739487e-15
  endloop
endfacet
facet normal 1.1557980489879424e-17 -3.596049299469257e-17 -1.0
  outer loop
    vertex 7.3500000000000005 3.199999999999997 -1.127986593019159e-14
    vertex 3.700000000000001 9.999999999999996 1.4099832412739487e-15
    vertex 6.35 17.999999999999996 -6.074649347796882e-15
  endloop
endfacet
facet normal 1.1557980489879424e-17 -3.596049299469257e-17 -1.0
  outer loop
    vertex 28.5 0.0 0.0
    vertex 7.3500000000000005 3.199999999999997 -1.127986593019159e-14
    vertex 19.15 3.199999999999997 -1.127986593019159e-14
  endloop
endfacet
facet normal 1.1557980489879424e-17 -3.596049299469257e-17 -1.0
  outer loop
    vertex 28.5 0.0 0.0
    vertex 19.15 3.199999999999997 -1.127986593019159e-14
    vertex 22.960769515458672 9.399999999999997 -1.4099832412739487e-15
  endloop
endfacet
facet normal 1.1557980489879424e-17 -3.596049299469257e-17 -1.0
  outer loop
    vertex 22.960769515458672 9.399999999999997 -1.4099832412739487e-15
    vertex 19.15 3.199999999999997 -1.127986593019159e-14
    vertex 19.150000233669704 16.501241732418872 8.485287628130522e-14
  endloop
endfacet
facet normal 1.1557980489879424e-17 -3.596049299469257e-17 -1.0
  outer loop
    vertex 22.960769515458672 9.399999999999997 -1.4099832412739487e-15
    vertex 19.150000233669704 16.501241732418872 8.485287628130522e-14
    vertex 22.840889008453118 9.689417145876972 -1.4099832412739487e-15
  endloop
endfacet
facet normal 1.1557980489879424e-17 -3.596049299469257e-17 -1.0
  outer loop
    vertex 22.840889008453118 9.689417145876972 -1.4099832412739487e-15
    vertex 19.150000233669704 16.501241732418872 8.485287628130522e-14
    vertex 22.8 9.999999999999996 -1.4099832412739487e-15
  endloop
endfacet
facet normal 1.1557980489879424e-17 -3.596049299469257e-17 -1.0
  outer loop
    vertex 28.5 0.0 0.0
    vertex 22.960769515458672 9.399999999999997 -1.4099832412739487e-15
    vertex 23.151471862576145 9.15147186257614 -1.4099832412739487e-15
  endloop
endfacet
facet normal 1.1557980489879424e-17 -3.596049299469257e-17 -1.0
  outer loop
    vertex 28.5 0.0 0.0
    vertex 23.151471862576145 9.15147186257614 -1.4099832412739487e-15
    vertex 23.400000000000002 8.96076951545867 -1.4099832412739487e-15
  endloop
endfacet
facet normal 1.1557980489879424e-17 -3.596049299469257e-17 -1.0
  outer loop
    vertex 28.5 0.0 0.0
    vertex 23.400000000000002 8.96076951545867 -1.4099832412739487e-15
    vertex 23.689417145876977 8.840889008453114 -1.4099832412739487e-15
  endloop
endfacet
facet normal 1.1557980489879424e-17 -3.596049299469257e-17 -1.0
  outer loop
    vertex 28.5 0.0 0.0
    vertex 23.689417145876977 8.840889008453114 -1.4099832412739487e-15
    vertex 24.0 8.799999999999997 -1.4099832412739487e-15
  endloop
endfacet
facet normal 1.1557980489879424e-17 -3.596049299469257e-17 -1.0
  outer loop
    vertex 28.5 0.0 0.0
    vertex 24.0 8.799999999999997 -1.4099832412739487e-15
    vertex 24.310582854123027 8.840889008453114 -1.4099832412739487e-15
  endloop
endfacet
facet normal 1.1557980489879424e-17 -3.596049299469257e-17 -1.0
  outer loop
    vertex 28.5 0.0 0.0
    vertex 24.310582854123027 8.840889008453114 -1.4099832412739487e-15
    vertex 24.6 8.96076951545867 -1.4099832412739487e-15
  endloop
endfacet
facet normal 1.1557980489879424e-17 -3.596049299469257e-17 -1.0
  outer loop
    vertex 28.5 0.0 0.0
    vertex 24.6 8.96076951545867 -1.4099832412739487e-15
    vertex 24.84852813742386 9.151471862576141 -1.4099832412739487e-15
  endloop
endfacet
facet normal 1.1557980489879424e-17 -3.596049299469257e-17 -1.0
  outer loop
    vertex 28.5 0.0 0.0
    vertex 24.84852813742386 9.151471862576141 -1.4099832412739487e-15
    vertex 25.039230484541328 9.399999999999997 -1.4099832412739487e-15
  endloop
endfacet
facet normal 1.1557980489879424e-17 -3.596049299469257e-17 -1.0
  outer loop
    vertex 28.5 0.0 0.0
    vertex 25.039230484541328 9.399999999999997 -1.4099832412739487e-15
    vertex 25.159110991546882 9.689417145876973 -1.4099832412739487e-15
  endloop
endfacet
facet normal 1.1557980489879424e-17 -3.596049299469257e-17 -1.0
  outer loop
    vertex 28.5 0.0 0.0
    vertex 25.159110991546882 9.689417145876973 -1.4099832412739487e-15
    vertex 25.200000000000003 9.999999999999996 -1.4099832412739487e-15
  endloop
endfacet
facet normal 1.1557980489879424e-17 -3.596049299469257e-17 -1.0
  outer loop
    vertex 28.5 0.0 0.0
    vertex 25.200000000000003 9.999999999999996 -1.4099832412739487e-15
    vertex 28.5 17.999999999999996 0.0
  endloop
endfacet
facet normal 5.1836531009053385e-17 3.7671485245201337e-16 1.0
  outer loop
    vertex 20.150000000000002 17.999999999999996 3.999999999999991
    vertex 20.15 16.499999999999996 3.999999999999991
    vertex 20.150000000000002 2.6999999999999966 3.9999999999999996
  endloop
endfacet
facet normal 5.1836531009053385e-17 3.7671485245201337e-16 1.0
  outer loop
    vertex -1.4999999999999996 17.999999999999996 3.9999999999999996
    vertex 1.4607695154586746 10.599999999999996 3.9999999999999996
    vertex 6.35 17.999999999999996 3.999999999999991
  endloop
endfacet
facet normal 5.1836531009053385e-17 3.7671485245201337e-16 1.0
  outer loop
    vertex 1.4607695154586746 10.599999999999996 3.9999999999999996
    vertex -1.4999999999999996 17.999999999999996 3.9999999999999996
    vertex 1.340889008453119 10.310582854123021 3.9999999999999996
  endloop
endfacet
facet normal 5.1836531009053385e-17 3.7671485245201337e-16 1.0
  outer loop
    vertex 1.340889008453119 10.310582854123021 3.9999999999999996
    vertex -1.4999999999999996 17.999999999999996 3.9999999999999996
    vertex 1.3000000000000012 9.999999999999996 3.9999999999999996
  endloop
endfacet
facet normal 5.1836531009053385e-17 3.7671485245201337e-16 1.0
  outer loop
    vertex 6.35 17.999999999999996 3.999999999999991
    vertex 1.4607695154586746 10.599999999999996 3.9999999999999996
    vertex 1.6514718625761442 10.848528137423852 3.9999999999999996
  endloop
endfacet
facet normal 5.1836531009053385e-17 3.7671485245201337e-16 1.0
  outer loop
    vertex 6.35 17.999999999999996 3.999999999999991
    vertex 1.6514718625761442 10.848528137423852 3.9999999999999996
    vertex 1.9000000000000008 11.039230484541322 3.9999999999999996
  endloop
endfacet
facet normal 5.1836531009053385e-17 3.7671485245201337e-16 1.0
  outer loop
    vertex 6.35 17.999999999999996 3.999999999999991
    vertex 1.9000000000000008 11.039230484541322 3.9999999999999996
    vertex 2.189417145876976 11.159110991546878 3.9999999999999996
  endloop
endfacet
facet normal 5.1836531009053385e-17 3.7671485245201337e-16 1.0
  outer loop
    vertex 6.35 17.999999999999996 3.999999999999991
    vertex 2.189417145876976 11.159110991546878 3.9999999999999996
    vertex 2.500000000000001 11.199999999999996 3.9999999999999996
  endloop
endfacet
facet normal 5.1836531009053385e-17 3.7671485245201337e-16 1.0
  outer loop
    vertex 6.35 17.999999999999996 3.999999999999991
    vertex 2.500000000000001 11.199999999999996 3.9999999999999996
    vertex 2.8105828541230258 11.159110991546878 3.9999999999999996
  endloop
endfacet
facet normal 5.1836531009053385e-17 3.7671485245201337e-16 1.0
  outer loop
    vertex 6.35 17.999999999999996 3.999999999999991
    vertex 2.8105828541230258 11.159110991546878 3.9999999999999996
    vertex 3.1000000000000005 11.039230484541322 3.9999999999999996
  endloop
endfacet
facet normal 5.1836531009053385e-17 3.7671485245201337e-16 1.0
  outer loop
    vertex 6.35 17.999999999999996 3.999999999999991
    vertex 3.1000000000000005 11.039230484541322 3.9999999999999996
    vertex 3.3485281374238576 10.848528137423852 3.9999999999999996
  endloop
endfacet
facet normal 5.1836531009053385e-17 3.7671485245201337e-16 1.0
  outer loop
    vertex 6.35 17.999999999999996 3.999999999999991
    vertex 3.3485281374238576 10.848528137423852 3.9999999999999996
    vertex 3.5392304845413274 10.599999999999996 3.9999999999999996
  endloop
endfacet
facet normal 5.1836531009053385e-17 3.7671485245201337e-16 1.0
  outer loop
    vertex 6.35 17.999999999999996 3.999999999999991
    vertex 3.5392304845413274 10.599999999999996 3.9999999999999996
    vertex 3.659110991546883 10.310582854123021 3.9999999999999996
  endloop
endfacet
facet normal 5.1836531009053385e-17 3.7671485245201337e-16 1.0
  outer loop
    vertex 6.35 17.999999999999996 3.999999999999991
    vertex 3.659110991546883 10.310582854123021 3.9999999999999996
    vertex 3.700000000000001 9.999999999999996 3.9999999999999996
  endloop
endfacet
facet normal 5.1836531009053385e-17 3.7671485245201337e-16 1.0
  outer loop
    vertex 6.35 17.999999999999996 3.999999999999991
    vertex 3.700000000000001 9.999999999999996 3.9999999999999996
    vertex 6.35 2.6999999999999966 3.9999999999999996
  endloop
endfacet
facet normal 5.1836531009053385e-17 3.7671485245201337e-16 1.0
  outer loop
    vertex 6.35 17.999999999999996 3.999999999999991
    vertex 6.35 2.6999999999999966 3.9999999999999996
    vertex 6.35 16.499999999999996 3.999999999999991
  endloop
endfacet
facet normal 5.1836531009053385e-17 3.7671485245201337e-16 1.0
  outer loop
    vertex -1.4999999999999996 -6.499585308427316e-16 3.9999999999999996
    vertex 1.3408890084531195 9.68941714587697 3.9999999999999996
    vertex -1.4999999999999996 17.999999999999996 3.9999999999999996
  endloop
endfacet
facet normal 5.1836531009053385e-17 3.7671485245201337e-16 1.0
  outer loop
    vertex 1.3408890084531195 9.68941714587697 3.9999999999999996
    vertex -1.4999999999999996 -6.499585308427316e-16 3.9999999999999996
    vertex 1.460769515458675 9.399999999999995 3.9999999999999996
  endloop
endfacet
facet normal 5.1836531009053385e-17 3.7671485245201337e-16 1.0
  outer loop
    vertex 1.460769515458675 9.399999999999995 3.9999999999999996
    vertex -1.4999999999999996 -6.499585308427316e-16 3.9999999999999996
    vertex 6.35 2.6999999999999966 3.9999999999999996
  endloop
endfacet
facet normal 5.1836531009053385e-17 3.7671485245201337e-16 1.0
  outer loop
    vertex 6.35 2.6999999999999966 3.9999999999999996
    vertex -1.4999999999999996 -6.499585308427316e-16 3.9999999999999996
    vertex 28.5 -6.499585308427316e-16 3.9999999999999996
  endloop
endfacet
facet normal 5.1836531009053385e-17 3.7671485245201337e-16 1.0
  outer loop
    vertex -1.4999999999999996 17.999999999999996 3.9999999999999996
    vertex 1.3408890084531195 9.68941714587697 3.9999999999999996
    vertex 1.3000000000000012 9.999999999999996 3.9999999999999996
  endloop
endfacet
facet normal 5.1836531009053385e-17 3.7671485245201337e-16 1.0
  outer loop
    vertex 1.460769515458675 9.399999999999995 3.9999999999999996
    vertex 6.35 2.6999999999999966 3.9999999999999996
    vertex 1.6514718625761444 9.15147186257614 3.9999999999999996
  endloop
endfacet
facet normal 5.1836531009053385e-17 3.7671485245201337e-16 1.0
  outer loop
    vertex 1.6514718625761444 9.15147186257614 3.9999999999999996
    vertex 6.35 2.6999999999999966 3.9999999999999996
    vertex 1.900000000000002 8.96076951545867 3.9999999999999996
  endloop
endfacet
facet normal 5.1836531009053385e-17 3.7671485245201337e-16 1.0
  outer loop
    vertex 1.900000000000002 8.96076951545867 3.9999999999999996
    vertex 6.35 2.6999999999999966 3.9999999999999996
    vertex 2.189417145876977 8.840889008453114 3.9999999999999996
  endloop
endfacet
facet normal 5.1836531009053385e-17 3.7671485245201337e-16 1.0
  outer loop
    vertex 2.189417145876977 8.840889008453114 3.9999999999999996
    vertex 6.35 2.6999999999999966 3.9999999999999996
    vertex 2.5000000000000013 8.799999999999997 3.9999999999999996
  endloop
endfacet
facet normal 5.1836531009053385e-17 3.7671485245201337e-16 1.0
  outer loop
    vertex 2.5000000000000013 8.799999999999997 3.9999999999999996
    vertex 6.35 2.6999999999999966 3.9999999999999996
    vertex 2.8105828541230267 8.840889008453114 3.9999999999999996
  endloop
endfacet
facet normal 5.1836531009053385e-17 3.7671485245201337e-16 1.0
  outer loop
    vertex 2.8105828541230267 8.840889008453114 3.9999999999999996
    vertex 6.35 2.6999999999999966 3.9999999999999996
    vertex 3.1000000000000014 8.96076951545867 3.9999999999999996
  endloop
endfacet
facet normal 5.1836531009053385e-17 3.7671485245201337e-16 1.0
  outer loop
    vertex 3.1000000000000014 8.96076951545867 3.9999999999999996
    vertex 6.35 2.6999999999999966 3.9999999999999996
    vertex 3.3485281374238585 9.15147186257614 3.9999999999999996
  endloop
endfacet
facet normal 5.1836531009053385e-17 3.7671485245201337e-16 1.0
  outer loop
    vertex 3.3485281374238585 9.15147186257614 3.9999999999999996
    vertex 6.35 2.6999999999999966 3.9999999999999996
    vertex 3.5392304845413274 9.399999999999995 3.9999999999999996
  endloop
endfacet
facet normal 5.1836531009053385e-17 3.7671485245201337e-16 1.0
  outer loop
    vertex 3.5392304845413274 9.399999999999995 3.9999999999999996
    vertex 6.35 2.6999999999999966 3.9999999999999996
    vertex 3.659110991546883 9.689417145876972 3.9999999999999996
  endloop
endfacet
facet normal 5.1836531009053385e-17 3.7671485245201337e-16 1.0
  outer loop
    vertex 3.659110991546883 9.689417145876972 3.9999999999999996
    vertex 6.35 2.6999999999999966 3.9999999999999996
    vertex 3.700000000000001 9.999999999999996 3.9999999999999996
  endloop
endfacet
facet normal 5.1836531009053385e-17 3.7671485245201337e-16 1.0
  outer loop
    vertex 6.35 2.6999999999999966 3.9999999999999996
    vertex 28.5 -6.499585308427316e-16 3.9999999999999996
    vertex 20.150000000000002 2.6999999999999966 3.9999999999999996
  endloop
endfacet
facet normal 5.1836531009053385e-17 3.7671485245201337e-16 1.0
  outer loop
    vertex 20.150000000000002 2.6999999999999966 3.9999999999999996
    vertex 28.5 -6.499585308427316e-16 3.9999999999999996
    vertex 22.960769515458672 9.399999999999995 3.999999999999998
  endloop
endfacet
facet normal 5.1836531009053385e-17 3.7671485245201337e-16 1.0
  outer loop
    vertex 20.150000000000002 2.6999999999999966 3.9999999999999996
    vertex 22.960769515458672 9.399999999999995 3.999999999999998
    vertex 22.840889008453118 9.68941714587697 3.999999999999998
  endloop
endfacet
facet normal 5.1836531009053385e-17 3.7671485245201337e-16 1.0
  outer loop
    vertex 20.150000000000002 2.6999999999999966 3.9999999999999996
    vertex 22.840889008453118 9.68941714587697 3.999999999999998
    vertex 20.150000000000002 17.999999999999996 3.999999999999991
  endloop
endfacet
facet normal 5.1836531009053385e-17 3.7671485245201337e-16 1.0
  outer loop
    vertex 20.150000000000002 17.999999999999996 3.999999999999991
    vertex 22.840889008453118 9.68941714587697 3.999999999999998
    vertex 22.8 9.999999999999996 3.999999999999998
  endloop
endfacet
facet normal 5.1836531009053385e-17 3.7671485245201337e-16 1.0
  outer loop
    vertex 22.960769515458672 9.399999999999995 3.999999999999998
    vertex 28.5 -6.499585308427316e-16 3.9999999999999996
    vertex 23.151471862576145 9.151471862576138 3.999999999999998
  endloop
endfacet
facet normal 5.1836531009053385e-17 3.7671485245201337e-16 1.0
  outer loop
    vertex 23.151471862576145 9.151471862576138 3.999999999999998
    vertex 28.5 -6.499585308427316e-16 3.9999999999999996
    vertex 23.400000000000002 8.960769515458669 3.999999999999998
  endloop
endfacet
facet normal 5.1836531009053385e-17 3.7671485245201337e-16 1.0
  outer loop
    vertex 23.400000000000002 8.960769515458669 3.999999999999998
    vertex 28.5 -6.499585308427316e-16 3.9999999999999996
    vertex 23.689417145876977 8.840889008453113 3.999999999999998
  endloop
endfacet
facet normal 5.1836531009053385e-17 3.7671485245201337e-16 1.0
  outer loop
    vertex 23.689417145876977 8.840889008453113 3.999999999999998
    vertex 28.5 -6.499585308427316e-16 3.9999999999999996
    vertex 24.0 8.799999999999995 3.999999999999998
  endloop
endfacet
facet normal 5.1836531009053385e-17 3.7671485245201337e-16 1.0
  outer loop
    vertex 24.0 8.799999999999995 3.999999999999998
    vertex 28.5 -6.499585308427316e-16 3.9999999999999996
    vertex 24.310582854123027 8.840889008453114 3.999999999999998
  endloop
endfacet
facet normal 5.1836531009053385e-17 3.7671485245201337e-16 1.0
  outer loop
    vertex 24.310582854123027 8.840889008453114 3.999999999999998
    vertex 28.5 -6.499585308427316e-16 3.9999999999999996
    vertex 24.6 8.96076951545867 3.999999999999998
  endloop
endfacet
facet normal 5.1836531009053385e-17 3.7671485245201337e-16 1.0
  outer loop
    vertex 24.6 8.96076951545867 3.999999999999998
    vertex 28.5 -6.499585308427316e-16 3.9999999999999996
    vertex 24.84852813742386 9.15147186257614 3.999999999999998
  endloop
endfacet
facet normal 5.1836531009053385e-17 3.7671485245201337e-16 1.0
  outer loop
    vertex 24.84852813742386 9.15147186257614 3.999999999999998
    vertex 28.5 -6.499585308427316e-16 3.9999999999999996
    vertex 25.039230484541328 9.399999999999995 3.999999999999998
  endloop
endfacet
facet normal 5.1836531009053385e-17 3.7671485245201337e-16 1.0
  outer loop
    vertex 25.039230484541328 9.399999999999995 3.999999999999998
    vertex 28.5 -6.499585308427316e-16 3.9999999999999996
    vertex 25.159110991546882 9.689417145876972 3.999999999999998
  endloop
endfacet
facet normal 5.1836531009053385e-17 3.7671485245201337e-16 1.0
  outer loop
    vertex 25.159110991546882 9.689417145876972 3.999999999999998
    vertex 28.5 -6.499585308427316e-16 3.9999999999999996
    vertex 25.200000000000003 9.999999999999996 3.999999999999998
  endloop
endfacet
facet normal 5.1836531009053385e-17 3.7671485245201337e-16 1.0
  outer loop
    vertex 20.150000000000002 17.999999999999996 3.999999999999991
    vertex 22.960769515458672 10.599999999999996 3.999999999999998
    vertex 28.5 17.999999999999996 3.9999999999999956
  endloop
endfacet
facet normal 5.1836531009053385e-17 3.7671485245201337e-16 1.0
  outer loop
    vertex 22.960769515458672 10.599999999999996 3.999999999999998
    vertex 20.150000000000002 17.999999999999996 3.999999999999991
    vertex 22.840889008453118 10.310582854123021 3.999999999999998
  endloop
endfacet
facet normal 5.1836531009053385e-17 3.7671485245201337e-16 1.0
  outer loop
    vertex 22.840889008453118 10.310582854123021 3.999999999999998
    vertex 20.150000000000002 17.999999999999996 3.999999999999991
    vertex 22.8 9.999999999999996 3.999999999999998
  endloop
endfacet
facet normal 5.1836531009053385e-17 3.7671485245201337e-16 1.0
  outer loop
    vertex 28.5 17.999999999999996 3.9999999999999956
    vertex 22.960769515458672 10.599999999999996 3.999999999999998
    vertex 23.151471862576145 10.848528137423854 3.999999999999998
  endloop
endfacet
facet normal 5.1836531009053385e-17 3.7671485245201337e-16 1.0
  outer loop
    vertex 28.5 17.999999999999996 3.9999999999999956
    vertex 23.151471862576145 10.848528137423854 3.999999999999998
    vertex 23.4 11.039230484541322 3.999999999999998
  endloop
endfacet
facet normal 5.1836531009053385e-17 3.7671485245201337e-16 1.0
  outer loop
    vertex 28.5 17.999999999999996 3.9999999999999956
    vertex 23.4 11.039230484541322 3.999999999999998
    vertex 23.689417145876977 11.159110991546878 3.999999999999998
  endloop
endfacet
facet normal 5.1836531009053385e-17 3.7671485245201337e-16 1.0
  outer loop
    vertex 28.5 17.999999999999996 3.9999999999999956
    vertex 23.689417145876977 11.159110991546878 3.999999999999998
    vertex 24.0 11.199999999999996 3.999999999999998
  endloop
endfacet
facet normal 5.1836531009053385e-17 3.7671485245201337e-16 1.0
  outer loop
    vertex 28.5 17.999999999999996 3.9999999999999956
    vertex 24.0 11.199999999999996 3.999999999999998
    vertex 24.310582854123027 11.159110991546878 3.999999999999998
  endloop
endfacet
facet normal 5.1836531009053385e-17 3.7671485245201337e-16 1.0
  outer loop
    vertex 28.5 17.999999999999996 3.9999999999999956
    vertex 24.310582854123027 11.159110991546878 3.999999999999998
    vertex 24.6 11.039230484541322 3.999999999999998
  endloop
endfacet
facet normal 5.1836531009053385e-17 3.7671485245201337e-16 1.0
  outer loop
    vertex 28.5 17.999999999999996 3.9999999999999956
    vertex 24.6 11.039230484541322 3.999999999999998
    vertex 24.84852813742386 10.848528137423854 3.999999999999998
  endloop
endfacet
facet normal 5.1836531009053385e-17 3.7671485245201337e-16 1.0
  outer loop
    vertex 28.5 17.999999999999996 3.9999999999999956
    vertex 24.84852813742386 10.848528137423854 3.999999999999998
    vertex 25.039230484541328 10.599999999999996 3.999999999999998
  endloop
endfacet
facet normal 5.1836531009053385e-17 3.7671485245201337e-16 1.0
  outer loop
    vertex 28.5 17.999999999999996 3.9999999999999956
    vertex 25.039230484541328 10.599999999999996 3.999999999999998
    vertex 25.159110991546882 10.310582854123021 3.999999999999998
  endloop
endfacet
facet normal 5.1836531009053385e-17 3.7671485245201337e-16 1.0
  outer loop
    vertex 28.5 17.999999999999996 3.9999999999999956
    vertex 25.159110991546882 10.310582854123021 3.999999999999998
    vertex 25.200000000000003 9.999999999999996 3.999999999999998
  endloop
endfacet
facet normal 5.1836531009053385e-17 3.7671485245201337e-16 1.0
  outer loop
    vertex 28.5 17.999999999999996 3.9999999999999956
    vertex 25.200000000000003 9.999999999999996 3.999999999999998
    vertex 28.5 -6.499585308427316e-16 3.9999999999999996
  endloop
endfacet
facet normal -0.0 -0.0 1.0
  outer loop
    vertex 20.150000000000002 2.699999999999997 2.2000000000000024
    vertex 7.3500000000000005 3.199999999999997 2.2000000000000024
    vertex 7.3500000000000005 2.699999999999997 2.2000000000000024
  endloop
endfacet
facet normal -0.0 -0.0 1.0
  outer loop
    vertex 7.3500000000000005 3.199999999999997 2.2000000000000024
    vertex 20.150000000000002 2.699999999999997 2.2000000000000024
    vertex 19.15 3.199999999999997 2.2000000000000024
  endloop
endfacet
facet normal -0.0 -0.0 1.0
  outer loop
    vertex 19.15 3.199999999999997 2.2000000000000024
    vertex 20.150000000000002 2.699999999999997 2.2000000000000024
    vertex 20.150000000000002 3.199999999999997 2.2000000000000024
  endloop
endfacet
facet normal -1.0 -2.0889449977336397e-16 5.1742097138438046e-18
  outer loop
    vertex 20.15 16.499999999999996 3.999999999999991
    vertex 20.150000000000002 2.699999999999997 2.2000000000000024
    vertex 20.150000000000002 2.6999999999999966 3.9999999999999996
  endloop
endfacet
facet normal -1.0 -2.0889449977336397e-16 5.1742097138438046e-18
  outer loop
    vertex 20.150000000000002 2.699999999999997 2.2000000000000024
    vertex 20.15 16.499999999999996 3.999999999999991
    vertex 20.150000000000002 3.199999999999997 2.2000000000000024
  endloop
endfacet
facet normal -1.0 -2.0889449977336397e-16 5.1742097138438046e-18
  outer loop
    vertex 20.150000000000002 3.199999999999997 2.2000000000000024
    vertex 20.15 16.499999999999996 3.999999999999991
    vertex 20.15 15.999999999999998 1.2
  endloop
endfacet
facet normal -1.0 -2.0889449977336397e-16 5.1742097138438046e-18
  outer loop
    vertex 20.15 15.999999999999998 1.2
    vertex 20.15 16.499999999999996 3.999999999999991
    vertex 20.15 16.499999999999996 1.2
  endloop
endfacet
facet normal 3.414539330762387e-30 0.07788766729290984 0.9969621413492437
  outer loop
    vertex 20.150000000000002 3.199999999999997 2.2000000000000024
    vertex 19.15 15.999999999999998 1.2
    vertex 19.15 3.199999999999997 2.2000000000000024
  endloop
endfacet
facet normal 3.414539330762387e-30 0.07788766729290984 0.9969621413492437
  outer loop
    vertex 19.15 15.999999999999998 1.2
    vertex 20.150000000000002 3.199999999999997 2.2000000000000024
    vertex 20.15 15.999999999999998 1.2
  endloop
endfacet
facet normal 1.0 -0.0 -0.0
  outer loop
    vertex 6.35 2.699999999999997 2.2000000000000024
    vertex 6.35 16.499999999999996 3.999999999999991
    vertex 6.35 2.6999999999999966 3.9999999999999996
  endloop
endfacet
facet normal 1.0 -0.0 -0.0
  outer loop
    vertex 6.35 16.499999999999996 3.999999999999991
    vertex 6.35 2.699999999999997 2.2000000000000024
    vertex 6.35 3.199999999999997 2.2000000000000024
  endloop
endfacet
facet normal 1.0 -0.0 -0.0
  outer loop
    vertex 6.35 16.499999999999996 3.999999999999991
    vertex 6.35 3.199999999999997 2.2000000000000024
    vertex 6.35 15.999999999999998 1.2
  endloop
endfacet
facet normal 1.0 -0.0 -0.0
  outer loop
    vertex 6.35 16.499999999999996 3.999999999999991
    vertex 6.35 15.999999999999998 1.2
    vertex 6.35 16.499999999999996 1.2
  endloop
endfacet
facet normal -0.0 -0.0 1.0
  outer loop
    vertex 7.3500000000000005 2.699999999999997 2.2000000000000024
    vertex 6.35 3.199999999999997 2.2000000000000024
    vertex 6.35 2.699999999999997 2.2000000000000024
  endloop
endfacet
facet normal -0.0 -0.0 1.0
  outer loop
    vertex 6.35 3.199999999999997 2.2000000000000024
    vertex 7.3500000000000005 2.699999999999997 2.2000000000000024
    vertex 7.3500000000000005 3.199999999999997 2.2000000000000024
  endloop
endfacet
facet normal -0.0 0.07788766729290984 0.9969621413492437
  outer loop
    vertex 7.3500000000000005 3.199999999999997 2.2000000000000024
    vertex 6.35 15.999999999999998 1.2
    vertex 6.35 3.199999999999997 2.2000000000000024
  endloop
endfacet
facet normal -0.0 0.07788766729290984 0.9969621413492437
  outer loop
    vertex 6.35 15.999999999999998 1.2
    vertex 7.3500000000000005 3.199999999999997 2.2000000000000024
    vertex 7.3500000000000005 15.999999999999998 1.2
  endloop
endfacet
facet normal 1.0 -4.455311296820058e-17 2.69423549288014e-16
  outer loop
    vertex 7.350000000000002 15.999999999999998 -7.447324610280934e-15
    vertex 7.3500000000000005 3.199999999999997 2.2000000000000024
    vertex 7.3500000000000005 3.199999999999997 -1.127986593019159e-14
  endloop
endfacet
facet normal 1.0 -4.455311296820058e-17 2.69423549288014e-16
  outer loop
    vertex 7.3500000000000005 3.199999999999997 2.2000000000000024
    vertex 7.350000000000002 15.999999999999998 -7.447324610280934e-15
    vertex 7.3500000000000005 15.999999999999998 1.2
  endloop
endfacet
facet normal -0.0 -0.0 1.0
  outer loop
    vertex 20.15 15.999999999999998 1.2
    vertex 19.15 16.499999999999996 1.2
    vertex 19.15 15.999999999999998 1.2
  endloop
endfacet
facet normal -0.0 -0.0 1.0
  outer loop
    vertex 19.15 16.499999999999996 1.2
    vertex 20.15 15.999999999999998 1.2
    vertex 19.650000000000002 16.499999999999996 1.2
  endloop
endfacet
facet normal -0.0 -0.0 1.0
  outer loop
    vertex 19.650000000000002 16.499999999999996 1.2
    vertex 20.15 15.999999999999998 1.2
    vertex 20.15 16.499999999999996 1.2
  endloop
endfacet
facet normal -1.0 0.0 0.0
  outer loop
    vertex 19.15 15.999999999999998 1.2
    vertex 19.15 3.199999999999997 -1.127986593019159e-14
    vertex 19.15 3.199999999999997 2.2000000000000024
  endloop
endfacet
facet normal -1.0 0.0 0.0
  outer loop
    vertex 19.15 3.199999999999997 -1.127986593019159e-14
    vertex 19.15 15.999999999999998 1.2
    vertex 19.15 15.999999999999998 -6.373505327109944e-15
  endloop
endfacet
facet normal -1.0 0.0 0.0
  outer loop
    vertex 19.15 15.999999999999998 -6.373505327109944e-15
    vertex 19.15 15.999999999999998 1.2
    vertex 19.15 15.999999999999998 0.5999999999999968
  endloop
endfacet
facet normal -0.9999999998257822 7.1744369287550405e-06 1.7232613163142646e-05
  outer loop
    vertex 19.150027716975224 17.99953822261632 0.5998853578409565
    vertex 19.150000233669704 16.501241732418872 8.485287628130522e-14
    vertex 19.150003528145582 16.5006208958631 0.5999712972420609
  endloop
endfacet
facet normal -0.9999999998257822 7.1744369287550405e-06 1.7232613163142646e-05
  outer loop
    vertex 19.150000233669704 16.501241732418872 8.485287628130522e-14
    vertex 19.150027716975224 17.99953822261632 0.5998853578409565
    vertex 19.150000000000002 17.999999999999996 -5.639932965095795e-15
  endloop
endfacet
facet normal -0.9999999999894598 3.528058475462367e-06 -2.9382958070736724e-06
  outer loop
    vertex 19.15 16.499999999999996 1.2
    vertex 19.15 15.999999999999998 0.5999999999999968
    vertex 19.15 15.999999999999998 1.2
  endloop
endfacet
facet normal -0.9999999999894598 3.528058475462367e-06 -2.9382958070736724e-06
  outer loop
    vertex 19.15 15.999999999999998 0.5999999999999968
    vertex 19.15 16.499999999999996 1.2
    vertex 19.150003528145582 16.5006208958631 0.5999712972420609
  endloop
endfacet
facet normal -0.9999999999891842 3.7528608869914947e-06 2.7473381153755293e-06
  outer loop
    vertex 19.150003528145582 16.5006208958631 0.5999712972420609
    vertex 19.15 15.999999999999998 -6.373505327109944e-15
    vertex 19.15 15.999999999999998 0.5999999999999968
  endloop
endfacet
facet normal -0.9999999999891842 3.7528608869914947e-06 2.7473381153755293e-06
  outer loop
    vertex 19.15 15.999999999999998 -6.373505327109944e-15
    vertex 19.150003528145582 16.5006208958631 0.5999712972420609
    vertex 19.150000233669704 16.501241732418872 8.485287628130522e-14
  endloop
endfacet
facet normal -0.9999999996286566 8.064775941005015e-06 -2.6031641538585603e-05
  outer loop
    vertex 19.15 17.99952028057495 1.2
    vertex 19.150003528145582 16.5006208958631 0.5999712972420609
    vertex 19.15 16.499999999999996 1.2
  endloop
endfacet
facet normal -0.9999999996286566 8.064775941005015e-06 -2.6031641538585603e-05
  outer loop
    vertex 19.150003528145582 16.5006208958631 0.5999712972420609
    vertex 19.15 17.99952028057495 1.2
    vertex 19.150027716975224 17.99953822261632 0.5998853578409565
  endloop
endfacet
facet normal -0.0 -0.0 1.0
  outer loop
    vertex 7.3500000000000005 15.999999999999998 1.2
    vertex 6.35 16.499999999999996 1.2
    vertex 6.35 15.999999999999998 1.2
  endloop
endfacet
facet normal -0.0 -0.0 1.0
  outer loop
    vertex 6.35 16.499999999999996 1.2
    vertex 7.3500000000000005 15.999999999999998 1.2
    vertex 7.3500000000000005 16.499999999999996 1.2
  endloop
endfacet
facet normal 1.0 -1.229803775454538e-16 1.1907813612833841e-15
  outer loop
    vertex 7.350000000000002 17.999999999999996 -6.848490029044895e-15
    vertex 7.3500000000000005 15.999999999999998 1.2
    vertex 7.350000000000002 15.999999999999998 -7.447324610280934e-15
  endloop
endfacet
facet normal 1.0 -1.229803775454538e-16 1.1907813612833841e-15
  outer loop
    vertex 7.3500000000000005 15.999999999999998 1.2
    vertex 7.350000000000002 17.999999999999996 -6.848490029044895e-15
    vertex 7.3500000000000005 16.499999999999996 1.2
  endloop
endfacet
facet normal 1.0 -1.229803775454538e-16 1.1907813612833841e-15
  outer loop
    vertex 7.3500000000000005 16.499999999999996 1.2
    vertex 7.350000000000002 17.999999999999996 -6.848490029044895e-15
    vertex 7.3500000000000005 17.999700327104684 1.2
  endloop
endfacet
facet normal -4.23833320298327e-08 -2.6882402071247125e-07 -0.9999999999999631
  outer loop
    vertex 19.15 17.99952028057495 1.2
    vertex 7.3500000000000005 16.499999999999996 1.2
    vertex 7.3500000000000005 17.999700327104684 1.2
  endloop
endfacet
facet normal -4.23833320298327e-08 -2.6882402071247125e-07 -0.9999999999999631
  outer loop
    vertex 7.3500000000000005 16.499999999999996 1.2
    vertex 19.15 17.99952028057495 1.2
    vertex 19.15 16.499999999999996 1.2
  endloop
endfacet
facet normal 8.577226264218084e-07 0.9999999997304427 -2.3202997342202452e-05
  outer loop
    vertex 6.35 17.999999999999996 -6.074649347796882e-15
    vertex 7.3500000000000005 17.999700327104684 1.2
    vertex 7.350000000000002 17.999999999999996 -6.848490029044895e-15
  endloop
endfacet
facet normal 8.577226264218084e-07 0.9999999997304427 -2.3202997342202452e-05
  outer loop
    vertex 7.3500000000000005 17.999700327104684 1.2
    vertex 6.35 17.999999999999996 -6.074649347796882e-15
    vertex 6.35 17.999999999999996 3.999999999999991
  endloop
endfacet
facet normal 8.577226264218084e-07 0.9999999997304427 -2.3202997342202452e-05
  outer loop
    vertex 7.3500000000000005 17.999700327104684 1.2
    vertex 6.35 17.999999999999996 3.999999999999991
    vertex 19.15 17.99952028057495 1.2
  endloop
endfacet
facet normal 8.577226264218084e-07 0.9999999997304427 -2.3202997342202452e-05
  outer loop
    vertex 19.150027716975224 17.99953822261632 0.5998853578409565
    vertex 28.5 17.999999999999996 0.0
    vertex 19.150000000000002 17.999999999999996 -5.639932965095795e-15
  endloop
endfacet
facet normal 8.577226264218084e-07 0.9999999997304427 -2.3202997342202452e-05
  outer loop
    vertex 28.5 17.999999999999996 0.0
    vertex 19.150027716975224 17.99953822261632 0.5998853578409565
    vertex 28.5 17.999999999999996 3.9999999999999956
  endloop
endfacet
facet normal 8.577226264218084e-07 0.9999999997304427 -2.3202997342202452e-05
  outer loop
    vertex 28.5 17.999999999999996 3.9999999999999956
    vertex 19.150027716975224 17.99953822261632 0.5998853578409565
    vertex 19.15 17.99952028057495 1.2
  endloop
endfacet
facet normal 8.577226264218084e-07 0.9999999997304427 -2.3202997342202452e-05
  outer loop
    vertex 28.5 17.999999999999996 3.9999999999999956
    vertex 19.15 17.99952028057495 1.2
    vertex 20.150000000000002 17.999999999999996 3.999999999999991
  endloop
endfacet
facet normal 8.577226264218084e-07 0.9999999997304427 -2.3202997342202452e-05
  outer loop
    vertex 20.150000000000002 17.999999999999996 3.999999999999991
    vertex 19.15 17.99952028057495 1.2
    vertex 6.35 17.999999999999996 3.999999999999991
  endloop
endfacet
facet normal 1.7961569952534418e-16 1.0 3.524958103184872e-16
  outer loop
    vertex -1.4999999999999996 17.999999999999996 0.0
    vertex 6.35 17.999999999999996 3.999999999999991
    vertex 6.35 17.999999999999996 -6.074649347796882e-15
  endloop
endfacet
facet normal 1.7961569952534418e-16 1.0 3.524958103184872e-16
  outer loop
    vertex 6.35 17.999999999999996 3.999999999999991
    vertex -1.4999999999999996 17.999999999999996 0.0
    vertex -1.4999999999999996 17.999999999999996 3.9999999999999996
  endloop
endfacet
endsolid OuterGratingMountB-1
