solid OuterGratingMountA_2_0
facet normal 1.0 -0.0 -0.0
  outer loop
    vertex 28.5 0.0 0.0
    vertex 28.5 17.999999999999996 3.9999999999999956
    vertex 28.5 -6.499585308427316e-16 3.9999999999999996
  endloop
endfacet
facet normal 1.0 -0.0 -0.0
  outer loop
    vertex 28.5 17.999999999999996 3.9999999999999956
    vertex 28.5 0.0 0.0
    vertex 28.5 17.999999999999996 0.0
  endloop
endfacet
facet normal -0.0 -1.0 -0.0
  outer loop
    vertex 28.5 -6.499585308427316e-16 3.9999999999999996
    vertex -1.4999999999999996 0.0 0.0
    vertex 28.5 0.0 0.0
  endloop
endfacet
facet normal -0.0 -1.0 -0.0
  outer loop
    vertex -1.4999999999999996 0.0 0.0
    vertex 28.5 -6.499585308427316e-16 3.9999999999999996
    vertex -1.4999999999999996 -6.499585308427316e-16 3.9999999999999996
  endloop
endfacet
facet normal -1.0 0.0 0.0
  outer loop
    vertex -1.4999999999999996 17.999999999999996 3.9999999999999996
    vertex -1.4999999999999996 0.0 0.0
    vertex -1.4999999999999996 -6.499585308427316e-16 3.9999999999999996
  endloop
endfacet
facet normal -1.0 0.0 0.0
  outer loop
    vertex -1.4999999999999996 0.0 0.0
    vertex -1.4999999999999996 17.999999999999996 3.9999999999999996
    vertex -1.4999999999999996 17.999999999999996 0.0
  endloop
endfacet
facet normal -0.0 1.0 -0.0
  outer loop
    vertex 6.35 2.6999999999999966 3.9999999999999996
    vertex 20.150000000000002 2.699999999999997 1.2
    vertex 6.35 2.699999999999997 1.2
  endloop
endfacet
facet normal -0.0 1.0 -0.0
  outer loop
    vertex 20.150000000000002 2.699999999999997 1.2
    vertex 6.35 2.6999999999999966 3.9999999999999996
    vertex 20.150000000000002 2.6999999999999966 3.9999999999999996
  endloop
endfacet
facet normal -0.0 1.0 -0.0
  outer loop
    vertex 7.3500000000000005 3.199999999999997 1.2
    vertex 19.15 3.199999999999997 -1.127986593019159e-14
    vertex 7.3500000000000005 3.199999999999997 -1.127986593019159e-14
  endloop
endfacet
facet normal -0.0 1.0 -0.0
  outer loop
    vertex 19.15 3.199999999999997 -1.127986593019159e-14
    vertex 7.3500000000000005 3.199999999999997 1.2
    vertex 19.15 3.199999999999997 1.2
  endloop
endfacet
facet normal 0.9914448613738103 -0.13052619222005335 -0.0
  outer loop
    vertex 22.8 9.999999999999996 -1.4099832412739487e-15
    vertex 22.840889008453118 10.310582854123021 3.999999999999998
    vertex 22.8 9.999999999999996 3.999999999999998
  endloop
endfacet
facet normal 0.9914448613738103 -0.13052619222005335 -0.0
  outer loop
    vertex 22.840889008453118 10.310582854123021 3.999999999999998
    vertex 22.8 9.999999999999996 -1.4099832412739487e-15
    vertex 22.840889008453118 10.310582854123023 -1.4099832412739487e-15
  endloop
endfacet
facet normal 0.9914448613738103 0.13052619222005335 -0.0
  outer loop
    vertex 22.840889008453118 9.689417145876972 -1.4099832412739487e-15
    vertex 22.8 9.999999999999996 3.999999999999998
    vertex 22.840889008453118 9.68941714587697 3.999999999999998
  endloop
endfacet
facet normal 0.9914448613738103 0.13052619222005335 -0.0
  outer loop
    vertex 22.8 9.999999999999996 3.999999999999998
    vertex 22.840889008453118 9.689417145876972 -1.4099832412739487e-15
    vertex 22.8 9.999999999999996 -1.4099832412739487e-15
  endloop
endfacet
facet normal 0.9238795325112882 0.3826834323650868 6.604121931629429e-32
  outer loop
    vertex 22.960769515458672 9.399999999999997 -1.4099832412739487e-15
    vertex 22.840889008453118 9.68941714587697 3.999999999999998
    vertex 22.960769515458672 9.399999999999995 3.999999999999998
  endloop
endfacet
facet normal 0.9238795325112882 0.3826834323650868 6.604121931629429e-32
  outer loop
    vertex 22.840889008453118 9.68941714587697 3.999999999999998
    vertex 22.960769515458672 9.399999999999997 -1.4099832412739487e-15
    vertex 22.840889008453118 9.689417145876972 -1.4099832412739487e-15
  endloop
endfacet
facet normal 0.7933533402912358 0.6087614290087201 1.0505640862474257e-31
  outer loop
    vertex 23.151471862576145 9.15147186257614 -1.4099832412739487e-15
    vertex 22.960769515458672 9.399999999999995 3.999999999999998
    vertex 23.151471862576145 9.151471862576138 3.999999999999998
  endloop
endfacet
facet normal 0.7933533402912358 0.6087614290087201 1.0505640862474257e-31
  outer loop
    vertex 22.960769515458672 9.399999999999995 3.999999999999998
    vertex 23.151471862576145 9.15147186257614 -1.4099832412739487e-15
    vertex 22.960769515458672 9.399999999999997 -1.4099832412739487e-15
  endloop
endfacet
facet normal 0.6087614290087179 0.7933533402912374 1.369121772993387e-31
  outer loop
    vertex 23.151471862576145 9.151471862576138 3.999999999999998
    vertex 23.400000000000002 8.96076951545867 -1.4099832412739487e-15
    vertex 23.151471862576145 9.15147186257614 -1.4099832412739487e-15
  endloop
endfacet
facet normal 0.6087614290087179 0.7933533402912374 1.369121772993387e-31
  outer loop
    vertex 23.400000000000002 8.96076951545867 -1.4099832412739487e-15
    vertex 23.151471862576145 9.151471862576138 3.999999999999998
    vertex 23.400000000000002 8.960769515458669 3.999999999999998
  endloop
endfacet
facet normal 0.38268343236509056 0.9238795325112865 1.5943760734905484e-31
  outer loop
    vertex 23.400000000000002 8.960769515458669 3.999999999999998
    vertex 23.689417145876977 8.840889008453114 -1.4099832412739487e-15
    vertex 23.400000000000002 8.96076951545867 -1.4099832412739487e-15
  endloop
endfacet
facet normal 0.38268343236509056 0.9238795325112865 1.5943760734905484e-31
  outer loop
    vertex 23.689417145876977 8.840889008453114 -1.4099832412739487e-15
    vertex 23.400000000000002 8.960769515458669 3.999999999999998
    vertex 23.689417145876977 8.840889008453113 3.999999999999998
  endloop
endfacet
facet normal 0.1305261922200495 0.9914448613738107 1.7109762794103751e-31
  outer loop
    vertex 23.689417145876977 8.840889008453113 3.999999999999998
    vertex 24.0 8.799999999999997 -1.4099832412739487e-15
    vertex 23.689417145876977 8.840889008453114 -1.4099832412739487e-15
  endloop
endfacet
facet normal 0.1305261922200495 0.9914448613738107 1.7109762794103751e-31
  outer loop
    vertex 24.0 8.799999999999997 -1.4099832412739487e-15
    vertex 23.689417145876977 8.840889008453113 3.999999999999998
    vertex 24.0 8.799999999999995 3.999999999999998
  endloop
endfacet
facet normal -0.13052619222005277 0.9914448613738104 1.7109762794103745e-31
  outer loop
    vertex 24.0 8.799999999999995 3.999999999999998
    vertex 24.310582854123027 8.840889008453114 -1.4099832412739487e-15
    vertex 24.0 8.799999999999997 -1.4099832412739487e-15
  endloop
endfacet
facet normal -0.13052619222005277 0.9914448613738104 1.7109762794103745e-31
  outer loop
    vertex 24.310582854123027 8.840889008453114 -1.4099832412739487e-15
    vertex 24.0 8.799999999999995 3.999999999999998
    vertex 24.310582854123027 8.840889008453114 3.999999999999998
  endloop
endfacet
facet normal -0.38268343236509056 0.9238795325112865 1.5943760734905484e-31
  outer loop
    vertex 24.310582854123027 8.840889008453114 3.999999999999998
    vertex 24.6 8.96076951545867 -1.4099832412739487e-15
    vertex 24.310582854123027 8.840889008453114 -1.4099832412739487e-15
  endloop
endfacet
facet normal -0.38268343236509056 0.9238795325112865 1.5943760734905484e-31
  outer loop
    vertex 24.6 8.96076951545867 -1.4099832412739487e-15
    vertex 24.310582854123027 8.840889008453114 3.999999999999998
    vertex 24.6 8.96076951545867 3.999999999999998
  endloop
endfacet
facet normal -0.6087614290087222 0.7933533402912342 1.3691217729933807e-31
  outer loop
    vertex 24.6 8.96076951545867 3.999999999999998
    vertex 24.84852813742386 9.151471862576141 -1.4099832412739487e-15
    vertex 24.6 8.96076951545867 -1.4099832412739487e-15
  endloop
endfacet
facet normal -0.6087614290087222 0.7933533402912342 1.3691217729933807e-31
  outer loop
    vertex 24.84852813742386 9.151471862576141 -1.4099832412739487e-15
    vertex 24.6 8.96076951545867 3.999999999999998
    vertex 24.84852813742386 9.15147186257614 3.999999999999998
  endloop
endfacet
facet normal -0.7933533402912342 0.6087614290087222 1.050564086247429e-31
  outer loop
    vertex 25.039230484541328 9.399999999999995 3.999999999999998
    vertex 24.84852813742386 9.151471862576141 -1.4099832412739487e-15
    vertex 24.84852813742386 9.15147186257614 3.999999999999998
  endloop
endfacet
facet normal -0.7933533402912342 0.6087614290087222 1.050564086247429e-31
  outer loop
    vertex 24.84852813742386 9.151471862576141 -1.4099832412739487e-15
    vertex 25.039230484541328 9.399999999999995 3.999999999999998
    vertex 25.039230484541328 9.399999999999997 -1.4099832412739487e-15
  endloop
endfacet
facet normal -0.9238795325112887 0.3826834323650851 6.604121931629395e-32
  outer loop
    vertex 25.159110991546882 9.689417145876972 3.999999999999998
    vertex 25.039230484541328 9.399999999999997 -1.4099832412739487e-15
    vertex 25.039230484541328 9.399999999999995 3.999999999999998
  endloop
endfacet
facet normal -0.9238795325112887 0.3826834323650851 6.604121931629395e-32
  outer loop
    vertex 25.039230484541328 9.399999999999997 -1.4099832412739487e-15
    vertex 25.159110991546882 9.689417145876972 3.999999999999998
    vertex 25.159110991546882 9.689417145876973 -1.4099832412739487e-15
  endloop
endfacet
facet normal -0.9914448613738103 0.13052619222005393 0.0
  outer loop
    vertex 25.200000000000003 9.999999999999996 3.999999999999998
    vertex 25.159110991546882 9.689417145876973 -1.4099832412739487e-15
    vertex 25.159110991546882 9.689417145876972 3.999999999999998
  endloop
endfacet
facet normal -0.9914448613738103 0.13052619222005393 0.0
  outer loop
    vertex 25.159110991546882 9.689417145876973 -1.4099832412739487e-15
    vertex 25.200000000000003 9.999999999999996 3.999999999999998
    vertex 25.200000000000003 9.999999999999996 -1.4099832412739487e-15
  endloop
endfacet
facet normal -0.9914448613738103 -0.13052619222005335 0.0
  outer loop
    vertex 25.159110991546882 10.310582854123021 3.999999999999998
    vertex 25.200000000000003 9.999999999999996 -1.4099832412739487e-15
    vertex 25.200000000000003 9.999999999999996 3.999999999999998
  endloop
endfacet
facet normal -0.9914448613738103 -0.13052619222005335 0.0
  outer loop
    vertex 25.200000000000003 9.999999999999996 -1.4099832412739487e-15
    vertex 25.159110991546882 10.310582854123021 3.999999999999998
    vertex 25.159110991546882 10.310582854123023 -1.4099832412739487e-15
  endloop
endfacet
facet normal -0.9238795325112882 -0.3826834323650868 -6.604121931629429e-32
  outer loop
    vertex 25.039230484541328 10.599999999999996 3.999999999999998
    vertex 25.159110991546882 10.310582854123023 -1.4099832412739487e-15
    vertex 25.159110991546882 10.310582854123021 3.999999999999998
  endloop
endfacet
facet normal -0.9238795325112882 -0.3826834323650868 -6.604121931629429e-32
  outer loop
    vertex 25.159110991546882 10.310582854123023 -1.4099832412739487e-15
    vertex 25.039230484541328 10.599999999999996 3.999999999999998
    vertex 25.039230484541328 10.599999999999998 -1.4099832412739487e-15
  endloop
endfacet
facet normal -0.7933533402912358 -0.6087614290087201 -1.0505640862474257e-31
  outer loop
    vertex 24.84852813742386 10.848528137423854 3.999999999999998
    vertex 25.039230484541328 10.599999999999998 -1.4099832412739487e-15
    vertex 25.039230484541328 10.599999999999996 3.999999999999998
  endloop
endfacet
facet normal -0.7933533402912358 -0.6087614290087201 -1.0505640862474257e-31
  outer loop
    vertex 25.039230484541328 10.599999999999998 -1.4099832412739487e-15
    vertex 24.84852813742386 10.848528137423854 3.999999999999998
    vertex 24.84852813742386 10.848528137423855 -1.4099832412739487e-15
  endloop
endfacet
facet normal -0.6087614290087179 -0.7933533402912374 -1.369121772993387e-31
  outer loop
    vertex 24.84852813742386 10.848528137423854 3.999999999999998
    vertex 24.6 11.039230484541324 -1.4099832412739487e-15
    vertex 24.84852813742386 10.848528137423855 -1.4099832412739487e-15
  endloop
endfacet
facet normal -0.6087614290087179 -0.7933533402912374 -1.369121772993387e-31
  outer loop
    vertex 24.6 11.039230484541324 -1.4099832412739487e-15
    vertex 24.84852813742386 10.848528137423854 3.999999999999998
    vertex 24.6 11.039230484541322 3.999999999999998
  endloop
endfacet
facet normal -0.38268343236509056 -0.9238795325112865 -1.5943760734905484e-31
  outer loop
    vertex 24.6 11.039230484541322 3.999999999999998
    vertex 24.310582854123027 11.15911099154688 -1.4099832412739487e-15
    vertex 24.6 11.039230484541324 -1.4099832412739487e-15
  endloop
endfacet
facet normal -0.38268343236509056 -0.9238795325112865 -1.5943760734905484e-31
  outer loop
    vertex 24.310582854123027 11.15911099154688 -1.4099832412739487e-15
    vertex 24.6 11.039230484541322 3.999999999999998
    vertex 24.310582854123027 11.159110991546878 3.999999999999998
  endloop
endfacet
facet normal -0.1305261922200495 -0.9914448613738107 -1.7109762794103751e-31
  outer loop
    vertex 24.310582854123027 11.159110991546878 3.999999999999998
    vertex 24.0 11.199999999999998 -1.4099832412739487e-15
    vertex 24.310582854123027 11.15911099154688 -1.4099832412739487e-15
  endloop
endfacet
facet normal -0.1305261922200495 -0.9914448613738107 -1.7109762794103751e-31
  outer loop
    vertex 24.0 11.199999999999998 -1.4099832412739487e-15
    vertex 24.310582854123027 11.159110991546878 3.999999999999998
    vertex 24.0 11.199999999999996 3.999999999999998
  endloop
endfacet
facet normal 0.13052619222005393 -0.9914448613738103 -1.7109762794103742e-31
  outer loop
    vertex 24.0 11.199999999999996 3.999999999999998
    vertex 23.689417145876977 11.159110991546878 -1.4099832412739487e-15
    vertex 24.0 11.199999999999998 -1.4099832412739487e-15
  endloop
endfacet
facet normal 0.13052619222005393 -0.9914448613738103 -1.7109762794103742e-31
  outer loop
    vertex 23.689417145876977 11.159110991546878 -1.4099832412739487e-15
    vertex 24.0 11.199999999999996 3.999999999999998
    vertex 23.689417145876977 11.159110991546878 3.999999999999998
  endloop
endfacet
facet normal 0.38268343236508734 -0.9238795325112877 -1.5943760734905506e-31
  outer loop
    vertex 23.689417145876977 11.159110991546878 3.999999999999998
    vertex 23.4 11.039230484541322 -1.4099832412739487e-15
    vertex 23.689417145876977 11.159110991546878 -1.4099832412739487e-15
  endloop
endfacet
facet normal 0.38268343236508734 -0.9238795325112877 -1.5943760734905506e-31
  outer loop
    vertex 23.4 11.039230484541322 -1.4099832412739487e-15
    vertex 23.689417145876977 11.159110991546878 3.999999999999998
    vertex 23.4 11.039230484541322 3.999999999999998
  endloop
endfacet
facet normal 0.6087614290087193 -0.7933533402912362 -1.3691217729933845e-31
  outer loop
    vertex 23.4 11.039230484541322 3.999999999999998
    vertex 23.151471862576145 10.848528137423855 -1.4099832412739487e-15
    vertex 23.4 11.039230484541322 -1.4099832412739487e-15
  endloop
endfacet
facet normal 0.6087614290087193 -0.7933533402912362 -1.3691217729933845e-31
  outer loop
    vertex 23.151471862576145 10.848528137423855 -1.4099832412739487e-15
    vertex 23.4 11.039230484541322 3.999999999999998
    vertex 23.151471862576145 10.848528137423854 3.999999999999998
  endloop
endfacet
facet normal 0.7933533402912358 -0.6087614290087201 -1.0505640862474253e-31
  outer loop
    vertex 22.960769515458672 10.599999999999998 -1.4099832412739487e-15
    vertex 23.151471862576145 10.848528137423854 3.999999999999998
    vertex 22.960769515458672 10.599999999999996 3.999999999999998
  endloop
endfacet
facet normal 0.7933533402912358 -0.6087614290087201 -1.0505640862474253e-31
  outer loop
    vertex 23.151471862576145 10.848528137423854 3.999999999999998
    vertex 22.960769515458672 10.599999999999998 -1.4099832412739487e-15
    vertex 23.151471862576145 10.848528137423855 -1.4099832412739487e-15
  endloop
endfacet
facet normal 0.9238795325112882 -0.3826834323650868 -6.604121931629424e-32
  outer loop
    vertex 22.840889008453118 10.310582854123023 -1.4099832412739487e-15
    vertex 22.960769515458672 10.599999999999996 3.999999999999998
    vertex 22.840889008453118 10.310582854123021 3.999999999999998
  endloop
endfacet
facet normal 0.9238795325112882 -0.3826834323650868 -6.604121931629424e-32
  outer loop
    vertex 22.960769515458672 10.599999999999996 3.999999999999998
    vertex 22.840889008453118 10.310582854123023 -1.4099832412739487e-15
    vertex 22.960769515458672 10.599999999999998 -1.4099832412739487e-15
  endloop
endfacet
facet normal 0.9914448613738105 -0.13052619222005113 -0.0
  outer loop
    vertex 1.3000000000000012 9.999999999999996 1.4099832412739487e-15
    vertex 1.340889008453119 10.310582854123021 3.9999999999999996
    vertex 1.3000000000000012 9.999999999999996 3.9999999999999996
  endloop
endfacet
facet normal 0.9914448613738105 -0.13052619222005113 -0.0
  outer loop
    vertex 1.340889008453119 10.310582854123021 3.9999999999999996
    vertex 1.3000000000000012 9.999999999999996 1.4099832412739487e-15
    vertex 1.340889008453119 10.310582854123023 1.4099832412739487e-15
  endloop
endfacet
facet normal 0.9914448613738105 0.13052619222005224 -0.0
  outer loop
    vertex 1.3408890084531195 9.689417145876972 1.4099832412739487e-15
    vertex 1.3000000000000012 9.999999999999996 3.9999999999999996
    vertex 1.3408890084531195 9.68941714587697 3.9999999999999996
  endloop
endfacet
facet normal 0.9914448613738105 0.13052619222005224 -0.0
  outer loop
    vertex 1.3000000000000012 9.999999999999996 3.9999999999999996
    vertex 1.3408890084531195 9.689417145876972 1.4099832412739487e-15
    vertex 1.3000000000000012 9.999999999999996 1.4099832412739487e-15
  endloop
endfacet
facet normal 0.9238795325112866 0.38268343236509006 0.0
  outer loop
    vertex 1.460769515458675 9.399999999999997 1.4099832412739487e-15
    vertex 1.3408890084531195 9.68941714587697 3.9999999999999996
    vertex 1.460769515458675 9.399999999999995 3.9999999999999996
  endloop
endfacet
facet normal 0.9238795325112866 0.38268343236509006 0.0
  outer loop
    vertex 1.3408890084531195 9.68941714587697 3.9999999999999996
    vertex 1.460769515458675 9.399999999999997 1.4099832412739487e-15
    vertex 1.3408890084531195 9.689417145876972 1.4099832412739487e-15
  endloop
endfacet
facet normal 0.7933533402912344 0.6087614290087219 0.0
  outer loop
    vertex 1.6514718625761444 9.151471862576141 1.4099832412739487e-15
    vertex 1.460769515458675 9.399999999999995 3.9999999999999996
    vertex 1.6514718625761444 9.15147186257614 3.9999999999999996
  endloop
endfacet
facet normal 0.7933533402912344 0.6087614290087219 0.0
  outer loop
    vertex 1.460769515458675 9.399999999999995 3.9999999999999996
    vertex 1.6514718625761444 9.151471862576141 1.4099832412739487e-15
    vertex 1.460769515458675 9.399999999999997 1.4099832412739487e-15
  endloop
endfacet
facet normal 0.6087614290087207 0.7933533402912354 0.0
  outer loop
    vertex 1.6514718625761444 9.15147186257614 3.9999999999999996
    vertex 1.900000000000002 8.96076951545867 1.4099832412739487e-15
    vertex 1.6514718625761444 9.151471862576141 1.4099832412739487e-15
  endloop
endfacet
facet normal 0.6087614290087207 0.7933533402912354 0.0
  outer loop
    vertex 1.900000000000002 8.96076951545867 1.4099832412739487e-15
    vertex 1.6514718625761444 9.15147186257614 3.9999999999999996
    vertex 1.900000000000002 8.96076951545867 3.9999999999999996
  endloop
endfacet
facet normal 0.38268343236509056 0.9238795325112865 0.0
  outer loop
    vertex 1.900000000000002 8.96076951545867 3.9999999999999996
    vertex 2.189417145876977 8.840889008453114 1.4099832412739487e-15
    vertex 1.900000000000002 8.96076951545867 1.4099832412739487e-15
  endloop
endfacet
facet normal 0.38268343236509056 0.9238795325112865 0.0
  outer loop
    vertex 2.189417145876977 8.840889008453114 1.4099832412739487e-15
    vertex 1.900000000000002 8.96076951545867 3.9999999999999996
    vertex 2.189417145876977 8.840889008453114 3.9999999999999996
  endloop
endfacet
facet normal 0.1305261922200492 0.9914448613738107 0.0
  outer loop
    vertex 2.189417145876977 8.840889008453114 3.9999999999999996
    vertex 2.5000000000000013 8.799999999999997 1.4099832412739487e-15
    vertex 2.189417145876977 8.840889008453114 1.4099832412739487e-15
  endloop
endfacet
facet normal 0.1305261922200492 0.9914448613738107 0.0
  outer loop
    vertex 2.5000000000000013 8.799999999999997 1.4099832412739487e-15
    vertex 2.189417145876977 8.840889008453114 3.9999999999999996
    vertex 2.5000000000000013 8.799999999999997 3.9999999999999996
  endloop
endfacet
facet normal -0.13052619222004894 0.9914448613738109 -0.0
  outer loop
    vertex 2.5000000000000013 8.799999999999997 3.9999999999999996
    vertex 2.8105828541230267 8.840889008453114 1.4099832412739487e-15
    vertex 2.5000000000000013 8.799999999999997 1.4099832412739487e-15
  endloop
endfacet
facet normal -0.13052619222004894 0.9914448613738109 -0.0
  outer loop
    vertex 2.8105828541230267 8.840889008453114 1.4099832412739487e-15
    vertex 2.5000000000000013 8.799999999999997 3.9999999999999996
    vertex 2.8105828541230267 8.840889008453114 3.9999999999999996
  endloop
endfacet
facet normal -0.382683432365091 0.9238795325112864 -0.0
  outer loop
    vertex 2.8105828541230267 8.840889008453114 3.9999999999999996
    vertex 3.1000000000000014 8.96076951545867 1.4099832412739487e-15
    vertex 2.8105828541230267 8.840889008453114 1.4099832412739487e-15
  endloop
endfacet
facet normal -0.382683432365091 0.9238795325112864 -0.0
  outer loop
    vertex 3.1000000000000014 8.96076951545867 1.4099832412739487e-15
    vertex 2.8105828541230267 8.840889008453114 3.9999999999999996
    vertex 3.1000000000000014 8.96076951545867 3.9999999999999996
  endloop
endfacet
facet normal -0.6087614290087212 0.7933533402912349 -0.0
  outer loop
    vertex 3.1000000000000014 8.96076951545867 3.9999999999999996
    vertex 3.3485281374238585 9.151471862576141 1.4099832412739487e-15
    vertex 3.1000000000000014 8.96076951545867 1.4099832412739487e-15
  endloop
endfacet
facet normal -0.6087614290087212 0.7933533402912349 -0.0
  outer loop
    vertex 3.3485281374238585 9.151471862576141 1.4099832412739487e-15
    vertex 3.1000000000000014 8.96076951545867 3.9999999999999996
    vertex 3.3485281374238585 9.15147186257614 3.9999999999999996
  endloop
endfacet
facet normal -0.793353340291235 0.6087614290087208 -0.0
  outer loop
    vertex 3.5392304845413274 9.399999999999995 3.9999999999999996
    vertex 3.3485281374238585 9.151471862576141 1.4099832412739487e-15
    vertex 3.3485281374238585 9.15147186257614 3.9999999999999996
  endloop
endfacet
facet normal -0.793353340291235 0.6087614290087208 -0.0
  outer loop
    vertex 3.3485281374238585 9.151471862576141 1.4099832412739487e-15
    vertex 3.5392304845413274 9.399999999999995 3.9999999999999996
    vertex 3.5392304845413274 9.399999999999997 1.4099832412739487e-15
  endloop
endfacet
facet normal -0.9238795325112871 0.38268343236508895 -0.0
  outer loop
    vertex 3.659110991546883 9.689417145876972 3.9999999999999996
    vertex 3.5392304845413274 9.399999999999997 1.4099832412739487e-15
    vertex 3.5392304845413274 9.399999999999995 3.9999999999999996
  endloop
endfacet
facet normal -0.9238795325112871 0.38268343236508895 -0.0
  outer loop
    vertex 3.5392304845413274 9.399999999999997 1.4099832412739487e-15
    vertex 3.659110991546883 9.689417145876972 3.9999999999999996
    vertex 3.659110991546883 9.689417145876973 1.4099832412739487e-15
  endloop
endfacet
facet normal -0.9914448613738105 0.13052619222005174 0.0
  outer loop
    vertex 3.700000000000001 9.999999999999996 3.9999999999999996
    vertex 3.659110991546883 9.689417145876973 1.4099832412739487e-15
    vertex 3.659110991546883 9.689417145876972 3.9999999999999996
  endloop
endfacet
facet normal -0.9914448613738105 0.13052619222005174 0.0
  outer loop
    vertex 3.659110991546883 9.689417145876973 1.4099832412739487e-15
    vertex 3.700000000000001 9.999999999999996 3.9999999999999996
    vertex 3.700000000000001 9.999999999999996 1.4099832412739487e-15
  endloop
endfacet
facet normal -0.9914448613738105 -0.13052619222005113 0.0
  outer loop
    vertex 3.659110991546883 10.310582854123021 3.9999999999999996
    vertex 3.700000000000001 9.999999999999996 1.4099832412739487e-15
    vertex 3.700000000000001 9.999999999999996 3.9999999999999996
  endloop
endfacet
facet normal -0.9914448613738105 -0.13052619222005113 0.0
  outer loop
    vertex 3.700000000000001 9.999999999999996 1.4099832412739487e-15
    vertex 3.659110991546883 10.310582854123021 3.9999999999999996
    vertex 3.659110991546883 10.310582854123023 1.4099832412739487e-15
  endloop
endfacet
facet normal -0.9238795325112865 -0.38268343236509056 -0.0
  outer loop
    vertex 3.5392304845413274 10.599999999999996 3.9999999999999996
    vertex 3.659110991546883 10.310582854123023 1.4099832412739487e-15
    vertex 3.659110991546883 10.310582854123021 3.9999999999999996
  endloop
endfacet
facet normal -0.9238795325112865 -0.38268343236509056 -0.0
  outer loop
    vertex 3.659110991546883 10.310582854123023 1.4099832412739487e-15
    vertex 3.5392304845413274 10.599999999999996 3.9999999999999996
    vertex 3.5392304845413274 10.599999999999998 1.4099832412739487e-15
  endloop
endfacet
facet normal -0.7933533402912342 -0.6087614290087222 -0.0
  outer loop
    vertex 3.3485281374238576 10.848528137423852 3.9999999999999996
    vertex 3.5392304845413274 10.599999999999998 1.4099832412739487e-15
    vertex 3.5392304845413274 10.599999999999996 3.9999999999999996
  endloop
endfacet
facet normal -0.7933533402912342 -0.6087614290087222 -0.0
  outer loop
    vertex 3.5392304845413274 10.599999999999998 1.4099832412739487e-15
    vertex 3.3485281374238576 10.848528137423852 3.9999999999999996
    vertex 3.3485281374238576 10.848528137423854 1.4099832412739487e-15
  endloop
endfacet
facet normal -0.6087614290087212 -0.7933533402912349 -0.0
  outer loop
    vertex 3.3485281374238576 10.848528137423852 3.9999999999999996
    vertex 3.1000000000000005 11.039230484541322 1.4099832412739487e-15
    vertex 3.3485281374238576 10.848528137423854 1.4099832412739487e-15
  endloop
endfacet
facet normal -0.6087614290087212 -0.7933533402912349 -0.0
  outer loop
    vertex 3.1000000000000005 11.039230484541322 1.4099832412739487e-15
    vertex 3.3485281374238576 10.848528137423852 3.9999999999999996
    vertex 3.1000000000000005 11.039230484541322 3.9999999999999996
  endloop
endfacet
facet normal -0.38268343236509056 -0.9238795325112865 -0.0
  outer loop
    vertex 3.1000000000000005 11.039230484541322 3.9999999999999996
    vertex 2.8105828541230258 11.159110991546878 1.4099832412739487e-15
    vertex 3.1000000000000005 11.039230484541322 1.4099832412739487e-15
  endloop
endfacet
facet normal -0.38268343236509056 -0.9238795325112865 -0.0
  outer loop
    vertex 2.8105828541230258 11.159110991546878 1.4099832412739487e-15
    vertex 3.1000000000000005 11.039230484541322 3.9999999999999996
    vertex 2.8105828541230258 11.159110991546878 3.9999999999999996
  endloop
endfacet
facet normal -0.1305261922200492 -0.9914448613738107 -0.0
  outer loop
    vertex 2.8105828541230258 11.159110991546878 3.9999999999999996
    vertex 2.500000000000001 11.199999999999996 1.4099832412739487e-15
    vertex 2.8105828541230258 11.159110991546878 1.4099832412739487e-15
  endloop
endfacet
facet normal -0.1305261922200492 -0.9914448613738107 -0.0
  outer loop
    vertex 2.500000000000001 11.199999999999996 1.4099832412739487e-15
    vertex 2.8105828541230258 11.159110991546878 3.9999999999999996
    vertex 2.500000000000001 11.199999999999996 3.9999999999999996
  endloop
endfacet
facet normal 0.13052619222004905 -0.9914448613738108 -0.0
  outer loop
    vertex 2.500000000000001 11.199999999999996 3.9999999999999996
    vertex 2.189417145876976 11.159110991546878 1.4099832412739487e-15
    vertex 2.500000000000001 11.199999999999996 1.4099832412739487e-15
  endloop
endfacet
facet normal 0.13052619222004905 -0.9914448613738108 -0.0
  outer loop
    vertex 2.189417145876976 11.159110991546878 1.4099832412739487e-15
    vertex 2.500000000000001 11.199999999999996 3.9999999999999996
    vertex 2.189417145876976 11.159110991546878 3.9999999999999996
  endloop
endfacet
facet normal 0.38268343236509017 -0.9238795325112867 -0.0
  outer loop
    vertex 2.189417145876976 11.159110991546878 3.9999999999999996
    vertex 1.9000000000000008 11.039230484541322 1.4099832412739487e-15
    vertex 2.189417145876976 11.159110991546878 1.4099832412739487e-15
  endloop
endfacet
facet normal 0.38268343236509017 -0.9238795325112867 -0.0
  outer loop
    vertex 1.9000000000000008 11.039230484541322 1.4099832412739487e-15
    vertex 2.189417145876976 11.159110991546878 3.9999999999999996
    vertex 1.9000000000000008 11.039230484541322 3.9999999999999996
  endloop
endfacet
facet normal 0.6087614290087217 -0.7933533402912346 -0.0
  outer loop
    vertex 1.9000000000000008 11.039230484541322 3.9999999999999996
    vertex 1.6514718625761442 10.848528137423854 1.4099832412739487e-15
    vertex 1.9000000000000008 11.039230484541322 1.4099832412739487e-15
  endloop
endfacet
facet normal 0.6087614290087217 -0.7933533402912346 -0.0
  outer loop
    vertex 1.6514718625761442 10.848528137423854 1.4099832412739487e-15
    vertex 1.9000000000000008 11.039230484541322 3.9999999999999996
    vertex 1.6514718625761442 10.848528137423852 3.9999999999999996
  endloop
endfacet
facet normal 0.7933533402912344 -0.6087614290087219 -0.0
  outer loop
    vertex 1.4607695154586746 10.599999999999998 1.4099832412739487e-15
    vertex 1.6514718625761442 10.848528137423852 3.9999999999999996
    vertex 1.4607695154586746 10.599999999999996 3.9999999999999996
  endloop
endfacet
facet normal 0.7933533402912344 -0.6087614290087219 -0.0
  outer loop
    vertex 1.6514718625761442 10.848528137423852 3.9999999999999996
    vertex 1.4607695154586746 10.599999999999998 1.4099832412739487e-15
    vertex 1.6514718625761442 10.848528137423854 1.4099832412739487e-15
  endloop
endfacet
facet normal 0.9238795325112866 -0.38268343236509006 -0.0
  outer loop
    vertex 1.340889008453119 10.310582854123023 1.4099832412739487e-15
    vertex 1.4607695154586746 10.599999999999996 3.9999999999999996
    vertex 1.340889008453119 10.310582854123021 3.9999999999999996
  endloop
endfacet
facet normal 0.9238795325112866 -0.38268343236509006 -0.0
  outer loop
    vertex 1.4607695154586746 10.599999999999996 3.9999999999999996
    vertex 1.340889008453119 10.310582854123023 1.4099832412739487e-15
    vertex 1.4607695154586746 10.599999999999998 1.4099832412739487e-15
  endloop
endfacet
facet normal -1.1051243333725153e-16 1.0961451981638635e-15 1.0
  outer loop
    vertex 19.650000000000002 16.499999999999996 3.999999999999997
    vertex 6.35 17.999999999999996 3.999999999999991
    vertex 6.35 16.499999999999996 3.999999999999991
  endloop
endfacet
facet normal -1.1051243333725153e-16 1.0961451981638635e-15 1.0
  outer loop
    vertex 6.35 17.999999999999996 3.999999999999991
    vertex 19.650000000000002 16.499999999999996 3.999999999999997
    vertex 20.150000000000002 17.999999999999996 3.999999999999991
  endloop
endfacet
facet normal -1.1051243333725153e-16 1.0961451981638635e-15 1.0
  outer loop
    vertex 20.150000000000002 17.999999999999996 3.999999999999991
    vertex 19.650000000000002 16.499999999999996 3.999999999999997
    vertex 20.15 16.499999999999996 3.999999999999991
  endloop
endfacet
facet normal -1.9725210786369006e-29 -1.0 -3.5249581031848965e-15
  outer loop
    vertex 20.15 16.499999999999996 3.999999999999991
    vertex 19.650000000000002 16.499999999999996 3.1999999999999997
    vertex 20.15 16.499999999999996 3.1999999999999997
  endloop
endfacet
facet normal -1.9725210786369006e-29 -1.0 -3.5249581031848965e-15
  outer loop
    vertex 19.650000000000002 16.499999999999996 3.1999999999999997
    vertex 20.15 16.499999999999996 3.999999999999991
    vertex 19.650000000000002 16.499999999999996 3.999999999999997
  endloop
endfacet
facet normal 7.471248361618623e-31 -1.0 -3.5249581031848965e-15
  outer loop
    vertex 19.650000000000002 16.499999999999996 3.999999999999997
    vertex 6.35 16.499999999999996 3.1999999999999997
    vertex 19.650000000000002 16.499999999999996 3.1999999999999997
  endloop
endfacet
facet normal 7.471248361618623e-31 -1.0 -3.5249581031848965e-15
  outer loop
    vertex 6.35 16.499999999999996 3.1999999999999997
    vertex 19.650000000000002 16.499999999999996 3.999999999999997
    vertex 6.35 16.499999999999996 3.999999999999991
  endloop
endfacet
facet normal -0.0 -0.0 1.0
  outer loop
    vertex 20.150000000000002 2.699999999999997 1.2
    vertex 6.35 3.199999999999997 1.2
    vertex 6.35 2.699999999999997 1.2
  endloop
endfacet
facet normal -0.0 -0.0 1.0
  outer loop
    vertex 6.35 3.199999999999997 1.2
    vertex 20.150000000000002 2.699999999999997 1.2
    vertex 7.3500000000000005 3.199999999999997 1.2
  endloop
endfacet
facet normal -0.0 -0.0 1.0
  outer loop
    vertex 7.3500000000000005 3.199999999999997 1.2
    vertex 20.150000000000002 2.699999999999997 1.2
    vertex 19.15 3.199999999999997 1.2
  endloop
endfacet
facet normal -0.0 -0.0 1.0
  outer loop
    vertex 19.15 3.199999999999997 1.2
    vertex 20.150000000000002 2.699999999999997 1.2
    vertex 20.150000000000002 3.199999999999997 1.2
  endloop
endfacet
facet normal 1.1557980489879424e-17 -3.596049299469257e-17 -1.0
  outer loop
    vertex -1.4999999999999996 17.999999999999996 0.0
    vertex 1.340889008453119 10.310582854123023 1.4099832412739487e-15
    vertex -1.4999999999999996 0.0 0.0
  endloop
endfacet
facet normal 1.1557980489879424e-17 -3.596049299469257e-17 -1.0
  outer loop
    vertex 1.340889008453119 10.310582854123023 1.4099832412739487e-15
    vertex -1.4999999999999996 17.999999999999996 0.0
    vertex 1.4607695154586746 10.599999999999998 1.4099832412739487e-15
  endloop
endfacet
facet normal 1.1557980489879424e-17 -3.596049299469257e-17 -1.0
  outer loop
    vertex 1.4607695154586746 10.599999999999998 1.4099832412739487e-15
    vertex -1.4999999999999996 17.999999999999996 0.0
    vertex 1.6514718625761442 10.848528137423854 1.4099832412739487e-15
  endloop
endfacet
facet normal 1.1557980489879424e-17 -3.596049299469257e-17 -1.0
  outer loop
    vertex 1.6514718625761442 10.848528137423854 1.4099832412739487e-15
    vertex -1.4999999999999996 17.999999999999996 0.0
    vertex 7.350000000000002 17.999999999999996 -6.848490029044895e-15
  endloop
endfacet
facet normal 1.1557980489879424e-17 -3.596049299469257e-17 -1.0
  outer loop
    vertex -1.4999999999999996 0.0 0.0
    vertex 1.340889008453119 10.310582854123023 1.4099832412739487e-15
    vertex 1.3000000000000012 9.999999999999996 1.4099832412739487e-15
  endloop
endfacet
facet normal 1.1557980489879424e-17 -3.596049299469257e-17 -1.0
  outer loop
    vertex 1.6514718625761442 10.848528137423854 1.4099832412739487e-15
    vertex 7.350000000000002 17.999999999999996 -6.848490029044895e-15
    vertex 1.9000000000000008 11.039230484541322 1.4099832412739487e-15
  endloop
endfacet
facet normal 1.1557980489879424e-17 -3.596049299469257e-17 -1.0
  outer loop
    vertex 1.9000000000000008 11.039230484541322 1.4099832412739487e-15
    vertex 7.350000000000002 17.999999999999996 -6.848490029044895e-15
    vertex 2.189417145876976 11.159110991546878 1.4099832412739487e-15
  endloop
endfacet
facet normal 1.1557980489879424e-17 -3.596049299469257e-17 -1.0
  outer loop
    vertex 2.189417145876976 11.159110991546878 1.4099832412739487e-15
    vertex 7.350000000000002 17.999999999999996 -6.848490029044895e-15
    vertex 2.500000000000001 11.199999999999996 1.4099832412739487e-15
  endloop
endfacet
facet normal 1.1557980489879424e-17 -3.596049299469257e-17 -1.0
  outer loop
    vertex 2.500000000000001 11.199999999999996 1.4099832412739487e-15
    vertex 7.350000000000002 17.999999999999996 -6.848490029044895e-15
    vertex 2.8105828541230258 11.159110991546878 1.4099832412739487e-15
  endloop
endfacet
facet normal 1.1557980489879424e-17 -3.596049299469257e-17 -1.0
  outer loop
    vertex 2.8105828541230258 11.159110991546878 1.4099832412739487e-15
    vertex 7.350000000000002 17.999999999999996 -6.848490029044895e-15
    vertex 3.1000000000000005 11.039230484541322 1.4099832412739487e-15
  endloop
endfacet
facet normal 1.1557980489879424e-17 -3.596049299469257e-17 -1.0
  outer loop
    vertex 3.1000000000000005 11.039230484541322 1.4099832412739487e-15
    vertex 7.350000000000002 17.999999999999996 -6.848490029044895e-15
    vertex 3.3485281374238576 10.848528137423854 1.4099832412739487e-15
  endloop
endfacet
facet normal 1.1557980489879424e-17 -3.596049299469257e-17 -1.0
  outer loop
    vertex 3.3485281374238576 10.848528137423854 1.4099832412739487e-15
    vertex 7.350000000000002 17.999999999999996 -6.848490029044895e-15
    vertex 3.5392304845413274 10.599999999999998 1.4099832412739487e-15
  endloop
endfacet
facet normal 1.1557980489879424e-17 -3.596049299469257e-17 -1.0
  outer loop
    vertex 3.5392304845413274 10.599999999999998 1.4099832412739487e-15
    vertex 7.350000000000002 17.999999999999996 -6.848490029044895e-15
    vertex 3.659110991546883 10.310582854123023 1.4099832412739487e-15
  endloop
endfacet
facet normal 1.1557980489879424e-17 -3.596049299469257e-17 -1.0
  outer loop
    vertex 3.659110991546883 10.310582854123023 1.4099832412739487e-15
    vertex 7.350000000000002 17.999999999999996 -6.848490029044895e-15
    vertex 3.700000000000001 9.999999999999996 1.4099832412739487e-15
  endloop
endfacet
facet normal 1.1557980489879424e-17 -3.596049299469257e-17 -1.0
  outer loop
    vertex 3.700000000000001 9.999999999999996 1.4099832412739487e-15
    vertex 7.350000000000002 17.999999999999996 -6.848490029044895e-15
    vertex 7.3500000000000005 15.999999999999998 -1.127986593019159e-14
  endloop
endfacet
facet normal 1.1557980489879424e-17 -3.596049299469257e-17 -1.0
  outer loop
    vertex 28.5 17.999999999999996 0.0
    vertex 19.150000000000002 15.999999999999998 -1.127986593019159e-14
    vertex 19.150000000000002 17.999999999999996 -5.639932965095795e-15
  endloop
endfacet
facet normal 1.1557980489879424e-17 -3.596049299469257e-17 -1.0
  outer loop
    vertex 19.150000000000002 15.999999999999998 -1.127986593019159e-14
    vertex 28.5 17.999999999999996 0.0
    vertex 22.960769515458672 10.599999999999998 -1.4099832412739487e-15
  endloop
endfacet
facet normal 1.1557980489879424e-17 -3.596049299469257e-17 -1.0
  outer loop
    vertex 19.150000000000002 15.999999999999998 -1.127986593019159e-14
    vertex 22.960769515458672 10.599999999999998 -1.4099832412739487e-15
    vertex 22.840889008453118 10.310582854123023 -1.4099832412739487e-15
  endloop
endfacet
facet normal 1.1557980489879424e-17 -3.596049299469257e-17 -1.0
  outer loop
    vertex 19.150000000000002 15.999999999999998 -1.127986593019159e-14
    vertex 22.840889008453118 10.310582854123023 -1.4099832412739487e-15
    vertex 22.8 9.999999999999996 -1.4099832412739487e-15
  endloop
endfacet
facet normal 1.1557980489879424e-17 -3.596049299469257e-17 -1.0
  outer loop
    vertex 22.960769515458672 10.599999999999998 -1.4099832412739487e-15
    vertex 28.5 17.999999999999996 0.0
    vertex 23.151471862576145 10.848528137423855 -1.4099832412739487e-15
  endloop
endfacet
facet normal 1.1557980489879424e-17 -3.596049299469257e-17 -1.0
  outer loop
    vertex 23.151471862576145 10.848528137423855 -1.4099832412739487e-15
    vertex 28.5 17.999999999999996 0.0
    vertex 23.4 11.039230484541322 -1.4099832412739487e-15
  endloop
endfacet
facet normal 1.1557980489879424e-17 -3.596049299469257e-17 -1.0
  outer loop
    vertex 23.4 11.039230484541322 -1.4099832412739487e-15
    vertex 28.5 17.999999999999996 0.0
    vertex 23.689417145876977 11.159110991546878 -1.4099832412739487e-15
  endloop
endfacet
facet normal 1.1557980489879424e-17 -3.596049299469257e-17 -1.0
  outer loop
    vertex 23.689417145876977 11.159110991546878 -1.4099832412739487e-15
    vertex 28.5 17.999999999999996 0.0
    vertex 24.0 11.199999999999998 -1.4099832412739487e-15
  endloop
endfacet
facet normal 1.1557980489879424e-17 -3.596049299469257e-17 -1.0
  outer loop
    vertex 24.0 11.199999999999998 -1.4099832412739487e-15
    vertex 28.5 17.999999999999996 0.0
    vertex 24.310582854123027 11.15911099154688 -1.4099832412739487e-15
  endloop
endfacet
facet normal 1.1557980489879424e-17 -3.596049299469257e-17 -1.0
  outer loop
    vertex 24.310582854123027 11.15911099154688 -1.4099832412739487e-15
    vertex 28.5 17.999999999999996 0.0
    vertex 24.6 11.039230484541324 -1.4099832412739487e-15
  endloop
endfacet
facet normal 1.1557980489879424e-17 -3.596049299469257e-17 -1.0
  outer loop
    vertex 24.6 11.039230484541324 -1.4099832412739487e-15
    vertex 28.5 17.999999999999996 0.0
    vertex 24.84852813742386 10.848528137423855 -1.4099832412739487e-15
  endloop
endfacet
facet normal 1.1557980489879424e-17 -3.596049299469257e-17 -1.0
  outer loop
    vertex 24.84852813742386 10.848528137423855 -1.4099832412739487e-15
    vertex 28.5 17.999999999999996 0.0
    vertex 25.039230484541328 10.599999999999998 -1.4099832412739487e-15
  endloop
endfacet
facet normal 1.1557980489879424e-17 -3.596049299469257e-17 -1.0
  outer loop
    vertex 25.039230484541328 10.599999999999998 -1.4099832412739487e-15
    vertex 28.5 17.999999999999996 0.0
    vertex 25.159110991546882 10.310582854123023 -1.4099832412739487e-15
  endloop
endfacet
facet normal 1.1557980489879424e-17 -3.596049299469257e-17 -1.0
  outer loop
    vertex 25.159110991546882 10.310582854123023 -1.4099832412739487e-15
    vertex 28.5 17.999999999999996 0.0
    vertex 25.200000000000003 9.999999999999996 -1.4099832412739487e-15
  endloop
endfacet
facet normal 1.1557980489879424e-17 -3.596049299469257e-17 -1.0
  outer loop
    vertex -1.4999999999999996 0.0 0.0
    vertex 7.3500000000000005 3.199999999999997 -1.127986593019159e-14
    vertex 28.5 0.0 0.0
  endloop
endfacet
facet normal 1.1557980489879424e-17 -3.596049299469257e-17 -1.0
  outer loop
    vertex 7.3500000000000005 3.199999999999997 -1.127986593019159e-14
    vertex -1.4999999999999996 0.0 0.0
    vertex 1.6514718625761444 9.151471862576141 1.4099832412739487e-15
  endloop
endfacet
facet normal 1.1557980489879424e-17 -3.596049299469257e-17 -1.0
  outer loop
    vertex 1.6514718625761444 9.151471862576141 1.4099832412739487e-15
    vertex -1.4999999999999996 0.0 0.0
    vertex 1.460769515458675 9.399999999999997 1.4099832412739487e-15
  endloop
endfacet
facet normal 1.1557980489879424e-17 -3.596049299469257e-17 -1.0
  outer loop
    vertex 1.460769515458675 9.399999999999997 1.4099832412739487e-15
    vertex -1.4999999999999996 0.0 0.0
    vertex 1.3408890084531195 9.689417145876972 1.4099832412739487e-15
  endloop
endfacet
facet normal 1.1557980489879424e-17 -3.596049299469257e-17 -1.0
  outer loop
    vertex 1.3408890084531195 9.689417145876972 1.4099832412739487e-15
    vertex -1.4999999999999996 0.0 0.0
    vertex 1.3000000000000012 9.999999999999996 1.4099832412739487e-15
  endloop
endfacet
facet normal 1.1557980489879424e-17 -3.596049299469257e-17 -1.0
  outer loop
    vertex 7.3500000000000005 3.199999999999997 -1.127986593019159e-14
    vertex 1.6514718625761444 9.151471862576141 1.4099832412739487e-15
    vertex 1.900000000000002 8.96076951545867 1.4099832412739487e-15
  endloop
endfacet
facet normal 1.1557980489879424e-17 -3.596049299469257e-17 -1.0
  outer loop
    vertex 7.3500000000000005 3.199999999999997 -1.127986593019159e-14
    vertex 1.900000000000002 8.96076951545867 1.4099832412739487e-15
    vertex 2.189417145876977 8.840889008453114 1.4099832412739487e-15
  endloop
endfacet
facet normal 1.1557980489879424e-17 -3.596049299469257e-17 -1.0
  outer loop
    vertex 7.3500000000000005 3.199999999999997 -1.127986593019159e-14
    vertex 2.189417145876977 8.840889008453114 1.4099832412739487e-15
    vertex 2.5000000000000013 8.799999999999997 1.4099832412739487e-15
  endloop
endfacet
facet normal 1.1557980489879424e-17 -3.596049299469257e-17 -1.0
  outer loop
    vertex 7.3500000000000005 3.199999999999997 -1.127986593019159e-14
    vertex 2.5000000000000013 8.799999999999997 1.4099832412739487e-15
    vertex 2.8105828541230267 8.840889008453114 1.4099832412739487e-15
  endloop
endfacet
facet normal 1.1557980489879424e-17 -3.596049299469257e-17 -1.0
  outer loop
    vertex 7.3500000000000005 3.199999999999997 -1.127986593019159e-14
    vertex 2.8105828541230267 8.840889008453114 1.4099832412739487e-15
    vertex 3.1000000000000014 8.96076951545867 1.4099832412739487e-15
  endloop
endfacet
facet normal 1.1557980489879424e-17 -3.596049299469257e-17 -1.0
  outer loop
    vertex 7.3500000000000005 3.199999999999997 -1.127986593019159e-14
    vertex 3.1000000000000014 8.96076951545867 1.4099832412739487e-15
    vertex 3.3485281374238585 9.151471862576141 1.4099832412739487e-15
  endloop
endfacet
facet normal 1.1557980489879424e-17 -3.596049299469257e-17 -1.0
  outer loop
    vertex 7.3500000000000005 3.199999999999997 -1.127986593019159e-14
    vertex 3.3485281374238585 9.151471862576141 1.4099832412739487e-15
    vertex 3.5392304845413274 9.399999999999997 1.4099832412739487e-15
  endloop
endfacet
facet normal 1.1557980489879424e-17 -3.596049299469257e-17 -1.0
  outer loop
    vertex 7.3500000000000005 3.199999999999997 -1.127986593019159e-14
    vertex 3.5392304845413274 9.399999999999997 1.4099832412739487e-15
    vertex 3.659110991546883 9.689417145876973 1.4099832412739487e-15
  endloop
endfacet
facet normal 1.1557980489879424e-17 -3.596049299469257e-17 -1.0
  outer loop
    vertex 7.3500000000000005 3.199999999999997 -1.127986593019159e-14
    vertex 3.659110991546883 9.689417145876973 1.4099832412739487e-15
    vertex 3.700000000000001 9.999999999999996 1.4099832412739487e-15
  endloop
endfacet
facet normal 1.1557980489879424e-17 -3.596049299469257e-17 -1.0
  outer loop
    vertex 7.3500000000000005 3.199999999999997 -1.127986593019159e-14
    vertex 3.700000000000001 9.999999999999996 1.4099832412739487e-15
    vertex 7.3500000000000005 15.999999999999998 -1.127986593019159e-14
  endloop
endfacet
facet normal 1.1557980489879424e-17 -3.596049299469257e-17 -1.0
  outer loop
    vertex 28.5 0.0 0.0
    vertex 7.3500000000000005 3.199999999999997 -1.127986593019159e-14
    vertex 19.15 3.199999999999997 -1.127986593019159e-14
  endloop
endfacet
facet normal 1.1557980489879424e-17 -3.596049299469257e-17 -1.0
  outer loop
    vertex 28.5 0.0 0.0
    vertex 19.15 3.199999999999997 -1.127986593019159e-14
    vertex 22.960769515458672 9.399999999999997 -1.4099832412739487e-15
  endloop
endfacet
facet normal 1.1557980489879424e-17 -3.596049299469257e-17 -1.0
  outer loop
    vertex 22.960769515458672 9.399999999999997 -1.4099832412739487e-15
    vertex 19.15 3.199999999999997 -1.127986593019159e-14
    vertex 19.150000000000002 15.999999999999998 -1.127986593019159e-14
  endloop
endfacet
facet normal 1.1557980489879424e-17 -3.596049299469257e-17 -1.0
  outer loop
    vertex 22.960769515458672 9.399999999999997 -1.4099832412739487e-15
    vertex 19.150000000000002 15.999999999999998 -1.127986593019159e-14
    vertex 22.840889008453118 9.689417145876972 -1.4099832412739487e-15
  endloop
endfacet
facet normal 1.1557980489879424e-17 -3.596049299469257e-17 -1.0
  outer loop
    vertex 22.840889008453118 9.689417145876972 -1.4099832412739487e-15
    vertex 19.150000000000002 15.999999999999998 -1.127986593019159e-14
    vertex 22.8 9.999999999999996 -1.4099832412739487e-15
  endloop
endfacet
facet normal 1.1557980489879424e-17 -3.596049299469257e-17 -1.0
  outer loop
    vertex 28.5 0.0 0.0
    vertex 22.960769515458672 9.399999999999997 -1.4099832412739487e-15
    vertex 23.151471862576145 9.15147186257614 -1.4099832412739487e-15
  endloop
endfacet
facet normal 1.1557980489879424e-17 -3.596049299469257e-17 -1.0
  outer loop
    vertex 28.5 0.0 0.0
    vertex 23.151471862576145 9.15147186257614 -1.4099832412739487e-15
    vertex 23.400000000000002 8.96076951545867 -1.4099832412739487e-15
  endloop
endfacet
facet normal 1.1557980489879424e-17 -3.596049299469257e-17 -1.0
  outer loop
    vertex 28.5 0.0 0.0
    vertex 23.400000000000002 8.96076951545867 -1.4099832412739487e-15
    vertex 23.689417145876977 8.840889008453114 -1.4099832412739487e-15
  endloop
endfacet
facet normal 1.1557980489879424e-17 -3.596049299469257e-17 -1.0
  outer loop
    vertex 28.5 0.0 0.0
    vertex 23.689417145876977 8.840889008453114 -1.4099832412739487e-15
    vertex 24.0 8.799999999999997 -1.4099832412739487e-15
  endloop
endfacet
facet normal 1.1557980489879424e-17 -3.596049299469257e-17 -1.0
  outer loop
    vertex 28.5 0.0 0.0
    vertex 24.0 8.799999999999997 -1.4099832412739487e-15
    vertex 24.310582854123027 8.840889008453114 -1.4099832412739487e-15
  endloop
endfacet
facet normal 1.1557980489879424e-17 -3.596049299469257e-17 -1.0
  outer loop
    vertex 28.5 0.0 0.0
    vertex 24.310582854123027 8.840889008453114 -1.4099832412739487e-15
    vertex 24.6 8.96076951545867 -1.4099832412739487e-15
  endloop
endfacet
facet normal 1.1557980489879424e-17 -3.596049299469257e-17 -1.0
  outer loop
    vertex 28.5 0.0 0.0
    vertex 24.6 8.96076951545867 -1.4099832412739487e-15
    vertex 24.84852813742386 9.151471862576141 -1.4099832412739487e-15
  endloop
endfacet
facet normal 1.1557980489879424e-17 -3.596049299469257e-17 -1.0
  outer loop
    vertex 28.5 0.0 0.0
    vertex 24.84852813742386 9.151471862576141 -1.4099832412739487e-15
    vertex 25.039230484541328 9.399999999999997 -1.4099832412739487e-15
  endloop
endfacet
facet normal 1.1557980489879424e-17 -3.596049299469257e-17 -1.0
  outer loop
    vertex 28.5 0.0 0.0
    vertex 25.039230484541328 9.399999999999997 -1.4099832412739487e-15
    vertex 25.159110991546882 9.689417145876973 -1.4099832412739487e-15
  endloop
endfacet
facet normal 1.1557980489879424e-17 -3.596049299469257e-17 -1.0
  outer loop
    vertex 28.5 0.0 0.0
    vertex 25.159110991546882 9.689417145876973 -1.4099832412739487e-15
    vertex 25.200000000000003 9.999999999999996 -1.4099832412739487e-15
  endloop
endfacet
facet normal 1.1557980489879424e-17 -3.596049299469257e-17 -1.0
  outer loop
    vertex 28.5 0.0 0.0
    vertex 25.200000000000003 9.999999999999996 -1.4099832412739487e-15
    vertex 28.5 17.999999999999996 0.0
  endloop
endfacet
facet normal -0.7071060926284723 -1.1155761690865096e-06 -0.7071074697430724
  outer loop
    vertex 18.39999551992373 17.998718690981 0.7500014933587497
    vertex 17.650000000000002 16.01537575 1.499999999999991
    vertex 17.64999103984746 17.997437381962 1.500002986717505
  endloop
endfacet
facet normal -0.7071060926284723 -1.1155761690865096e-06 -0.7071074697430724
  outer loop
    vertex 17.650000000000002 16.01537575 1.499999999999991
    vertex 18.39999551992373 17.998718690981 0.7500014933587497
    vertex 19.150000000000002 15.999999999999998 -1.127986593019159e-14
  endloop
endfacet
facet normal -0.7071060926284723 -1.1155761690865096e-06 -0.7071074697430724
  outer loop
    vertex 19.150000000000002 15.999999999999998 -1.127986593019159e-14
    vertex 18.39999551992373 17.998718690981 0.7500014933587497
    vertex 19.150000000000002 17.999999999999996 -5.639932965095795e-15
  endloop
endfacet
facet normal 0.707106781186548 1.0110275530931658e-15 -0.7071067811865471
  outer loop
    vertex 7.350000000000002 17.999999999999996 -6.848490029044895e-15
    vertex 8.850000000000001 16.01537575 1.4999999999999905
    vertex 7.3500000000000005 15.999999999999998 -1.127986593019159e-14
  endloop
endfacet
facet normal 0.707106781186548 1.0110275530931658e-15 -0.7071067811865471
  outer loop
    vertex 8.850000000000001 16.01537575 1.4999999999999905
    vertex 7.350000000000002 17.999999999999996 -6.848490029044895e-15
    vertex 8.850000000009585 18.00000146255447 1.5000000000095774
  endloop
endfacet
facet normal 6.265172319527668e-07 4.685191118502565e-06 -0.9999999999888283
  outer loop
    vertex 8.850000000009585 18.00000146255447 1.5000000000095774
    vertex 13.250001013599293 16.02050392510895 1.5000000000095772
    vertex 8.850000000000001 16.01537575 1.4999999999999905
  endloop
endfacet
facet normal 6.265172319527668e-07 4.685191118502565e-06 -0.9999999999888283
  outer loop
    vertex 13.250001013599293 16.02050392510895 1.5000000000095772
    vertex 8.850000000009585 18.00000146255447 1.5000000000095774
    vertex 13.250001013599293 18.00000292510894 1.5000000000095772
  endloop
endfacet
facet normal 3.400571907815896e-07 7.544126204788749e-07 -0.9999999999996576
  outer loop
    vertex 17.64999103984746 17.997437381962 1.500002986717505
    vertex 13.250001013599293 16.02050392510895 1.5000000000095772
    vertex 13.250001013599293 18.00000292510894 1.5000000000095772
  endloop
endfacet
facet normal 3.400571907815896e-07 7.544126204788749e-07 -0.9999999999996576
  outer loop
    vertex 13.250001013599293 16.02050392510895 1.5000000000095772
    vertex 17.64999103984746 17.997437381962 1.500002986717505
    vertex 17.650000000000002 16.01537575 1.499999999999991
  endloop
endfacet
facet normal 1.3861688094129325e-05 0.9999999982603149 -5.733431726590622e-05
  outer loop
    vertex -1.4999999999999996 17.999999999999996 0.0
    vertex 8.850000000009585 18.00000146255447 1.5000000000095774
    vertex 7.350000000000002 17.999999999999996 -6.848490029044895e-15
  endloop
endfacet
facet normal 1.3861688094129325e-05 0.9999999982603149 -5.733431726590622e-05
  outer loop
    vertex 8.850000000009585 18.00000146255447 1.5000000000095774
    vertex -1.4999999999999996 17.999999999999996 0.0
    vertex -1.4999999999999996 17.999999999999996 3.9999999999999996
  endloop
endfacet
facet normal 1.3861688094129325e-05 0.9999999982603149 -5.733431726590622e-05
  outer loop
    vertex 8.850000000009585 18.00000146255447 1.5000000000095774
    vertex -1.4999999999999996 17.999999999999996 3.9999999999999996
    vertex 17.64999103984746 17.997437381962 1.500002986717505
  endloop
endfacet
facet normal 1.3861688094129325e-05 0.9999999982603149 -5.733431726590622e-05
  outer loop
    vertex 17.64999103984746 17.997437381962 1.500002986717505
    vertex -1.4999999999999996 17.999999999999996 3.9999999999999996
    vertex 6.35 17.999999999999996 3.999999999999991
  endloop
endfacet
facet normal 1.3861688094129325e-05 0.9999999982603149 -5.733431726590622e-05
  outer loop
    vertex 18.39999551992373 17.998718690981 0.7500014933587497
    vertex 28.5 17.999999999999996 0.0
    vertex 19.150000000000002 17.999999999999996 -5.639932965095795e-15
  endloop
endfacet
facet normal 1.3861688094129325e-05 0.9999999982603149 -5.733431726590622e-05
  outer loop
    vertex 28.5 17.999999999999996 0.0
    vertex 18.39999551992373 17.998718690981 0.7500014933587497
    vertex 28.5 17.999999999999996 3.9999999999999956
  endloop
endfacet
facet normal 1.3861688094129325e-05 0.9999999982603149 -5.733431726590622e-05
  outer loop
    vertex 28.5 17.999999999999996 3.9999999999999956
    vertex 18.39999551992373 17.998718690981 0.7500014933587497
    vertex 17.64999103984746 17.997437381962 1.500002986717505
  endloop
endfacet
facet normal 1.3861688094129325e-05 0.9999999982603149 -5.733431726590622e-05
  outer loop
    vertex 28.5 17.999999999999996 3.9999999999999956
    vertex 17.64999103984746 17.997437381962 1.500002986717505
    vertex 20.150000000000002 17.999999999999996 3.999999999999991
  endloop
endfacet
facet normal 1.3861688094129325e-05 0.9999999982603149 -5.733431726590622e-05
  outer loop
    vertex 20.150000000000002 17.999999999999996 3.999999999999991
    vertex 17.64999103984746 17.997437381962 1.500002986717505
    vertex 6.35 17.999999999999996 3.999999999999991
  endloop
endfacet
facet normal 1.3861688094129325e-05 0.9999999982603149 -5.733431726590622e-05
  outer loop
    vertex 17.64999103984746 17.997437381962 1.500002986717505
    vertex 13.250001013599293 18.00000292510894 1.5000000000095772
    vertex 8.850000000009585 18.00000146255447 1.5000000000095774
  endloop
endfacet
facet normal 0.01024996151832251 -0.9999474677646186 -1.8968621422497808e-19
  outer loop
    vertex 7.3500000000000005 15.999999999999998 2.1999999999999997
    vertex 7.3500000000000005 15.999999999999998 -1.127986593019159e-14
    vertex 8.850000000000001 16.01537575 1.4999999999999905
  endloop
endfacet
facet normal -0.010249961518322512 -0.9999474677646186 0.0
  outer loop
    vertex 19.150000000000002 15.999999999999998 2.1999999999999997
    vertex 17.650000000000002 16.01537575 1.499999999999991
    vertex 19.150000000000002 15.999999999999998 -1.127986593019159e-14
  endloop
endfacet
facet normal 0.0 -0.9997588488017003 -0.021960060170663525
  outer loop
    vertex 7.3500000000000005 15.999999999999998 2.1999999999999997
    vertex 8.850000000000001 16.01537575 1.4999999999999905
    vertex 8.850000000000001 15.999999999999998 2.1999999999999997
  endloop
endfacet
facet normal -0.005124873624098946 -0.9999265643818943 -0.010981872051640463
  outer loop
    vertex 17.650000000000002 16.007687875 2.1999999999999997
    vertex 17.650000000000002 16.01537575 1.499999999999991
    vertex 19.150000000000002 15.999999999999998 2.1999999999999997
  endloop
endfacet
facet normal -0.005124873624098946 -0.9999265643818943 -0.010981872051640463
  outer loop
    vertex 17.650000000000002 16.007687875 2.1999999999999997
    vertex 17.650000000000002 16.01537575 1.499999999999991
    vertex 19.150000000000002 15.999999999999998 2.1999999999999997
  endloop
endfacet
facet normal 0.0005825557892740131 -0.9996715861787384 -0.02561992224105505
  outer loop
    vertex 13.250001013599293 16.02050392510895 1.5000000000095772
    vertex 8.850000000000001 15.999999999999998 2.1999999999999997
    vertex 8.850000000000001 16.01537575 1.4999999999999905
  endloop
endfacet
facet normal 0.0005825557892740131 -0.9996715861787384 -0.02561992224105505
  outer loop
    vertex 8.850000000000001 15.999999999999998 2.1999999999999997
    vertex 13.250001013599293 16.02050392510895 1.5000000000095772
    vertex 13.250000000000002 15.999999999999998 2.1999999999999997
  endloop
endfacet
facet normal 0.00029081621971532856 -0.9997972699798444 -0.020132917492915604
  outer loop
    vertex 17.650000000000002 16.007687875 2.1999999999999997
    vertex 13.250001013599293 16.02050392510895 1.5000000000095772
    vertex 17.650000000000002 16.01537575 1.499999999999991
  endloop
endfacet
facet normal 0.00029081621971532856 -0.9997972699798444 -0.020132917492915604
  outer loop
    vertex 13.250001013599293 16.02050392510895 1.5000000000095772
    vertex 17.650000000000002 16.007687875 2.1999999999999997
    vertex 13.250000000000002 15.999999999999998 2.1999999999999997
  endloop
endfacet
facet normal 0.0 0.0 1.0
  outer loop
    vertex 7.3500000000000005 15.999999999999998 3.1999999999999997
    vertex 6.35 16.499999999999996 3.1999999999999997
    vertex 6.35 15.999999999999998 3.1999999999999997
  endloop
endfacet
facet normal 0.0 0.0 1.0
  outer loop
    vertex 6.35 16.499999999999996 3.1999999999999997
    vertex 7.3500000000000005 15.999999999999998 3.1999999999999997
    vertex 19.650000000000002 16.499999999999996 3.1999999999999997
  endloop
endfacet
facet normal 0.0 0.0 1.0
  outer loop
    vertex 19.650000000000002 16.499999999999996 3.1999999999999997
    vertex 7.3500000000000005 15.999999999999998 3.1999999999999997
    vertex 8.850000000000001 15.999999999999998 3.1999999999999997
  endloop
endfacet
facet normal 0.0 0.0 1.0
  outer loop
    vertex 19.650000000000002 16.499999999999996 3.1999999999999997
    vertex 8.850000000000001 15.999999999999998 3.1999999999999997
    vertex 13.250000000000002 15.999999999999998 3.1999999999999997
  endloop
endfacet
facet normal 0.0 0.0 1.0
  outer loop
    vertex 19.650000000000002 16.499999999999996 3.1999999999999997
    vertex 13.250000000000002 15.999999999999998 3.1999999999999997
    vertex 17.650000000000002 16.007687875 3.1999999999999997
  endloop
endfacet
facet normal 0.0 0.0 1.0
  outer loop
    vertex 19.650000000000002 16.499999999999996 3.1999999999999997
    vertex 17.650000000000002 16.007687875 3.1999999999999997
    vertex 19.150000000000002 15.999999999999998 3.1999999999999997
  endloop
endfacet
facet normal 0.0 0.0 1.0
  outer loop
    vertex 19.650000000000002 16.499999999999996 3.1999999999999997
    vertex 19.150000000000002 15.999999999999998 3.1999999999999997
    vertex 20.15 15.999999999999998 3.1999999999999997
  endloop
endfacet
facet normal 0.0 0.0 1.0
  outer loop
    vertex 19.650000000000002 16.499999999999996 3.1999999999999997
    vertex 20.15 15.999999999999998 3.1999999999999997
    vertex 20.15 16.499999999999996 3.1999999999999997
  endloop
endfacet
facet normal -0.005125182685812655 -0.9999868661649698 -0.0
  outer loop
    vertex 19.150000000000002 15.999999999999998 3.1999999999999997
    vertex 17.650000000000002 16.007687875 2.1999999999999997
    vertex 19.150000000000002 15.999999999999998 2.1999999999999997
  endloop
endfacet
facet normal -0.005125182685812655 -0.9999868661649698 -0.0
  outer loop
    vertex 17.650000000000002 16.007687875 2.1999999999999997
    vertex 19.150000000000002 15.999999999999998 3.1999999999999997
    vertex 17.650000000000002 16.007687875 3.1999999999999997
  endloop
endfacet
facet normal 0.0 -1.0 0.0
  outer loop
    vertex 8.850000000000001 15.999999999999998 3.1999999999999997
    vertex 7.3500000000000005 15.999999999999998 2.1999999999999997
    vertex 8.850000000000001 15.999999999999998 2.1999999999999997
  endloop
endfacet
facet normal 0.0 -1.0 0.0
  outer loop
    vertex 7.3500000000000005 15.999999999999998 2.1999999999999997
    vertex 8.850000000000001 15.999999999999998 3.1999999999999997
    vertex 7.3500000000000005 15.999999999999998 3.1999999999999997
  endloop
endfacet
facet normal 0.0 -1.0 0.0
  outer loop
    vertex 13.250000000000002 15.999999999999998 3.1999999999999997
    vertex 8.850000000000001 15.999999999999998 2.1999999999999997
    vertex 13.250000000000002 15.999999999999998 2.1999999999999997
  endloop
endfacet
facet normal 0.0 -1.0 0.0
  outer loop
    vertex 8.850000000000001 15.999999999999998 2.1999999999999997
    vertex 13.250000000000002 15.999999999999998 3.1999999999999997
    vertex 8.850000000000001 15.999999999999998 3.1999999999999997
  endloop
endfacet
facet normal 0.001747241651139634 -0.9999984735721412 0.0
  outer loop
    vertex 17.650000000000002 16.007687875 3.1999999999999997
    vertex 13.250000000000002 15.999999999999998 2.1999999999999997
    vertex 17.650000000000002 16.007687875 2.1999999999999997
  endloop
endfacet
facet normal 0.001747241651139634 -0.9999984735721412 0.0
  outer loop
    vertex 13.250000000000002 15.999999999999998 2.1999999999999997
    vertex 17.650000000000002 16.007687875 3.1999999999999997
    vertex 13.250000000000002 15.999999999999998 3.1999999999999997
  endloop
endfacet
facet normal 1.0 -0.0 -0.0
  outer loop
    vertex 6.35 2.699999999999997 1.2
    vertex 6.35 16.499999999999996 3.999999999999991
    vertex 6.35 2.6999999999999966 3.9999999999999996
  endloop
endfacet
facet normal 1.0 -0.0 -0.0
  outer loop
    vertex 6.35 16.499999999999996 3.999999999999991
    vertex 6.35 2.699999999999997 1.2
    vertex 6.35 3.199999999999997 1.2
  endloop
endfacet
facet normal 1.0 -0.0 -0.0
  outer loop
    vertex 6.35 16.499999999999996 3.999999999999991
    vertex 6.35 3.199999999999997 1.2
    vertex 6.35 15.999999999999998 3.1999999999999997
  endloop
endfacet
facet normal 1.0 -0.0 -0.0
  outer loop
    vertex 6.35 16.499999999999996 3.999999999999991
    vertex 6.35 15.999999999999998 3.1999999999999997
    vertex 6.35 16.499999999999996 3.1999999999999997
  endloop
endfacet
facet normal -0.0 -0.15437688027360957 0.9880120337511015
  outer loop
    vertex 7.3500000000000005 3.199999999999997 1.2
    vertex 6.35 15.999999999999998 3.1999999999999997
    vertex 6.35 3.199999999999997 1.2
  endloop
endfacet
facet normal -0.0 -0.15437688027360957 0.9880120337511015
  outer loop
    vertex 6.35 15.999999999999998 3.1999999999999997
    vertex 7.3500000000000005 3.199999999999997 1.2
    vertex 7.3500000000000005 15.999999999999998 3.1999999999999997
  endloop
endfacet
facet normal 1.0 -0.0 -0.0
  outer loop
    vertex 7.3500000000000005 15.999999999999998 -1.127986593019159e-14
    vertex 7.3500000000000005 3.199999999999997 1.2
    vertex 7.3500000000000005 3.199999999999997 -1.127986593019159e-14
  endloop
endfacet
facet normal 1.0 -0.0 -0.0
  outer loop
    vertex 7.3500000000000005 3.199999999999997 1.2
    vertex 7.3500000000000005 15.999999999999998 -1.127986593019159e-14
    vertex 7.3500000000000005 15.999999999999998 3.1999999999999997
  endloop
endfacet
facet normal 1.0 -0.0 -0.0
  outer loop
    vertex 7.3500000000000005 15.999999999999998 3.1999999999999997
    vertex 7.3500000000000005 15.999999999999998 -1.127986593019159e-14
    vertex 7.3500000000000005 15.999999999999998 2.1999999999999997
  endloop
endfacet
facet normal -1.5549715901979012e-16 -0.15437688027360957 0.9880120337511015
  outer loop
    vertex 20.150000000000002 3.199999999999997 1.2
    vertex 19.150000000000002 15.999999999999998 3.1999999999999997
    vertex 19.15 3.199999999999997 1.2
  endloop
endfacet
facet normal -1.5549715901979012e-16 -0.15437688027360957 0.9880120337511015
  outer loop
    vertex 19.150000000000002 15.999999999999998 3.1999999999999997
    vertex 20.150000000000002 3.199999999999997 1.2
    vertex 20.15 15.999999999999998 3.1999999999999997
  endloop
endfacet
facet normal -1.0 -2.0783945105535307e-16 -1.3389851805697761e-17
  outer loop
    vertex 20.15 16.499999999999996 3.999999999999991
    vertex 20.150000000000002 2.699999999999997 1.2
    vertex 20.150000000000002 2.6999999999999966 3.9999999999999996
  endloop
endfacet
facet normal -1.0 -2.0783945105535307e-16 -1.3389851805697761e-17
  outer loop
    vertex 20.150000000000002 2.699999999999997 1.2
    vertex 20.15 16.499999999999996 3.999999999999991
    vertex 20.150000000000002 3.199999999999997 1.2
  endloop
endfacet
facet normal -1.0 -2.0783945105535307e-16 -1.3389851805697761e-17
  outer loop
    vertex 20.150000000000002 3.199999999999997 1.2
    vertex 20.15 16.499999999999996 3.999999999999991
    vertex 20.15 15.999999999999998 3.1999999999999997
  endloop
endfacet
facet normal -1.0 -2.0783945105535307e-16 -1.3389851805697761e-17
  outer loop
    vertex 20.15 15.999999999999998 3.1999999999999997
    vertex 20.15 16.499999999999996 3.999999999999991
    vertex 20.15 16.499999999999996 3.1999999999999997
  endloop
endfacet
facet normal -1.0 2.2030988144905448e-16 -1.3412217363692508e-31
  outer loop
    vertex 19.150000000000002 15.999999999999998 3.1999999999999997
    vertex 19.15 3.199999999999997 -1.127986593019159e-14
    vertex 19.15 3.199999999999997 1.2
  endloop
endfacet
facet normal -1.0 2.2030988144905448e-16 -1.3412217363692508e-31
  outer loop
    vertex 19.15 3.199999999999997 -1.127986593019159e-14
    vertex 19.150000000000002 15.999999999999998 3.1999999999999997
    vertex 19.150000000000002 15.999999999999998 -1.127986593019159e-14
  endloop
endfacet
facet normal -1.0 2.2030988144905448e-16 -1.3412217363692508e-31
  outer loop
    vertex 19.150000000000002 15.999999999999998 -1.127986593019159e-14
    vertex 19.150000000000002 15.999999999999998 3.1999999999999997
    vertex 19.150000000000002 15.999999999999998 2.1999999999999997
  endloop
endfacet
facet normal 5.1836531009053385e-17 3.7671485245201337e-16 1.0
  outer loop
    vertex 20.150000000000002 17.999999999999996 3.999999999999991
    vertex 20.15 16.499999999999996 3.999999999999991
    vertex 20.150000000000002 2.6999999999999966 3.9999999999999996
  endloop
endfacet
facet normal 5.1836531009053385e-17 3.7671485245201337e-16 1.0
  outer loop
    vertex -1.4999999999999996 17.999999999999996 3.9999999999999996
    vertex 1.4607695154586746 10.599999999999996 3.9999999999999996
    vertex 6.35 17.999999999999996 3.999999999999991
  endloop
endfacet
facet normal 5.1836531009053385e-17 3.7671485245201337e-16 1.0
  outer loop
    vertex 1.4607695154586746 10.599999999999996 3.9999999999999996
    vertex -1.4999999999999996 17.999999999999996 3.9999999999999996
    vertex 1.340889008453119 10.310582854123021 3.9999999999999996
  endloop
endfacet
facet normal 5.1836531009053385e-17 3.7671485245201337e-16 1.0
  outer loop
    vertex 1.340889008453119 10.310582854123021 3.9999999999999996
    vertex -1.4999999999999996 17.999999999999996 3.9999999999999996
    vertex 1.3000000000000012 9.999999999999996 3.9999999999999996
  endloop
endfacet
facet normal 5.1836531009053385e-17 3.7671485245201337e-16 1.0
  outer loop
    vertex 6.35 17.999999999999996 3.999999999999991
    vertex 1.4607695154586746 10.599999999999996 3.9999999999999996
    vertex 1.6514718625761442 10.848528137423852 3.9999999999999996
  endloop
endfacet
facet normal 5.1836531009053385e-17 3.7671485245201337e-16 1.0
  outer loop
    vertex 6.35 17.999999999999996 3.999999999999991
    vertex 1.6514718625761442 10.848528137423852 3.9999999999999996
    vertex 1.9000000000000008 11.039230484541322 3.9999999999999996
  endloop
endfacet
facet normal 5.1836531009053385e-17 3.7671485245201337e-16 1.0
  outer loop
    vertex 6.35 17.999999999999996 3.999999999999991
    vertex 1.9000000000000008 11.039230484541322 3.9999999999999996
    vertex 2.189417145876976 11.159110991546878 3.9999999999999996
  endloop
endfacet
facet normal 5.1836531009053385e-17 3.7671485245201337e-16 1.0
  outer loop
    vertex 6.35 17.999999999999996 3.999999999999991
    vertex 2.189417145876976 11.159110991546878 3.9999999999999996
    vertex 2.500000000000001 11.199999999999996 3.9999999999999996
  endloop
endfacet
facet normal 5.1836531009053385e-17 3.7671485245201337e-16 1.0
  outer loop
    vertex 6.35 17.999999999999996 3.999999999999991
    vertex 2.500000000000001 11.199999999999996 3.9999999999999996
    vertex 2.8105828541230258 11.159110991546878 3.9999999999999996
  endloop
endfacet
facet normal 5.1836531009053385e-17 3.7671485245201337e-16 1.0
  outer loop
    vertex 6.35 17.999999999999996 3.999999999999991
    vertex 2.8105828541230258 11.159110991546878 3.9999999999999996
    vertex 3.1000000000000005 11.039230484541322 3.9999999999999996
  endloop
endfacet
facet normal 5.1836531009053385e-17 3.7671485245201337e-16 1.0
  outer loop
    vertex 6.35 17.999999999999996 3.999999999999991
    vertex 3.1000000000000005 11.039230484541322 3.9999999999999996
    vertex 3.3485281374238576 10.848528137423852 3.9999999999999996
  endloop
endfacet
facet normal 5.1836531009053385e-17 3.7671485245201337e-16 1.0
  outer loop
    vertex 6.35 17.999999999999996 3.999999999999991
    vertex 3.3485281374238576 10.848528137423852 3.9999999999999996
    vertex 3.5392304845413274 10.599999999999996 3.9999999999999996
  endloop
endfacet
facet normal 5.1836531009053385e-17 3.7671485245201337e-16 1.0
  outer loop
    vertex 6.35 17.999999999999996 3.999999999999991
    vertex 3.5392304845413274 10.599999999999996 3.9999999999999996
    vertex 3.659110991546883 10.310582854123021 3.9999999999999996
  endloop
endfacet
facet normal 5.1836531009053385e-17 3.7671485245201337e-16 1.0
  outer loop
    vertex 6.35 17.999999999999996 3.999999999999991
    vertex 3.659110991546883 10.310582854123021 3.9999999999999996
    vertex 3.700000000000001 9.999999999999996 3.9999999999999996
  endloop
endfacet
facet normal 5.1836531009053385e-17 3.7671485245201337e-16 1.0
  outer loop
    vertex 6.35 17.999999999999996 3.999999999999991
    vertex 3.700000000000001 9.999999999999996 3.9999999999999996
    vertex 6.35 2.6999999999999966 3.9999999999999996
  endloop
endfacet
facet normal 5.1836531009053385e-17 3.7671485245201337e-16 1.0
  outer loop
    vertex 6.35 17.999999999999996 3.999999999999991
    vertex 6.35 2.6999999999999966 3.9999999999999996
    vertex 6.35 16.499999999999996 3.999999999999991
  endloop
endfacet
facet normal 5.1836531009053385e-17 3.7671485245201337e-16 1.0
  outer loop
    vertex -1.4999999999999996 -6.499585308427316e-16 3.9999999999999996
    vertex 1.3408890084531195 9.68941714587697 3.9999999999999996
    vertex -1.4999999999999996 17.999999999999996 3.9999999999999996
  endloop
endfacet
facet normal 5.1836531009053385e-17 3.7671485245201337e-16 1.0
  outer loop
    vertex 1.3408890084531195 9.68941714587697 3.9999999999999996
    vertex -1.4999999999999996 -6.499585308427316e-16 3.9999999999999996
    vertex 1.460769515458675 9.399999999999995 3.9999999999999996
  endloop
endfacet
facet normal 5.1836531009053385e-17 3.7671485245201337e-16 1.0
  outer loop
    vertex 1.460769515458675 9.399999999999995 3.9999999999999996
    vertex -1.4999999999999996 -6.499585308427316e-16 3.9999999999999996
    vertex 6.35 2.6999999999999966 3.9999999999999996
  endloop
endfacet
facet normal 5.1836531009053385e-17 3.7671485245201337e-16 1.0
  outer loop
    vertex 6.35 2.6999999999999966 3.9999999999999996
    vertex -1.4999999999999996 -6.499585308427316e-16 3.9999999999999996
    vertex 28.5 -6.499585308427316e-16 3.9999999999999996
  endloop
endfacet
facet normal 5.1836531009053385e-17 3.7671485245201337e-16 1.0
  outer loop
    vertex -1.4999999999999996 17.999999999999996 3.9999999999999996
    vertex 1.3408890084531195 9.68941714587697 3.9999999999999996
    vertex 1.3000000000000012 9.999999999999996 3.9999999999999996
  endloop
endfacet
facet normal 5.1836531009053385e-17 3.7671485245201337e-16 1.0
  outer loop
    vertex 1.460769515458675 9.399999999999995 3.9999999999999996
    vertex 6.35 2.6999999999999966 3.9999999999999996
    vertex 1.6514718625761444 9.15147186257614 3.9999999999999996
  endloop
endfacet
facet normal 5.1836531009053385e-17 3.7671485245201337e-16 1.0
  outer loop
    vertex 1.6514718625761444 9.15147186257614 3.9999999999999996
    vertex 6.35 2.6999999999999966 3.9999999999999996
    vertex 1.900000000000002 8.96076951545867 3.9999999999999996
  endloop
endfacet
facet normal 5.1836531009053385e-17 3.7671485245201337e-16 1.0
  outer loop
    vertex 1.900000000000002 8.96076951545867 3.9999999999999996
    vertex 6.35 2.6999999999999966 3.9999999999999996
    vertex 2.189417145876977 8.840889008453114 3.9999999999999996
  endloop
endfacet
facet normal 5.1836531009053385e-17 3.7671485245201337e-16 1.0
  outer loop
    vertex 2.189417145876977 8.840889008453114 3.9999999999999996
    vertex 6.35 2.6999999999999966 3.9999999999999996
    vertex 2.5000000000000013 8.799999999999997 3.9999999999999996
  endloop
endfacet
facet normal 5.1836531009053385e-17 3.7671485245201337e-16 1.0
  outer loop
    vertex 2.5000000000000013 8.799999999999997 3.9999999999999996
    vertex 6.35 2.6999999999999966 3.9999999999999996
    vertex 2.8105828541230267 8.840889008453114 3.9999999999999996
  endloop
endfacet
facet normal 5.1836531009053385e-17 3.7671485245201337e-16 1.0
  outer loop
    vertex 2.8105828541230267 8.840889008453114 3.9999999999999996
    vertex 6.35 2.6999999999999966 3.9999999999999996
    vertex 3.1000000000000014 8.96076951545867 3.9999999999999996
  endloop
endfacet
facet normal 5.1836531009053385e-17 3.7671485245201337e-16 1.0
  outer loop
    vertex 3.1000000000000014 8.96076951545867 3.9999999999999996
    vertex 6.35 2.6999999999999966 3.9999999999999996
    vertex 3.3485281374238585 9.15147186257614 3.9999999999999996
  endloop
endfacet
facet normal 5.1836531009053385e-17 3.7671485245201337e-16 1.0
  outer loop
    vertex 3.3485281374238585 9.15147186257614 3.9999999999999996
    vertex 6.35 2.6999999999999966 3.9999999999999996
    vertex 3.5392304845413274 9.399999999999995 3.9999999999999996
  endloop
endfacet
facet normal 5.1836531009053385e-17 3.7671485245201337e-16 1.0
  outer loop
    vertex 3.5392304845413274 9.399999999999995 3.9999999999999996
    vertex 6.35 2.6999999999999966 3.9999999999999996
    vertex 3.659110991546883 9.689417145876972 3.9999999999999996
  endloop
endfacet
facet normal 5.1836531009053385e-17 3.7671485245201337e-16 1.0
  outer loop
    vertex 3.659110991546883 9.689417145876972 3.9999999999999996
    vertex 6.35 2.6999999999999966 3.9999999999999996
    vertex 3.700000000000001 9.999999999999996 3.9999999999999996
  endloop
endfacet
facet normal 5.1836531009053385e-17 3.7671485245201337e-16 1.0
  outer loop
    vertex 6.35 2.6999999999999966 3.9999999999999996
    vertex 28.5 -6.499585308427316e-16 3.9999999999999996
    vertex 20.150000000000002 2.6999999999999966 3.9999999999999996
  endloop
endfacet
facet normal 5.1836531009053385e-17 3.7671485245201337e-16 1.0
  outer loop
    vertex 20.150000000000002 2.6999999999999966 3.9999999999999996
    vertex 28.5 -6.499585308427316e-16 3.9999999999999996
    vertex 22.960769515458672 9.399999999999995 3.999999999999998
  endloop
endfacet
facet normal 5.1836531009053385e-17 3.7671485245201337e-16 1.0
  outer loop
    vertex 20.150000000000002 2.6999999999999966 3.9999999999999996
    vertex 22.960769515458672 9.399999999999995 3.999999999999998
    vertex 22.840889008453118 9.68941714587697 3.999999999999998
  endloop
endfacet
facet normal 5.1836531009053385e-17 3.7671485245201337e-16 1.0
  outer loop
    vertex 20.150000000000002 2.6999999999999966 3.9999999999999996
    vertex 22.840889008453118 9.68941714587697 3.999999999999998
    vertex 20.150000000000002 17.999999999999996 3.999999999999991
  endloop
endfacet
facet normal 5.1836531009053385e-17 3.7671485245201337e-16 1.0
  outer loop
    vertex 20.150000000000002 17.999999999999996 3.999999999999991
    vertex 22.840889008453118 9.68941714587697 3.999999999999998
    vertex 22.8 9.999999999999996 3.999999999999998
  endloop
endfacet
facet normal 5.1836531009053385e-17 3.7671485245201337e-16 1.0
  outer loop
    vertex 22.960769515458672 9.399999999999995 3.999999999999998
    vertex 28.5 -6.499585308427316e-16 3.9999999999999996
    vertex 23.151471862576145 9.151471862576138 3.999999999999998
  endloop
endfacet
facet normal 5.1836531009053385e-17 3.7671485245201337e-16 1.0
  outer loop
    vertex 23.151471862576145 9.151471862576138 3.999999999999998
    vertex 28.5 -6.499585308427316e-16 3.9999999999999996
    vertex 23.400000000000002 8.960769515458669 3.999999999999998
  endloop
endfacet
facet normal 5.1836531009053385e-17 3.7671485245201337e-16 1.0
  outer loop
    vertex 23.400000000000002 8.960769515458669 3.999999999999998
    vertex 28.5 -6.499585308427316e-16 3.9999999999999996
    vertex 23.689417145876977 8.840889008453113 3.999999999999998
  endloop
endfacet
facet normal 5.1836531009053385e-17 3.7671485245201337e-16 1.0
  outer loop
    vertex 23.689417145876977 8.840889008453113 3.999999999999998
    vertex 28.5 -6.499585308427316e-16 3.9999999999999996
    vertex 24.0 8.799999999999995 3.999999999999998
  endloop
endfacet
facet normal 5.1836531009053385e-17 3.7671485245201337e-16 1.0
  outer loop
    vertex 24.0 8.799999999999995 3.999999999999998
    vertex 28.5 -6.499585308427316e-16 3.9999999999999996
    vertex 24.310582854123027 8.840889008453114 3.999999999999998
  endloop
endfacet
facet normal 5.1836531009053385e-17 3.7671485245201337e-16 1.0
  outer loop
    vertex 24.310582854123027 8.840889008453114 3.999999999999998
    vertex 28.5 -6.499585308427316e-16 3.9999999999999996
    vertex 24.6 8.96076951545867 3.999999999999998
  endloop
endfacet
facet normal 5.1836531009053385e-17 3.7671485245201337e-16 1.0
  outer loop
    vertex 24.6 8.96076951545867 3.999999999999998
    vertex 28.5 -6.499585308427316e-16 3.9999999999999996
    vertex 24.84852813742386 9.15147186257614 3.999999999999998
  endloop
endfacet
facet normal 5.1836531009053385e-17 3.7671485245201337e-16 1.0
  outer loop
    vertex 24.84852813742386 9.15147186257614 3.999999999999998
    vertex 28.5 -6.499585308427316e-16 3.9999999999999996
    vertex 25.039230484541328 9.399999999999995 3.999999999999998
  endloop
endfacet
facet normal 5.1836531009053385e-17 3.7671485245201337e-16 1.0
  outer loop
    vertex 25.039230484541328 9.399999999999995 3.999999999999998
    vertex 28.5 -6.499585308427316e-16 3.9999999999999996
    vertex 25.159110991546882 9.689417145876972 3.999999999999998
  endloop
endfacet
facet normal 5.1836531009053385e-17 3.7671485245201337e-16 1.0
  outer loop
    vertex 25.159110991546882 9.689417145876972 3.999999999999998
    vertex 28.5 -6.499585308427316e-16 3.9999999999999996
    vertex 25.200000000000003 9.999999999999996 3.999999999999998
  endloop
endfacet
facet normal 5.1836531009053385e-17 3.7671485245201337e-16 1.0
  outer loop
    vertex 20.150000000000002 17.999999999999996 3.999999999999991
    vertex 22.960769515458672 10.599999999999996 3.999999999999998
    vertex 28.5 17.999999999999996 3.9999999999999956
  endloop
endfacet
facet normal 5.1836531009053385e-17 3.7671485245201337e-16 1.0
  outer loop
    vertex 22.960769515458672 10.599999999999996 3.999999999999998
    vertex 20.150000000000002 17.999999999999996 3.999999999999991
    vertex 22.840889008453118 10.310582854123021 3.999999999999998
  endloop
endfacet
facet normal 5.1836531009053385e-17 3.7671485245201337e-16 1.0
  outer loop
    vertex 22.840889008453118 10.310582854123021 3.999999999999998
    vertex 20.150000000000002 17.999999999999996 3.999999999999991
    vertex 22.8 9.999999999999996 3.999999999999998
  endloop
endfacet
facet normal 5.1836531009053385e-17 3.7671485245201337e-16 1.0
  outer loop
    vertex 28.5 17.999999999999996 3.9999999999999956
    vertex 22.960769515458672 10.599999999999996 3.999999999999998
    vertex 23.151471862576145 10.848528137423854 3.999999999999998
  endloop
endfacet
facet normal 5.1836531009053385e-17 3.7671485245201337e-16 1.0
  outer loop
    vertex 28.5 17.999999999999996 3.9999999999999956
    vertex 23.151471862576145 10.848528137423854 3.999999999999998
    vertex 23.4 11.039230484541322 3.999999999999998
  endloop
endfacet
facet normal 5.1836531009053385e-17 3.7671485245201337e-16 1.0
  outer loop
    vertex 28.5 17.999999999999996 3.9999999999999956
    vertex 23.4 11.039230484541322 3.999999999999998
    vertex 23.689417145876977 11.159110991546878 3.999999999999998
  endloop
endfacet
facet normal 5.1836531009053385e-17 3.7671485245201337e-16 1.0
  outer loop
    vertex 28.5 17.999999999999996 3.9999999999999956
    vertex 23.689417145876977 11.159110991546878 3.999999999999998
    vertex 24.0 11.199999999999996 3.999999999999998
  endloop
endfacet
facet normal 5.1836531009053385e-17 3.7671485245201337e-16 1.0
  outer loop
    vertex 28.5 17.999999999999996 3.9999999999999956
    vertex 24.0 11.199999999999996 3.999999999999998
    vertex 24.310582854123027 11.159110991546878 3.999999999999998
  endloop
endfacet
facet normal 5.1836531009053385e-17 3.7671485245201337e-16 1.0
  outer loop
    vertex 28.5 17.999999999999996 3.9999999999999956
    vertex 24.310582854123027 11.159110991546878 3.999999999999998
    vertex 24.6 11.039230484541322 3.999999999999998
  endloop
endfacet
facet normal 5.1836531009053385e-17 3.7671485245201337e-16 1.0
  outer loop
    vertex 28.5 17.999999999999996 3.9999999999999956
    vertex 24.6 11.039230484541322 3.999999999999998
    vertex 24.84852813742386 10.848528137423854 3.999999999999998
  endloop
endfacet
facet normal 5.1836531009053385e-17 3.7671485245201337e-16 1.0
  outer loop
    vertex 28.5 17.999999999999996 3.9999999999999956
    vertex 24.84852813742386 10.848528137423854 3.999999999999998
    vertex 25.039230484541328 10.599999999999996 3.999999999999998
  endloop
endfacet
facet normal 5.1836531009053385e-17 3.7671485245201337e-16 1.0
  outer loop
    vertex 28.5 17.999999999999996 3.9999999999999956
    vertex 25.039230484541328 10.599999999999996 3.999999999999998
    vertex 25.159110991546882 10.310582854123021 3.999999999999998
  endloop
endfacet
facet normal 5.1836531009053385e-17 3.7671485245201337e-16 1.0
  outer loop
    vertex 28.5 17.999999999999996 3.9999999999999956
    vertex 25.159110991546882 10.310582854123021 3.999999999999998
    vertex 25.200000000000003 9.999999999999996 3.999999999999998
  endloop
endfacet
facet normal 5.1836531009053385e-17 3.7671485245201337e-16 1.0
  outer loop
    vertex 28.5 17.999999999999996 3.9999999999999956
    vertex 25.200000000000003 9.999999999999996 3.999999999999998
    vertex 28.5 -6.499585308427316e-16 3.9999999999999996
  endloop
endfacet
endsolid OuterGratingMountA_2_0
