solid tool1
facet normal 0.9914448613738105 -0.13052619222005077 -4.565048327021849e-17
  outer loop
    vertex 22.000000000000004 9.999999999999993 -1.4099832412739483e-15
    vertex 22.068148347421864 10.517638090205038 3.999999999999998
    vertex 22.000000000000004 9.999999999999991 3.999999999999998
  endloop
endfacet
facet normal 0.9914448613738105 -0.13052619222005077 -4.565048327021849e-17
  outer loop
    vertex 22.068148347421864 10.517638090205038 3.999999999999998
    vertex 22.000000000000004 9.999999999999993 -1.4099832412739483e-15
    vertex 22.068148347421864 10.517638090205038 -1.463551817030738e-15
  endloop
endfacet
facet normal 0.9914448613738105 0.13052619222005213 4.622111431109671e-17
  outer loop
    vertex 22.068148347421864 9.482361909794953 -1.3564146655171591e-15
    vertex 22.000000000000004 9.999999999999991 3.999999999999998
    vertex 22.068148347421864 9.482361909794951 3.999999999999998
  endloop
endfacet
facet normal 0.9914448613738105 0.13052619222005213 4.622111431109671e-17
  outer loop
    vertex 22.000000000000004 9.999999999999991 3.999999999999998
    vertex 22.068148347421864 9.482361909794953 -1.3564146655171591e-15
    vertex 22.000000000000004 9.999999999999993 -1.4099832412739483e-15
  endloop
endfacet
facet normal 0.9238795325112862 0.3826834323650912 1.3551345037699177e-16
  outer loop
    vertex 22.267949192431125 8.999999999999995 -1.306496699671938e-15
    vertex 22.068148347421864 9.482361909794951 3.999999999999998
    vertex 22.267949192431125 8.999999999999993 3.999999999999998
  endloop
endfacet
facet normal 0.9238795325112862 0.3826834323650912 1.3551345037699177e-16
  outer loop
    vertex 22.068148347421864 9.482361909794951 3.999999999999998
    vertex 22.267949192431125 8.999999999999995 -1.306496699671938e-15
    vertex 22.068148347421864 9.482361909794953 -1.3564146655171591e-15
  endloop
endfacet
facet normal 0.7933533402912342 0.6087614290087219 3.2202546936169675e-16
  outer loop
    vertex 22.585786437626908 8.5857864376269 -1.2636311706172978e-15
    vertex 22.267949192431125 8.999999999999993 3.999999999999998
    vertex 22.585786437626908 8.585786437626899 3.999999999999998
  endloop
endfacet
facet normal 0.7933533402912342 0.6087614290087219 3.2202546936169675e-16
  outer loop
    vertex 22.267949192431125 8.999999999999993 3.999999999999998
    vertex 22.585786437626908 8.5857864376269 -1.2636311706172978e-15
    vertex 22.267949192431125 8.999999999999995 -1.306496699671938e-15
  endloop
endfacet
facet normal 0.6087614290087197 0.7933533402912362 5.626815851031394e-16
  outer loop
    vertex 22.585786437626908 8.585786437626899 3.999999999999998
    vertex 23.000000000000004 8.26794919243112 -1.230739293319676e-15
    vertex 22.585786437626908 8.5857864376269 -1.2636311706172978e-15
  endloop
endfacet
facet normal 0.6087614290087197 0.7933533402912362 5.626815851031394e-16
  outer loop
    vertex 23.000000000000004 8.26794919243112 -1.230739293319676e-15
    vertex 22.585786437626908 8.585786437626899 3.999999999999998
    vertex 23.000000000000004 8.267949192431118 3.999999999999998
  endloop
endfacet
facet normal 0.3826834323650902 0.9238795325112867 4.907376146761587e-16
  outer loop
    vertex 23.000000000000004 8.267949192431118 3.999999999999998
    vertex 23.48236190979496 8.068148347421861 -1.2100625948605086e-15
    vertex 23.000000000000004 8.26794919243112 -1.230739293319676e-15
  endloop
endfacet
facet normal 0.3826834323650902 0.9238795325112867 4.907376146761587e-16
  outer loop
    vertex 23.48236190979496 8.068148347421861 -1.2100625948605086e-15
    vertex 23.000000000000004 8.267949192431118 3.999999999999998
    vertex 23.48236190979496 8.06814834742186 3.999999999999998
  endloop
endfacet
facet normal 0.1305261922200495 0.9914448613738107 3.494588292199024e-16
  outer loop
    vertex 23.48236190979496 8.06814834742186 3.999999999999998
    vertex 24.0 7.999999999999998 -1.2030101580699277e-15
    vertex 23.48236190979496 8.068148347421861 -1.2100625948605086e-15
  endloop
endfacet
facet normal 0.1305261922200495 0.9914448613738107 3.494588292199024e-16
  outer loop
    vertex 24.0 7.999999999999998 -1.2030101580699277e-15
    vertex 23.48236190979496 8.06814834742186 3.999999999999998
    vertex 24.0 7.9999999999999964 3.999999999999998
  endloop
endfacet
facet normal -0.13052619222005213 0.9914448613738105 3.5002946026078005e-16
  outer loop
    vertex 24.0 7.999999999999998 -1.2030101580699277e-15
    vertex 24.51763809020504 8.068148347421861 3.999999999999998
    vertex 24.51763809020504 8.068148347421861 -1.2100625948605086e-15
  endloop
endfacet
facet normal -0.13052619222005213 0.9914448613738105 3.5002946026078005e-16
  outer loop
    vertex 24.51763809020504 8.068148347421861 3.999999999999998
    vertex 24.0 7.999999999999998 -1.2030101580699277e-15
    vertex 24.0 7.9999999999999964 3.999999999999998
  endloop
endfacet
facet normal -0.38268343236508784 0.9238795325112875 4.88718118319467e-16
  outer loop
    vertex 24.51763809020504 8.068148347421861 -1.2100625948605086e-15
    vertex 25.0 8.267949192431118 3.999999999999998
    vertex 25.0 8.26794919243112 -1.230739293319676e-15
  endloop
endfacet
facet normal -0.38268343236508784 0.9238795325112875 4.88718118319467e-16
  outer loop
    vertex 25.0 8.267949192431118 3.999999999999998
    vertex 24.51763809020504 8.068148347421861 -1.2100625948605086e-15
    vertex 24.51763809020504 8.068148347421861 3.999999999999998
  endloop
endfacet
facet normal -0.6087614290087204 0.7933533402912354 4.2394711820288734e-16
  outer loop
    vertex 25.0 8.26794919243112 -1.230739293319676e-15
    vertex 25.414213562373096 8.5857864376269 3.999999999999998
    vertex 25.414213562373096 8.5857864376269 -1.2636311706172978e-15
  endloop
endfacet
facet normal -0.6087614290087204 0.7933533402912354 4.2394711820288734e-16
  outer loop
    vertex 25.414213562373096 8.5857864376269 3.999999999999998
    vertex 25.0 8.26794919243112 -1.230739293319676e-15
    vertex 25.0 8.267949192431118 3.999999999999998
  endloop
endfacet
facet normal -0.7933533402912321 0.6087614290087248 2.155707687462608e-16
  outer loop
    vertex 25.73205080756888 8.999999999999995 3.999999999999998
    vertex 25.414213562373096 8.5857864376269 -1.2636311706172978e-15
    vertex 25.414213562373096 8.5857864376269 3.999999999999998
  endloop
endfacet
facet normal -0.7933533402912321 0.6087614290087248 2.155707687462608e-16
  outer loop
    vertex 25.414213562373096 8.5857864376269 -1.2636311706172978e-15
    vertex 25.73205080756888 8.999999999999995 3.999999999999998
    vertex 25.73205080756888 8.999999999999996 -1.306496699671938e-15
  endloop
endfacet
facet normal -0.9238795325112862 0.3826834323650912 1.3551345037699177e-16
  outer loop
    vertex 25.93185165257814 9.482361909794953 3.999999999999998
    vertex 25.73205080756888 8.999999999999996 -1.306496699671938e-15
    vertex 25.73205080756888 8.999999999999995 3.999999999999998
  endloop
endfacet
facet normal -0.9238795325112862 0.3826834323650912 1.3551345037699177e-16
  outer loop
    vertex 25.73205080756888 8.999999999999996 -1.306496699671938e-15
    vertex 25.93185165257814 9.482361909794953 3.999999999999998
    vertex 25.93185165257814 9.482361909794955 -1.3564146655171595e-15
  endloop
endfacet
facet normal -0.9914448613738105 0.13052619222005143 4.6221114311096454e-17
  outer loop
    vertex 26.000000000000004 9.999999999999996 3.999999999999998
    vertex 25.93185165257814 9.482361909794955 -1.3564146655171595e-15
    vertex 25.93185165257814 9.482361909794953 3.999999999999998
  endloop
endfacet
facet normal -0.9914448613738105 0.13052619222005143 4.6221114311096454e-17
  outer loop
    vertex 25.93185165257814 9.482361909794955 -1.3564146655171595e-15
    vertex 26.000000000000004 9.999999999999996 3.999999999999998
    vertex 26.000000000000004 9.999999999999996 -1.4099832412739487e-15
  endloop
endfacet
facet normal -0.9914448613738105 -0.13052619222005182 -4.679174535197432e-17
  outer loop
    vertex 25.93185165257814 10.517638090205038 3.999999999999998
    vertex 26.000000000000004 9.999999999999996 -1.4099832412739487e-15
    vertex 26.000000000000004 9.999999999999996 3.999999999999998
  endloop
endfacet
facet normal -0.9914448613738105 -0.13052619222005182 -4.679174535197432e-17
  outer loop
    vertex 26.000000000000004 9.999999999999996 -1.4099832412739487e-15
    vertex 25.93185165257814 10.517638090205038 3.999999999999998
    vertex 25.93185165257814 10.517638090205038 -1.463551817030738e-15
  endloop
endfacet
facet normal -0.9238795325112862 -0.3826834323650912 -1.3551345037699177e-16
  outer loop
    vertex 25.73205080756888 10.999999999999995 3.999999999999998
    vertex 25.93185165257814 10.517638090205038 -1.463551817030738e-15
    vertex 25.93185165257814 10.517638090205038 3.999999999999998
  endloop
endfacet
facet normal -0.9238795325112862 -0.3826834323650912 -1.3551345037699177e-16
  outer loop
    vertex 25.93185165257814 10.517638090205038 -1.463551817030738e-15
    vertex 25.73205080756888 10.999999999999995 3.999999999999998
    vertex 25.73205080756888 10.999999999999996 -1.513469782875959e-15
  endloop
endfacet
facet normal -0.7933533402912325 -0.6087614290087241 -1.0911606813082325e-16
  outer loop
    vertex 25.414213562373096 11.414213562373092 3.999999999999998
    vertex 25.73205080756888 10.999999999999996 -1.513469782875959e-15
    vertex 25.73205080756888 10.999999999999995 3.999999999999998
  endloop
endfacet
facet normal -0.7933533402912325 -0.6087614290087241 -1.0911606813082325e-16
  outer loop
    vertex 25.73205080756888 10.999999999999996 -1.513469782875959e-15
    vertex 25.414213562373096 11.414213562373092 3.999999999999998
    vertex 25.414213562373096 11.414213562373092 -1.5563353119305996e-15
  endloop
endfacet
facet normal -0.6087614290087205 -0.7933533402912353 -1.3954146105737178e-16
  outer loop
    vertex 25.414213562373096 11.414213562373092 -1.5563353119305996e-15
    vertex 25.0 11.732050807568873 3.999999999999998
    vertex 25.0 11.732050807568875 -1.5892271892282212e-15
  endloop
endfacet
facet normal -0.6087614290087205 -0.7933533402912353 -1.3954146105737178e-16
  outer loop
    vertex 25.0 11.732050807568873 3.999999999999998
    vertex 25.414213562373096 11.414213562373092 -1.5563353119305996e-15
    vertex 25.414213562373096 11.414213562373092 3.999999999999998
  endloop
endfacet
facet normal -0.3826834323650913 -0.9238795325112862 -3.271584097841055e-16
  outer loop
    vertex 25.0 11.732050807568875 -1.5892271892282212e-15
    vertex 24.51763809020504 11.931851652578132 3.999999999999998
    vertex 24.51763809020504 11.931851652578134 -1.609903887687389e-15
  endloop
endfacet
facet normal -0.3826834323650913 -0.9238795325112862 -3.271584097841055e-16
  outer loop
    vertex 24.51763809020504 11.931851652578132 3.999999999999998
    vertex 25.0 11.732050807568875 -1.5892271892282212e-15
    vertex 25.0 11.732050807568873 3.999999999999998
  endloop
endfacet
facet normal -0.1305261922200495 -0.9914448613738107 -3.5000062585435175e-16
  outer loop
    vertex 24.51763809020504 11.931851652578134 -1.609903887687389e-15
    vertex 24.0 11.999999999999995 3.999999999999998
    vertex 24.0 11.999999999999996 -1.6169563244779697e-15
  endloop
endfacet
facet normal -0.1305261922200495 -0.9914448613738107 -3.5000062585435175e-16
  outer loop
    vertex 24.0 11.999999999999995 3.999999999999998
    vertex 24.51763809020504 11.931851652578134 -1.609903887687389e-15
    vertex 24.51763809020504 11.931851652578132 3.999999999999998
  endloop
endfacet
facet normal 0.13052619222005146 -0.9914448613738105 -3.500294602607799e-16
  outer loop
    vertex 24.0 11.999999999999995 3.999999999999998
    vertex 23.482361909794957 11.931851652578132 -1.6099038876873887e-15
    vertex 24.0 11.999999999999996 -1.6169563244779697e-15
  endloop
endfacet
facet normal 0.13052619222005146 -0.9914448613738105 -3.500294602607799e-16
  outer loop
    vertex 23.482361909794957 11.931851652578132 -1.6099038876873887e-15
    vertex 24.0 11.999999999999995 3.999999999999998
    vertex 23.482361909794957 11.931851652578132 3.999999999999998
  endloop
endfacet
facet normal 0.38268343236508906 -0.9238795325112871 -3.251389134274137e-16
  outer loop
    vertex 23.482361909794957 11.931851652578132 3.999999999999998
    vertex 23.0 11.732050807568875 -1.5892271892282212e-15
    vertex 23.482361909794957 11.931851652578132 -1.6099038876873887e-15
  endloop
endfacet
facet normal 0.38268343236508906 -0.9238795325112871 -3.251389134274137e-16
  outer loop
    vertex 23.0 11.732050807568875 -1.5892271892282212e-15
    vertex 23.482361909794957 11.931851652578132 3.999999999999998
    vertex 23.0 11.732050807568873 3.999999999999998
  endloop
endfacet
facet normal 0.6087614290087204 -0.7933533402912355 -1.3954146105737186e-16
  outer loop
    vertex 23.0 11.732050807568873 3.999999999999998
    vertex 22.585786437626904 11.414213562373092 -1.5563353119305996e-15
    vertex 23.0 11.732050807568875 -1.5892271892282212e-15
  endloop
endfacet
facet normal 0.6087614290087204 -0.7933533402912355 -1.3954146105737186e-16
  outer loop
    vertex 22.585786437626904 11.414213562373092 -1.5563353119305996e-15
    vertex 23.0 11.732050807568873 3.999999999999998
    vertex 22.585786437626904 11.414213562373092 3.999999999999998
  endloop
endfacet
facet normal 0.7933533402912352 -0.6087614290087207 -1.0911606813082264e-16
  outer loop
    vertex 22.26794919243112 10.999999999999996 -1.513469782875959e-15
    vertex 22.585786437626904 11.414213562373092 3.999999999999998
    vertex 22.26794919243112 10.999999999999995 3.999999999999998
  endloop
endfacet
facet normal 0.7933533402912352 -0.6087614290087207 -1.0911606813082264e-16
  outer loop
    vertex 22.585786437626904 11.414213562373092 3.999999999999998
    vertex 22.26794919243112 10.999999999999996 -1.513469782875959e-15
    vertex 22.585786437626904 11.414213562373092 -1.5563353119305996e-15
  endloop
endfacet
facet normal 0.9238795325112881 -0.3826834323650867 -1.3551345037699017e-16
  outer loop
    vertex 22.068148347421864 10.517638090205038 -1.463551817030738e-15
    vertex 22.26794919243112 10.999999999999995 3.999999999999998
    vertex 22.068148347421864 10.517638090205038 3.999999999999998
  endloop
endfacet
facet normal 0.9238795325112881 -0.3826834323650867 -1.3551345037699017e-16
  outer loop
    vertex 22.26794919243112 10.999999999999995 3.999999999999998
    vertex 22.068148347421864 10.517638090205038 -1.463551817030738e-15
    vertex 22.26794919243112 10.999999999999996 -1.513469782875959e-15
  endloop
endfacet
facet normal 0.9914448613738105 -0.13052619222005074 -4.622111431109622e-17
  outer loop
    vertex 0.5000000000000012 9.999999999999993 1.4099832412739491e-15
    vertex 0.5681483474218647 10.517638090205038 3.9999999999999996
    vertex 0.5000000000000012 9.999999999999991 3.9999999999999996
  endloop
endfacet
facet normal 0.9914448613738105 -0.13052619222005074 -4.622111431109622e-17
  outer loop
    vertex 0.5681483474218647 10.517638090205038 3.9999999999999996
    vertex 0.5000000000000012 9.999999999999993 1.4099832412739491e-15
    vertex 0.5681483474218647 10.517638090205038 1.3564146655171595e-15
  endloop
endfacet
facet normal 0.9914448613738103 0.13052619222005346 4.565048327021945e-17
  outer loop
    vertex 0.5681483474218654 9.482361909794953 1.4635518170307384e-15
    vertex 0.5000000000000012 9.999999999999991 3.9999999999999996
    vertex 0.5681483474218654 9.482361909794951 3.9999999999999996
  endloop
endfacet
facet normal 0.9914448613738103 0.13052619222005346 4.565048327021945e-17
  outer loop
    vertex 0.5000000000000012 9.999999999999991 3.9999999999999996
    vertex 0.5681483474218654 9.482361909794953 1.4635518170307384e-15
    vertex 0.5000000000000012 9.999999999999993 1.4099832412739491e-15
  endloop
endfacet
facet normal 0.9238795325112863 0.3826834323650908 1.338404448167819e-16
  outer loop
    vertex 0.7679491924311251 8.999999999999995 1.5134697828759594e-15
    vertex 0.5681483474218654 9.482361909794951 3.9999999999999996
    vertex 0.7679491924311251 8.999999999999993 3.9999999999999996
  endloop
endfacet
facet normal 0.9238795325112863 0.3826834323650908 1.338404448167819e-16
  outer loop
    vertex 0.5681483474218654 9.482361909794951 3.9999999999999996
    vertex 0.7679491924311251 8.999999999999995 1.5134697828759594e-15
    vertex 0.5681483474218654 9.482361909794953 1.4635518170307384e-15
  endloop
endfacet
facet normal 0.7933533402912349 0.6087614290087212 2.1290940123087367e-16
  outer loop
    vertex 1.0857864376269075 8.5857864376269 1.5563353119305996e-15
    vertex 0.7679491924311251 8.999999999999993 3.9999999999999996
    vertex 1.0857864376269075 8.585786437626899 3.9999999999999996
  endloop
endfacet
facet normal 0.7933533402912349 0.6087614290087212 2.1290940123087367e-16
  outer loop
    vertex 0.7679491924311251 8.999999999999993 3.9999999999999996
    vertex 1.0857864376269075 8.5857864376269 1.5563353119305996e-15
    vertex 0.7679491924311251 8.999999999999995 1.5134697828759594e-15
  endloop
endfacet
facet normal 0.6087614290087197 0.7933533402912362 2.8174428963013003e-16
  outer loop
    vertex 1.0857864376269075 8.585786437626899 3.9999999999999996
    vertex 1.5000000000000024 8.26794919243112 1.5892271892282214e-15
    vertex 1.0857864376269075 8.5857864376269 1.5563353119305996e-15
  endloop
endfacet
facet normal 0.6087614290087197 0.7933533402912362 2.8174428963013003e-16
  outer loop
    vertex 1.5000000000000024 8.26794919243112 1.5892271892282214e-15
    vertex 1.0857864376269075 8.585786437626899 3.9999999999999996
    vertex 1.5000000000000024 8.267949192431118 3.9999999999999996
  endloop
endfacet
facet normal 0.38268343236508934 0.9238795325112871 3.2715840978410594e-16
  outer loop
    vertex 1.5000000000000024 8.267949192431118 3.9999999999999996
    vertex 1.9823619097949605 8.068148347421861 1.609903887687389e-15
    vertex 1.5000000000000024 8.26794919243112 1.5892271892282214e-15
  endloop
endfacet
facet normal 0.38268343236508934 0.9238795325112871 3.2715840978410594e-16
  outer loop
    vertex 1.9823619097949605 8.068148347421861 1.609903887687389e-15
    vertex 1.5000000000000024 8.267949192431118 3.9999999999999996
    vertex 1.9823619097949605 8.06814834742186 3.9999999999999996
  endloop
endfacet
facet normal 0.1305261922200506 0.9914448613738107 1.7445851629272653e-16
  outer loop
    vertex 1.9823619097949605 8.06814834742186 3.9999999999999996
    vertex 2.5000000000000013 7.9999999999999964 1.6169563244779697e-15
    vertex 1.9823619097949605 8.068148347421861 1.609903887687389e-15
  endloop
endfacet
facet normal 0.1305261922200506 0.9914448613738107 1.7445851629272653e-16
  outer loop
    vertex 2.5000000000000013 7.9999999999999964 1.6169563244779697e-15
    vertex 1.9823619097949605 8.06814834742186 3.9999999999999996
    vertex 2.5000000000000013 7.9999999999999964 3.9999999999999996
  endloop
endfacet
facet normal -0.1305261922200519 0.9914448613738105 1.013644352237251e-33
  outer loop
    vertex 2.5000000000000013 7.9999999999999964 1.6169563244779697e-15
    vertex 3.0176380902050424 8.068148347421861 3.9999999999999996
    vertex 3.0176380902050424 8.068148347421861 1.609903887687389e-15
  endloop
endfacet
facet normal -0.1305261922200519 0.9914448613738105 1.013644352237251e-33
  outer loop
    vertex 3.0176380902050424 8.068148347421861 3.9999999999999996
    vertex 2.5000000000000013 7.9999999999999964 1.6169563244779697e-15
    vertex 2.5000000000000013 7.9999999999999964 3.9999999999999996
  endloop
endfacet
facet normal -0.382683432365089 0.9238795325112871 3.2513891342741396e-16
  outer loop
    vertex 3.0176380902050424 8.068148347421861 1.609903887687389e-15
    vertex 3.5000000000000004 8.267949192431118 3.9999999999999996
    vertex 3.5000000000000004 8.26794919243112 1.5892271892282214e-15
  endloop
endfacet
facet normal -0.382683432365089 0.9238795325112871 3.2513891342741396e-16
  outer loop
    vertex 3.5000000000000004 8.267949192431118 3.9999999999999996
    vertex 3.0176380902050424 8.068148347421861 1.609903887687389e-15
    vertex 3.0176380902050424 8.068148347421861 3.9999999999999996
  endloop
endfacet
facet normal -0.6087614290087204 0.7933533402912353 4.204787565303813e-16
  outer loop
    vertex 3.5000000000000004 8.26794919243112 1.5892271892282214e-15
    vertex 3.9142135623730954 8.5857864376269 3.9999999999999996
    vertex 3.9142135623730954 8.5857864376269 1.5563353119305996e-15
  endloop
endfacet
facet normal -0.6087614290087204 0.7933533402912353 4.204787565303813e-16
  outer loop
    vertex 3.9142135623730954 8.5857864376269 3.9999999999999996
    vertex 3.5000000000000004 8.26794919243112 1.5892271892282214e-15
    vertex 3.5000000000000004 8.267949192431118 3.9999999999999996
  endloop
endfacet
facet normal -0.7933533402912347 0.6087614290087213 2.1290940123087375e-16
  outer loop
    vertex 4.232050807568878 8.999999999999995 3.9999999999999996
    vertex 3.9142135623730954 8.5857864376269 1.5563353119305996e-15
    vertex 3.9142135623730954 8.5857864376269 3.9999999999999996
  endloop
endfacet
facet normal -0.7933533402912347 0.6087614290087213 2.1290940123087375e-16
  outer loop
    vertex 3.9142135623730954 8.5857864376269 1.5563353119305996e-15
    vertex 4.232050807568878 8.999999999999995 3.9999999999999996
    vertex 4.232050807568878 8.999999999999996 1.5134697828759594e-15
  endloop
endfacet
facet normal -0.9238795325112867 0.3826834323650902 1.338404448167817e-16
  outer loop
    vertex 4.431851652578137 9.482361909794953 3.9999999999999996
    vertex 4.232050807568878 8.999999999999996 1.5134697828759594e-15
    vertex 4.232050807568878 8.999999999999995 3.9999999999999996
  endloop
endfacet
facet normal -0.9238795325112867 0.3826834323650902 1.338404448167817e-16
  outer loop
    vertex 4.232050807568878 8.999999999999996 1.5134697828759594e-15
    vertex 4.431851652578137 9.482361909794953 3.9999999999999996
    vertex 4.431851652578137 9.482361909794955 1.463551817030738e-15
  endloop
endfacet
facet normal -0.9914448613738105 0.13052619222005143 4.622111431109647e-17
  outer loop
    vertex 4.500000000000001 9.999999999999996 3.9999999999999996
    vertex 4.431851652578137 9.482361909794955 1.463551817030738e-15
    vertex 4.431851652578137 9.482361909794953 3.9999999999999996
  endloop
endfacet
facet normal -0.9914448613738105 0.13052619222005143 4.622111431109647e-17
  outer loop
    vertex 4.431851652578137 9.482361909794955 1.463551817030738e-15
    vertex 4.500000000000001 9.999999999999996 3.9999999999999996
    vertex 4.500000000000001 9.999999999999996 1.4099832412739487e-15
  endloop
endfacet
facet normal -0.9914448613738105 -0.1305261922200518 -4.5650483270218864e-17
  outer loop
    vertex 4.431851652578137 10.517638090205038 3.9999999999999996
    vertex 4.500000000000001 9.999999999999996 1.4099832412739487e-15
    vertex 4.500000000000001 9.999999999999996 3.9999999999999996
  endloop
endfacet
facet normal -0.9914448613738105 -0.1305261922200518 -4.5650483270218864e-17
  outer loop
    vertex 4.500000000000001 9.999999999999996 1.4099832412739487e-15
    vertex 4.431851652578137 10.517638090205038 3.9999999999999996
    vertex 4.431851652578137 10.517638090205038 1.3564146655171595e-15
  endloop
endfacet
facet normal -0.9238795325112867 -0.3826834323650902 -1.338404448167817e-16
  outer loop
    vertex 4.232050807568878 10.999999999999995 3.9999999999999996
    vertex 4.431851652578137 10.517638090205038 1.3564146655171595e-15
    vertex 4.431851652578137 10.517638090205038 3.9999999999999996
  endloop
endfacet
facet normal -0.9238795325112867 -0.3826834323650902 -1.338404448167817e-16
  outer loop
    vertex 4.431851652578137 10.517638090205038 1.3564146655171595e-15
    vertex 4.232050807568878 10.999999999999995 3.9999999999999996
    vertex 4.232050807568878 10.999999999999996 1.3064966996719382e-15
  endloop
endfacet
facet normal -0.7933533402912359 -0.6087614290087199 -1.0645470061543664e-16
  outer loop
    vertex 3.9142135623730963 11.414213562373092 3.9999999999999996
    vertex 4.232050807568878 10.999999999999996 1.3064966996719382e-15
    vertex 4.232050807568878 10.999999999999995 3.9999999999999996
  endloop
endfacet
facet normal -0.7933533402912359 -0.6087614290087199 -1.0645470061543664e-16
  outer loop
    vertex 4.232050807568878 10.999999999999996 1.3064966996719382e-15
    vertex 3.9142135623730963 11.414213562373092 3.9999999999999996
    vertex 3.9142135623730963 11.414213562373092 1.2636311706172978e-15
  endloop
endfacet
facet normal -0.6087614290087199 -0.7933533402912358 -1.3954146105737195e-16
  outer loop
    vertex 3.9142135623730963 11.414213562373092 1.2636311706172978e-15
    vertex 3.5000000000000004 11.732050807568873 3.9999999999999996
    vertex 3.5000000000000004 11.732050807568875 1.230739293319676e-15
  endloop
endfacet
facet normal -0.6087614290087199 -0.7933533402912358 -1.3954146105737195e-16
  outer loop
    vertex 3.5000000000000004 11.732050807568873 3.9999999999999996
    vertex 3.9142135623730963 11.414213562373092 1.2636311706172978e-15
    vertex 3.9142135623730963 11.414213562373092 3.9999999999999996
  endloop
endfacet
facet normal -0.3826834323650909 -0.9238795325112863 -3.288314153443154e-16
  outer loop
    vertex 3.5000000000000004 11.732050807568875 1.230739293319676e-15
    vertex 3.0176380902050415 11.931851652578132 3.9999999999999996
    vertex 3.0176380902050415 11.931851652578134 1.2100625948605084e-15
  endloop
endfacet
facet normal -0.3826834323650909 -0.9238795325112863 -3.288314153443154e-16
  outer loop
    vertex 3.0176380902050415 11.931851652578132 3.9999999999999996
    vertex 3.5000000000000004 11.732050807568875 1.230739293319676e-15
    vertex 3.5000000000000004 11.732050807568873 3.9999999999999996
  endloop
endfacet
facet normal -0.1305261922200505 -0.9914448613738107 -5.244591421470784e-16
  outer loop
    vertex 3.0176380902050415 11.931851652578134 1.2100625948605084e-15
    vertex 2.5000000000000004 11.999999999999995 3.9999999999999996
    vertex 2.5000000000000004 11.999999999999998 1.2030101580699277e-15
  endloop
endfacet
facet normal -0.1305261922200505 -0.9914448613738107 -5.244591421470784e-16
  outer loop
    vertex 2.5000000000000004 11.999999999999995 3.9999999999999996
    vertex 3.0176380902050415 11.931851652578134 1.2100625948605084e-15
    vertex 3.0176380902050415 11.931851652578132 3.9999999999999996
  endloop
endfacet
facet normal 0.1305261922200518 -0.9914448613738105 -6.989176584398047e-16
  outer loop
    vertex 2.5000000000000004 11.999999999999995 3.9999999999999996
    vertex 1.982361909794959 11.931851652578134 1.2100625948605084e-15
    vertex 2.5000000000000004 11.999999999999998 1.2030101580699277e-15
  endloop
endfacet
facet normal 0.1305261922200518 -0.9914448613738105 -6.989176584398047e-16
  outer loop
    vertex 1.982361909794959 11.931851652578134 1.2100625948605084e-15
    vertex 2.5000000000000004 11.999999999999995 3.9999999999999996
    vertex 1.982361909794959 11.931851652578132 3.9999999999999996
  endloop
endfacet
facet normal 0.38268343236509034 -0.9238795325112867 -4.887181183194667e-16
  outer loop
    vertex 1.982361909794959 11.931851652578132 3.9999999999999996
    vertex 1.5000000000000009 11.732050807568875 1.230739293319676e-15
    vertex 1.982361909794959 11.931851652578134 1.2100625948605084e-15
  endloop
endfacet
facet normal 0.38268343236509034 -0.9238795325112867 -4.887181183194667e-16
  outer loop
    vertex 1.5000000000000009 11.732050807568875 1.230739293319676e-15
    vertex 1.982361909794959 11.931851652578132 3.9999999999999996
    vertex 1.5000000000000009 11.732050807568873 3.9999999999999996
  endloop
endfacet
facet normal 0.6087614290087202 -0.7933533402912355 -1.430098227298782e-16
  outer loop
    vertex 1.5000000000000009 11.732050807568873 3.9999999999999996
    vertex 1.085786437626906 11.414213562373092 1.2636311706172978e-15
    vertex 1.5000000000000009 11.732050807568875 1.230739293319676e-15
  endloop
endfacet
facet normal 0.6087614290087202 -0.7933533402912355 -1.430098227298782e-16
  outer loop
    vertex 1.085786437626906 11.414213562373092 1.2636311706172978e-15
    vertex 1.5000000000000009 11.732050807568873 3.9999999999999996
    vertex 1.085786437626906 11.414213562373092 3.9999999999999996
  endloop
endfacet
facet normal 0.7933533402912356 -0.6087614290087203 -1.0645470061543669e-16
  outer loop
    vertex 0.7679491924311238 10.999999999999996 1.3064966996719382e-15
    vertex 1.085786437626906 11.414213562373092 3.9999999999999996
    vertex 0.7679491924311238 10.999999999999995 3.9999999999999996
  endloop
endfacet
facet normal 0.7933533402912356 -0.6087614290087203 -1.0645470061543669e-16
  outer loop
    vertex 1.085786437626906 11.414213562373092 3.9999999999999996
    vertex 0.7679491924311238 10.999999999999996 1.3064966996719382e-15
    vertex 1.085786437626906 11.414213562373092 1.2636311706172978e-15
  endloop
endfacet
facet normal 0.9238795325112868 -0.38268343236508956 -1.3384044481678147e-16
  outer loop
    vertex 0.5681483474218647 10.517638090205038 1.3564146655171595e-15
    vertex 0.7679491924311238 10.999999999999995 3.9999999999999996
    vertex 0.5681483474218647 10.517638090205038 3.9999999999999996
  endloop
endfacet
facet normal 0.9238795325112868 -0.38268343236508956 -1.3384044481678147e-16
  outer loop
    vertex 0.7679491924311238 10.999999999999995 3.9999999999999996
    vertex 0.5681483474218647 10.517638090205038 1.3564146655171595e-15
    vertex 0.7679491924311238 10.999999999999996 1.3064966996719382e-15
  endloop
endfacet
facet normal 0.0 0.0 -1.0
  outer loop
    vertex -2.9999999999999996 19.499999999999996 0.0
    vertex 0.5681483474218647 10.517638090205038 1.3564146655171595e-15
    vertex -2.9999999999999996 -1.5 -1.4870916997811183e-16
  endloop
endfacet
facet normal 0.0 0.0 -1.0
  outer loop
    vertex 0.5681483474218647 10.517638090205038 1.3564146655171595e-15
    vertex -2.9999999999999996 19.499999999999996 0.0
    vertex 0.7679491924311238 10.999999999999996 1.3064966996719382e-15
  endloop
endfacet
facet normal 0.0 0.0 -1.0
  outer loop
    vertex 0.7679491924311238 10.999999999999996 1.3064966996719382e-15
    vertex -2.9999999999999996 19.499999999999996 0.0
    vertex 1.085786437626906 11.414213562373092 1.2636311706172978e-15
  endloop
endfacet
facet normal 0.0 0.0 -1.0
  outer loop
    vertex 1.085786437626906 11.414213562373092 1.2636311706172978e-15
    vertex -2.9999999999999996 19.499999999999996 0.0
    vertex 1.5000000000000009 11.732050807568875 1.230739293319676e-15
  endloop
endfacet
facet normal 0.0 0.0 -1.0
  outer loop
    vertex 1.5000000000000009 11.732050807568875 1.230739293319676e-15
    vertex -2.9999999999999996 19.499999999999996 0.0
    vertex 1.982361909794959 11.931851652578134 1.2100625948605084e-15
  endloop
endfacet
facet normal 0.0 0.0 -1.0
  outer loop
    vertex 1.982361909794959 11.931851652578134 1.2100625948605084e-15
    vertex -2.9999999999999996 19.499999999999996 0.0
    vertex 29.99999999999999 19.499999999999996 0.0
  endloop
endfacet
facet normal 0.0 0.0 -1.0
  outer loop
    vertex -2.9999999999999996 -1.5 -1.4870916997811183e-16
    vertex 0.5681483474218647 10.517638090205038 1.3564146655171595e-15
    vertex 0.5000000000000012 9.999999999999993 1.4099832412739491e-15
  endloop
endfacet
facet normal 0.0 0.0 -1.0
  outer loop
    vertex 1.982361909794959 11.931851652578134 1.2100625948605084e-15
    vertex 29.99999999999999 19.499999999999996 0.0
    vertex 2.5000000000000004 11.999999999999998 1.2030101580699277e-15
  endloop
endfacet
facet normal 0.0 0.0 -1.0
  outer loop
    vertex 2.5000000000000004 11.999999999999998 1.2030101580699277e-15
    vertex 29.99999999999999 19.499999999999996 0.0
    vertex 3.0176380902050415 11.931851652578134 1.2100625948605084e-15
  endloop
endfacet
facet normal 0.0 0.0 -1.0
  outer loop
    vertex 3.0176380902050415 11.931851652578134 1.2100625948605084e-15
    vertex 29.99999999999999 19.499999999999996 0.0
    vertex 3.5000000000000004 11.732050807568875 1.230739293319676e-15
  endloop
endfacet
facet normal 0.0 0.0 -1.0
  outer loop
    vertex 3.5000000000000004 11.732050807568875 1.230739293319676e-15
    vertex 29.99999999999999 19.499999999999996 0.0
    vertex 3.9142135623730963 11.414213562373092 1.2636311706172978e-15
  endloop
endfacet
facet normal 0.0 0.0 -1.0
  outer loop
    vertex 3.9142135623730963 11.414213562373092 1.2636311706172978e-15
    vertex 29.99999999999999 19.499999999999996 0.0
    vertex 4.232050807568878 10.999999999999996 1.3064966996719382e-15
  endloop
endfacet
facet normal 0.0 0.0 -1.0
  outer loop
    vertex 4.232050807568878 10.999999999999996 1.3064966996719382e-15
    vertex 29.99999999999999 19.499999999999996 0.0
    vertex 4.431851652578137 10.517638090205038 1.3564146655171595e-15
  endloop
endfacet
facet normal 0.0 0.0 -1.0
  outer loop
    vertex 4.431851652578137 10.517638090205038 1.3564146655171595e-15
    vertex 29.99999999999999 19.499999999999996 0.0
    vertex 4.500000000000001 9.999999999999996 1.4099832412739487e-15
  endloop
endfacet
facet normal 0.0 0.0 -1.0
  outer loop
    vertex 4.500000000000001 9.999999999999996 1.4099832412739487e-15
    vertex 29.99999999999999 19.499999999999996 0.0
    vertex 22.585786437626904 11.414213562373092 -1.5563353119305996e-15
  endloop
endfacet
facet normal 0.0 0.0 -1.0
  outer loop
    vertex 4.500000000000001 9.999999999999996 1.4099832412739487e-15
    vertex 22.585786437626904 11.414213562373092 -1.5563353119305996e-15
    vertex 22.26794919243112 10.999999999999996 -1.513469782875959e-15
  endloop
endfacet
facet normal 0.0 0.0 -1.0
  outer loop
    vertex 4.500000000000001 9.999999999999996 1.4099832412739487e-15
    vertex 22.26794919243112 10.999999999999996 -1.513469782875959e-15
    vertex 22.068148347421864 10.517638090205038 -1.463551817030738e-15
  endloop
endfacet
facet normal 0.0 0.0 -1.0
  outer loop
    vertex 4.500000000000001 9.999999999999996 1.4099832412739487e-15
    vertex 22.068148347421864 10.517638090205038 -1.463551817030738e-15
    vertex 22.000000000000004 9.999999999999993 -1.4099832412739483e-15
  endloop
endfacet
facet normal 0.0 0.0 -1.0
  outer loop
    vertex 22.585786437626904 11.414213562373092 -1.5563353119305996e-15
    vertex 29.99999999999999 19.499999999999996 0.0
    vertex 23.0 11.732050807568875 -1.5892271892282212e-15
  endloop
endfacet
facet normal 0.0 0.0 -1.0
  outer loop
    vertex 23.0 11.732050807568875 -1.5892271892282212e-15
    vertex 29.99999999999999 19.499999999999996 0.0
    vertex 23.482361909794957 11.931851652578132 -1.6099038876873887e-15
  endloop
endfacet
facet normal 0.0 0.0 -1.0
  outer loop
    vertex 23.482361909794957 11.931851652578132 -1.6099038876873887e-15
    vertex 29.99999999999999 19.499999999999996 0.0
    vertex 24.0 11.999999999999996 -1.6169563244779697e-15
  endloop
endfacet
facet normal 0.0 0.0 -1.0
  outer loop
    vertex 24.0 11.999999999999996 -1.6169563244779697e-15
    vertex 29.99999999999999 19.499999999999996 0.0
    vertex 24.51763809020504 11.931851652578134 -1.609903887687389e-15
  endloop
endfacet
facet normal 0.0 0.0 -1.0
  outer loop
    vertex 24.51763809020504 11.931851652578134 -1.609903887687389e-15
    vertex 29.99999999999999 19.499999999999996 0.0
    vertex 25.0 11.732050807568875 -1.5892271892282212e-15
  endloop
endfacet
facet normal 0.0 0.0 -1.0
  outer loop
    vertex 25.0 11.732050807568875 -1.5892271892282212e-15
    vertex 29.99999999999999 19.499999999999996 0.0
    vertex 25.414213562373096 11.414213562373092 -1.5563353119305996e-15
  endloop
endfacet
facet normal 0.0 0.0 -1.0
  outer loop
    vertex 25.414213562373096 11.414213562373092 -1.5563353119305996e-15
    vertex 29.99999999999999 19.499999999999996 0.0
    vertex 25.73205080756888 10.999999999999996 -1.513469782875959e-15
  endloop
endfacet
facet normal 0.0 0.0 -1.0
  outer loop
    vertex 25.73205080756888 10.999999999999996 -1.513469782875959e-15
    vertex 29.99999999999999 19.499999999999996 0.0
    vertex 25.93185165257814 10.517638090205038 -1.463551817030738e-15
  endloop
endfacet
facet normal 0.0 0.0 -1.0
  outer loop
    vertex 25.93185165257814 10.517638090205038 -1.463551817030738e-15
    vertex 29.99999999999999 19.499999999999996 0.0
    vertex 26.000000000000004 9.999999999999996 -1.4099832412739487e-15
  endloop
endfacet
facet normal 0.0 0.0 -1.0
  outer loop
    vertex -2.9999999999999996 -1.5 -1.4870916997811183e-16
    vertex 1.9823619097949605 8.068148347421861 1.609903887687389e-15
    vertex 29.99999999999999 -1.5 -1.4870916997811183e-16
  endloop
endfacet
facet normal 0.0 0.0 -1.0
  outer loop
    vertex 1.9823619097949605 8.068148347421861 1.609903887687389e-15
    vertex -2.9999999999999996 -1.5 -1.4870916997811183e-16
    vertex 1.5000000000000024 8.26794919243112 1.5892271892282214e-15
  endloop
endfacet
facet normal 0.0 0.0 -1.0
  outer loop
    vertex 1.5000000000000024 8.26794919243112 1.5892271892282214e-15
    vertex -2.9999999999999996 -1.5 -1.4870916997811183e-16
    vertex 1.0857864376269075 8.5857864376269 1.5563353119305996e-15
  endloop
endfacet
facet normal 0.0 0.0 -1.0
  outer loop
    vertex 1.0857864376269075 8.5857864376269 1.5563353119305996e-15
    vertex -2.9999999999999996 -1.5 -1.4870916997811183e-16
    vertex 0.7679491924311251 8.999999999999995 1.5134697828759594e-15
  endloop
endfacet
facet normal 0.0 0.0 -1.0
  outer loop
    vertex 0.7679491924311251 8.999999999999995 1.5134697828759594e-15
    vertex -2.9999999999999996 -1.5 -1.4870916997811183e-16
    vertex 0.5681483474218654 9.482361909794953 1.4635518170307384e-15
  endloop
endfacet
facet normal 0.0 0.0 -1.0
  outer loop
    vertex 0.5681483474218654 9.482361909794953 1.4635518170307384e-15
    vertex -2.9999999999999996 -1.5 -1.4870916997811183e-16
    vertex 0.5000000000000012 9.999999999999993 1.4099832412739491e-15
  endloop
endfacet
facet normal 0.0 0.0 -1.0
  outer loop
    vertex 29.99999999999999 -1.5 -1.4870916997811183e-16
    vertex 1.9823619097949605 8.068148347421861 1.609903887687389e-15
    vertex 2.5000000000000013 7.9999999999999964 1.6169563244779697e-15
  endloop
endfacet
facet normal 0.0 0.0 -1.0
  outer loop
    vertex 29.99999999999999 -1.5 -1.4870916997811183e-16
    vertex 2.5000000000000013 7.9999999999999964 1.6169563244779697e-15
    vertex 3.0176380902050424 8.068148347421861 1.609903887687389e-15
  endloop
endfacet
facet normal 0.0 0.0 -1.0
  outer loop
    vertex 29.99999999999999 -1.5 -1.4870916997811183e-16
    vertex 3.0176380902050424 8.068148347421861 1.609903887687389e-15
    vertex 3.5000000000000004 8.26794919243112 1.5892271892282214e-15
  endloop
endfacet
facet normal 0.0 0.0 -1.0
  outer loop
    vertex 29.99999999999999 -1.5 -1.4870916997811183e-16
    vertex 3.5000000000000004 8.26794919243112 1.5892271892282214e-15
    vertex 3.9142135623730954 8.5857864376269 1.5563353119305996e-15
  endloop
endfacet
facet normal 0.0 0.0 -1.0
  outer loop
    vertex 29.99999999999999 -1.5 -1.4870916997811183e-16
    vertex 3.9142135623730954 8.5857864376269 1.5563353119305996e-15
    vertex 4.232050807568878 8.999999999999996 1.5134697828759594e-15
  endloop
endfacet
facet normal 0.0 0.0 -1.0
  outer loop
    vertex 29.99999999999999 -1.5 -1.4870916997811183e-16
    vertex 4.232050807568878 8.999999999999996 1.5134697828759594e-15
    vertex 4.431851652578137 9.482361909794955 1.463551817030738e-15
  endloop
endfacet
facet normal 0.0 0.0 -1.0
  outer loop
    vertex 29.99999999999999 -1.5 -1.4870916997811183e-16
    vertex 4.431851652578137 9.482361909794955 1.463551817030738e-15
    vertex 4.500000000000001 9.999999999999996 1.4099832412739487e-15
  endloop
endfacet
facet normal 0.0 0.0 -1.0
  outer loop
    vertex 29.99999999999999 -1.5 -1.4870916997811183e-16
    vertex 4.500000000000001 9.999999999999996 1.4099832412739487e-15
    vertex 22.267949192431125 8.999999999999995 -1.306496699671938e-15
  endloop
endfacet
facet normal 0.0 0.0 -1.0
  outer loop
    vertex 22.267949192431125 8.999999999999995 -1.306496699671938e-15
    vertex 4.500000000000001 9.999999999999996 1.4099832412739487e-15
    vertex 22.068148347421864 9.482361909794953 -1.3564146655171591e-15
  endloop
endfacet
facet normal 0.0 0.0 -1.0
  outer loop
    vertex 22.068148347421864 9.482361909794953 -1.3564146655171591e-15
    vertex 4.500000000000001 9.999999999999996 1.4099832412739487e-15
    vertex 22.000000000000004 9.999999999999993 -1.4099832412739483e-15
  endloop
endfacet
facet normal 0.0 0.0 -1.0
  outer loop
    vertex 29.99999999999999 -1.5 -1.4870916997811183e-16
    vertex 22.267949192431125 8.999999999999995 -1.306496699671938e-15
    vertex 22.585786437626908 8.5857864376269 -1.2636311706172978e-15
  endloop
endfacet
facet normal 0.0 0.0 -1.0
  outer loop
    vertex 29.99999999999999 -1.5 -1.4870916997811183e-16
    vertex 22.585786437626908 8.5857864376269 -1.2636311706172978e-15
    vertex 23.000000000000004 8.26794919243112 -1.230739293319676e-15
  endloop
endfacet
facet normal 0.0 0.0 -1.0
  outer loop
    vertex 29.99999999999999 -1.5 -1.4870916997811183e-16
    vertex 23.000000000000004 8.26794919243112 -1.230739293319676e-15
    vertex 23.48236190979496 8.068148347421861 -1.2100625948605086e-15
  endloop
endfacet
facet normal 0.0 0.0 -1.0
  outer loop
    vertex 29.99999999999999 -1.5 -1.4870916997811183e-16
    vertex 23.48236190979496 8.068148347421861 -1.2100625948605086e-15
    vertex 24.0 7.999999999999998 -1.2030101580699277e-15
  endloop
endfacet
facet normal 0.0 0.0 -1.0
  outer loop
    vertex 29.99999999999999 -1.5 -1.4870916997811183e-16
    vertex 24.0 7.999999999999998 -1.2030101580699277e-15
    vertex 24.51763809020504 8.068148347421861 -1.2100625948605086e-15
  endloop
endfacet
facet normal 0.0 0.0 -1.0
  outer loop
    vertex 29.99999999999999 -1.5 -1.4870916997811183e-16
    vertex 24.51763809020504 8.068148347421861 -1.2100625948605086e-15
    vertex 25.0 8.26794919243112 -1.230739293319676e-15
  endloop
endfacet
facet normal 0.0 0.0 -1.0
  outer loop
    vertex 29.99999999999999 -1.5 -1.4870916997811183e-16
    vertex 25.0 8.26794919243112 -1.230739293319676e-15
    vertex 25.414213562373096 8.5857864376269 -1.2636311706172978e-15
  endloop
endfacet
facet normal 0.0 0.0 -1.0
  outer loop
    vertex 29.99999999999999 -1.5 -1.4870916997811183e-16
    vertex 25.414213562373096 8.5857864376269 -1.2636311706172978e-15
    vertex 25.73205080756888 8.999999999999996 -1.306496699671938e-15
  endloop
endfacet
facet normal 0.0 0.0 -1.0
  outer loop
    vertex 29.99999999999999 -1.5 -1.4870916997811183e-16
    vertex 25.73205080756888 8.999999999999996 -1.306496699671938e-15
    vertex 25.93185165257814 9.482361909794955 -1.3564146655171595e-15
  endloop
endfacet
facet normal 0.0 0.0 -1.0
  outer loop
    vertex 29.99999999999999 -1.5 -1.4870916997811183e-16
    vertex 25.93185165257814 9.482361909794955 -1.3564146655171595e-15
    vertex 26.000000000000004 9.999999999999996 -1.4099832412739487e-15
  endloop
endfacet
facet normal 0.0 0.0 -1.0
  outer loop
    vertex 29.99999999999999 -1.5 -1.4870916997811183e-16
    vertex 26.000000000000004 9.999999999999996 -1.4099832412739487e-15
    vertex 29.99999999999999 19.499999999999996 0.0
  endloop
endfacet
facet normal -2.496344865826422e-33 6.130361918582388e-16 1.0
  outer loop
    vertex 20.150000000000002 9.599999999999996 3.9999999999999956
    vertex 6.35 16.499999999999996 3.999999999999991
    vertex 6.35 9.599999999999996 3.9999999999999956
  endloop
endfacet
facet normal -2.496344865826422e-33 6.130361918582388e-16 1.0
  outer loop
    vertex 6.35 16.499999999999996 3.999999999999991
    vertex 20.150000000000002 9.599999999999996 3.9999999999999956
    vertex 20.15 16.499999999999996 3.999999999999991
  endloop
endfacet
facet normal -0.0 6.130361918582386e-16 1.0
  outer loop
    vertex 20.150000000000002 2.6999999999999966 3.9999999999999996
    vertex 6.35 9.599999999999996 3.9999999999999956
    vertex 6.35 2.6999999999999966 3.9999999999999996
  endloop
endfacet
facet normal -0.0 6.130361918582386e-16 1.0
  outer loop
    vertex 6.35 9.599999999999996 3.9999999999999956
    vertex 20.150000000000002 2.6999999999999966 3.9999999999999996
    vertex 20.150000000000002 9.599999999999996 3.9999999999999956
  endloop
endfacet
facet normal -1.0 0.0 0.0
  outer loop
    vertex 28.999999999999996 18.499999999999996 7.0
    vertex 28.999999999999996 -0.5000000000000006 3.9999999999999996
    vertex 28.999999999999996 -0.5000000000000006 7.0
  endloop
endfacet
facet normal -1.0 0.0 0.0
  outer loop
    vertex 28.999999999999996 -0.5000000000000006 3.9999999999999996
    vertex 28.999999999999996 18.499999999999996 7.0
    vertex 28.999999999999996 18.499999999999996 3.9999999999999956
  endloop
endfacet
facet normal 1.0 3.823683366166642e-17 -8.220919237258278e-16
  outer loop
    vertex 29.99999999999999 -1.5 -1.4870916997811183e-16
    vertex 29.999999999999996 19.499999999999996 7.0
    vertex 29.999999999999996 -1.5000000000000004 7.0
  endloop
endfacet
facet normal 1.0 3.823683366166642e-17 -8.220919237258278e-16
  outer loop
    vertex 29.999999999999996 19.499999999999996 7.0
    vertex 29.99999999999999 -1.5 -1.4870916997811183e-16
    vertex 29.99999999999999 19.499999999999996 0.0
  endloop
endfacet
facet normal 1.2166265255984774e-17 1.0 -4.11045961862914e-16
  outer loop
    vertex -2.9999999999999996 19.499999999999996 7.0
    vertex 29.99999999999999 19.499999999999996 0.0
    vertex -2.9999999999999996 19.499999999999996 0.0
  endloop
endfacet
facet normal 1.2166265255984774e-17 1.0 -4.11045961862914e-16
  outer loop
    vertex 29.99999999999999 19.499999999999996 0.0
    vertex -2.9999999999999996 19.499999999999996 7.0
    vertex 29.999999999999996 19.499999999999996 7.0
  endloop
endfacet
facet normal 1.0 -6.493343874287922e-17 4.11245112038235e-16
  outer loop
    vertex -1.9999999999999996 18.499999999999996 3.9999999999999996
    vertex -2.0000000000000018 -0.5000000000000006 7.0
    vertex -1.9999999999999996 -0.5000000000000006 3.9999999999999996
  endloop
endfacet
facet normal 1.0 -6.493343874287922e-17 4.11245112038235e-16
  outer loop
    vertex -2.0000000000000018 -0.5000000000000006 7.0
    vertex -1.9999999999999996 18.499999999999996 3.9999999999999996
    vertex -1.9999999999999996 18.499999999999996 7.0
  endloop
endfacet
facet normal -1.0 -2.805172469524039e-17 -9.559208415416622e-18
  outer loop
    vertex -2.9999999999999996 19.499999999999996 7.0
    vertex -2.9999999999999996 -1.5 -1.4870916997811183e-16
    vertex -3.0 -1.5000000000000004 7.0
  endloop
endfacet
facet normal -1.0 -2.805172469524039e-17 -9.559208415416622e-18
  outer loop
    vertex -2.9999999999999996 -1.5 -1.4870916997811183e-16
    vertex -2.9999999999999996 19.499999999999996 7.0
    vertex -2.9999999999999996 19.499999999999996 0.0
  endloop
endfacet
facet normal 0.0 -1.0 0.0
  outer loop
    vertex 28.999999999999996 18.499999999999996 7.0
    vertex -1.9999999999999996 18.499999999999996 3.9999999999999996
    vertex 28.999999999999996 18.499999999999996 3.9999999999999956
  endloop
endfacet
facet normal 0.0 -1.0 0.0
  outer loop
    vertex -1.9999999999999996 18.499999999999996 3.9999999999999996
    vertex 28.999999999999996 18.499999999999996 7.0
    vertex -1.9999999999999996 18.499999999999996 7.0
  endloop
endfacet
facet normal -2.6341960139961634e-18 -1.0 -4.758610820200585e-17
  outer loop
    vertex 29.999999999999996 -1.5000000000000004 7.0
    vertex -2.9999999999999996 -1.5 -1.4870916997811183e-16
    vertex 29.99999999999999 -1.5 -1.4870916997811183e-16
  endloop
endfacet
facet normal -2.6341960139961634e-18 -1.0 -4.758610820200585e-17
  outer loop
    vertex -2.9999999999999996 -1.5 -1.4870916997811183e-16
    vertex 29.999999999999996 -1.5000000000000004 7.0
    vertex -3.0 -1.5000000000000004 7.0
  endloop
endfacet
facet normal -0.0 -0.0 1.0
  outer loop
    vertex -3.0 -1.5000000000000004 7.0
    vertex -2.0000000000000018 -0.5000000000000006 7.0
    vertex -2.9999999999999996 19.499999999999996 7.0
  endloop
endfacet
facet normal -0.0 -0.0 1.0
  outer loop
    vertex -2.0000000000000018 -0.5000000000000006 7.0
    vertex -3.0 -1.5000000000000004 7.0
    vertex 29.999999999999996 -1.5000000000000004 7.0
  endloop
endfacet
facet normal -0.0 -0.0 1.0
  outer loop
    vertex -2.0000000000000018 -0.5000000000000006 7.0
    vertex 29.999999999999996 -1.5000000000000004 7.0
    vertex 28.999999999999996 -0.5000000000000006 7.0
  endloop
endfacet
facet normal -0.0 -0.0 1.0
  outer loop
    vertex 28.999999999999996 -0.5000000000000006 7.0
    vertex 29.999999999999996 -1.5000000000000004 7.0
    vertex 28.999999999999996 18.499999999999996 7.0
  endloop
endfacet
facet normal -0.0 -0.0 1.0
  outer loop
    vertex -2.9999999999999996 19.499999999999996 7.0
    vertex -1.9999999999999996 18.499999999999996 7.0
    vertex 29.999999999999996 19.499999999999996 7.0
  endloop
endfacet
facet normal -0.0 -0.0 1.0
  outer loop
    vertex -1.9999999999999996 18.499999999999996 7.0
    vertex -2.9999999999999996 19.499999999999996 7.0
    vertex -2.0000000000000018 -0.5000000000000006 7.0
  endloop
endfacet
facet normal -0.0 -0.0 1.0
  outer loop
    vertex 29.999999999999996 19.499999999999996 7.0
    vertex -1.9999999999999996 18.499999999999996 7.0
    vertex 28.999999999999996 18.499999999999996 7.0
  endloop
endfacet
facet normal -0.0 -0.0 1.0
  outer loop
    vertex 29.999999999999996 19.499999999999996 7.0
    vertex 28.999999999999996 18.499999999999996 7.0
    vertex 29.999999999999996 -1.5000000000000004 7.0
  endloop
endfacet
facet normal 6.822499554551365e-17 1.1131446641636434e-16 1.0
  outer loop
    vertex -1.9999999999999996 -0.5000000000000006 3.9999999999999996
    vertex 0.5681483474218654 9.482361909794951 3.9999999999999996
    vertex -1.9999999999999996 18.499999999999996 3.9999999999999996
  endloop
endfacet
facet normal 6.822499554551365e-17 1.1131446641636434e-16 1.0
  outer loop
    vertex 0.5681483474218654 9.482361909794951 3.9999999999999996
    vertex -1.9999999999999996 -0.5000000000000006 3.9999999999999996
    vertex 0.7679491924311251 8.999999999999993 3.9999999999999996
  endloop
endfacet
facet normal 6.822499554551365e-17 1.1131446641636434e-16 1.0
  outer loop
    vertex 0.7679491924311251 8.999999999999993 3.9999999999999996
    vertex -1.9999999999999996 -0.5000000000000006 3.9999999999999996
    vertex 1.0857864376269075 8.585786437626899 3.9999999999999996
  endloop
endfacet
facet normal 6.822499554551365e-17 1.1131446641636434e-16 1.0
  outer loop
    vertex 1.0857864376269075 8.585786437626899 3.9999999999999996
    vertex -1.9999999999999996 -0.5000000000000006 3.9999999999999996
    vertex 6.35 2.6999999999999966 3.9999999999999996
  endloop
endfacet
facet normal 6.822499554551365e-17 1.1131446641636434e-16 1.0
  outer loop
    vertex 6.35 2.6999999999999966 3.9999999999999996
    vertex -1.9999999999999996 -0.5000000000000006 3.9999999999999996
    vertex 28.999999999999996 -0.5000000000000006 3.9999999999999996
  endloop
endfacet
facet normal 6.822499554551365e-17 1.1131446641636434e-16 1.0
  outer loop
    vertex -1.9999999999999996 18.499999999999996 3.9999999999999996
    vertex 0.5681483474218654 9.482361909794951 3.9999999999999996
    vertex 0.5000000000000012 9.999999999999991 3.9999999999999996
  endloop
endfacet
facet normal 6.822499554551365e-17 1.1131446641636434e-16 1.0
  outer loop
    vertex 1.0857864376269075 8.585786437626899 3.9999999999999996
    vertex 6.35 2.6999999999999966 3.9999999999999996
    vertex 1.5000000000000024 8.267949192431118 3.9999999999999996
  endloop
endfacet
facet normal 6.822499554551365e-17 1.1131446641636434e-16 1.0
  outer loop
    vertex 1.5000000000000024 8.267949192431118 3.9999999999999996
    vertex 6.35 2.6999999999999966 3.9999999999999996
    vertex 1.9823619097949605 8.06814834742186 3.9999999999999996
  endloop
endfacet
facet normal 6.822499554551365e-17 1.1131446641636434e-16 1.0
  outer loop
    vertex 1.9823619097949605 8.06814834742186 3.9999999999999996
    vertex 6.35 2.6999999999999966 3.9999999999999996
    vertex 2.5000000000000013 7.9999999999999964 3.9999999999999996
  endloop
endfacet
facet normal 6.822499554551365e-17 1.1131446641636434e-16 1.0
  outer loop
    vertex 2.5000000000000013 7.9999999999999964 3.9999999999999996
    vertex 6.35 2.6999999999999966 3.9999999999999996
    vertex 3.0176380902050424 8.068148347421861 3.9999999999999996
  endloop
endfacet
facet normal 6.822499554551365e-17 1.1131446641636434e-16 1.0
  outer loop
    vertex 3.0176380902050424 8.068148347421861 3.9999999999999996
    vertex 6.35 2.6999999999999966 3.9999999999999996
    vertex 3.5000000000000004 8.267949192431118 3.9999999999999996
  endloop
endfacet
facet normal 6.822499554551365e-17 1.1131446641636434e-16 1.0
  outer loop
    vertex 3.5000000000000004 8.267949192431118 3.9999999999999996
    vertex 6.35 2.6999999999999966 3.9999999999999996
    vertex 3.9142135623730954 8.5857864376269 3.9999999999999996
  endloop
endfacet
facet normal 6.822499554551365e-17 1.1131446641636434e-16 1.0
  outer loop
    vertex 3.9142135623730954 8.5857864376269 3.9999999999999996
    vertex 6.35 2.6999999999999966 3.9999999999999996
    vertex 4.232050807568878 8.999999999999995 3.9999999999999996
  endloop
endfacet
facet normal 6.822499554551365e-17 1.1131446641636434e-16 1.0
  outer loop
    vertex 4.232050807568878 8.999999999999995 3.9999999999999996
    vertex 6.35 2.6999999999999966 3.9999999999999996
    vertex 4.431851652578137 9.482361909794953 3.9999999999999996
  endloop
endfacet
facet normal 6.822499554551365e-17 1.1131446641636434e-16 1.0
  outer loop
    vertex 4.431851652578137 9.482361909794953 3.9999999999999996
    vertex 6.35 2.6999999999999966 3.9999999999999996
    vertex 4.500000000000001 9.999999999999996 3.9999999999999996
  endloop
endfacet
facet normal 6.822499554551365e-17 1.1131446641636434e-16 1.0
  outer loop
    vertex 6.35 2.6999999999999966 3.9999999999999996
    vertex 28.999999999999996 -0.5000000000000006 3.9999999999999996
    vertex 20.150000000000002 2.6999999999999966 3.9999999999999996
  endloop
endfacet
facet normal 6.822499554551365e-17 1.1131446641636434e-16 1.0
  outer loop
    vertex 20.150000000000002 2.6999999999999966 3.9999999999999996
    vertex 28.999999999999996 -0.5000000000000006 3.9999999999999996
    vertex 20.150000000000002 9.599999999999996 3.9999999999999956
  endloop
endfacet
facet normal 6.822499554551365e-17 1.1131446641636434e-16 1.0
  outer loop
    vertex 20.150000000000002 9.599999999999996 3.9999999999999956
    vertex 28.999999999999996 -0.5000000000000006 3.9999999999999996
    vertex 22.267949192431125 8.999999999999993 3.999999999999998
  endloop
endfacet
facet normal 6.822499554551365e-17 1.1131446641636434e-16 1.0
  outer loop
    vertex 20.150000000000002 9.599999999999996 3.9999999999999956
    vertex 22.267949192431125 8.999999999999993 3.999999999999998
    vertex 22.068148347421864 9.482361909794951 3.999999999999998
  endloop
endfacet
facet normal 6.822499554551365e-17 1.1131446641636434e-16 1.0
  outer loop
    vertex 20.150000000000002 9.599999999999996 3.9999999999999956
    vertex 22.068148347421864 9.482361909794951 3.999999999999998
    vertex 22.000000000000004 9.999999999999991 3.999999999999998
  endloop
endfacet
facet normal 6.822499554551365e-17 1.1131446641636434e-16 1.0
  outer loop
    vertex 22.267949192431125 8.999999999999993 3.999999999999998
    vertex 28.999999999999996 -0.5000000000000006 3.9999999999999996
    vertex 22.585786437626908 8.585786437626899 3.999999999999998
  endloop
endfacet
facet normal 6.822499554551365e-17 1.1131446641636434e-16 1.0
  outer loop
    vertex 22.585786437626908 8.585786437626899 3.999999999999998
    vertex 28.999999999999996 -0.5000000000000006 3.9999999999999996
    vertex 23.000000000000004 8.267949192431118 3.999999999999998
  endloop
endfacet
facet normal 6.822499554551365e-17 1.1131446641636434e-16 1.0
  outer loop
    vertex 23.000000000000004 8.267949192431118 3.999999999999998
    vertex 28.999999999999996 -0.5000000000000006 3.9999999999999996
    vertex 23.48236190979496 8.06814834742186 3.999999999999998
  endloop
endfacet
facet normal 6.822499554551365e-17 1.1131446641636434e-16 1.0
  outer loop
    vertex 23.48236190979496 8.06814834742186 3.999999999999998
    vertex 28.999999999999996 -0.5000000000000006 3.9999999999999996
    vertex 24.0 7.9999999999999964 3.999999999999998
  endloop
endfacet
facet normal 6.822499554551365e-17 1.1131446641636434e-16 1.0
  outer loop
    vertex 24.0 7.9999999999999964 3.999999999999998
    vertex 28.999999999999996 -0.5000000000000006 3.9999999999999996
    vertex 24.51763809020504 8.068148347421861 3.999999999999998
  endloop
endfacet
facet normal 6.822499554551365e-17 1.1131446641636434e-16 1.0
  outer loop
    vertex 24.51763809020504 8.068148347421861 3.999999999999998
    vertex 28.999999999999996 -0.5000000000000006 3.9999999999999996
    vertex 25.0 8.267949192431118 3.999999999999998
  endloop
endfacet
facet normal 6.822499554551365e-17 1.1131446641636434e-16 1.0
  outer loop
    vertex 25.0 8.267949192431118 3.999999999999998
    vertex 28.999999999999996 -0.5000000000000006 3.9999999999999996
    vertex 25.414213562373096 8.5857864376269 3.999999999999998
  endloop
endfacet
facet normal 6.822499554551365e-17 1.1131446641636434e-16 1.0
  outer loop
    vertex 25.414213562373096 8.5857864376269 3.999999999999998
    vertex 28.999999999999996 -0.5000000000000006 3.9999999999999996
    vertex 25.73205080756888 8.999999999999995 3.999999999999998
  endloop
endfacet
facet normal 6.822499554551365e-17 1.1131446641636434e-16 1.0
  outer loop
    vertex 25.73205080756888 8.999999999999995 3.999999999999998
    vertex 28.999999999999996 -0.5000000000000006 3.9999999999999996
    vertex 25.93185165257814 9.482361909794953 3.999999999999998
  endloop
endfacet
facet normal 6.822499554551365e-17 1.1131446641636434e-16 1.0
  outer loop
    vertex 25.93185165257814 9.482361909794953 3.999999999999998
    vertex 28.999999999999996 -0.5000000000000006 3.9999999999999996
    vertex 26.000000000000004 9.999999999999996 3.999999999999998
  endloop
endfacet
facet normal 6.822499554551365e-17 1.1131446641636434e-16 1.0
  outer loop
    vertex -1.9999999999999996 18.499999999999996 3.9999999999999996
    vertex 6.35 16.499999999999996 3.999999999999991
    vertex 28.999999999999996 18.499999999999996 3.9999999999999956
  endloop
endfacet
facet normal 6.822499554551365e-17 1.1131446641636434e-16 1.0
  outer loop
    vertex 6.35 16.499999999999996 3.999999999999991
    vertex -1.9999999999999996 18.499999999999996 3.9999999999999996
    vertex 1.085786437626906 11.414213562373092 3.9999999999999996
  endloop
endfacet
facet normal 6.822499554551365e-17 1.1131446641636434e-16 1.0
  outer loop
    vertex 1.085786437626906 11.414213562373092 3.9999999999999996
    vertex -1.9999999999999996 18.499999999999996 3.9999999999999996
    vertex 0.7679491924311238 10.999999999999995 3.9999999999999996
  endloop
endfacet
facet normal 6.822499554551365e-17 1.1131446641636434e-16 1.0
  outer loop
    vertex 0.7679491924311238 10.999999999999995 3.9999999999999996
    vertex -1.9999999999999996 18.499999999999996 3.9999999999999996
    vertex 0.5681483474218647 10.517638090205038 3.9999999999999996
  endloop
endfacet
facet normal 6.822499554551365e-17 1.1131446641636434e-16 1.0
  outer loop
    vertex 0.5681483474218647 10.517638090205038 3.9999999999999996
    vertex -1.9999999999999996 18.499999999999996 3.9999999999999996
    vertex 0.5000000000000012 9.999999999999991 3.9999999999999996
  endloop
endfacet
facet normal 6.822499554551365e-17 1.1131446641636434e-16 1.0
  outer loop
    vertex 6.35 16.499999999999996 3.999999999999991
    vertex 1.085786437626906 11.414213562373092 3.9999999999999996
    vertex 1.5000000000000009 11.732050807568873 3.9999999999999996
  endloop
endfacet
facet normal 6.822499554551365e-17 1.1131446641636434e-16 1.0
  outer loop
    vertex 6.35 16.499999999999996 3.999999999999991
    vertex 1.5000000000000009 11.732050807568873 3.9999999999999996
    vertex 1.982361909794959 11.931851652578132 3.9999999999999996
  endloop
endfacet
facet normal 6.822499554551365e-17 1.1131446641636434e-16 1.0
  outer loop
    vertex 6.35 16.499999999999996 3.999999999999991
    vertex 1.982361909794959 11.931851652578132 3.9999999999999996
    vertex 2.5000000000000004 11.999999999999995 3.9999999999999996
  endloop
endfacet
facet normal 6.822499554551365e-17 1.1131446641636434e-16 1.0
  outer loop
    vertex 6.35 16.499999999999996 3.999999999999991
    vertex 2.5000000000000004 11.999999999999995 3.9999999999999996
    vertex 3.0176380902050415 11.931851652578132 3.9999999999999996
  endloop
endfacet
facet normal 6.822499554551365e-17 1.1131446641636434e-16 1.0
  outer loop
    vertex 6.35 16.499999999999996 3.999999999999991
    vertex 3.0176380902050415 11.931851652578132 3.9999999999999996
    vertex 3.5000000000000004 11.732050807568873 3.9999999999999996
  endloop
endfacet
facet normal 6.822499554551365e-17 1.1131446641636434e-16 1.0
  outer loop
    vertex 6.35 16.499999999999996 3.999999999999991
    vertex 3.5000000000000004 11.732050807568873 3.9999999999999996
    vertex 3.9142135623730963 11.414213562373092 3.9999999999999996
  endloop
endfacet
facet normal 6.822499554551365e-17 1.1131446641636434e-16 1.0
  outer loop
    vertex 6.35 16.499999999999996 3.999999999999991
    vertex 3.9142135623730963 11.414213562373092 3.9999999999999996
    vertex 4.232050807568878 10.999999999999995 3.9999999999999996
  endloop
endfacet
facet normal 6.822499554551365e-17 1.1131446641636434e-16 1.0
  outer loop
    vertex 6.35 16.499999999999996 3.999999999999991
    vertex 4.232050807568878 10.999999999999995 3.9999999999999996
    vertex 4.431851652578137 10.517638090205038 3.9999999999999996
  endloop
endfacet
facet normal 6.822499554551365e-17 1.1131446641636434e-16 1.0
  outer loop
    vertex 6.35 16.499999999999996 3.999999999999991
    vertex 4.431851652578137 10.517638090205038 3.9999999999999996
    vertex 4.500000000000001 9.999999999999996 3.9999999999999996
  endloop
endfacet
facet normal 6.822499554551365e-17 1.1131446641636434e-16 1.0
  outer loop
    vertex 6.35 16.499999999999996 3.999999999999991
    vertex 4.500000000000001 9.999999999999996 3.9999999999999996
    vertex 6.35 2.6999999999999966 3.9999999999999996
  endloop
endfacet
facet normal 6.822499554551365e-17 1.1131446641636434e-16 1.0
  outer loop
    vertex 6.35 16.499999999999996 3.999999999999991
    vertex 6.35 2.6999999999999966 3.9999999999999996
    vertex 6.35 9.599999999999996 3.9999999999999956
  endloop
endfacet
facet normal 6.822499554551365e-17 1.1131446641636434e-16 1.0
  outer loop
    vertex 28.999999999999996 18.499999999999996 3.9999999999999956
    vertex 6.35 16.499999999999996 3.999999999999991
    vertex 20.15 16.499999999999996 3.999999999999991
  endloop
endfacet
facet normal 6.822499554551365e-17 1.1131446641636434e-16 1.0
  outer loop
    vertex 28.999999999999996 18.499999999999996 3.9999999999999956
    vertex 20.15 16.499999999999996 3.999999999999991
    vertex 20.150000000000002 9.599999999999996 3.9999999999999956
  endloop
endfacet
facet normal 6.822499554551365e-17 1.1131446641636434e-16 1.0
  outer loop
    vertex 28.999999999999996 18.499999999999996 3.9999999999999956
    vertex 20.150000000000002 9.599999999999996 3.9999999999999956
    vertex 22.585786437626904 11.414213562373092 3.999999999999998
  endloop
endfacet
facet normal 6.822499554551365e-17 1.1131446641636434e-16 1.0
  outer loop
    vertex 22.585786437626904 11.414213562373092 3.999999999999998
    vertex 20.150000000000002 9.599999999999996 3.9999999999999956
    vertex 22.26794919243112 10.999999999999995 3.999999999999998
  endloop
endfacet
facet normal 6.822499554551365e-17 1.1131446641636434e-16 1.0
  outer loop
    vertex 22.26794919243112 10.999999999999995 3.999999999999998
    vertex 20.150000000000002 9.599999999999996 3.9999999999999956
    vertex 22.068148347421864 10.517638090205038 3.999999999999998
  endloop
endfacet
facet normal 6.822499554551365e-17 1.1131446641636434e-16 1.0
  outer loop
    vertex 22.068148347421864 10.517638090205038 3.999999999999998
    vertex 20.150000000000002 9.599999999999996 3.9999999999999956
    vertex 22.000000000000004 9.999999999999991 3.999999999999998
  endloop
endfacet
facet normal 6.822499554551365e-17 1.1131446641636434e-16 1.0
  outer loop
    vertex 28.999999999999996 18.499999999999996 3.9999999999999956
    vertex 22.585786437626904 11.414213562373092 3.999999999999998
    vertex 23.0 11.732050807568873 3.999999999999998
  endloop
endfacet
facet normal 6.822499554551365e-17 1.1131446641636434e-16 1.0
  outer loop
    vertex 28.999999999999996 18.499999999999996 3.9999999999999956
    vertex 23.0 11.732050807568873 3.999999999999998
    vertex 23.482361909794957 11.931851652578132 3.999999999999998
  endloop
endfacet
facet normal 6.822499554551365e-17 1.1131446641636434e-16 1.0
  outer loop
    vertex 28.999999999999996 18.499999999999996 3.9999999999999956
    vertex 23.482361909794957 11.931851652578132 3.999999999999998
    vertex 24.0 11.999999999999995 3.999999999999998
  endloop
endfacet
facet normal 6.822499554551365e-17 1.1131446641636434e-16 1.0
  outer loop
    vertex 28.999999999999996 18.499999999999996 3.9999999999999956
    vertex 24.0 11.999999999999995 3.999999999999998
    vertex 24.51763809020504 11.931851652578132 3.999999999999998
  endloop
endfacet
facet normal 6.822499554551365e-17 1.1131446641636434e-16 1.0
  outer loop
    vertex 28.999999999999996 18.499999999999996 3.9999999999999956
    vertex 24.51763809020504 11.931851652578132 3.999999999999998
    vertex 25.0 11.732050807568873 3.999999999999998
  endloop
endfacet
facet normal 6.822499554551365e-17 1.1131446641636434e-16 1.0
  outer loop
    vertex 28.999999999999996 18.499999999999996 3.9999999999999956
    vertex 25.0 11.732050807568873 3.999999999999998
    vertex 25.414213562373096 11.414213562373092 3.999999999999998
  endloop
endfacet
facet normal 6.822499554551365e-17 1.1131446641636434e-16 1.0
  outer loop
    vertex 28.999999999999996 18.499999999999996 3.9999999999999956
    vertex 25.414213562373096 11.414213562373092 3.999999999999998
    vertex 25.73205080756888 10.999999999999995 3.999999999999998
  endloop
endfacet
facet normal 6.822499554551365e-17 1.1131446641636434e-16 1.0
  outer loop
    vertex 28.999999999999996 18.499999999999996 3.9999999999999956
    vertex 25.73205080756888 10.999999999999995 3.999999999999998
    vertex 25.93185165257814 10.517638090205038 3.999999999999998
  endloop
endfacet
facet normal 6.822499554551365e-17 1.1131446641636434e-16 1.0
  outer loop
    vertex 28.999999999999996 18.499999999999996 3.9999999999999956
    vertex 25.93185165257814 10.517638090205038 3.999999999999998
    vertex 26.000000000000004 9.999999999999996 3.999999999999998
  endloop
endfacet
facet normal 6.822499554551365e-17 1.1131446641636434e-16 1.0
  outer loop
    vertex 28.999999999999996 18.499999999999996 3.9999999999999956
    vertex 26.000000000000004 9.999999999999996 3.999999999999998
    vertex 28.999999999999996 -0.5000000000000006 3.9999999999999996
  endloop
endfacet
facet normal -0.0 1.0 -0.0
  outer loop
    vertex -2.0000000000000018 -0.5000000000000006 7.0
    vertex 28.999999999999996 -0.5000000000000006 3.9999999999999996
    vertex -1.9999999999999996 -0.5000000000000006 3.9999999999999996
  endloop
endfacet
facet normal -0.0 1.0 -0.0
  outer loop
    vertex 28.999999999999996 -0.5000000000000006 3.9999999999999996
    vertex -2.0000000000000018 -0.5000000000000006 7.0
    vertex 28.999999999999996 -0.5000000000000006 7.0
  endloop
endfacet
endsolid tool1
